<svg id="paintbuilder-logo-anim" xmlns="http://www.w3.org/2000/svg" viewBox="0 0 435 257">
  <defs>
    <mask id="mask-paint">
      <path d="M51.17,132.42,63.84,108h0l1-1.89h.06c8.53-14.92,19.86-16.78,30.47-16.78l-6,11.66H99.63c6.42,0,11.07-1.91,12.84-5.83,1.56-3.44-.12-5.83-5-5.83H73.07l7.09-13.17H119c10.26,0,19.52,8.5,14.36,20.52C128.06,109,117,114.09,101.75,114.09H82.5L73,132.42Zm74.45,0L165.1,98.14l-20.89,34.28h21.84L195.2,76.09H169l-68.66,56.33Zm71.5,0,29.15-56.33H204.44l-29.15,56.33Zm31.07,0,14.14-27.33,2.95,27.33h21.83l10.13-19.57h0c1.57-3,5.19-10,7.63-14.74-6.14-1.57-12.86,2.44-17.11,7.94,4.12-8.09,13.5-13.37,21.87-13.37a61.57,61.57,0,0,1,10.61.93l-20.08,38.81H302l18.72-36.18c1.16,0,2.38.06,3.67.06,29.75,0,32-29.63,32-29.63s-10.62,11.25-47.27,7.73C294.5,73,284.19,74.22,277.24,78c-7.74,4.24-11.85,15.51-14.31,20.29l-2.59,5-3-27.22H235.51l-29.15,56.33Z" fill="#fff"/>
    </mask>
    <mask id="mask-builder">
      <path d="M192.65,141.06l-24.83,48H146l24.83-48Zm121.54,29.6H338l5.84-11.21H320l3.71-7.17h25.7l5.83-11.22H307.77l-24.83,48h49.42l5.84-11.21H310.48Zm83.31-29.6H362.39l-6,11.22h28.22c4.18,0,5.61,2,4.28,5-1.51,3.33-5.47,5-10.94,5h-4.55l5.14-9.93c-9,0-21.87,1.58-29.13,14.29h-.05l-.84,1.61h0L337.69,189h21.79l4.25-8.21h0l2.15-4.15,1.68-3.25h4.37L375.51,189h20.41l-5.09-16.28c8.85-1.55,15.36-6,18.89-14.22C414.12,148.3,406.23,141.06,397.5,141.06Zm-319,24.11a8.61,8.61,0,0,1,7,11.58C82.26,186.57,71.88,189,58.87,189H20.76l11.62-22.46h0c7.26-12.71,20.17-14.29,29.21-14.29L58.18,159H66c3.59,0,5.94-.66,6.89-3.29.73-2-.76-3.38-3.62-3.38H39.41l6-11.22h33.7c7.78,0,15,5.36,12.16,13.39C89.09,160.63,83.31,163.6,78.52,165.17ZM61.3,169.58H52.68l-2,3.9-2.25,4.35H55.8c5.46,0,8.36-.59,9.59-4C66.27,171.33,64.31,169.58,61.3,169.58Zm227.23-2.06c-5.4,14.2-18.48,21.52-35.07,21.52H177l24.83-48h21.78l-19,36.77h30.15c-4.63-.94-9.2-4.16-6.58-9.58l1.91-3.69h0l12.16-23.5h26C286.24,141.06,292.89,156,288.53,167.52Zm-27.77-15.24c-1.49,0-.27,0-2.78,0l-7.51,14.51h0l-3.4,6.57-2.32,4.49h3.17c10.34,0,16-3.79,19.59-11.88C271.48,157,266.26,152.28,260.76,152.28Zm-99.42-10.74h-20.8l-12.15,23.51c-2.58,5.21-4.26,8.13-6.43,10.48a8.88,8.88,0,0,1-6.66,3.12,5.49,5.49,0,0,1-4.18-2.06c-.87-1.15-1.32-3.72,0-6.88,1.12-2.62,14.19-28.17,14.19-28.17H105.68L91.42,169.36a37.54,37.54,0,0,0-2.18,5.51,12.14,12.14,0,0,0,.89,8.66c2.49,3.94,9.06,6.59,20.28,6.59,9.87,0,21.77-1.34,30.12-10.68A47.39,47.39,0,0,0,146,171.5Z" fill="#fff"/>
    </mask>
  </defs>
  <g id="arrows" opacity="0">
    <polygon points="366.32 97.81 344.7 97.81 344.7 110.59 357.57 110.59 348.59 119.57 357.63 128.62 366.32 119.92 366.32 132.21 379.11 132.21 379.11 110.59 379.11 97.81 366.32 97.81" fill="#ff1f3d"/>
    <polygon points="379.14 110.71 400.77 110.71 400.77 97.92 387.9 97.92 396.88 88.94 387.83 79.9 379.14 88.59 379.14 76.3 366.36 76.3 366.36 97.92 366.36 110.71 379.14 110.71" fill="#279af0"/>
    <polygon points="366.36 97.92 366.36 110.71 379.11 110.71 379.11 110.59 379.11 97.81 366.36 97.81 366.36 97.92" fill="#935d97"/>
  </g>
  <g id="text-lines">
    <g mask="url(#mask-builder)" id="builder-lines">
      <path d="M-31.5,169.5h467" fill="none" stroke="#ff1f3d" stroke-linecap="round" stroke-miterlimit="10" stroke-width="71" stroke-dasharray="467" stroke-dashoffset="467"></path>
      <path d="M-31.5,169.5h467" fill="none" stroke="#279AF0" stroke-linecap="round" stroke-miterlimit="10" stroke-width="71" stroke-dasharray="467" stroke-dashoffset="467"></path>
      <path d="M-31.5,169.5h467" fill="none" stroke="#000000" stroke-linecap="round" stroke-miterlimit="10" stroke-width="71" stroke-dasharray="467" stroke-dashoffset="467"></path>
    </g>
    <g mask="url(#mask-paint)" id="paint-lines">
      <path d="M-.5,101.5h435" fill="none" stroke="#ff1f3d" stroke-linecap="round" stroke-miterlimit="10" stroke-width="71" stroke-dasharray="435" stroke-dashoffset="435"></path>
      <path d="M-.5,101.5h435" fill="none" stroke="#279AF0" stroke-linecap="round" stroke-miterlimit="10" stroke-width="71" stroke-dasharray="435" stroke-dashoffset="435"></path>
      <path d="M-.5,101.5h435" fill="none" stroke="#000000" stroke-linecap="round" stroke-miterlimit="10" stroke-width="71" stroke-dasharray="435" stroke-dashoffset="435"></path>
    </g>
  </g>
  <style>
    #paintbuilder-logo-anim #paint-lines > path:nth-child(1) {
      -webkit-animation: drawIn 2s cubic-bezier(0.45, 0, 0.55, 1) 0s forwards;
              animation: drawIn 2s cubic-bezier(0.45, 0, 0.55, 1) 0s forwards;
    }
    #paintbuilder-logo-anim #paint-lines > path:nth-child(2) {
      -webkit-animation: drawIn 2s cubic-bezier(0.45, 0, 0.55, 1) 0.1s forwards;
              animation: drawIn 2s cubic-bezier(0.45, 0, 0.55, 1) 0.1s forwards;
    }
    #paintbuilder-logo-anim #paint-lines > path:nth-child(3) {
      -webkit-animation: drawIn 2s cubic-bezier(0.45, 0, 0.55, 1) 0.2s forwards;
              animation: drawIn 2s cubic-bezier(0.45, 0, 0.55, 1) 0.2s forwards;
    }

    #paintbuilder-logo-anim #builder-lines > path:nth-child(1) {
      -webkit-animation: drawIn 2s cubic-bezier(0.45, 0, 0.55, 1) 0.8s forwards;
              animation: drawIn 2s cubic-bezier(0.45, 0, 0.55, 1) 0.8s forwards;
    }
    #paintbuilder-logo-anim #builder-lines > path:nth-child(2) {
      -webkit-animation: drawIn 2s cubic-bezier(0.45, 0, 0.55, 1) 0.9s forwards;
              animation: drawIn 2s cubic-bezier(0.45, 0, 0.55, 1) 0.9s forwards;
    }
    #paintbuilder-logo-anim #builder-lines > path:nth-child(3) {
      -webkit-animation: drawIn 2s cubic-bezier(0.45, 0, 0.55, 1) 1s forwards;
              animation: drawIn 2s cubic-bezier(0.45, 0, 0.55, 1) 1s forwards;
    }

    #paintbuilder-logo-anim #arrows {
      -webkit-transform-origin: 372.5px 104.5px;
          -ms-transform-origin: 372.5px 104.5px;
              transform-origin: 372.5px 104.5px;
      opacity: 0;
      -webkit-transform: rotate(-450deg) scale(0.2, 0.2);
          -ms-transform: rotate(-450deg) scale(0.2, 0.2);
              transform: rotate(-450deg) scale(0.2, 0.2);
      -webkit-animation: rotateIn 1.5s cubic-bezier(0.34, 1.45, 0.64, 1) 2.1s forwards;
              animation: rotateIn 1.5s cubic-bezier(0.34, 1.45, 0.64, 1) 2.1s forwards;
    }

    @-webkit-keyframes drawIn {
      to {
        stroke-dashoffset: 0px;
      }
    }

    @keyframes drawIn {
      to {
        stroke-dashoffset: 0px;
      }
    }

    @-webkit-keyframes rotateIn {
      to {
        opacity: 1;
        -webkit-transform: rotate(0deg) scale(1, 1);
                transform: rotate(0deg) scale(1, 1);
      }
    }

    @keyframes rotateIn {
      to {
        opacity: 1;
        -webkit-transform: rotate(0deg) scale(1, 1);
                transform: rotate(0deg) scale(1, 1);
      }
    }
  </style>
</svg>
