<svg id="paintbuilder-logo-anim" xmlns="http://www.w3.org/2000/svg" viewBox="0 0 435 257">
  <defs>
    <clipPath id="mask-paint">
      <path d="M73,132.42l9.49-18.33h19.25c15.27,0,26.31-5,31.64-17.48,5.16-12-4.1-20.52-14.36-20.52H80.16L73.07,89.26h34.38c4.9,0,6.58,2.39,5,5.83-1.77,3.92-6.42,5.83-12.84,5.83H89.31l6-11.66c-10.61,0-21.94,1.86-30.47,16.78h-.06l-1,1.89h0L51.17,132.42Z" fill="#fff"/>
      <polygon points="125.62 132.42 165.1 98.14 144.21 132.42 166.05 132.42 195.2 76.09 190.49 76.09 178.53 76.09 169.03 76.09 100.37 132.42 125.62 132.42" fill="#fff"/>
      <polygon points="197.12 132.42 226.27 76.09 204.44 76.09 175.29 132.42 197.12 132.42" fill="#fff"/>
      <path d="M267.76,106.05c4.25-5.5,11-9.51,17.11-7.94-2.44,4.7-6.06,11.71-7.63,14.74h0l-10.13,19.57H245.28l-2.95-27.33-14.14,27.33H206.36l29.15-56.33h21.83l3,27.22Z" fill="#fff"/>
      <path d="M267.76,106.05c4.12-8.09,13.5-13.37,21.87-13.37a61.57,61.57,0,0,1,10.61.93l-20.08,38.81H302l18.72-36.18c1.16,0,2.38.06,3.67.06,29.75,0,32-29.63,32-29.63s-10.62,11.25-47.27,7.73C294.5,73,284.19,74.22,277.24,78c-7.74,4.24-11.85,15.51-14.31,20.29l-2.59,5C259.57,111.89,261.92,113.08,267.76,106.05Z" fill="#fff"/>
    </clipPath>
    <clipPath id="mask-builder">
      <path d="M91.3,154.45c2.86-8-4.38-13.39-12.16-13.39H45.44l-6,11.22H69.22c2.86,0,4.35,1.34,3.62,3.38-1,2.63-3.3,3.29-6.89,3.29H58.18l3.46-6.67c-9,0-22,1.58-29.21,14.29h0L20.76,189H58.87c13,0,23.39-2.47,26.61-12.29a8.61,8.61,0,0,0-7-11.58C83.31,163.6,89.09,160.63,91.3,154.45ZM65.39,173.79c-1.23,3.45-4.13,4-9.59,4H48.41l2.25-4.35,2-3.9H61.3C64.31,169.58,66.27,171.33,65.39,173.79Z" fill="#fff"/>
      <path d="M161.34,141.54h-20.8l-12.15,23.51c-2.58,5.21-4.26,8.13-6.43,10.48a8.88,8.88,0,0,1-6.66,3.12,5.49,5.49,0,0,1-4.18-2.06c-.87-1.15-1.32-3.72,0-6.88,1.12-2.62,14.19-28.17,14.19-28.17H105.68L91.42,169.36a37.54,37.54,0,0,0-2.18,5.51,12.14,12.14,0,0,0,.89,8.66c2.49,3.94,9.06,6.59,20.28,6.59,9.87,0,21.77-1.34,30.12-10.68A47.39,47.39,0,0,0,146,171.5Z" fill="#fff"/>
      <polygon points="170.82 141.06 145.99 189.04 167.82 189.04 192.65 141.06 170.82 141.06" fill="#fff"/>
      <path d="M234.69,177.83H204.54l19-36.77H201.79L177,189h54.35Z" fill="#fff"/>
      <path d="M268.2,141.06h-26L230,164.56l-1.91,3.69c-2.62,5.42,1.95,8.64,6.58,9.58C228.63,176,224,189,231.31,189h22.15c16.59,0,29.67-7.32,35.07-21.52C292.89,156,286.24,141.06,268.2,141.06ZM267.51,166c-3.6,8.09-9.25,11.88-19.59,11.88h-3.17l2.32-4.49,3.4-6.57L258,152.26c2.51,0,1.29,0,2.78,0C266.26,152.28,271.48,157,267.51,166Z" fill="#fff"/>
      <polygon points="314.19 170.66 338.02 170.66 343.86 159.45 319.99 159.45 323.7 152.28 349.4 152.28 355.23 141.06 326.36 141.06 311.73 141.06 307.77 141.06 282.94 189.04 294.69 189.04 301.53 189.04 332.36 189.04 338.2 177.83 310.48 177.83 314.19 170.66" fill="#fff"/>
      <path d="M397.5,141.06H362.39l-6,11.22h28.22c4.18,0,5.61,2,4.28,5-1.51,3.33-5.47,5-10.94,5h-4.55l5.14-9.93c-9,0-21.87,1.58-29.13,14.29h-.05l-.84,1.61h0L337.69,189h21.79l4.25-8.21h0l2.15-4.15,1.68-3.25h4.37L375.51,189h20.41l-5.09-16.28c8.85-1.55,15.36-6,18.89-14.22C414.12,148.3,406.23,141.06,397.5,141.06Z" fill="#fff"/>
    </clipPath>
  </defs>
  <g id="arrows" opacity="0">
    <polygon points="366.32 97.81 344.7 97.81 344.7 110.59 357.57 110.59 348.59 119.57 357.63 128.62 366.32 119.92 366.32 132.21 379.11 132.21 379.11 110.59 379.11 97.81 366.32 97.81" fill="#ff1f3d"/>
    <polygon points="379.14 110.71 400.77 110.71 400.77 97.92 387.9 97.92 396.88 88.94 387.83 79.9 379.14 88.59 379.14 76.3 366.36 76.3 366.36 97.92 366.36 110.71 379.14 110.71" fill="#279af0"/>
    <polygon points="366.36 97.92 366.36 110.71 379.11 110.71 379.11 110.59 379.11 97.81 366.36 97.81 366.36 97.92" fill="#935d97"/>
  </g>
  <g id="text-lines">
    <g clip-path="url(#mask-builder)" id="builder-lines">
      <path d="M-31.5,169.5h467" fill="none" stroke="#ff1f3d" stroke-linecap="round" stroke-miterlimit="10" stroke-width="71" stroke-dasharray="467" stroke-dashoffset="467"></path>
      <path d="M-31.5,169.5h467" fill="none" stroke="#279AF0" stroke-linecap="round" stroke-miterlimit="10" stroke-width="71" stroke-dasharray="467" stroke-dashoffset="467"></path>
      <path d="M-31.5,169.5h467" fill="none" stroke="#000000" stroke-linecap="round" stroke-miterlimit="10" stroke-width="71" stroke-dasharray="467" stroke-dashoffset="467"></path>
    </g>
    <g clip-path="url(#mask-paint)" id="paint-lines">
      <path d="M-.5,101.5h435" fill="none" stroke="#ff1f3d" stroke-linecap="round" stroke-miterlimit="10" stroke-width="71" stroke-dasharray="435" stroke-dashoffset="435"></path>
      <path d="M-.5,101.5h435" fill="none" stroke="#279AF0" stroke-linecap="round" stroke-miterlimit="10" stroke-width="71" stroke-dasharray="435" stroke-dashoffset="435"></path>
      <path d="M-.5,101.5h435" fill="none" stroke="#000000" stroke-linecap="round" stroke-miterlimit="10" stroke-width="71" stroke-dasharray="435" stroke-dashoffset="435"></path>
    </g>
  </g>
  <style>
    #paintbuilder-logo-anim #paint-lines > path:nth-child(1) {
      -webkit-animation: drawIn 2s cubic-bezier(0.45, 0, 0.55, 1) 0s forwards;
              animation: drawIn 2s cubic-bezier(0.45, 0, 0.55, 1) 0s forwards;
    }
    #paintbuilder-logo-anim #paint-lines > path:nth-child(2) {
      -webkit-animation: drawIn 2s cubic-bezier(0.45, 0, 0.55, 1) 0.1s forwards;
              animation: drawIn 2s cubic-bezier(0.45, 0, 0.55, 1) 0.1s forwards;
    }
    #paintbuilder-logo-anim #paint-lines > path:nth-child(3) {
      -webkit-animation: drawIn 2s cubic-bezier(0.45, 0, 0.55, 1) 0.2s forwards;
              animation: drawIn 2s cubic-bezier(0.45, 0, 0.55, 1) 0.2s forwards;
    }

    #paintbuilder-logo-anim #builder-lines > path:nth-child(1) {
      -webkit-animation: drawIn 2s cubic-bezier(0.45, 0, 0.55, 1) 0.8s forwards;
              animation: drawIn 2s cubic-bezier(0.45, 0, 0.55, 1) 0.8s forwards;
    }
    #paintbuilder-logo-anim #builder-lines > path:nth-child(2) {
      -webkit-animation: drawIn 2s cubic-bezier(0.45, 0, 0.55, 1) 0.9s forwards;
              animation: drawIn 2s cubic-bezier(0.45, 0, 0.55, 1) 0.9s forwards;
    }
    #paintbuilder-logo-anim #builder-lines > path:nth-child(3) {
      -webkit-animation: drawIn 2s cubic-bezier(0.45, 0, 0.55, 1) 1s forwards;
              animation: drawIn 2s cubic-bezier(0.45, 0, 0.55, 1) 1s forwards;
    }

    #paintbuilder-logo-anim #arrows {
      -webkit-transform-origin: 372.5px 104.5px;
          -ms-transform-origin: 372.5px 104.5px;
              transform-origin: 372.5px 104.5px;
      opacity: 0;
      -webkit-transform: rotate(-450deg) scale(0.2, 0.2);
          -ms-transform: rotate(-450deg) scale(0.2, 0.2);
              transform: rotate(-450deg) scale(0.2, 0.2);
      -webkit-animation: rotateIn 1.5s cubic-bezier(0.34, 1.45, 0.64, 1) 2.1s forwards;
              animation: rotateIn 1.5s cubic-bezier(0.34, 1.45, 0.64, 1) 2.1s forwards;
    }

    @-webkit-keyframes drawIn {
      to {
        stroke-dashoffset: 0px;
      }
    }

    @keyframes drawIn {
      to {
        stroke-dashoffset: 0px;
      }
    }

    @-webkit-keyframes rotateIn {
      to {
        opacity: 1;
        -webkit-transform: rotate(0deg) scale(1, 1);
                transform: rotate(0deg) scale(1, 1);
      }
    }

    @keyframes rotateIn {
      to {
        opacity: 1;
        -webkit-transform: rotate(0deg) scale(1, 1);
                transform: rotate(0deg) scale(1, 1);
      }
    }
  </style>
</svg>
