<svg version="1.1" id="lumos-logo-animation" xmlns="http://www.w3.org/2000/svg" xmlns:xlink="http://www.w3.org/1999/xlink"
	 x="0px" y="0px" viewBox="0 0 480 240" enable-background="new 0 0 480 240" xml:space="preserve">
<defs>
	<!--developed by Nazariy Kereya -->
	<linearGradient id="gradient_e1" gradientUnits="userSpaceOnUse" x1="326.7938" y1="161.7951" x2="326.7938" y2="159.0366">
		<stop  offset="0" style="stop-color:#C24C46"/>
		<stop  offset="1" style="stop-color:#D24B45"/>
	</linearGradient>
	<linearGradient id="gradient_e2" gradientUnits="userSpaceOnUse" x1="326.7938" y1="173.2429" x2="326.7938" y2="170.4843">
		<stop  offset="0" style="stop-color:#9D4E49"/>
		<stop  offset="1" style="stop-color:#AD4D48"/>
	</linearGradient>
	<linearGradient id="gradient_e3" gradientUnits="userSpaceOnUse" x1="326.7938" y1="184.6917" x2="326.7938" y2="181.9332">
		<stop  offset="0" style="stop-color:#7C504C"/>
		<stop  offset="1" style="stop-color:#8A4F4B"/>
	</linearGradient>
	<linearGradient id="gradient_lumos" gradientUnits="objectBoundingBox" x1="50%" y1="100%" x2="50%" y2="0%">
		<stop  offset="0" style="stop-color:#7C504C"/>
		<stop  offset="0.56" style="stop-color:#AB4D48"/>
		<stop  offset="1" style="stop-color:#D24B45"/>
	</linearGradient>
	<filter id="sofGlow" x="-50%" y="-50%" height="200%" width="200%">
	    <feMorphology operator="dilate" radius="10" in="SourceAlpha" result="thicken" />
	    <feGaussianBlur id="blur-deviation" in="thicken" stdDeviation="10" result="blurred" />
	    <feFlood flood-color="rgb(255,255,255)" result="glowColor" />
	    <feComposite in="glowColor" in2="blurred" operator="in" result="softGlow_colored" />
	    <feMerge>
	      <feMergeNode in="softGlow_colored"/>
	      <feMergeNode in="SourceGraphic"/>
	    </feMerge>
	</filter>
</defs>
<rect id="bg" fill="#333" y="-100" width="480" height="440" />
<circle id="light" opacity="0" fill="#fff" filter="url(#sofGlow)" cx="326.48" cy="102.03" r="48"/>
<g id="logo-dark" opacity="1">
	<g id="partners">
		<path id="partners-p" fill="#ffffff" d="M58.3,163.6c-0.3-0.9-0.7-1.7-1.3-2.5c-0.6-0.7-1.2-1.3-2-1.8c-0.5-0.3-1.1-0.6-1.7-0.7
			c-0.6-0.2-1.4-0.3-2.2-0.4c-0.9-0.1-1.9-0.1-3.1-0.1h-6.8v27.6h5.1v-10.5h1.6c1,0,1.8,0,2.6-0.1c0.7,0,1.4-0.1,2-0.2
			c0.6-0.1,1.1-0.2,1.5-0.4c0.4-0.2,0.8-0.4,1.2-0.6c0.8-0.5,1.4-1.1,1.9-1.8c0.5-0.7,1-1.6,1.2-2.5c0.3-0.9,0.4-1.9,0.4-3
			C58.7,165.5,58.6,164.5,58.3,163.6z M53.3,168.2c-0.2,0.4-0.5,0.8-0.9,1.1c-0.4,0.3-1,0.5-1.8,0.7c-0.8,0.2-1.7,0.2-2.9,0.2h-1.5
			v-7.3h1.7c1.3,0,2.4,0.1,3.2,0.3c0.8,0.2,1.4,0.6,1.8,1.1c0.4,0.5,0.6,1.3,0.6,2.3C53.6,167.2,53.5,167.8,53.3,168.2z"/>
		<path id="partners-a" fill="#ffffff" d="M104.7,158h-4l-11.5,27.6h5.6l3.1-7.1h9.8l3,7.1h5.6L104.7,158z M99.7,173.6l3-8.4l3,8.4H99.7z"/>
		<path id="partners-r1" fill="#ffffff" d="M162,175.5c1.7-0.4,3-1,4.1-1.8c1.1-0.8,1.9-1.8,2.4-2.9c0.5-1.1,0.8-2.4,0.8-3.9c0-1.4-0.3-2.7-0.7-3.9
			c-0.5-1.2-1.2-2.1-2.2-3c-0.6-0.5-1.2-0.9-1.9-1.2c-0.7-0.3-1.5-0.5-2.4-0.6c-0.9-0.1-2-0.2-3.2-0.2h-8v27.6h5.1v-10.6l7.3,10.6
			h6.3L162,175.5z M158.4,171.2h-2.5v-8.3h2.3c1.2,0,2.2,0.1,3,0.3c0.8,0.2,1.4,0.5,1.8,0.8c0.4,0.4,0.7,0.8,0.9,1.3
			c0.2,0.5,0.2,1.1,0.2,1.7c0,1-0.2,1.8-0.6,2.4c-0.4,0.6-1,1.1-1.8,1.4C160.8,171.1,159.7,171.2,158.4,171.2z"/>
		<polygon id="partners-t" fill="#ffffff" points="217.6,162.9 217.6,158 202.2,158 202.2,162.9 207.3,162.9 207.3,185.7 212.5,185.7 212.5,162.9 
			217.6,162.9 	"/>
		<polygon id="partners-n" fill="#ffffff" points="275.4,185.7 275.4,158 270.3,158 270.3,178.2 258.8,158 253,158 253,185.7 258.1,185.7 
			258.1,165.6 269.7,185.7 275.4,185.7 	"/>
		<path id="partners-r2" fill="#ffffff" d="M388.6,175.5c1.7-0.4,3-1,4.1-1.8c1.1-0.8,1.9-1.8,2.4-2.9c0.5-1.1,0.8-2.4,0.8-3.9
			c0-1.4-0.3-2.7-0.7-3.9c-0.5-1.2-1.2-2.1-2.2-3c-0.6-0.5-1.2-0.9-1.9-1.2c-0.7-0.3-1.5-0.5-2.4-0.6c-0.9-0.1-2-0.2-3.2-0.2h-8v27.6
			h5.1v-10.6l7.3,10.6h6.3L388.6,175.5z M385,171.2h-2.5v-8.3h2.3c1.2,0,2.2,0.1,3,0.3c0.8,0.2,1.4,0.5,1.8,0.8
			c0.4,0.4,0.7,0.8,0.9,1.3c0.2,0.5,0.2,1.1,0.2,1.7c0,1-0.2,1.8-0.6,2.4c-0.4,0.6-1,1.1-1.8,1.4C387.4,171.1,386.3,171.2,385,171.2z
			"/>
		<path id="partners-s" fill="#ffffff" d="M438.1,177.3c0-0.9-0.1-1.8-0.3-2.6c-0.2-0.8-0.6-1.5-1.1-2.2c-0.5-0.7-1.3-1.3-2.2-1.9
			c-0.9-0.6-2.1-1.1-3.5-1.6c-0.6-0.2-1.2-0.4-1.5-0.6c-0.4-0.1-0.7-0.2-0.8-0.3c-0.2-0.1-0.3-0.1-0.4-0.2c-0.1-0.1-0.2-0.1-0.3-0.2
			c-0.5-0.3-0.9-0.7-1.1-1.1c-0.3-0.4-0.4-0.9-0.4-1.4c0-0.6,0.1-1,0.4-1.5c0.2-0.4,0.6-0.7,1-1c0.4-0.2,0.9-0.4,1.5-0.4
			c0.9,0,1.5,0.3,2,0.8c0.5,0.5,0.8,1.2,0.9,2.2h5.3c-0.1-1.2-0.3-2.3-0.8-3.3c-0.4-1-1-1.8-1.8-2.5c-0.7-0.7-1.6-1.2-2.5-1.6
			c-1-0.4-2-0.5-3.1-0.5c-1.1,0-2.2,0.2-3.1,0.6c-1,0.4-1.8,1-2.6,1.7c-0.7,0.7-1.3,1.5-1.7,2.5c-0.4,0.9-0.6,2-0.6,3.1
			c0,1.7,0.5,3.3,1.5,4.5c1,1.3,2.4,2.3,4.3,3c0.9,0.3,1.6,0.6,2.2,0.8c0.5,0.2,1,0.4,1.3,0.5c0.3,0.1,0.6,0.3,0.7,0.4
			c0.2,0.1,0.4,0.2,0.6,0.4c0.4,0.3,0.7,0.7,0.9,1.2c0.2,0.5,0.3,1,0.3,1.6c0,0.7-0.2,1.3-0.5,1.8c-0.3,0.5-0.7,0.9-1.3,1.2
			c-0.6,0.3-1.2,0.4-1.9,0.4c-1.1,0-2-0.3-2.6-0.8c-0.6-0.6-1-1.4-1.1-2.6h-5.3c0.1,1.3,0.4,2.5,0.9,3.5c0.5,1,1.2,1.9,2,2.6
			c0.8,0.7,1.7,1.3,2.8,1.7c1.1,0.4,2.2,0.6,3.4,0.6c1.3,0,2.4-0.2,3.5-0.7c1.1-0.4,2-1.1,2.8-1.9c0.8-0.8,1.4-1.7,1.9-2.8
			C437.9,179.7,438.1,178.6,438.1,177.3L438.1,177.3z"/>
		<g id="partners-e">
			<polygon id="rect-e1" fill="#ffffff" points="346.4,158 307.2,158 307.2,162.8 346.4,162.8 
				346.4,158 	"/>
			<polygon id="rect-e2" fill="#ffffff" points="346.4,169.5 307.2,169.5 307.2,174.2 
				346.4,174.2 346.4,169.5 	"/>
			<rect id="rect-e3" x="307.2" y="180.9" fill="#ffffff" width="39.1" height="4.8"/>
		</g>
	</g>
	<g id="lumos">
		<polygon id="later-l" fill="#ffffff" points="85.7,147.6 85.7,131.4 57.9,131.4 57.9,56.4 41,56.4 41,147.6 	"/>
		<path id="later-u" fill="#ffffff" d="M155.6,114.2V56.4h-16.9v57.7c0,4.7-0.6,8.5-1.7,11.2c-1.1,2.7-2.7,4.7-4.8,5.8
			c-2.1,1.2-4.5,1.7-7.3,1.7c-2.9,0-5.4-0.5-7.4-1.7c-2.1-1.2-3.7-3.1-4.8-5.9c-1.1-2.7-1.7-6.5-1.7-11.2V56.4H94v57.7
			c0,5.8,0.8,10.9,2.3,15.3c1.5,4.4,3.6,8,6.4,11c2.7,2.9,6,5.1,9.7,6.6c3.7,1.5,7.9,2.2,12.3,2.2c4.5,0,8.7-0.7,12.4-2.2
			c3.8-1.5,7-3.7,9.8-6.6c2.7-2.9,4.9-6.6,6.4-10.9C154.8,125.1,155.5,120,155.6,114.2L155.6,114.2z"/>
		<polygon id="later-m" fill="#ffffff" points="268.2,147.6 268.2,56.4 245,56.4 220.7,125.5 196.1,56.4 173,56.4 
			173,147.6 189.9,147.6 189.9,79.3 213.7,147.6 227.5,147.6 251.3,79.3 251.3,147.6 268.2,147.6 	"/>
		<path id="later-o" fill="#ffffff" d="M357.3,102.2c0,4.4-0.8,8.5-2.3,12.2c-1.5,3.7-3.6,7-6.3,9.7c-2.7,2.8-5.9,4.9-9.5,6.4
			c-3.6,1.5-7.6,2.3-12,2.3c-4.3,0-8.4-0.8-12.1-2.4c-3.7-1.6-7-3.8-9.8-6.6c-2.8-2.8-5-6.1-6.6-9.8c-1.6-3.7-2.4-7.8-2.4-12.1
			c0-4.4,0.8-8.5,2.4-12.3c1.5-3.8,3.7-7,6.5-9.8c2.8-2.8,6-5,9.8-6.5c3.7-1.5,7.8-2.3,12.2-2.3c4.3,0,8.2,0.8,11.8,2.4
			c3.6,1.6,6.8,3.8,9.5,6.6c2.7,2.8,4.9,6.1,6.4,9.9C356.5,93.7,357.2,97.8,357.3,102.2L357.3,102.2z M374.3,102
			c0-5.2-0.8-10.2-2.4-14.9c-1.6-4.7-3.8-9-6.6-12.9c-2.9-3.9-6.2-7.3-10.1-10.2c-3.9-2.9-8.2-5.1-12.9-6.7
			c-4.7-1.6-9.6-2.4-14.9-2.4c-5.4,0-10.6,0.8-15.4,2.3c-4.8,1.6-9.3,3.8-13.2,6.6c-4,2.8-7.4,6.2-10.3,10.1c-2.9,3.9-5.2,8.2-6.7,13
			c-1.6,4.7-2.4,9.8-2.4,15.2c0,5.3,0.8,10.3,2.4,15c1.6,4.7,3.8,9,6.8,13c2.9,3.9,6.4,7.3,10.3,10.2c4,2.9,8.4,5.1,13.2,6.6
			c4.8,1.6,9.9,2.4,15.3,2.4c5.3,0,10.3-0.8,15.1-2.4c4.7-1.5,9-3.7,12.9-6.6c3.9-2.8,7.3-6.2,10.1-10.1c2.8-3.9,5-8.2,6.6-13
			C373.5,112.4,374.3,107.3,374.3,102z"/>
		<path id="later-s" fill="#ffffff" d="M440,120c0-3.1-0.3-5.9-1.1-8.5c-0.8-2.6-2-5-3.8-7.2c-1.8-2.2-4.2-4.3-7.2-6.2
			c-3.1-1.9-6.9-3.7-11.5-5.4c-2.1-0.8-3.8-1.4-5.1-1.9c-1.2-0.5-2.2-0.8-2.8-1.1c-0.6-0.2-1.1-0.5-1.4-0.6c-0.3-0.2-0.6-0.3-0.9-0.5
			c-1.7-1-2.9-2.3-3.8-3.7c-0.8-1.4-1.3-2.9-1.3-4.6c0-1.8,0.4-3.4,1.2-4.8c0.8-1.4,1.9-2.5,3.3-3.2c1.4-0.8,3-1.2,4.9-1.2
			c2.9,0,5.1,0.8,6.8,2.5c1.6,1.7,2.6,4,2.9,7.1h17.5c-0.2-4-1.1-7.6-2.5-10.8c-1.4-3.2-3.4-5.9-5.8-8.2c-2.4-2.2-5.2-3.9-8.4-5.1
			c-3.2-1.2-6.6-1.8-10.3-1.8c-3.7,0-7.1,0.7-10.3,2c-3.2,1.3-6,3.2-8.4,5.5c-2.4,2.3-4.3,5.1-5.7,8.2c-1.4,3.1-2.1,6.5-2.1,10.1
			c0,5.8,1.7,10.8,4.9,15c3.2,4.2,8,7.5,14.1,9.8c3,1.1,5.4,2,7.2,2.7c1.8,0.7,3.2,1.3,4.2,1.7c1,0.5,1.8,0.9,2.5,1.3
			c0.6,0.4,1.3,0.8,1.9,1.3c1.4,1.1,2.4,2.4,3.1,4c0.7,1.6,1.1,3.4,1.1,5.2c0,2.2-0.5,4.1-1.6,5.8c-1,1.7-2.5,3-4.3,3.9
			c-1.8,0.9-4,1.4-6.4,1.4c-3.8,0-6.7-0.9-8.7-2.8c-2-1.9-3.2-4.7-3.6-8.6H381c0.4,4.3,1.4,8.2,3.1,11.6c1.6,3.4,3.8,6.3,6.5,8.7
			c2.7,2.4,5.7,4.2,9.2,5.4c3.5,1.3,7.2,1.9,11.2,1.9c4.1,0,8-0.8,11.5-2.2c3.5-1.5,6.6-3.5,9.2-6.2c2.7-2.6,4.7-5.7,6.2-9.3
			C439.3,128,440,124.1,440,120L440,120z"/>
	</g>
</g>
<g id="logo-original" opacity="0">
	<g>
		<path id="partners-p" d="M58.3,163.6c-0.3-0.9-0.7-1.7-1.3-2.5c-0.6-0.7-1.2-1.3-2-1.8c-0.5-0.3-1.1-0.6-1.7-0.7
			c-0.6-0.2-1.4-0.3-2.2-0.4c-0.9-0.1-1.9-0.1-3.1-0.1h-6.8v27.6h5.1v-10.5h1.6c1,0,1.8,0,2.6-0.1c0.7,0,1.4-0.1,2-0.2
			c0.6-0.1,1.1-0.2,1.5-0.4c0.4-0.2,0.8-0.4,1.2-0.6c0.8-0.5,1.4-1.1,1.9-1.8c0.5-0.7,1-1.6,1.2-2.5c0.3-0.9,0.4-1.9,0.4-3
			C58.7,165.5,58.6,164.5,58.3,163.6z M53.3,168.2c-0.2,0.4-0.5,0.8-0.9,1.1c-0.4,0.3-1,0.5-1.8,0.7c-0.8,0.2-1.7,0.2-2.9,0.2h-1.5
			v-7.3h1.7c1.3,0,2.4,0.1,3.2,0.3c0.8,0.2,1.4,0.6,1.8,1.1c0.4,0.5,0.6,1.3,0.6,2.3C53.6,167.2,53.5,167.8,53.3,168.2z"/>
		<path id="partners-a" d="M104.7,158h-4l-11.5,27.6h5.6l3.1-7.1h9.8l3,7.1h5.6L104.7,158z M99.7,173.6l3-8.4l3,8.4H99.7z"/>
		<path id="partners-r1" d="M162,175.5c1.7-0.4,3-1,4.1-1.8c1.1-0.8,1.9-1.8,2.4-2.9c0.5-1.1,0.8-2.4,0.8-3.9c0-1.4-0.3-2.7-0.7-3.9
			c-0.5-1.2-1.2-2.1-2.2-3c-0.6-0.5-1.2-0.9-1.9-1.2c-0.7-0.3-1.5-0.5-2.4-0.6c-0.9-0.1-2-0.2-3.2-0.2h-8v27.6h5.1v-10.6l7.3,10.6
			h6.3L162,175.5z M158.4,171.2h-2.5v-8.3h2.3c1.2,0,2.2,0.1,3,0.3c0.8,0.2,1.4,0.5,1.8,0.8c0.4,0.4,0.7,0.8,0.9,1.3
			c0.2,0.5,0.2,1.1,0.2,1.7c0,1-0.2,1.8-0.6,2.4c-0.4,0.6-1,1.1-1.8,1.4C160.8,171.1,159.7,171.2,158.4,171.2z"/>
		<polygon id="partners-t" points="217.6,162.9 217.6,158 202.2,158 202.2,162.9 207.3,162.9 207.3,185.7 212.5,185.7 212.5,162.9 
			217.6,162.9 	"/>
		<polygon id="partners-n" points="275.4,185.7 275.4,158 270.3,158 270.3,178.2 258.8,158 253,158 253,185.7 258.1,185.7 
			258.1,165.6 269.7,185.7 275.4,185.7 	"/>
		<g id="partners-e">
			<polygon id="rect-e1" fill-rule="evenodd" clip-rule="evenodd" fill="url(#gradient_e1)" points="346.4,158 307.2,158 307.2,162.8 346.4,162.8 
				346.4,158 		"/>
			<polygon id="rect-e2" fill-rule="evenodd" clip-rule="evenodd" fill="url(#gradient_e2)" points="346.4,169.5 307.2,169.5 307.2,174.2 
				346.4,174.2 346.4,169.5 		"/>
			<rect id="rect-e3" x="307.2" y="180.9" fill-rule="evenodd" clip-rule="evenodd" fill="url(#gradient_e3)" width="39.1" height="4.8"/>
		</g>
		<path id="partners-r2" d="M388.6,175.5c1.7-0.4,3-1,4.1-1.8c1.1-0.8,1.9-1.8,2.4-2.9c0.5-1.1,0.8-2.4,0.8-3.9
			c0-1.4-0.3-2.7-0.7-3.9c-0.5-1.2-1.2-2.1-2.2-3c-0.6-0.5-1.2-0.9-1.9-1.2c-0.7-0.3-1.5-0.5-2.4-0.6c-0.9-0.1-2-0.2-3.2-0.2h-8v27.6
			h5.1v-10.6l7.3,10.6h6.3L388.6,175.5z M385,171.2h-2.5v-8.3h2.3c1.2,0,2.2,0.1,3,0.3c0.8,0.2,1.4,0.5,1.8,0.8
			c0.4,0.4,0.7,0.8,0.9,1.3c0.2,0.5,0.2,1.1,0.2,1.7c0,1-0.2,1.8-0.6,2.4c-0.4,0.6-1,1.1-1.8,1.4C387.4,171.1,386.3,171.2,385,171.2z
			"/>
		<path id="partners-s" d="M438.1,177.3c0-0.9-0.1-1.8-0.3-2.6c-0.2-0.8-0.6-1.5-1.1-2.2c-0.5-0.7-1.3-1.3-2.2-1.9
			c-0.9-0.6-2.1-1.1-3.5-1.6c-0.6-0.2-1.2-0.4-1.5-0.6c-0.4-0.1-0.7-0.2-0.8-0.3c-0.2-0.1-0.3-0.1-0.4-0.2c-0.1-0.1-0.2-0.1-0.3-0.2
			c-0.5-0.3-0.9-0.7-1.1-1.1c-0.3-0.4-0.4-0.9-0.4-1.4c0-0.6,0.1-1,0.4-1.5c0.2-0.4,0.6-0.7,1-1c0.4-0.2,0.9-0.4,1.5-0.4
			c0.9,0,1.5,0.3,2,0.8c0.5,0.5,0.8,1.2,0.9,2.2h5.3c-0.1-1.2-0.3-2.3-0.8-3.3c-0.4-1-1-1.8-1.8-2.5c-0.7-0.7-1.6-1.2-2.5-1.6
			c-1-0.4-2-0.5-3.1-0.5c-1.1,0-2.2,0.2-3.1,0.6c-1,0.4-1.8,1-2.6,1.7c-0.7,0.7-1.3,1.5-1.7,2.5c-0.4,0.9-0.6,2-0.6,3.1
			c0,1.7,0.5,3.3,1.5,4.5c1,1.3,2.4,2.3,4.3,3c0.9,0.3,1.6,0.6,2.2,0.8c0.5,0.2,1,0.4,1.3,0.5c0.3,0.1,0.6,0.3,0.7,0.4
			c0.2,0.1,0.4,0.2,0.6,0.4c0.4,0.3,0.7,0.7,0.9,1.2c0.2,0.5,0.3,1,0.3,1.6c0,0.7-0.2,1.3-0.5,1.8c-0.3,0.5-0.7,0.9-1.3,1.2
			c-0.6,0.3-1.2,0.4-1.9,0.4c-1.1,0-2-0.3-2.6-0.8c-0.6-0.6-1-1.4-1.1-2.6h-5.3c0.1,1.3,0.4,2.5,0.9,3.5c0.5,1,1.2,1.9,2,2.6
			c0.8,0.7,1.7,1.3,2.8,1.7c1.1,0.4,2.2,0.6,3.4,0.6c1.3,0,2.4-0.2,3.5-0.7c1.1-0.4,2-1.1,2.8-1.9c0.8-0.8,1.4-1.7,1.9-2.8
			C437.9,179.7,438.1,178.6,438.1,177.3L438.1,177.3z"/>
	</g>
	<g>
		<polygon id="later-l" fill="url(#gradient_lumos)" points="85.7,147.6 85.7,131.4 57.9,131.4 57.9,56.4 41,56.4 41,147.6 	"/>
		<path id="later-u" fill="url(#gradient_lumos)" d="M155.6,114.2V56.4h-16.9v57.7c0,4.7-0.6,8.5-1.7,11.2c-1.1,2.7-2.7,4.7-4.8,5.8
			c-2.1,1.2-4.5,1.7-7.3,1.7c-2.9,0-5.4-0.5-7.4-1.7c-2.1-1.2-3.7-3.1-4.8-5.9c-1.1-2.7-1.7-6.5-1.7-11.2V56.4H94v57.7
			c0,5.8,0.8,10.9,2.3,15.3c1.5,4.4,3.6,8,6.4,11c2.7,2.9,6,5.1,9.7,6.6c3.7,1.5,7.9,2.2,12.3,2.2c4.5,0,8.7-0.7,12.4-2.2
			c3.8-1.5,7-3.7,9.8-6.6c2.7-2.9,4.9-6.6,6.4-10.9C154.8,125.1,155.5,120,155.6,114.2L155.6,114.2z"/>
		<polygon id="later-m" fill="url(#gradient_lumos)" points="268.2,147.6 268.2,56.4 245,56.4 220.7,125.5 196.1,56.4 173,56.4 
			173,147.6 189.9,147.6 189.9,79.3 213.7,147.6 227.5,147.6 251.3,79.3 251.3,147.6 268.2,147.6 	"/>
		<path id="later-o" d="M357.3,102.2c0,4.4-0.8,8.5-2.3,12.2c-1.5,3.7-3.6,7-6.3,9.7c-2.7,2.8-5.9,4.9-9.5,6.4
			c-3.6,1.5-7.6,2.3-12,2.3c-4.3,0-8.4-0.8-12.1-2.4c-3.7-1.6-7-3.8-9.8-6.6c-2.8-2.8-5-6.1-6.6-9.8c-1.6-3.7-2.4-7.8-2.4-12.1
			c0-4.4,0.8-8.5,2.4-12.3c1.5-3.8,3.7-7,6.5-9.8c2.8-2.8,6-5,9.8-6.5c3.7-1.5,7.8-2.3,12.2-2.3c4.3,0,8.2,0.8,11.8,2.4
			c3.6,1.6,6.8,3.8,9.5,6.6c2.7,2.8,4.9,6.1,6.4,9.9C356.5,93.7,357.2,97.8,357.3,102.2L357.3,102.2z M374.3,102
			c0-5.2-0.8-10.2-2.4-14.9c-1.6-4.7-3.8-9-6.6-12.9c-2.9-3.9-6.2-7.3-10.1-10.2c-3.9-2.9-8.2-5.1-12.9-6.7
			c-4.7-1.6-9.6-2.4-14.9-2.4c-5.4,0-10.6,0.8-15.4,2.3c-4.8,1.6-9.3,3.8-13.2,6.6c-4,2.8-7.4,6.2-10.3,10.1c-2.9,3.9-5.2,8.2-6.7,13
			c-1.6,4.7-2.4,9.8-2.4,15.2c0,5.3,0.8,10.3,2.4,15c1.6,4.7,3.8,9,6.8,13c2.9,3.9,6.4,7.3,10.3,10.2c4,2.9,8.4,5.1,13.2,6.6
			c4.8,1.6,9.9,2.4,15.3,2.4c5.3,0,10.3-0.8,15.1-2.4c4.7-1.5,9-3.7,12.9-6.6c3.9-2.8,7.3-6.2,10.1-10.1c2.8-3.9,5-8.2,6.6-13
			C373.5,112.4,374.3,107.3,374.3,102z"/>
		<path id="later-s" fill="url(#gradient_lumos)" d="M440,120c0-3.1-0.3-5.9-1.1-8.5c-0.8-2.6-2-5-3.8-7.2c-1.8-2.2-4.2-4.3-7.2-6.2
			c-3.1-1.9-6.9-3.7-11.5-5.4c-2.1-0.8-3.8-1.4-5.1-1.9c-1.2-0.5-2.2-0.8-2.8-1.1c-0.6-0.2-1.1-0.5-1.4-0.6c-0.3-0.2-0.6-0.3-0.9-0.5
			c-1.7-1-2.9-2.3-3.8-3.7c-0.8-1.4-1.3-2.9-1.3-4.6c0-1.8,0.4-3.4,1.2-4.8c0.8-1.4,1.9-2.5,3.3-3.2c1.4-0.8,3-1.2,4.9-1.2
			c2.9,0,5.1,0.8,6.8,2.5c1.6,1.7,2.6,4,2.9,7.1h17.5c-0.2-4-1.1-7.6-2.5-10.8c-1.4-3.2-3.4-5.9-5.8-8.2c-2.4-2.2-5.2-3.9-8.4-5.1
			c-3.2-1.2-6.6-1.8-10.3-1.8c-3.7,0-7.1,0.7-10.3,2c-3.2,1.3-6,3.2-8.4,5.5c-2.4,2.3-4.3,5.1-5.7,8.2c-1.4,3.1-2.1,6.5-2.1,10.1
			c0,5.8,1.7,10.8,4.9,15c3.2,4.2,8,7.5,14.1,9.8c3,1.1,5.4,2,7.2,2.7c1.8,0.7,3.2,1.3,4.2,1.7c1,0.5,1.8,0.9,2.5,1.3
			c0.6,0.4,1.3,0.8,1.9,1.3c1.4,1.1,2.4,2.4,3.1,4c0.7,1.6,1.1,3.4,1.1,5.2c0,2.2-0.5,4.1-1.6,5.8c-1,1.7-2.5,3-4.3,3.9
			c-1.8,0.9-4,1.4-6.4,1.4c-3.8,0-6.7-0.9-8.7-2.8c-2-1.9-3.2-4.7-3.6-8.6H381c0.4,4.3,1.4,8.2,3.1,11.6c1.6,3.4,3.8,6.3,6.5,8.7
			c2.7,2.4,5.7,4.2,9.2,5.4c3.5,1.3,7.2,1.9,11.2,1.9c4.1,0,8-0.8,11.5-2.2c3.5-1.5,6.6-3.5,9.2-6.2c2.7-2.6,4.7-5.7,6.2-9.3
			C439.3,128,440,124.1,440,120L440,120z"/>
	</g>
</g>
<style>
	#partners #partners-e #rect-e1 {
		opacity: 0;
		-webkit-transform: translate(-20px, 0px);
		    -ms-transform: translate(-20px, 0px);
		        transform: translate(-20px, 0px);
		-webkit-animation: moveEpart 0.5s ease-in-out 0.2s forwards;
		        animation: moveEpart 0.5s ease-in-out 0.2s forwards;
	}
	#partners #partners-e #rect-e2 {
		opacity: 0;
		-webkit-transform: translate(-20px, 0px);
		    -ms-transform: translate(-20px, 0px);
		        transform: translate(-20px, 0px);
		-webkit-animation: moveEpart 0.5s ease-in-out 0.1s forwards;
		        animation: moveEpart 0.5s ease-in-out 0.1s forwards;
	}
	#partners #partners-e #rect-e3 {
		opacity: 0;
		-webkit-transform: translate(-20px, 0px);
		    -ms-transform: translate(-20px, 0px);
		        transform: translate(-20px, 0px);
		-webkit-animation: moveEpart 0.5s ease-in-out 0s forwards;
		        animation: moveEpart 0.5s ease-in-out 0s forwards;
	}
	#partners #partners-e {
		-webkit-transform-origin: 326.5px 185.07px;
		    -ms-transform-origin: 326.5px 185.07px;
		        transform-origin: 326.5px 185.07px;
		-webkit-transform: scale(1, 1);
		    -ms-transform: scale(1, 1);
		        transform: scale(1, 1);
		-webkit-animation: bounseE 2s ease-in-out 0.9s forwards;
		        animation: bounseE 2s ease-in-out 0.9s forwards;
	}

	#partners #partners-n {
		opacity: 0;
		-webkit-transform: translate(20px, 0px);
		    -ms-transform: translate(20px, 0px);
		        transform: translate(20px, 0px);
		-webkit-animation: moveEpart 0.5s ease-in-out 0.9s forwards;
		        animation: moveEpart 0.5s ease-in-out 0.9s forwards;
	}
	#partners #partners-r2 {
		opacity: 0;
		-webkit-transform: translate(-20px, 0px);
		    -ms-transform: translate(-20px, 0px);
		        transform: translate(-20px, 0px);
		-webkit-animation: moveEpart 0.5s ease-in-out 0.9s forwards;
		        animation: moveEpart 0.5s ease-in-out 0.9s forwards;
	}
	#partners #partners-t {
		opacity: 0;
		-webkit-transform: translate(40px, 0px);
		    -ms-transform: translate(40px, 0px);
		        transform: translate(40px, 0px);
		-webkit-animation: moveEpart 0.6s ease-in-out 0.9s forwards;
		        animation: moveEpart 0.6s ease-in-out 0.9s forwards;
	}
	#partners #partners-s {
		opacity: 0;
		-webkit-transform: translate(-40px, 0px);
		    -ms-transform: translate(-40px, 0px);
		        transform: translate(-40px, 0px);
		-webkit-animation: moveEpart 0.6s ease-in-out 0.9s forwards;
		        animation: moveEpart 0.6s ease-in-out 0.9s forwards;
	}
	#partners #partners-r1 {
		opacity: 0;
		-webkit-transform: translate(60px, 0px);
		    -ms-transform: translate(60px, 0px);
		        transform: translate(60px, 0px);
		-webkit-animation: moveEpart 0.7s ease-in-out 0.9s forwards;
		        animation: moveEpart 0.7s ease-in-out 0.9s forwards;
	}
	#partners #partners-a {
		opacity: 0;
		-webkit-transform: translate(80px, 0px);
		    -ms-transform: translate(80px, 0px);
		        transform: translate(80px, 0px);
		-webkit-animation: moveEpart 0.8s ease-in-out 0.9s forwards;
		        animation: moveEpart 0.8s ease-in-out 0.9s forwards;
	}
	#partners #partners-p {
		opacity: 0;
		-webkit-transform: translate(100px, 0px);
		    -ms-transform: translate(100px, 0px);
		        transform: translate(100px, 0px);
		-webkit-animation: moveEpart 0.9s ease-in-out 0.9s forwards;
		        animation: moveEpart 0.9s ease-in-out 0.9s forwards;
	}


	#lumos #later-o {
		opacity: 0;
		-webkit-transform-origin: 326.48px 102.03px;
		    -ms-transform-origin: 326.48px 102.03px;
		        transform-origin: 326.48px 102.03px;
		-webkit-transform: translate(0px, -75px) scale(0.5, 0.5);
		    -ms-transform: translate(0px, -75px) scale(0.5, 0.5);
		        transform: translate(0px, -75px) scale(0.5, 0.5);
		-webkit-animation: dropBol 3s ease-in-out 0.5s forwards, showIn 0.5s ease-in 0.5s forwards;
		        animation: dropBol 3s ease-in-out 0.5s forwards, showIn 0.5s ease-in 0.5s forwards;
	}
	#lumos #later-l {
		opacity: 0;
		-webkit-transform-origin: 63.35px 102.03px;
		    -ms-transform-origin: 63.35px 102.03px;
		        transform-origin: 63.35px 102.03px;
		-webkit-transform: scale(0.5, 0.5);
		    -ms-transform: scale(0.5, 0.5);
		        transform: scale(0.5, 0.5);
		-webkit-animation: scaleIn 0.45s ease-in-out 2s forwards, showIn 0.2s ease-in-out 2s forwards;
		        animation: scaleIn 0.45s ease-in-out 2s forwards, showIn 0.2s ease-in-out 2s forwards;
	}
	#lumos #later-u {
		opacity: 0;
		-webkit-transform-origin: 124.78px 102.03px;
		    -ms-transform-origin: 124.78px 102.03px;
		        transform-origin: 124.78px 102.03px;
		-webkit-transform: scale(0.5, 0.5);
		    -ms-transform: scale(0.5, 0.5);
		        transform: scale(0.5, 0.5);
		-webkit-animation: scaleIn 0.45s ease-in-out 2s forwards, showIn 0.2s ease-in-out 2s forwards;
		        animation: scaleIn 0.45s ease-in-out 2s forwards, showIn 0.2s ease-in-out 2s forwards;
	}
	#lumos #later-m {
		opacity: 0;
		-webkit-transform-origin: 220.58px 102.03px;
		    -ms-transform-origin: 220.58px 102.03px;
		        transform-origin: 220.58px 102.03px;
		-webkit-transform: scale(0.5, 0.5);
		    -ms-transform: scale(0.5, 0.5);
		        transform: scale(0.5, 0.5);
		-webkit-animation: scaleIn 0.45s ease-in-out 2s forwards, showIn 0.2s ease-in-out 2s forwards;
		        animation: scaleIn 0.45s ease-in-out 2s forwards, showIn 0.2s ease-in-out 2s forwards;
	}
	#lumos #later-s {
		opacity: 0;
		-webkit-transform-origin: 410.5px 102.03px;
		    -ms-transform-origin: 410.5px 102.03px;
		        transform-origin: 410.5px 102.03px;
		-webkit-transform: scale(0.5, 0.5);
		    -ms-transform: scale(0.5, 0.5);
		        transform: scale(0.5, 0.5);
		-webkit-animation: scaleIn 0.45s ease-in-out 2s forwards, showIn 0.2s ease-in-out 2s forwards;
		        animation: scaleIn 0.45s ease-in-out 2s forwards, showIn 0.2s ease-in-out 2s forwards;
	}

	#light {
		opacity: 0;
		-webkit-animation: showIn 0.5s ease-in 2.4s forwards;
		        animation: showIn 0.5s ease-in 2.4s forwards;
	}

	#logo-original {
		-webkit-animation: showIn 0.5s ease-in 2.4s forwards;
		        animation: showIn 0.5s ease-in 2.4s forwards;
	}
	#logo-dark {
		-webkit-animation: showOut 0.01s ease-out 2.89s forwards;
		        animation: showOut 0.01s ease-out 2.89s forwards;
	}

	#bg {
		-webkit-animation: changeBg 0.5s ease-in 2.4s forwards;
		        animation: changeBg 0.5s ease-in 2.4s forwards;
	}



	@-webkit-keyframes moveEpart {
		to {
			opacity: 1;
			-webkit-transform: translate(0px, 0px);
			        transform: translate(0px, 0px);
		}
	}

	@keyframes moveEpart {
		to {
			opacity: 1;
			-webkit-transform: translate(0px, 0px);
			        transform: translate(0px, 0px);
		}
	}

	@-webkit-keyframes changeBg {
		to {
			fill: #ccc;
		}
	}

	@keyframes changeBg {
		to {
			fill: #ccc;
		}
	}

	@-webkit-keyframes showIn {
		to {
			opacity: 1;
		}
	}

	@keyframes showIn {
		to {
			opacity: 1;
		}
	}

	@-webkit-keyframes showOut {
		to {
			opacity: 0;
		}
	}

	@keyframes showOut {
		to {
			opacity: 0;
		}
	}

	@-webkit-keyframes scaleIn {
		to {
			-webkit-transform: scale(1, 1);
			        transform: scale(1, 1);
		}
	}

	@keyframes scaleIn {
		to {
			-webkit-transform: scale(1, 1);
			        transform: scale(1, 1);
		}
	}

	@-webkit-keyframes dropBol {
		0% {
			-webkit-transform: translate(0px, -75px) scale(0.5, 0.5);
			        transform: translate(0px, -75px) scale(0.5, 0.5);
		}
		20% {
			-webkit-transform: translate(0px, 42px) scale(0.5, 0.5);
			        transform: translate(0px, 42px) scale(0.5, 0.5);
		}
		37% {
			-webkit-transform: translate(0px, -40px) scale(0.5, 0.5);
			        transform: translate(0px, -40px) scale(0.5, 0.5);
		}
		50% {
			-webkit-transform: translate(0px, 0px) scale(0.5, 0.5);
			        transform: translate(0px, 0px) scale(0.5, 0.5);
		}
		65% {
			-webkit-transform: translate(0px, 0px) scale(1, 1);
			        transform: translate(0px, 0px) scale(1, 1);
		}
		100% {
			-webkit-transform: translate(0px, 0px) scale(1, 1);
			        transform: translate(0px, 0px) scale(1, 1);
		}
	}

	@keyframes dropBol {
		0% {
			-webkit-transform: translate(0px, -75px) scale(0.5, 0.5);
			        transform: translate(0px, -75px) scale(0.5, 0.5);
		}
		20% {
			-webkit-transform: translate(0px, 42px) scale(0.5, 0.5);
			        transform: translate(0px, 42px) scale(0.5, 0.5);
		}
		37% {
			-webkit-transform: translate(0px, -40px) scale(0.5, 0.5);
			        transform: translate(0px, -40px) scale(0.5, 0.5);
		}
		50% {
			-webkit-transform: translate(0px, 0px) scale(0.5, 0.5);
			        transform: translate(0px, 0px) scale(0.5, 0.5);
		}
		65% {
			-webkit-transform: translate(0px, 0px) scale(1, 1);
			        transform: translate(0px, 0px) scale(1, 1);
		}
		100% {
			-webkit-transform: translate(0px, 0px) scale(1, 1);
			        transform: translate(0px, 0px) scale(1, 1);
		}
	}

	@-webkit-keyframes bounseE {
		0% {
			-webkit-transform: scale(1, 1);
			        transform: scale(1, 1);
			-webkit-animation-timing-function: ease-out;
			        animation-timing-function: ease-out;
		}
		10% {
			-webkit-transform: scale(1, 0.6);
			        transform: scale(1, 0.6);
		}
		30% {
			-webkit-transform: scale(1, 1.2);
			        transform: scale(1, 1.2);
		}
		50% {
			-webkit-transform: scale(1, 0.8);
			        transform: scale(1, 0.8);
		}
		70% {
			-webkit-transform: scale(1, 1.1);
			        transform: scale(1, 1.1);
		}
		85% {
			-webkit-transform: scale(1, 1);
			        transform: scale(1, 1);
		}
		100% {
			-webkit-transform: scale(1, 1);
			        transform: scale(1, 1);
		}
	}

	@keyframes bounseE {
		0% {
			-webkit-transform: scale(1, 1);
			        transform: scale(1, 1);
			-webkit-animation-timing-function: ease-out;
			        animation-timing-function: ease-out;
		}
		10% {
			-webkit-transform: scale(1, 0.6);
			        transform: scale(1, 0.6);
		}
		30% {
			-webkit-transform: scale(1, 1.2);
			        transform: scale(1, 1.2);
		}
		50% {
			-webkit-transform: scale(1, 0.8);
			        transform: scale(1, 0.8);
		}
		70% {
			-webkit-transform: scale(1, 1.1);
			        transform: scale(1, 1.1);
		}
		85% {
			-webkit-transform: scale(1, 1);
			        transform: scale(1, 1);
		}
		100% {
			-webkit-transform: scale(1, 1);
			        transform: scale(1, 1);
		}
	}
</style>
</svg>