<svg version="1.1" id="sparkle-animation" xmlns="http://www.w3.org/2000/svg" xmlns:xlink="http://www.w3.org/1999/xlink" x="0px"
	 y="0px" viewBox="0 0 1047 613" enable-background="new 0 0 1047 613" xml:space="preserve">
<defs>
	<clipPath id="clip_S">
		<path d="M182.287,274.164c-83.157-55.267,5.966-171.115,79.536-109.575
		c24.515,20.507-7.143,47.485,18.767,42.305c50.412-10.077,48.163-67.063,11.633-93.385
		c-79.551-57.318-182.203-8.105-198.949,57.042c-10.348,40.255-1.548,87.907,60.097,130.554
		c65.05,45.002,69.403,95.604,15.841,122.108c-64.592,31.961-99.893-37.157-116.829-32.904
		c-22.275,5.593-22.034,48.961,32.897,71.536C221.486,517.822,326.821,370.221,182.287,274.164z"/>
	</clipPath>
	<clipPath id="clip_p">
		<path d="M305.921,411.407c-8.707,44.391-17.212,92.63-23.707,138.685
		c-6.371,45.173-65.637,36.505-58.867,4.106c16.573-79.304,76.373-257.04,76.373-257.04c11.702-34.491,35.725-20.401,32.095-5.338
		c-0.035,0.146-0.072,0.302-0.107,0.449c19.979-18.686,56.453-34.869,81.75-9.893c3.502,3.458,6.28,7.403,8.529,11.652
		c2.383,4.251,4.035,8.75,5.006,13.482c4.957,21.64-1.152,48.22-13.946,70.823c-24.508,43.297-84.799,59.039-102.298,40.775
		c-3.419-4.152-8.173-11.909-4.821-18.536c4-6.813,17.097-3.2,26.268,0.314c10.501,7.255,49.498-12.765,59.749-55.605
		c1.565-6.54,2.233-12.174,2.26-17.105c-0.349-5.704-1.353-10.955-3.303-15.549c-6.329-11.135-20.889-11.744-37.803-3.973
		c-19.762,9.08-30.904,33.541-36.283,49.541c-1.437,6.729-2.888,13.642-4.347,20.702L305.921,411.407z"/>
	</clipPath>
	<clipPath id="clip_toA">
		<path d="M472.044,269.159c-13.422,5.208-31.323,14.252-50.056,24.869l-31.085,18.599
		c-15.299,9.634-29.818,19.498-41.474,28.343c-17.515,13.292-29.689,26.203-36.96,37.927c0,0-7.477,11.737-3.477,23.737
		c3.75,13.75,25.5,9.25,23.205-1.749c-4.475-3.092-3.775-11.137,6.532-24.481c13.008-16.841,34.167-33.725,55.478-48.229
		l32.788-20.666c11.166-6.559,20.93-11.873,27.775-15.48C478.699,281.875,488.616,267.01,472.044,269.159z"/>
	</clipPath>
	<clipPath id="clip_a1">
		<path d="M490.242,349.079c-6.255,9.558-16.172,18.933-27.1,7.206
		c-12.626-13.55,10.845-65.305,25.912-76.783c15.765-12.01,28.641-2.371,23.173,7.746c0.112,0.027,0.193,0.036,0.302,0.061
		c9.186,6.951,11.431-2.561,6.93-16.734c-3.861-17.204-25.898-21.614-47.415-1.416c-6.656,7.085-12.258,14.803-17.275,22.871
		c-19.558,34.813-33.075,92.339-6.409,102.441c16.422,6.221,35.384-13.324,45.573-26.054c6.324-9.32,8.312-22.442,5.308-25.282
		C496.908,340.468,491.827,346.965,490.242,349.079z"/>
	</clipPath>
	<clipPath id="clip_a2">
		<path d="M553.085,313.078c-2.967,10.492-9.301,29.178-18.826,38.222
		c-18.348,17.422-1.678-57.787,9.44-81.216c9.366-19.736-11.575-26.717-22.251-3.886c-0.643,1.375-1.311,2.851-1.989,4.376
		c-2.222,4.474-4.528,10.256-6.93,16.734c-5.859,15.107-11.768,32.839-15.436,48.607c-1,4.406-3.789,8.47-6.278,12.416
		c-0.905,6.911,2.784,13.879,3.119,20.087c0.287,1.608,0.687,3.058,1.236,4.292c4.376,9.842,20.456,23.474,49.75-18.615
		c5.451-8.412,13.822-26.71,13.447-30.46C560.283,315.885,555.783,308.801,553.085,313.078z"/>
	</clipPath>
	<clipPath id="clip_r">
		<path d="M745.87,110.004c16.419,16.003-33.915,89.436-71.021,136.096
		c-9.276,13.44-20.663,26.048-33.49,38.088c-0.278,0.226-0.603,0.514-0.835,0.679c-26.559,18.854,6.892-30.067-18.477-39.446
		c-14.234-5.262-27.58,10.356-35.059,21.683c0.904-5.592,1.742-10.481,2.474-14.386c3.632-19.373-18.536-11.917-22.322,1.837
		c-5.208,18.92-10.049,39.777-14.055,58.523l-8.166,41.016c-0.921,5.025-1.635,9.113-2.095,11.923
		c-3.285,20.038,29.177,15.11,32.028-9.651c2.09-18.157,4.537-37.145,6.932-54.329c3.809-19.124,12.115-39.193,21.991-35.675
		c16.424,5.851-19.299,39.418,11.292,45.988c5.641,1.211,13.287-1.403,22.229-6.883c23.25-18.565,44.271-37.729,61.898-57.805
		c39.455-45.53,78.077-103.502,86.3-134.169c4.872-18.172-1.516-33.738-13.651-42.224C743.741,61.385,730.991,87.385,745.87,110.004
		z"/>
	</clipPath>
	<clipPath id="clip_k1">
		<path d="M772.691,71.882c-23.905-17.771-71.676-7.211-98.155,68.302
		c-8.306,23.688-22.96,91.578-33.176,144.005l-4.063,21.279c-2.952,15.823-5.228,28.935-6.396,36.966
		c-4.644,31.945,32.819,22.195,37.546,1.765c0.75-3.241,0.932-13.031,1.399-27.141c0.329-25.578,1.673-49.696,5.004-70.958
		c2.995-24.96,7.811-52.007,15.769-77.873c14.782-48.041,33.259-79.658,55.252-58.223
		C779.542,123.635,786.491,89.635,772.691,71.882z"/>
	</clipPath>
	<clipPath id="clip_k2">
		<path d="M903.313,64.403c-28.321-11.268-55.071,22.482-29.839,48.71c7.263,4.151,7.251,22.423-6.263,49.806
		c-11.864,24.041-36.714,70.517-66.068,107.967l-22.988,26.187c-17.698,17.563-36.165,29.615-53.842,30.347
		c-42.623,1.765-51.761-33.034-51.761-33.034c64.979,29.564,101.958-31.738,86.535-53.409c-12.088-16.985-39.24-5.733-59.893,6.686
		c0,0-55.995,23.818-29.349,69.395c4.755,7.982,11.554,16.233,21.184,24.035c26.07,21.122,60.015,8.447,93.526-20.698l19.605-18.933
		C876.997,224.362,939.787,83.534,903.313,64.403z M731.088,273.42c-13.011,17.368-34.935,19.965-52.069,11.525
		C725.34,238.386,749.49,248.856,731.088,273.42z"/>
	</clipPath>
	<clipPath id="clip_l">
		<path d="M904.635,265.197c6.852,5.143,9.082,14.846-0.194,23.646c-5.919,5.615-19.478,17.123-34.881,26.148
		c-7.833,4.211-15.97,7.833-24.449,10.791c-17.923,4.803-34.388,0.796-40.952-24.32c-1.965-8.542-2.728-19.152-3.016-30.576
		c0.774-50.951,24.625-112.591,47.128-142.229c10.672-14.056,19.886-18.582,25.203-15.544c22.684,9.189,49.351-35.978,29.839-48.71
		c-65.204-34.199-138.474,142.97-125.157,232.67c1.045,8.687,3.823,18.005,6.4,23.321c5.943,13.416,15.381,22.584,29.04,25.322
		c12.513,2.509,26.485-0.214,40.239-5.823c7.917-3.085,15.738-7.15,23.345-12.198c17.704-11.191,33.187-25.272,42.148-36.286
		c13.761-16.914,13.292-30.789,5.71-39.679C911.991,241.135,895.491,253.135,904.635,265.197z"/>
	</clipPath>
	<clipPath id="clip_e">
		<path d="M853.834,339.893c13.814,15.126,38.411,19.586,72.473-1.469
		c49.791-30.778,49.273,23.199,81.445-4.758c20.717-18.003-29.993-51.279-86.988-10.024c-20.347,14.728-34.78,12.928-43.585,4.053
		c-3.129-3.627-5.51-8.024-7.617-12.705c-4.677-13.313-3.478-30.345,3.366-40.827c9.64-14.763,23.773-14.923,31.708-8.967
		c6.856,6.272,25.289-3.276,20.401-13.466c-8.707-10.209-26.796-13.843-43.486-7.952c-36.759,12.974-47.657,54.148-36.439,82.003
		C847.073,330.829,849.949,335.545,853.834,339.893z"/>
	</clipPath>
</defs>
<g id="Sparkle">
	<path id="path-S" clip-path="url(#clip_S)" fill="none" stroke="#39B6B8" stroke-width="80" stroke-linecap="round" stroke-miterlimit="10" d="
		M268.491,228.635c0,0,89.5-118-64.5-107.5c-150.167,22.167-54.5,149-33,166.5s109.5,109.667,1.5,165
		c0,0-101.976,23.333-133.988-79.333" stroke-dashoffset="791.84" stroke-dasharray="791.84"/>
	<path id="path-p" clip-path="url(#clip_p)" fill="none" stroke="#39B6B8" stroke-width="60" stroke-linecap="round" stroke-miterlimit="10" d="
		M252.158,587.301c-6.565-8.362,15.878-148.503,35.333-225.548c6.241-20.278,10.184-32.208,16.684-45.533
		c10.177-13.688,93.841-84.836,108.816,17.415c-20.5,88.5-80,81.5-80,81.5s-30.5-4-29.5-29.5" stroke-dashoffset="601.45" stroke-dasharray="601.45"/>
	<path id="path-to-a" clip-path="url(#clip_toA)" fill="none" stroke="#39B6B8" stroke-width="60" stroke-linecap="round" stroke-miterlimit="10" d="
		M327.158,419.301c0,0-66.667-48.704,162-150.352" stroke-dashoffset="244.94" stroke-dasharray="244.94"/>
	<path id="path-a1" clip-path="url(#clip_a1)" fill="none" stroke="#39B6B8" stroke-width="40" stroke-linecap="round" stroke-miterlimit="10" d="
		M518.158,295.968c0,0,5.333-39.667-22.333-29.167s-44,58.909-44,58.909s-17.667,75.925,23,50.258c0,0,28.333-27.333,30.333-41" stroke-dashoffset="251.41" stroke-dasharray="251.41"/>
	<path id="path-a2" clip-path="url(#clip_a2)" fill="none" stroke="#39B6B8" stroke-width="40" stroke-linecap="round" stroke-miterlimit="10" d="
		M543.991,246.135c0,0-36.167,63.5-34.833,104.167c1.333,40.667,29.333,5,29.333,5s18-25,18-49.667" stroke-dashoffset="213.43" stroke-dasharray="213.43"/>
	<path id="path-r" clip-path="url(#clip_r)" fill="none" stroke="#39B6B8" stroke-width="50" stroke-linecap="round" stroke-linejoin="round" stroke-miterlimit="10" d="
		M554.158,383.968l21.833-143.016l14.5,23.933c0,0,32.5-29.371,30,4.065c0,0-25.317,51.379,22.25,21.185
		c48.822-30.99,125.989-148.768,120.75-183.5c-0.667-30.667-19.412-38.731-19.412-38.731" stroke-dashoffset="548.75" stroke-dasharray="548.75"/>
	<path id="path-k1" clip-path="url(#clip_k1)" fill="none" stroke="#39B6B8" stroke-width="50" stroke-linecap="round" stroke-linejoin="round" stroke-miterlimit="10" d="
		M773.825,113.301c0,0-60.833-122.167-109.333,117.333l-20,138" stroke-dashoffset="363.04" stroke-dasharray="363.04"/>
	<path id="path-k2" clip-path="url(#clip_k2)" fill="none" stroke="#39B6B8" stroke-width="60" stroke-linecap="round" stroke-linejoin="round" stroke-miterlimit="10" d="
		M674.849,277.801c11.477,0.422,45.355,22.021,65.809-8c9.174-35.981-42.417-5.417-42.417-5.417s-59.083,38.25-6.417,69.583
		c52.667,31.333,137.333-76.667,137.333-76.667s105.593-145.8,45.593-189.337" stroke-dashoffset="600.07" stroke-dasharray="600.07"/>
	<path id="path-l" clip-path="url(#clip_l)" fill="none" stroke="#39B6B8" stroke-width="60" stroke-linecap="round" stroke-linejoin="round" stroke-miterlimit="10" d="
		M908.491,111.635c0,0-13-70-78.5,17.5s-31,189.5-31,189.5s12.5,37,58,9.5s94-57,42-75" stroke-dashoffset="497.15" stroke-dasharray="497.15"/>
	<path id="path-e" clip-path="url(#clip_e)" fill="none" stroke="#39B6B8" stroke-width="60" stroke-linecap="round" stroke-linejoin="round" stroke-miterlimit="10" d="
		M929.825,267.301c0,0-43.333-47.333-73.333,11.333s33.333,65.333,33.333,65.333s22.333-1.667,30-9.667
		c7.667-8,65.333-36.667,88.667,1.667" stroke-dashoffset="313.59" stroke-dasharray="313.59"/>
</g>
<path id="star" fill="#39B6B8" d="M972.976,241.927c0-21.817,17.686-39.503,39.503-39.503c-21.817,0-39.503-17.686-39.503-39.503
	c0,21.817-17.686,39.503-39.503,39.503C955.29,202.423,972.976,220.11,972.976,241.927z"/>
<path id="star-light" fill="#39B6B8" d="M972.976,241.927c0-21.817,17.686-39.503,39.503-39.503c-21.817,0-39.503-17.686-39.503-39.503
	c0,21.817-17.686,39.503-39.503,39.503C955.29,202.423,972.976,220.11,972.976,241.927z"/>
<g id="by_El_L">
	<path fill="#39B6B8" d="M845.308,401.082c-0.604,0-1.156-0.151-1.657-0.453c-0.502-0.302-0.894-0.691-1.176-1.168v1.475h-0.891
		v-10.658h0.993v4.644c0.341-0.517,0.749-0.933,1.227-1.249c0.477-0.315,1.031-0.475,1.664-0.475c0.535,0,1.015,0.112,1.438,0.336
		c0.423,0.225,0.783,0.523,1.08,0.898s0.525,0.798,0.687,1.27c0.16,0.473,0.24,0.957,0.24,1.453c0,0.535-0.093,1.042-0.277,1.519
		s-0.438,0.893-0.759,1.248s-0.703,0.638-1.146,0.847C846.288,400.977,845.813,401.082,845.308,401.082z M845.073,400.205
		c0.419,0,0.801-0.085,1.146-0.255s0.643-0.399,0.891-0.687s0.442-0.613,0.584-0.978c0.141-0.365,0.212-0.742,0.212-1.132
		c0-0.399-0.066-0.783-0.197-1.153c-0.132-0.37-0.316-0.698-0.555-0.985c-0.239-0.287-0.525-0.516-0.861-0.687
		c-0.336-0.17-0.703-0.256-1.103-0.256c-0.302,0-0.584,0.052-0.847,0.153c-0.263,0.103-0.507,0.241-0.73,0.416
		c-0.224,0.176-0.423,0.378-0.599,0.606c-0.175,0.229-0.321,0.47-0.438,0.723v2.365c0.039,0.263,0.144,0.509,0.313,0.737
		c0.171,0.229,0.375,0.426,0.613,0.591c0.238,0.166,0.497,0.297,0.774,0.395S844.82,400.205,845.073,400.205z"/>
	<path fill="#39B6B8" d="M851.001,403.271c0.077,0.01,0.153,0.017,0.226,0.021c0.073,0.005,0.144,0.008,0.212,0.008
		c0.176,0,0.314-0.024,0.416-0.073c0.103-0.049,0.202-0.155,0.3-0.321c0.097-0.165,0.206-0.403,0.328-0.715s0.295-0.73,0.519-1.256
		l-3.314-7.606h1.022l2.817,6.687l2.613-6.687h0.949l-3.942,9.811c-0.106,0.282-0.284,0.528-0.532,0.737
		c-0.248,0.21-0.587,0.314-1.015,0.314c-0.098,0-0.19-0.003-0.277-0.008c-0.088-0.005-0.195-0.017-0.321-0.036V403.271z"/>
	<path fill="#39B6B8" d="M874.658,399.673v1.263h-9.713v-14.458h9.529v1.263h-8.104v5.213h7.066v1.201h-7.066v5.519H874.658z"/>
	<path fill="#39B6B8" d="M877.447,386.07h1.385v12.462c0,0.395,0.108,0.703,0.326,0.927c0.217,0.225,0.522,0.336,0.916,0.336
		c0.149,0,0.326-0.021,0.529-0.061c0.204-0.041,0.395-0.095,0.57-0.163l0.245,1.12c-0.259,0.108-0.574,0.196-0.947,0.265
		c-0.374,0.067-0.696,0.102-0.968,0.102c-0.638,0-1.14-0.18-1.507-0.539c-0.366-0.36-0.55-0.866-0.55-1.518V386.07z"/>
	<path fill="#39B6B8" d="M887.833,401.14c-0.774,0-1.483-0.146-2.128-0.438c-0.646-0.292-1.205-0.692-1.681-1.201
		c-0.475-0.509-0.845-1.096-1.109-1.762c-0.265-0.665-0.397-1.378-0.397-2.138c0-0.747,0.133-1.449,0.397-2.107
		s0.631-1.235,1.1-1.731c0.468-0.495,1.028-0.889,1.68-1.181s1.357-0.438,2.118-0.438c0.773,0,1.482,0.146,2.128,0.438
		c0.645,0.292,1.197,0.689,1.659,1.191s0.821,1.079,1.079,1.73s0.387,1.344,0.387,2.077c0,0.108,0,0.217,0,0.326
		c0,0.108-0.007,0.183-0.02,0.224h-9.082c0.04,0.57,0.173,1.097,0.396,1.578c0.225,0.482,0.513,0.899,0.866,1.252
		c0.353,0.354,0.756,0.629,1.211,0.825c0.455,0.197,0.94,0.295,1.456,0.295c0.339,0,0.679-0.047,1.019-0.143
		c0.339-0.095,0.651-0.224,0.937-0.387s0.543-0.363,0.773-0.601s0.407-0.499,0.529-0.784l1.202,0.326
		c-0.163,0.394-0.395,0.75-0.692,1.068c-0.299,0.319-0.646,0.598-1.039,0.835c-0.394,0.238-0.828,0.421-1.303,0.55
		C888.844,401.074,888.349,401.14,887.833,401.14z M891.742,395.071c-0.041-0.57-0.173-1.09-0.396-1.559
		c-0.225-0.468-0.51-0.872-0.855-1.211c-0.347-0.34-0.747-0.604-1.202-0.794c-0.454-0.19-0.939-0.285-1.455-0.285
		c-0.517,0-1.005,0.095-1.467,0.285c-0.462,0.189-0.865,0.454-1.211,0.794c-0.347,0.339-0.625,0.746-0.835,1.222
		c-0.211,0.476-0.336,0.991-0.377,1.548H891.742z"/>
	<path fill="#39B6B8" d="M898.422,400.936l-4.317-10.609h1.426l3.645,9.326l3.666-9.326h1.344l-4.317,10.609H898.422z"/>
	<path fill="#39B6B8" d="M908.827,401.14c-0.502,0-0.967-0.085-1.395-0.255s-0.801-0.404-1.12-0.703
		c-0.319-0.298-0.566-0.647-0.743-1.048s-0.265-0.832-0.265-1.293c0-0.462,0.108-0.89,0.326-1.283
		c0.217-0.394,0.522-0.733,0.916-1.019s0.862-0.505,1.405-0.661s1.141-0.234,1.792-0.234c0.543,0,1.093,0.048,1.649,0.143
		s1.052,0.23,1.486,0.407v-0.957c0-0.937-0.265-1.681-0.794-2.23s-1.263-0.824-2.199-0.824c-0.543,0-1.1,0.108-1.67,0.326
		c-0.57,0.217-1.147,0.529-1.73,0.937l-0.489-0.917c1.371-0.923,2.701-1.384,3.991-1.384c1.33,0,2.376,0.373,3.136,1.119
		c0.761,0.747,1.141,1.779,1.141,3.096v4.785c0,0.38,0.17,0.57,0.509,0.57v1.222c-0.23,0.041-0.407,0.062-0.529,0.062
		c-0.354,0-0.628-0.089-0.824-0.266c-0.197-0.176-0.303-0.42-0.316-0.732l-0.04-0.835c-0.489,0.638-1.104,1.127-1.843,1.466
		C910.48,400.97,909.683,401.14,908.827,401.14z M909.153,400.08c0.72,0,1.381-0.136,1.985-0.407s1.063-0.631,1.375-1.079
		c0.122-0.122,0.214-0.255,0.274-0.397c0.062-0.143,0.092-0.274,0.092-0.396v-1.731c-0.462-0.176-0.94-0.312-1.436-0.407
		c-0.496-0.095-1.001-0.143-1.518-0.143c-0.977,0-1.771,0.204-2.382,0.611c-0.611,0.407-0.917,0.943-0.917,1.608
		c0,0.326,0.064,0.632,0.194,0.917c0.129,0.285,0.305,0.532,0.529,0.743c0.224,0.21,0.491,0.376,0.804,0.499
		C908.468,400.02,908.8,400.08,909.153,400.08z"/>
	<path fill="#39B6B8" d="M922.593,400.427c-0.082,0.04-0.2,0.095-0.356,0.163c-0.156,0.067-0.336,0.136-0.54,0.203
		c-0.203,0.068-0.435,0.129-0.692,0.184c-0.258,0.054-0.529,0.081-0.814,0.081c-0.299,0-0.584-0.041-0.854-0.122
		c-0.272-0.081-0.51-0.207-0.713-0.377c-0.204-0.169-0.367-0.383-0.489-0.642c-0.122-0.258-0.183-0.556-0.183-0.896v-7.596h-1.467
		v-1.1h1.467v-3.584h1.385v3.584h2.443v1.1h-2.443v7.209c0.026,0.394,0.166,0.682,0.417,0.865s0.54,0.274,0.865,0.274
		c0.394,0,0.74-0.063,1.039-0.193c0.298-0.129,0.488-0.22,0.57-0.274L922.593,400.427z"/>
	<path fill="#39B6B8" d="M928.967,401.14c-0.774,0-1.483-0.146-2.128-0.438c-0.646-0.292-1.205-0.692-1.681-1.201
		c-0.475-0.509-0.845-1.096-1.109-1.762c-0.265-0.665-0.397-1.378-0.397-2.138c0-0.747,0.133-1.449,0.397-2.107
		s0.631-1.235,1.1-1.731c0.468-0.495,1.028-0.889,1.68-1.181s1.357-0.438,2.118-0.438c0.773,0,1.482,0.146,2.128,0.438
		c0.645,0.292,1.197,0.689,1.659,1.191s0.821,1.079,1.079,1.73s0.387,1.344,0.387,2.077c0,0.108,0,0.217,0,0.326
		c0,0.108-0.007,0.183-0.02,0.224h-9.082c0.04,0.57,0.173,1.097,0.396,1.578c0.225,0.482,0.513,0.899,0.866,1.252
		c0.353,0.354,0.756,0.629,1.211,0.825c0.455,0.197,0.94,0.295,1.456,0.295c0.339,0,0.679-0.047,1.019-0.143
		c0.339-0.095,0.651-0.224,0.937-0.387s0.543-0.363,0.773-0.601s0.407-0.499,0.529-0.784l1.202,0.326
		c-0.163,0.394-0.395,0.75-0.692,1.068c-0.299,0.319-0.646,0.598-1.039,0.835c-0.394,0.238-0.828,0.421-1.303,0.55
		C929.978,401.074,929.482,401.14,928.967,401.14z M932.876,395.071c-0.041-0.57-0.173-1.09-0.396-1.559
		c-0.225-0.468-0.51-0.872-0.855-1.211c-0.347-0.34-0.747-0.604-1.202-0.794c-0.454-0.19-0.939-0.285-1.455-0.285
		c-0.517,0-1.005,0.095-1.467,0.285c-0.462,0.189-0.865,0.454-1.211,0.794c-0.347,0.339-0.625,0.746-0.835,1.222
		c-0.211,0.476-0.336,0.991-0.377,1.548H932.876z"/>
	<path fill="#39B6B8" d="M941.021,401.14c-0.732,0-1.412-0.153-2.036-0.459c-0.625-0.305-1.161-0.709-1.608-1.211
		c-0.448-0.502-0.798-1.083-1.049-1.741c-0.252-0.658-0.377-1.348-0.377-2.067c0-0.746,0.122-1.456,0.366-2.128
		c0.245-0.672,0.581-1.259,1.009-1.761c0.427-0.502,0.937-0.899,1.526-1.191c0.591-0.292,1.239-0.438,1.945-0.438
		c0.896,0,1.69,0.233,2.382,0.702c0.692,0.468,1.235,1.035,1.63,1.7v-6.476h1.385v13.073c0,0.38,0.162,0.57,0.488,0.57v1.222
		c-0.204,0.041-0.366,0.062-0.488,0.062c-0.326,0-0.611-0.105-0.855-0.316c-0.244-0.21-0.367-0.465-0.367-0.764v-1.038
		c-0.421,0.692-0.99,1.242-1.71,1.649S941.796,401.14,941.021,401.14z M941.327,399.917c0.339,0,0.702-0.067,1.09-0.203
		c0.387-0.136,0.749-0.322,1.089-0.561c0.339-0.237,0.628-0.516,0.865-0.834c0.237-0.319,0.384-0.662,0.438-1.028v-3.279
		c-0.136-0.366-0.333-0.709-0.591-1.028c-0.258-0.318-0.554-0.601-0.886-0.845c-0.333-0.244-0.689-0.435-1.069-0.57
		s-0.753-0.203-1.12-0.203c-0.57,0-1.086,0.122-1.547,0.366c-0.462,0.244-0.859,0.567-1.191,0.967
		c-0.333,0.401-0.588,0.859-0.764,1.375c-0.177,0.516-0.265,1.046-0.265,1.588c0,0.57,0.102,1.113,0.305,1.63
		c0.204,0.516,0.482,0.967,0.835,1.354c0.354,0.387,0.771,0.696,1.253,0.927C940.251,399.802,940.771,399.917,941.327,399.917z"/>
	<path fill="#39B6B8" d="M955.459,400.936v-14.458h1.425v13.195h8.35v1.263H955.459z"/>
	<path fill="#39B6B8" d="M967.371,388.106v-2.036h1.385v2.036H967.371z M967.371,400.936v-10.609h1.385v10.609H967.371z"/>
	<path fill="#39B6B8" d="M975.313,400.936l-4.317-10.609h1.426l3.645,9.326l3.666-9.326h1.344l-4.317,10.609H975.313z"/>
	<path fill="#39B6B8" d="M983.314,388.106v-2.036h1.385v2.036H983.314z M983.314,400.936v-10.609h1.385v10.609H983.314z"/>
	<path fill="#39B6B8" d="M996.999,400.936h-1.385v-5.926c0-1.263-0.187-2.179-0.56-2.749c-0.374-0.57-0.947-0.855-1.721-0.855
		c-0.407,0-0.814,0.075-1.222,0.225s-0.784,0.359-1.131,0.631c-0.346,0.271-0.655,0.594-0.926,0.968
		c-0.272,0.373-0.469,0.777-0.591,1.211v6.496h-1.385v-10.609h1.263v2.403c0.434-0.774,1.055-1.398,1.863-1.874
		c0.808-0.475,1.687-0.712,2.637-0.712c0.584,0,1.079,0.108,1.486,0.325c0.407,0.218,0.733,0.522,0.978,0.916
		c0.244,0.395,0.421,0.876,0.529,1.446s0.163,1.201,0.163,1.894V400.936z"/>
	<path fill="#39B6B8" d="M1004.533,401.078c-0.733,0-1.402-0.152-2.006-0.458c-0.604-0.306-1.127-0.709-1.568-1.212
		c-0.44-0.502-0.783-1.079-1.028-1.73c-0.244-0.652-0.366-1.324-0.366-2.017c0-0.732,0.119-1.436,0.356-2.107
		s0.573-1.259,1.008-1.761c0.435-0.503,0.954-0.903,1.558-1.202c0.604-0.298,1.273-0.447,2.006-0.447
		c0.909,0,1.697,0.227,2.362,0.682s1.235,1.028,1.711,1.721v-2.22h1.242v10.65c0,0.732-0.14,1.381-0.418,1.944
		s-0.651,1.035-1.12,1.415c-0.468,0.38-1.018,0.665-1.649,0.855c-0.631,0.19-1.3,0.285-2.006,0.285
		c-1.222,0-2.206-0.218-2.952-0.651c-0.747-0.435-1.352-1.019-1.813-1.752l0.855-0.672c0.421,0.679,0.978,1.178,1.67,1.497
		c0.692,0.318,1.438,0.479,2.239,0.479c0.516,0,1.005-0.071,1.467-0.214c0.461-0.143,0.865-0.354,1.211-0.631
		c0.347-0.278,0.621-0.632,0.825-1.06c0.203-0.428,0.306-0.926,0.306-1.496v-2.098c-0.407,0.679-0.965,1.215-1.67,1.608
		C1006.047,400.882,1005.307,401.078,1004.533,401.078z M1004.92,399.917c0.407,0,0.808-0.074,1.201-0.224s0.75-0.35,1.069-0.601
		s0.587-0.533,0.805-0.845c0.217-0.313,0.359-0.632,0.428-0.957v-3.279c-0.149-0.38-0.354-0.732-0.611-1.059
		s-0.55-0.604-0.876-0.835c-0.325-0.23-0.675-0.414-1.048-0.55c-0.374-0.136-0.751-0.203-1.131-0.203
		c-0.598,0-1.13,0.125-1.599,0.376c-0.468,0.252-0.865,0.581-1.19,0.988c-0.326,0.407-0.574,0.868-0.743,1.385
		c-0.17,0.516-0.255,1.038-0.255,1.567c0,0.57,0.102,1.113,0.306,1.629c0.203,0.517,0.484,0.968,0.845,1.354
		c0.359,0.387,0.777,0.692,1.252,0.916C1003.848,399.806,1004.363,399.917,1004.92,399.917z"/>
</g>
<style>
	#sparkle-animation #Sparkle > path:nth-child(1) {
		-webkit-animation: drawIn 0.36s linear 0s forwards;
		        animation: drawIn 0.36s linear 0s forwards;
	}
	#sparkle-animation #Sparkle > path:nth-child(2) {
		-webkit-animation: drawIn 0.27s linear 0.36s forwards;
		        animation: drawIn 0.27s linear 0.36s forwards;
	}
	#sparkle-animation #Sparkle > path:nth-child(3) {
		-webkit-animation: drawIn 0.11s linear 0.63s forwards;
		        animation: drawIn 0.11s linear 0.63s forwards;
	}
	#sparkle-animation #Sparkle > path:nth-child(4) {
		-webkit-animation: drawIn 0.11s linear 0.74s forwards;
		        animation: drawIn 0.11s linear 0.74s forwards;
	}
	#sparkle-animation #Sparkle > path:nth-child(5) {
		-webkit-animation: drawIn 0.1s linear 0.85s forwards;
		        animation: drawIn 0.1s linear 0.85s forwards;
	}
	#sparkle-animation #Sparkle > path:nth-child(6) {
		-webkit-animation: drawIn 0.25s linear 0.95s forwards;
		        animation: drawIn 0.25s linear 0.95s forwards;
	}
	#sparkle-animation #Sparkle > path:nth-child(7) {
		-webkit-animation: drawIn 0.16s linear 1.2s forwards;
		        animation: drawIn 0.16s linear 1.2s forwards;
	}
	#sparkle-animation #Sparkle > path:nth-child(8) {
		-webkit-animation: drawIn 0.27s linear 1.36s forwards;
		        animation: drawIn 0.27s linear 1.36s forwards;
	}
	#sparkle-animation #Sparkle > path:nth-child(9) {
		-webkit-animation: drawIn 0.22s linear 1.63s forwards;
		        animation: drawIn 0.22s linear 1.63s forwards;
	}
	#sparkle-animation #Sparkle > path:nth-child(10) {
		-webkit-animation: drawIn 0.14s linear 1.86s forwards;
		        animation: drawIn 0.14s linear 1.86s forwards;
	}

	#sparkle-animation #star {
		opacity: 0;
		-webkit-transform-origin: 972.98px 202.42px;
		    -ms-transform-origin: 972.98px 202.42px;
		        transform-origin: 972.98px 202.42px;
		-webkit-transform: scale(0, 0);
		    -ms-transform: scale(0, 0);
		        transform: scale(0, 0);
		-webkit-animation: showStar 0.1s ease-in 2.05s forwards;
		        animation: showStar 0.1s ease-in 2.05s forwards;
	}

	#sparkle-animation #star-light {
		-webkit-transform-origin: 972.98px 202.42px;
		    -ms-transform-origin: 972.98px 202.42px;
		        transform-origin: 972.98px 202.42px;
		-webkit-transform: scale(0, 0);
		    -ms-transform: scale(0, 0);
		        transform: scale(0, 0);
		-webkit-animation: showStarLight 0.3s ease-in 1.95s forwards;
		        animation: showStarLight 0.3s ease-in 1.95s forwards;
	}

	#sparkle-animation #by_El_L {
		opacity: 0;
		-webkit-animation: showBy 0.3s linear 1.95s forwards;
		        animation: showBy 0.3s linear 1.95s forwards;

	}

	@-webkit-keyframes drawIn {
		to {
			stroke-dashoffset: 0px;
		}
	}

	@keyframes drawIn {
		to {
			stroke-dashoffset: 0px;
		}
	}

	@-webkit-keyframes showStarLight {
		to {
			-webkit-transform: scale(5, 5);
			        transform: scale(5, 5);
			opacity: 0;
		}
	}

	@keyframes showStarLight {
		to {
			-webkit-transform: scale(5, 5);
			        transform: scale(5, 5);
			opacity: 0;
		}
	}

	@-webkit-keyframes showStar {
		to {
			-webkit-transform: scale(1, 1);
			        transform: scale(1, 1);
			opacity: 1;
		}
	}

	@keyframes showStar {
		to {
			-webkit-transform: scale(1, 1);
			        transform: scale(1, 1);
			opacity: 1;
		}
	}

	@-webkit-keyframes showBy {
		to {
			opacity: 1;
		}
	}

	@keyframes showBy {
		to {
			opacity: 1;
		}
	}
</style>
</svg>