<svg id="heart-bit" xmlns="http://www.w3.org/2000/svg" viewBox="0 0 1920 1080">
  <defs>
    <clipPath id="clip-heart1">
      <path d="M649.5,238V870.6h602V238ZM765.72,533c-1.27,2.37-2.52,4.76-3.69,7.12l-.62,1.22a192.3,192.3,0,0,0-9,19.68c-1.18,3.18-2.29,6.46-3.29,9.76l-.67,2.22-19-12.24.46-1.31c2.36-6.67,5.14-13.52,8.26-20.34,3.29-7.2,7.07-14.57,11.23-21.9,2.58-4.55,5.37-9.21,8.28-13.84l2.42-3.83L766,532.44Zm270,201-1.15-.34c-3.24-1-6.47-2.06-9.61-3.26-4.23-1.63-8.43-3.49-12.48-5.53-1.79-.9-3.71-1.92-5.68-3-2.74-1.53-5.43-3.15-8-4.81l-1.6-1L1011,698.32l1.34.85a93.82,93.82,0,0,0,8.7,4.89,117.17,117.17,0,0,0,19.17,7.72c2.63.79,5.32,1.49,8,2.1l2.67.6Zm-3.44-346.77-.6-.58q-6.56-6.35-12.86-12.39l-14.24-13.74-4.2-4.1-1.15-1.12L1013.39,338l1.37,1.35c3.55,3.49,7.38,7.23,12.44,12.13l15.25,14.61c5.64,5.46,10.68,10.37,15.41,15l2.57,2.53Z"/>
    </clipPath>
    <clipPath id="clip-heart2">
       <path d="M651.2,212.49V811.07h630.89V212.49ZM901.46,737l-.91-.9c-2.57-2.51-5.17-5-7.76-7.54l-7.15-6.82-8.1-7.79-5.7-5.53-1.8-1.75,21.36-10.28.88.85,8.88,8.55L915.4,719.5l5,4.9,1.71,1.68Zm4.69-357.06-1.06-.63c-2-1.17-4-2.28-6.09-3.29a117.52,117.52,0,0,0-19.17-7.72c-3.55-1.06-7.19-2-10.83-2.71l-2.92-.59,16.61-19.39,1.08.31c3.8,1.07,7.59,2.33,11.25,3.73a133.36,133.36,0,0,1,12.48,5.53c1.79.9,3.7,1.92,5.68,3,3.11,1.73,6.14,3.58,9,5.48l2,1.3Zm283.46,141.81c-2.27,6.32-4.91,12.79-7.86,19.24-3.29,7.2-7.06,14.57-11.23,21.89-1.49,2.63-3,5.28-4.61,7.88l-1.82,3L1153.8,548l.39-.72c1.3-2.42,2.57-4.87,3.77-7.28l.62-1.22a192.3,192.3,0,0,0,9-19.68c1.9-5.11,3.58-10.42,5-15.79l.9-3.39,16.5,20.93Z"/>
    </clipPath>

    <mask id="clip-lines_1_2">
       <path id="mask-line1_2" d="M740.39,467c-.42-65.57,42-96.62,83.18-103.89a122.49,122.49,0,0,1,20.95-1.75,125.5,125.5,0,0,1,35.81,5.25,119.69,119.69,0,0,1,19.44,7.83c24.75,12.18,44.67,35.87,53.09,62.48L960,456.62l7.18-19.71c8-26.33,28.66-50.33,52.9-62.35a126.13,126.13,0,0,1,20.56-8.28,120.54,120.54,0,0,1,54.79-3.32c41.17,7.27,83.91,38.55,84.2,102,0,16.69-3.66,36.43-10.45,54.7a204.16,204.16,0,0,1-9.65,21.07c-30.47,61-88.33,116.65-136.31,163l-16.94,16.49c-20.85,20.3-34.59,34.52-44.82,47.5l-1.46,2-1.5-1.93c-10.78-13.42-23-26.25-44.32-47L901,708.05,900,707C852.36,661.31,792,602.77,761.05,541.91a151.84,151.84,0,0,1-10.49-23c-6.6-18-10.17-35.49-10.17-52" fill="none" stroke="#fff" stroke-miterlimit="10" stroke-width="41" stroke-dasharray="1423" stroke-dashoffset="4269"></path>
    </mask>
    <mask id="clip-lines_1_1">
       <path id="mask-line1_1" d="M1179.6,613.07c.42,65.57-42,96.62-83.18,103.89a121.48,121.48,0,0,1-21,1.74,125.14,125.14,0,0,1-35.81-5.24,120.6,120.6,0,0,1-19.44-7.83c-24.75-12.18-44.67-35.87-53.09-62.48L960,623.44l-7.18,19.71c-8,26.33-28.66,50.33-52.9,62.35a126.13,126.13,0,0,1-20.56,8.28,120.54,120.54,0,0,1-54.79,3.32c-41.17-7.27-83.91-38.55-84.2-102,0-16.69,3.66-36.43,10.45-54.7a204.16,204.16,0,0,1,9.65-21.07c30.47-61,88.33-116.65,136.31-163l16.94-16.49c20.85-20.3,34.59-34.52,44.82-47.5l1.46-1.95,1.5,1.93c10.78,13.41,23,26.24,44.32,47L1019,372l1.06,1c47.59,45.72,107.92,104.26,138.9,165.12a151.84,151.84,0,0,1,10.49,23c6.6,18,10.17,35.49,10.17,52" fill="none" stroke="#fff" stroke-miterlimit="10" stroke-width="41" stroke-dasharray="1423" stroke-dashoffset="4269"></path>
    </mask>

    <mask id="clip-lines_2_2">
       <path id="mask-line2_2" d="M967.18,436.91c8-26.33,28.66-50.33,52.9-62.35a126.13,126.13,0,0,1,20.56-8.28,120.54,120.54,0,0,1,54.79-3.32c41.17,7.27,83.91,38.55,84.2,102,0,16.69-3.66,36.43-10.45,54.7a204.16,204.16,0,0,1-9.65,21.07c-30.47,61-88.33,116.65-136.31,163l-16.94,16.49c-20.85,20.3-34.59,34.52-44.82,47.5l-1.46,2-1.5-1.93c-10.78-13.42-23-26.25-44.32-47L901,708.05,900,707C852.36,661.31,792,602.77,761.05,541.91a151.84,151.84,0,0,1-10.49-23c-6.6-18-10.17-35.49-10.17-52,0-65.57,42-96.62,83.18-103.89a122.49,122.49,0,0,1,20.95-1.75,125.5,125.5,0,0,1,35.81,5.25,119.69,119.69,0,0,1,19.44,7.83c24.75,12.18,44.67,35.87,53.09,62.48L960,456.62l7.18-19.71" fill="none" stroke="#fff" stroke-miterlimit="10" stroke-width="41" stroke-dasharray="1423" stroke-dashoffset="4269"></path>
    </mask>
    <mask id="clip-lines_2_1">
       <path id="mask-line2_1" d="M952.81,643.15c-8,26.33-28.66,50.33-52.9,62.35a126.13,126.13,0,0,1-20.56,8.28,120.54,120.54,0,0,1-54.79,3.32c-41.17-7.27-83.91-38.55-84.2-102,0-16.69,3.66-36.43,10.45-54.7a204.16,204.16,0,0,1,9.65-21.07c30.47-61,88.33-116.65,136.31-163l16.94-16.49c20.85-20.3,34.59-34.52,44.82-47.5l1.46-1.95,1.5,1.93c10.78,13.41,23,26.24,44.32,47L1019,372l1.06,1c47.59,45.72,107.92,104.26,138.9,165.12a151.84,151.84,0,0,1,10.49,23c6.6,18,10.17,35.49,10.17,52,0,65.57-42,96.62-83.18,103.89a121.48,121.48,0,0,1-21,1.74,125.14,125.14,0,0,1-35.81-5.24,120.6,120.6,0,0,1-19.44-7.83c-24.75-12.18-44.67-35.87-53.09-62.48L960,623.44l-7.18,19.71" fill="none" stroke="#fff" stroke-miterlimit="10" stroke-width="41" stroke-dasharray="1423" stroke-dashoffset="4269"></path>
    </mask>

    <mask id="clip-lines_3_2">
       <path id="mask-line3_2" d="M958.5,767.77c-10.78-13.42-23-26.25-44.32-47L901,708.05,900,707C852.36,661.31,792,602.77,761.05,541.91a151.84,151.84,0,0,1-10.49-23c-6.6-18-10.17-35.49-10.17-52,0-65.57,42-96.62,83.18-103.89a122.49,122.49,0,0,1,20.95-1.75,125.5,125.5,0,0,1,35.81,5.25,119.69,119.69,0,0,1,19.44,7.83c24.75,12.18,44.67,35.87,53.09,62.48L960,456.62l7.18-19.71c8-26.33,28.66-50.33,52.9-62.35a126.13,126.13,0,0,1,20.56-8.28,120.54,120.54,0,0,1,54.79-3.32c41.17,7.27,83.91,38.55,84.2,102,0,16.69-3.66,36.43-10.45,54.7a204.16,204.16,0,0,1-9.65,21.07c-30.47,61-88.33,116.65-136.31,163l-16.94,16.49c-20.85,20.3-34.59,34.52-44.82,47.5l-1.46,2-1.5-1.93" fill="none" stroke="#fff" stroke-miterlimit="10" stroke-width="41" stroke-dasharray="1423" stroke-dashoffset="4269"></path>
    </mask>
    <mask id="clip-lines_3_1">
       <path id="mask-line3_1" d="M961.49,312.29c10.78,13.41,23,26.24,44.32,47L1019,372l1.06,1c47.59,45.72,107.92,104.26,138.9,165.12a151.84,151.84,0,0,1,10.49,23c6.6,18,10.17,35.49,10.17,52,0,65.57-42,96.62-83.18,103.89a121.48,121.48,0,0,1-21,1.74,125.14,125.14,0,0,1-35.81-5.24,120.6,120.6,0,0,1-19.44-7.83c-24.75-12.18-44.67-35.87-53.09-62.48L960,623.44l-7.18,19.71c-8,26.33-28.66,50.33-52.9,62.35a126.13,126.13,0,0,1-20.56,8.28,120.54,120.54,0,0,1-54.79,3.32c-41.17-7.27-83.91-38.55-84.2-102,0-16.69,3.66-36.43,10.45-54.7a204.16,204.16,0,0,1,9.65-21.07c30.47-61,88.33-116.65,136.31-163l16.94-16.49c20.85-20.3,34.59-34.52,44.82-47.5l1.46-1.95,1.5,1.93" fill="none" stroke="#fff" stroke-miterlimit="10" stroke-width="41" stroke-dasharray="1423" stroke-dashoffset="4269"></path>
    </mask>

    <mask id="clip-lines_4_2">
       <path id="mask-line4_2" d="M1159.53,540.74c-30.47,61-88.33,116.65-136.31,163l-16.94,16.49c-20.85,20.3-34.59,34.52-44.82,47.5l-1.46,2-1.5-1.93c-10.78-13.42-23-26.25-44.32-47L901,708.05,900,707C852.36,661.31,792,602.77,761.05,541.91a151.84,151.84,0,0,1-10.49-23c-6.6-18-10.17-35.49-10.17-52,0-65.57,42-96.62,83.18-103.89a122.49,122.49,0,0,1,20.95-1.75,125.5,125.5,0,0,1,35.81,5.25,119.69,119.69,0,0,1,19.44,7.83c24.75,12.18,44.67,35.87,53.09,62.48L960,456.62l7.18-19.71c8-26.33,28.66-50.33,52.9-62.35a126.13,126.13,0,0,1,20.56-8.28,120.54,120.54,0,0,1,54.79-3.32c41.17,7.27,83.91,38.55,84.2,102,0,16.69-3.66,36.43-10.45,54.7a204.16,204.16,0,0,1-9.65,21.07" fill="none" stroke="#fff" stroke-miterlimit="10" stroke-width="41" stroke-dasharray="1423" stroke-dashoffset="4269"></path>
    </mask>
    <mask id="clip-lines_4_1">
       <path id="mask-line4_1" d="M760.46,539.32c30.47-61,88.33-116.65,136.31-163l16.94-16.49c20.85-20.3,34.59-34.52,44.82-47.5l1.46-1.95,1.5,1.93c10.78,13.41,23,26.24,44.32,47L1019,372l1.06,1c47.59,45.72,107.92,104.26,138.9,165.12a151.84,151.84,0,0,1,10.49,23c6.6,18,10.17,35.49,10.17,52,0,65.57-42,96.62-83.18,103.89a121.48,121.48,0,0,1-21,1.74,125.14,125.14,0,0,1-35.81-5.24,120.6,120.6,0,0,1-19.44-7.83c-24.75-12.18-44.67-35.87-53.09-62.48L960,623.44l-7.18,19.71c-8,26.33-28.66,50.33-52.9,62.35a126.13,126.13,0,0,1-20.56,8.28,120.54,120.54,0,0,1-54.79,3.32c-41.17-7.27-83.91-38.55-84.2-102,0-16.69,3.66-36.43,10.45-54.7a204.16,204.16,0,0,1,9.65-21.07" fill="none" stroke="#fff" stroke-miterlimit="10" stroke-width="41" stroke-dasharray="1423" stroke-dashoffset="4269"></path>
    </mask>
  </defs>
  <rect width="1920" height="1080" fill="#19132d"/>
  <g id="option1">
    <g>
      <g mask="url(#clip-lines_1_1)">
        <path class="small-heart-1" d="M740.39,467c-.42-65.57,42-96.62,83.18-103.89a122.49,122.49,0,0,1,20.95-1.75,125.5,125.5,0,0,1,35.81,5.25,119.69,119.69,0,0,1,19.44,7.83c24.75,12.18,44.67,35.87,53.09,62.48L960,456.62l7.18-19.71c8-26.33,28.66-50.33,52.9-62.35a126.13,126.13,0,0,1,20.56-8.28,120.54,120.54,0,0,1,54.79-3.32c41.17,7.27,83.91,38.55,84.2,102,0,16.69-3.66,36.43-10.45,54.7a204.16,204.16,0,0,1-9.65,21.07c-30.47,61-88.33,116.65-136.31,163l-16.94,16.49c-20.85,20.3-34.59,34.52-44.82,47.5l-1.46,2-1.5-1.93c-10.78-13.42-23-26.25-44.32-47L901,708.05,900,707C852.36,661.31,792,602.77,761.05,541.91a151.84,151.84,0,0,1-10.49-23c-6.6-18-10.17-35.49-10.17-52" fill="none" stroke="#e72684" stroke-linecap="round" stroke-miterlimit="10" stroke-width="3.5" stroke-dasharray="1423" stroke-dashoffset="4269"></path>
        <path class="big-heart1" d="M1090.78,662.84c-15.82,16.66-32.34,32.94-48.85,48.92l-17.85,17.51c-25.69,24.93-50.06,49-57.29,65.16L960,807.56l-6.74-13.15C947,779.3,920.56,753,894,727.28l-7.16-6.82-8.1-7.79c-48.17-46.59-97.54-96.93-128.37-150.93a262.15,262.15,0,0,1-13.09-26c-10.63-24.25-16-47.7-16-69.75,0-32.77,11.46-63.3,30.63-84.72,17.3-19.32,41.67-32.05,69.18-36.91a143.19,143.19,0,0,1,73.29,6.87,131.4,131.4,0,0,1,12.32,5.46c1.85.93,3.73,1.94,5.61,3,19.32,10.8,34.62,25.07,46,44.13L960,406.8l1.69-3.07c11.12-18.52,26-32.56,44.85-43.34a118.81,118.81,0,0,1,21.64-10.11,141.27,141.27,0,0,1,70.63-5.82c27.49,4.86,52,17.71,69.34,37,19.17,21.42,30.55,51.74,30.55,84.5,0,23.11-6.9,48.76-18.54,74.25-3.25,7.12-7,14.44-11.16,21.76-20.12,35.49-47.88,68.88-78.22,100.84" fill="none" stroke="#e72684" stroke-linecap="round" stroke-miterlimit="10" stroke-width="3.5" stroke-dasharray="1520" stroke-dashoffset="4560"></path>
      </g>
      <g clip-path="url(#clip-heart1)">
        <path class="small-heart-1" d="M740.39,467c-.42-65.57,42-96.62,83.18-103.89a122.49,122.49,0,0,1,20.95-1.75,125.5,125.5,0,0,1,35.81,5.25,119.69,119.69,0,0,1,19.44,7.83c24.75,12.18,44.67,35.87,53.09,62.48L960,456.62l7.18-19.71c8-26.33,28.66-50.33,52.9-62.35a126.13,126.13,0,0,1,20.56-8.28,120.54,120.54,0,0,1,54.79-3.32c41.17,7.27,83.91,38.55,84.2,102,0,16.69-3.66,36.43-10.45,54.7a204.16,204.16,0,0,1-9.65,21.07c-30.47,61-88.33,116.65-136.31,163l-16.94,16.49c-20.85,20.3-34.59,34.52-44.82,47.5l-1.46,2-1.5-1.93c-10.78-13.42-23-26.25-44.32-47L901,708.05,900,707C852.36,661.31,792,602.77,761.05,541.91a151.84,151.84,0,0,1-10.49-23c-6.6-18-10.17-35.49-10.17-52" fill="none" stroke="#e72684" stroke-linecap="round" stroke-miterlimit="10" stroke-width="3.5" stroke-dasharray="1423" stroke-dashoffset="4269"></path>
        <path class="big-heart1" d="M1090.78,662.84c-15.82,16.66-32.34,32.94-48.85,48.92l-17.85,17.51c-25.69,24.93-50.06,49-57.29,65.16L960,807.56l-6.74-13.15C947,779.3,920.56,753,894,727.28l-7.16-6.82-8.1-7.79c-48.17-46.59-97.54-96.93-128.37-150.93a262.15,262.15,0,0,1-13.09-26c-10.63-24.25-16-47.7-16-69.75,0-32.77,11.46-63.3,30.63-84.72,17.3-19.32,41.67-32.05,69.18-36.91a143.19,143.19,0,0,1,73.29,6.87,131.4,131.4,0,0,1,12.32,5.46c1.85.93,3.73,1.94,5.61,3,19.32,10.8,34.62,25.07,46,44.13L960,406.8l1.69-3.07c11.12-18.52,26-32.56,44.85-43.34a118.81,118.81,0,0,1,21.64-10.11,141.27,141.27,0,0,1,70.63-5.82c27.49,4.86,52,17.71,69.34,37,19.17,21.42,30.55,51.74,30.55,84.5,0,23.11-6.9,48.76-18.54,74.25-3.25,7.12-7,14.44-11.16,21.76-20.12,35.49-47.88,68.88-78.22,100.84" fill="none" stroke="#e72684" stroke-linecap="round" stroke-miterlimit="10" stroke-width="3.5" stroke-dasharray="1520" stroke-dashoffset="4560"></path>
      </g>
    </g>
    <g>
      <g mask="url(#clip-lines_1_2)">
        <path class="small-heart-1" d="M1179.6,613.07c.42,65.57-42,96.62-83.18,103.89a121.48,121.48,0,0,1-21,1.74,125.14,125.14,0,0,1-35.81-5.24,120.6,120.6,0,0,1-19.44-7.83c-24.75-12.18-44.67-35.87-53.09-62.48L960,623.44l-7.18,19.71c-8,26.33-28.66,50.33-52.9,62.35a126.13,126.13,0,0,1-20.56,8.28,120.54,120.54,0,0,1-54.79,3.32c-41.17-7.27-83.91-38.55-84.2-102,0-16.69,3.66-36.43,10.45-54.7a204.16,204.16,0,0,1,9.65-21.07c30.47-61,88.33-116.65,136.31-163l16.94-16.49c20.85-20.3,34.59-34.52,44.82-47.5l1.46-1.95,1.5,1.93c10.78,13.41,23,26.24,44.32,47L1019,372l1.06,1c47.59,45.72,107.92,104.26,138.9,165.12a151.84,151.84,0,0,1,10.49,23c6.6,18,10.17,35.49,10.17,52" fill="none" stroke="#fcfadf" stroke-linecap="round" stroke-miterlimit="10" stroke-width="3.5" stroke-dasharray="1423" stroke-dashoffset="4269"></path>
        <path class="big-heart1" d="M829.21,417.22c15.82-16.67,32.34-32.94,48.85-48.93l17.85-17.5c25.69-24.93,50.06-49,57.29-65.16L960,272.5l6.74,13.15C973,300.76,999.43,327,1026,352.77l7.16,6.83,8.1,7.79c48.17,46.59,97.54,96.93,128.37,150.93a262.15,262.15,0,0,1,13.09,26c10.63,24.25,16,47.7,16,69.75,0,32.77-11.46,63.29-30.63,84.71-17.3,19.32-41.67,32-69.18,36.91a143,143,0,0,1-73.29-6.86,134.06,134.06,0,0,1-12.32-5.46c-1.85-.93-3.73-1.94-5.61-3-19.32-10.8-34.62-25.07-46-44.13l-1.64-3-1.69,3.08c-11.13,18.52-26,32.56-44.86,43.34a119.48,119.48,0,0,1-21.64,10.11,141.15,141.15,0,0,1-70.63,5.81c-27.49-4.86-52-17.7-69.34-37-19.17-21.42-30.55-51.74-30.55-84.5,0-23.11,6.9-48.76,18.54-74.25,3.25-7.12,7-14.44,11.16-21.76,20.12-35.49,47.88-68.88,78.22-100.84" fill="none" stroke="#fcfadf" stroke-linecap="round" stroke-miterlimit="10" stroke-width="3.5" stroke-dasharray="1520" stroke-dashoffset="4560"></path>
      </g>
      <g clip-path="url(#clip-heart2)">
        <path class="small-heart-1" d="M1179.6,613.07c.42,65.57-42,96.62-83.18,103.89a121.48,121.48,0,0,1-21,1.74,125.14,125.14,0,0,1-35.81-5.24,120.6,120.6,0,0,1-19.44-7.83c-24.75-12.18-44.67-35.87-53.09-62.48L960,623.44l-7.18,19.71c-8,26.33-28.66,50.33-52.9,62.35a126.13,126.13,0,0,1-20.56,8.28,120.54,120.54,0,0,1-54.79,3.32c-41.17-7.27-83.91-38.55-84.2-102,0-16.69,3.66-36.43,10.45-54.7a204.16,204.16,0,0,1,9.65-21.07c30.47-61,88.33-116.65,136.31-163l16.94-16.49c20.85-20.3,34.59-34.52,44.82-47.5l1.46-1.95,1.5,1.93c10.78,13.41,23,26.24,44.32,47L1019,372l1.06,1c47.59,45.72,107.92,104.26,138.9,165.12a151.84,151.84,0,0,1,10.49,23c6.6,18,10.17,35.49,10.17,52" fill="none" stroke="#fcfadf" stroke-linecap="round" stroke-miterlimit="10" stroke-width="3.5" stroke-dasharray="1423" stroke-dashoffset="4269"></path>
        <path class="big-heart1" d="M829.21,417.22c15.82-16.67,32.34-32.94,48.85-48.93l17.85-17.5c25.69-24.93,50.06-49,57.29-65.16L960,272.5l6.74,13.15C973,300.76,999.43,327,1026,352.77l7.16,6.83,8.1,7.79c48.17,46.59,97.54,96.93,128.37,150.93a262.15,262.15,0,0,1,13.09,26c10.63,24.25,16,47.7,16,69.75,0,32.77-11.46,63.29-30.63,84.71-17.3,19.32-41.67,32-69.18,36.91a143,143,0,0,1-73.29-6.86,134.06,134.06,0,0,1-12.32-5.46c-1.85-.93-3.73-1.94-5.61-3-19.32-10.8-34.62-25.07-46-44.13l-1.64-3-1.69,3.08c-11.13,18.52-26,32.56-44.86,43.34a119.48,119.48,0,0,1-21.64,10.11,141.15,141.15,0,0,1-70.63,5.81c-27.49-4.86-52-17.7-69.34-37-19.17-21.42-30.55-51.74-30.55-84.5,0-23.11,6.9-48.76,18.54-74.25,3.25-7.12,7-14.44,11.16-21.76,20.12-35.49,47.88-68.88,78.22-100.84" fill="none" stroke="#fcfadf" stroke-linecap="round" stroke-miterlimit="10" stroke-width="3.5" stroke-dasharray="1520" stroke-dashoffset="4560"></path>
      </g>
    </g>
  </g>
  <g id="option2">
    <g>
      <g mask="url(#clip-lines_2_1)">
        <path class="small-heart-2" d="M967.18,436.91c8-26.33,28.66-50.33,52.9-62.35a126.13,126.13,0,0,1,20.56-8.28,120.54,120.54,0,0,1,54.79-3.32c41.17,7.27,83.91,38.55,84.2,102,0,16.69-3.66,36.43-10.45,54.7a204.16,204.16,0,0,1-9.65,21.07c-30.47,61-88.33,116.65-136.31,163l-16.94,16.49c-20.85,20.3-34.59,34.52-44.82,47.5l-1.46,2-1.5-1.93c-10.78-13.42-23-26.25-44.32-47L901,708.05,900,707C852.36,661.31,792,602.77,761.05,541.91a151.84,151.84,0,0,1-10.49-23c-6.6-18-10.17-35.49-10.17-52,0-65.57,42-96.62,83.18-103.89a122.49,122.49,0,0,1,20.95-1.75,125.5,125.5,0,0,1,35.81,5.25,119.69,119.69,0,0,1,19.44,7.83c24.75,12.18,44.67,35.87,53.09,62.48L960,456.62l7.18-19.71" fill="none" stroke="#e72684" stroke-linecap="round" stroke-miterlimit="10" stroke-width="3.5" stroke-dasharray="1423" stroke-dashoffset="4269"></path>
        <path class="big-heart2" d="M953.26,794.41C947,779.3,920.56,753,894,727.28l-7.16-6.82-8.1-7.79c-48.17-46.59-97.54-96.93-128.37-150.93a262.15,262.15,0,0,1-13.09-26c-10.63-24.25-16-47.7-16-69.75,0-32.77,11.46-63.3,30.63-84.72,17.3-19.32,41.67-32.05,69.18-36.91a143.19,143.19,0,0,1,73.29,6.87,131.4,131.4,0,0,1,12.32,5.46c1.85.93,3.73,1.94,5.61,3,19.32,10.8,34.62,25.07,46,44.13L960,406.8l1.69-3.07c11.12-18.52,26-32.56,44.85-43.34a118.81,118.81,0,0,1,21.64-10.11,141.27,141.27,0,0,1,70.63-5.82c27.49,4.86,52,17.71,69.34,37,19.17,21.42,30.55,51.74,30.55,84.5,0,23.11-6.9,48.76-18.54,74.25-3.25,7.12-7,14.44-11.16,21.76-20.12,35.49-47.88,68.88-78.22,100.84-15.82,16.66-32.34,32.94-48.85,48.92l-17.85,17.51c-25.69,24.93-50.06,49-57.29,65.16L960,807.56l-6.74-13.15" fill="none" stroke="#e72684" stroke-linecap="round" stroke-miterlimit="10" stroke-width="3.5" stroke-dasharray="1520" stroke-dashoffset="4560"></path>
      </g>
      <g clip-path="url(#clip-heart1)">
        <path class="small-heart-2" d="M967.18,436.91c8-26.33,28.66-50.33,52.9-62.35a126.13,126.13,0,0,1,20.56-8.28,120.54,120.54,0,0,1,54.79-3.32c41.17,7.27,83.91,38.55,84.2,102,0,16.69-3.66,36.43-10.45,54.7a204.16,204.16,0,0,1-9.65,21.07c-30.47,61-88.33,116.65-136.31,163l-16.94,16.49c-20.85,20.3-34.59,34.52-44.82,47.5l-1.46,2-1.5-1.93c-10.78-13.42-23-26.25-44.32-47L901,708.05,900,707C852.36,661.31,792,602.77,761.05,541.91a151.84,151.84,0,0,1-10.49-23c-6.6-18-10.17-35.49-10.17-52,0-65.57,42-96.62,83.18-103.89a122.49,122.49,0,0,1,20.95-1.75,125.5,125.5,0,0,1,35.81,5.25,119.69,119.69,0,0,1,19.44,7.83c24.75,12.18,44.67,35.87,53.09,62.48L960,456.62l7.18-19.71" fill="none" stroke="#e72684" stroke-linecap="round" stroke-miterlimit="10" stroke-width="3.5" stroke-dasharray="1423" stroke-dashoffset="4269"></path>
        <path class="big-heart2" d="M953.26,794.41C947,779.3,920.56,753,894,727.28l-7.16-6.82-8.1-7.79c-48.17-46.59-97.54-96.93-128.37-150.93a262.15,262.15,0,0,1-13.09-26c-10.63-24.25-16-47.7-16-69.75,0-32.77,11.46-63.3,30.63-84.72,17.3-19.32,41.67-32.05,69.18-36.91a143.19,143.19,0,0,1,73.29,6.87,131.4,131.4,0,0,1,12.32,5.46c1.85.93,3.73,1.94,5.61,3,19.32,10.8,34.62,25.07,46,44.13L960,406.8l1.69-3.07c11.12-18.52,26-32.56,44.85-43.34a118.81,118.81,0,0,1,21.64-10.11,141.27,141.27,0,0,1,70.63-5.82c27.49,4.86,52,17.71,69.34,37,19.17,21.42,30.55,51.74,30.55,84.5,0,23.11-6.9,48.76-18.54,74.25-3.25,7.12-7,14.44-11.16,21.76-20.12,35.49-47.88,68.88-78.22,100.84-15.82,16.66-32.34,32.94-48.85,48.92l-17.85,17.51c-25.69,24.93-50.06,49-57.29,65.16L960,807.56l-6.74-13.15" fill="none" stroke="#e72684" stroke-linecap="round" stroke-miterlimit="10" stroke-width="3.5" stroke-dasharray="1520" stroke-dashoffset="4560"></path>
      </g>
    </g>
    <g>
      <g mask="url(#clip-lines_2_2)">
        <path class="small-heart-2" d="M952.81,643.15c-8,26.33-28.66,50.33-52.9,62.35a126.13,126.13,0,0,1-20.56,8.28,120.54,120.54,0,0,1-54.79,3.32c-41.17-7.27-83.91-38.55-84.2-102,0-16.69,3.66-36.43,10.45-54.7a204.16,204.16,0,0,1,9.65-21.07c30.47-61,88.33-116.65,136.31-163l16.94-16.49c20.85-20.3,34.59-34.52,44.82-47.5l1.46-1.95,1.5,1.93c10.78,13.41,23,26.24,44.32,47L1019,372l1.06,1c47.59,45.72,107.92,104.26,138.9,165.12a151.84,151.84,0,0,1,10.49,23c6.6,18,10.17,35.49,10.17,52,0,65.57-42,96.62-83.18,103.89a121.48,121.48,0,0,1-21,1.74,125.14,125.14,0,0,1-35.81-5.24,120.6,120.6,0,0,1-19.44-7.83c-24.75-12.18-44.67-35.87-53.09-62.48L960,623.44l-7.18,19.71" fill="none" stroke="#fcfadf" stroke-linecap="round" stroke-miterlimit="10" stroke-width="3.5" stroke-dasharray="1423" stroke-dashoffset="4269"></path>
        <path class="big-heart2" d="M966.73,285.65C973,300.76,999.43,327,1026,352.77l7.16,6.83,8.1,7.79c48.17,46.59,97.54,96.93,128.37,150.93a262.15,262.15,0,0,1,13.09,26c10.63,24.25,16,47.7,16,69.75,0,32.77-11.46,63.29-30.63,84.71-17.3,19.32-41.67,32-69.18,36.91a143,143,0,0,1-73.29-6.86,134.06,134.06,0,0,1-12.32-5.46c-1.85-.93-3.73-1.94-5.61-3-19.32-10.8-34.62-25.07-46-44.13l-1.64-3-1.69,3.08c-11.13,18.52-26,32.56-44.86,43.34a119.48,119.48,0,0,1-21.64,10.11,141.15,141.15,0,0,1-70.63,5.81c-27.49-4.86-52-17.7-69.34-37-19.17-21.42-30.55-51.74-30.55-84.5,0-23.11,6.9-48.76,18.54-74.25,3.25-7.12,7-14.44,11.16-21.76,20.12-35.49,47.88-68.88,78.22-100.84,15.82-16.67,32.34-32.94,48.85-48.93l17.85-17.5c25.69-24.93,50.06-49,57.29-65.16L960,272.5l6.74,13.15" fill="none" stroke="#fcfadf" stroke-linecap="round" stroke-miterlimit="10" stroke-width="3.5" stroke-dasharray="1520" stroke-dashoffset="4560"></path>
      </g>
      <g clip-path="url(#clip-heart2)">
        <path class="small-heart-2" d="M952.81,643.15c-8,26.33-28.66,50.33-52.9,62.35a126.13,126.13,0,0,1-20.56,8.28,120.54,120.54,0,0,1-54.79,3.32c-41.17-7.27-83.91-38.55-84.2-102,0-16.69,3.66-36.43,10.45-54.7a204.16,204.16,0,0,1,9.65-21.07c30.47-61,88.33-116.65,136.31-163l16.94-16.49c20.85-20.3,34.59-34.52,44.82-47.5l1.46-1.95,1.5,1.93c10.78,13.41,23,26.24,44.32,47L1019,372l1.06,1c47.59,45.72,107.92,104.26,138.9,165.12a151.84,151.84,0,0,1,10.49,23c6.6,18,10.17,35.49,10.17,52,0,65.57-42,96.62-83.18,103.89a121.48,121.48,0,0,1-21,1.74,125.14,125.14,0,0,1-35.81-5.24,120.6,120.6,0,0,1-19.44-7.83c-24.75-12.18-44.67-35.87-53.09-62.48L960,623.44l-7.18,19.71" fill="none" stroke="#fcfadf" stroke-linecap="round" stroke-miterlimit="10" stroke-width="3.5" stroke-dasharray="1423" stroke-dashoffset="4269"></path>
        <path class="big-heart2" d="M966.73,285.65C973,300.76,999.43,327,1026,352.77l7.16,6.83,8.1,7.79c48.17,46.59,97.54,96.93,128.37,150.93a262.15,262.15,0,0,1,13.09,26c10.63,24.25,16,47.7,16,69.75,0,32.77-11.46,63.29-30.63,84.71-17.3,19.32-41.67,32-69.18,36.91a143,143,0,0,1-73.29-6.86,134.06,134.06,0,0,1-12.32-5.46c-1.85-.93-3.73-1.94-5.61-3-19.32-10.8-34.62-25.07-46-44.13l-1.64-3-1.69,3.08c-11.13,18.52-26,32.56-44.86,43.34a119.48,119.48,0,0,1-21.64,10.11,141.15,141.15,0,0,1-70.63,5.81c-27.49-4.86-52-17.7-69.34-37-19.17-21.42-30.55-51.74-30.55-84.5,0-23.11,6.9-48.76,18.54-74.25,3.25-7.12,7-14.44,11.16-21.76,20.12-35.49,47.88-68.88,78.22-100.84,15.82-16.67,32.34-32.94,48.85-48.93l17.85-17.5c25.69-24.93,50.06-49,57.29-65.16L960,272.5l6.74,13.15" fill="none" stroke="#fcfadf" stroke-linecap="round" stroke-miterlimit="10" stroke-width="3.5" stroke-dasharray="1520" stroke-dashoffset="4560"></path>
      </g>
    </g>
  </g>
  <g id="option3">
    <g>
      <g mask="url(#clip-lines_3_1)">
        <path class="small-heart-3" d="M958.5,767.77c-10.78-13.42-23-26.25-44.32-47L901,708.05,900,707C852.36,661.31,792,602.77,761.05,541.91a151.84,151.84,0,0,1-10.49-23c-6.6-18-10.17-35.49-10.17-52,0-65.57,42-96.62,83.18-103.89a122.49,122.49,0,0,1,20.95-1.75,125.5,125.5,0,0,1,35.81,5.25,119.69,119.69,0,0,1,19.44,7.83c24.75,12.18,44.67,35.87,53.09,62.48L960,456.62l7.18-19.71c8-26.33,28.66-50.33,52.9-62.35a126.13,126.13,0,0,1,20.56-8.28,120.54,120.54,0,0,1,54.79-3.32c41.17,7.27,83.91,38.55,84.2,102,0,16.69-3.66,36.43-10.45,54.7a204.16,204.16,0,0,1-9.65,21.07c-30.47,61-88.33,116.65-136.31,163l-16.94,16.49c-20.85,20.3-34.59,34.52-44.82,47.5l-1.46,2-1.5-1.93" fill="none" stroke="#e72684" stroke-linecap="round" stroke-miterlimit="10" stroke-width="3.5" stroke-dasharray="1423" stroke-dashoffset="4269"></path>
        <path class="big-heart3" d="M961.69,403.73c11.12-18.52,26-32.56,44.85-43.34a118.81,118.81,0,0,1,21.64-10.11,141.27,141.27,0,0,1,70.63-5.82c27.49,4.86,52,17.71,69.34,37,19.17,21.42,30.55,51.74,30.55,84.5,0,23.11-6.9,48.76-18.54,74.25-3.25,7.12-7,14.44-11.16,21.76-20.12,35.49-47.88,68.88-78.22,100.84-15.82,16.66-32.34,32.94-48.85,48.92l-17.85,17.51c-25.69,24.93-50.06,49-57.29,65.16L960,807.56l-6.74-13.15C947,779.3,920.56,753,894,727.28l-7.16-6.82-8.1-7.79c-48.17-46.59-97.54-96.93-128.37-150.93a262.15,262.15,0,0,1-13.09-26c-10.63-24.25-16-47.7-16-69.75,0-32.77,11.46-63.3,30.63-84.72,17.3-19.32,41.67-32.05,69.18-36.91a143.19,143.19,0,0,1,73.29,6.87,131.4,131.4,0,0,1,12.32,5.46c1.85.93,3.73,1.94,5.61,3,19.32,10.8,34.62,25.07,46,44.13L960,406.8l1.69-3.07" fill="none" stroke="#e72684" stroke-linecap="round" stroke-miterlimit="10" stroke-width="3.5" stroke-dasharray="1520" stroke-dashoffset="4560"></path>
      </g>
      <g clip-path="url(#clip-heart1)">
        <path class="small-heart-3" d="M958.5,767.77c-10.78-13.42-23-26.25-44.32-47L901,708.05,900,707C852.36,661.31,792,602.77,761.05,541.91a151.84,151.84,0,0,1-10.49-23c-6.6-18-10.17-35.49-10.17-52,0-65.57,42-96.62,83.18-103.89a122.49,122.49,0,0,1,20.95-1.75,125.5,125.5,0,0,1,35.81,5.25,119.69,119.69,0,0,1,19.44,7.83c24.75,12.18,44.67,35.87,53.09,62.48L960,456.62l7.18-19.71c8-26.33,28.66-50.33,52.9-62.35a126.13,126.13,0,0,1,20.56-8.28,120.54,120.54,0,0,1,54.79-3.32c41.17,7.27,83.91,38.55,84.2,102,0,16.69-3.66,36.43-10.45,54.7a204.16,204.16,0,0,1-9.65,21.07c-30.47,61-88.33,116.65-136.31,163l-16.94,16.49c-20.85,20.3-34.59,34.52-44.82,47.5l-1.46,2-1.5-1.93" fill="none" stroke="#e72684" stroke-linecap="round" stroke-miterlimit="10" stroke-width="3.5" stroke-dasharray="1423" stroke-dashoffset="4269"></path>
        <path class="big-heart3" d="M961.69,403.73c11.12-18.52,26-32.56,44.85-43.34a118.81,118.81,0,0,1,21.64-10.11,141.27,141.27,0,0,1,70.63-5.82c27.49,4.86,52,17.71,69.34,37,19.17,21.42,30.55,51.74,30.55,84.5,0,23.11-6.9,48.76-18.54,74.25-3.25,7.12-7,14.44-11.16,21.76-20.12,35.49-47.88,68.88-78.22,100.84-15.82,16.66-32.34,32.94-48.85,48.92l-17.85,17.51c-25.69,24.93-50.06,49-57.29,65.16L960,807.56l-6.74-13.15C947,779.3,920.56,753,894,727.28l-7.16-6.82-8.1-7.79c-48.17-46.59-97.54-96.93-128.37-150.93a262.15,262.15,0,0,1-13.09-26c-10.63-24.25-16-47.7-16-69.75,0-32.77,11.46-63.3,30.63-84.72,17.3-19.32,41.67-32.05,69.18-36.91a143.19,143.19,0,0,1,73.29,6.87,131.4,131.4,0,0,1,12.32,5.46c1.85.93,3.73,1.94,5.61,3,19.32,10.8,34.62,25.07,46,44.13L960,406.8l1.69-3.07" fill="none" stroke="#e72684" stroke-linecap="round" stroke-miterlimit="10" stroke-width="3.5" stroke-dasharray="1520" stroke-dashoffset="4560"></path>
      </g>
    </g>
    <g>
      <g mask="url(#clip-lines_3_2)">
        <path class="small-heart-3" d="M961.49,312.29c10.78,13.41,23,26.24,44.32,47L1019,372l1.06,1c47.59,45.72,107.92,104.26,138.9,165.12a151.84,151.84,0,0,1,10.49,23c6.6,18,10.17,35.49,10.17,52,0,65.57-42,96.62-83.18,103.89a121.48,121.48,0,0,1-21,1.74,125.14,125.14,0,0,1-35.81-5.24,120.6,120.6,0,0,1-19.44-7.83c-24.75-12.18-44.67-35.87-53.09-62.48L960,623.44l-7.18,19.71c-8,26.33-28.66,50.33-52.9,62.35a126.13,126.13,0,0,1-20.56,8.28,120.54,120.54,0,0,1-54.79,3.32c-41.17-7.27-83.91-38.55-84.2-102,0-16.69,3.66-36.43,10.45-54.7a204.16,204.16,0,0,1,9.65-21.07c30.47-61,88.33-116.65,136.31-163l16.94-16.49c20.85-20.3,34.59-34.52,44.82-47.5l1.46-1.95,1.5,1.93" fill="none" stroke="#fcfadf" stroke-linecap="round" stroke-miterlimit="10" stroke-width="3.5" stroke-dasharray="1423" stroke-dashoffset="4269"></path>
        <path class="big-heart3" d="M958.31,676.33c-11.13,18.52-26,32.56-44.86,43.34a119.48,119.48,0,0,1-21.64,10.11,141.15,141.15,0,0,1-70.63,5.81c-27.49-4.86-52-17.7-69.34-37-19.17-21.42-30.55-51.74-30.55-84.5,0-23.11,6.9-48.76,18.54-74.25,3.25-7.12,7-14.44,11.16-21.76,20.12-35.49,47.88-68.88,78.22-100.84,15.82-16.67,32.34-32.94,48.85-48.93l17.85-17.5c25.69-24.93,50.06-49,57.29-65.16L960,272.5l6.74,13.15C973,300.76,999.43,327,1026,352.77l7.16,6.83,8.1,7.79c48.17,46.59,97.54,96.93,128.37,150.93a262.15,262.15,0,0,1,13.09,26c10.63,24.25,16,47.7,16,69.75,0,32.77-11.46,63.29-30.63,84.71-17.3,19.32-41.67,32-69.18,36.91a143,143,0,0,1-73.29-6.86,134.06,134.06,0,0,1-12.32-5.46c-1.85-.93-3.73-1.94-5.61-3-19.32-10.8-34.62-25.07-46-44.13l-1.64-3-1.69,3.08" fill="none" stroke="#fcfadf" stroke-linecap="round" stroke-miterlimit="10" stroke-width="3.5" stroke-dasharray="1520" stroke-dashoffset="4560"></path>
      </g>
      <g clip-path="url(#clip-heart2)">
        <path class="small-heart-3" d="M961.49,312.29c10.78,13.41,23,26.24,44.32,47L1019,372l1.06,1c47.59,45.72,107.92,104.26,138.9,165.12a151.84,151.84,0,0,1,10.49,23c6.6,18,10.17,35.49,10.17,52,0,65.57-42,96.62-83.18,103.89a121.48,121.48,0,0,1-21,1.74,125.14,125.14,0,0,1-35.81-5.24,120.6,120.6,0,0,1-19.44-7.83c-24.75-12.18-44.67-35.87-53.09-62.48L960,623.44l-7.18,19.71c-8,26.33-28.66,50.33-52.9,62.35a126.13,126.13,0,0,1-20.56,8.28,120.54,120.54,0,0,1-54.79,3.32c-41.17-7.27-83.91-38.55-84.2-102,0-16.69,3.66-36.43,10.45-54.7a204.16,204.16,0,0,1,9.65-21.07c30.47-61,88.33-116.65,136.31-163l16.94-16.49c20.85-20.3,34.59-34.52,44.82-47.5l1.46-1.95,1.5,1.93" fill="none" stroke="#fcfadf" stroke-linecap="round" stroke-miterlimit="10" stroke-width="3.5" stroke-dasharray="1423" stroke-dashoffset="4269"></path>
        <path class="big-heart3" d="M958.31,676.33c-11.13,18.52-26,32.56-44.86,43.34a119.48,119.48,0,0,1-21.64,10.11,141.15,141.15,0,0,1-70.63,5.81c-27.49-4.86-52-17.7-69.34-37-19.17-21.42-30.55-51.74-30.55-84.5,0-23.11,6.9-48.76,18.54-74.25,3.25-7.12,7-14.44,11.16-21.76,20.12-35.49,47.88-68.88,78.22-100.84,15.82-16.67,32.34-32.94,48.85-48.93l17.85-17.5c25.69-24.93,50.06-49,57.29-65.16L960,272.5l6.74,13.15C973,300.76,999.43,327,1026,352.77l7.16,6.83,8.1,7.79c48.17,46.59,97.54,96.93,128.37,150.93a262.15,262.15,0,0,1,13.09,26c10.63,24.25,16,47.7,16,69.75,0,32.77-11.46,63.29-30.63,84.71-17.3,19.32-41.67,32-69.18,36.91a143,143,0,0,1-73.29-6.86,134.06,134.06,0,0,1-12.32-5.46c-1.85-.93-3.73-1.94-5.61-3-19.32-10.8-34.62-25.07-46-44.13l-1.64-3-1.69,3.08" fill="none" stroke="#fcfadf" stroke-linecap="round" stroke-miterlimit="10" stroke-width="3.5" stroke-dasharray="1520" stroke-dashoffset="4560"></path>
      </g>
    </g>
  </g>
  <g id="option4">
    <g>
      <g mask="url(#clip-lines_4_1)">
        <path class="small-heart-4" d="M1159.53,540.74c-30.47,61-88.33,116.65-136.31,163l-16.94,16.49c-20.85,20.3-34.59,34.52-44.82,47.5l-1.46,2-1.5-1.93c-10.78-13.42-23-26.25-44.32-47L901,708.05,900,707C852.36,661.31,792,602.77,761.05,541.91a151.84,151.84,0,0,1-10.49-23c-6.6-18-10.17-35.49-10.17-52,0-65.57,42-96.62,83.18-103.89a122.49,122.49,0,0,1,20.95-1.75,125.5,125.5,0,0,1,35.81,5.25,119.69,119.69,0,0,1,19.44,7.83c24.75,12.18,44.67,35.87,53.09,62.48L960,456.62l7.18-19.71c8-26.33,28.66-50.33,52.9-62.35a126.13,126.13,0,0,1,20.56-8.28,120.54,120.54,0,0,1,54.79-3.32c41.17,7.27,83.91,38.55,84.2,102,0,16.69-3.66,36.43-10.45,54.7a204.16,204.16,0,0,1-9.65,21.07" fill="none" stroke="#e72684" stroke-linecap="round" stroke-miterlimit="10" stroke-width="3.5" stroke-dasharray="1423" stroke-dashoffset="4269"></path>
        <path class="big-heart4" d="M721.29,466c0-32.77,11.46-63.3,30.63-84.72,17.3-19.32,41.67-32.05,69.18-36.91a143.19,143.19,0,0,1,73.29,6.87,131.4,131.4,0,0,1,12.32,5.46c1.85.93,3.73,1.94,5.61,3,19.32,10.8,34.62,25.07,46,44.13L960,406.8l1.69-3.07c11.12-18.52,26-32.56,44.85-43.34a118.81,118.81,0,0,1,21.64-10.11,141.27,141.27,0,0,1,70.63-5.82c27.49,4.86,52,17.71,69.34,37,19.17,21.42,30.55,51.74,30.55,84.5,0,23.11-6.9,48.76-18.54,74.25-3.25,7.12-7,14.44-11.16,21.76-20.12,35.49-47.88,68.88-78.22,100.84-15.82,16.66-32.34,32.94-48.85,48.92l-17.85,17.51c-25.69,24.93-50.06,49-57.29,65.16L960,807.56l-6.74-13.15C947,779.3,920.56,753,894,727.28l-7.16-6.82-8.1-7.79c-48.17-46.59-97.54-96.93-128.37-150.93a262.15,262.15,0,0,1-13.09-26c-10.63-24.25-16-47.7-16-69.75" fill="none" stroke="#e72684" stroke-linecap="round" stroke-miterlimit="10" stroke-width="3.5" stroke-dasharray="1520" stroke-dashoffset="4560"></path>
      </g>
      <g clip-path="url(#clip-heart1)">
        <path class="small-heart-4" d="M1159.53,540.74c-30.47,61-88.33,116.65-136.31,163l-16.94,16.49c-20.85,20.3-34.59,34.52-44.82,47.5l-1.46,2-1.5-1.93c-10.78-13.42-23-26.25-44.32-47L901,708.05,900,707C852.36,661.31,792,602.77,761.05,541.91a151.84,151.84,0,0,1-10.49-23c-6.6-18-10.17-35.49-10.17-52,0-65.57,42-96.62,83.18-103.89a122.49,122.49,0,0,1,20.95-1.75,125.5,125.5,0,0,1,35.81,5.25,119.69,119.69,0,0,1,19.44,7.83c24.75,12.18,44.67,35.87,53.09,62.48L960,456.62l7.18-19.71c8-26.33,28.66-50.33,52.9-62.35a126.13,126.13,0,0,1,20.56-8.28,120.54,120.54,0,0,1,54.79-3.32c41.17,7.27,83.91,38.55,84.2,102,0,16.69-3.66,36.43-10.45,54.7a204.16,204.16,0,0,1-9.65,21.07" fill="none" stroke="#e72684" stroke-linecap="round" stroke-miterlimit="10" stroke-width="3.5" stroke-dasharray="1423" stroke-dashoffset="4269"></path>
        <path class="big-heart4" d="M721.29,466c0-32.77,11.46-63.3,30.63-84.72,17.3-19.32,41.67-32.05,69.18-36.91a143.19,143.19,0,0,1,73.29,6.87,131.4,131.4,0,0,1,12.32,5.46c1.85.93,3.73,1.94,5.61,3,19.32,10.8,34.62,25.07,46,44.13L960,406.8l1.69-3.07c11.12-18.52,26-32.56,44.85-43.34a118.81,118.81,0,0,1,21.64-10.11,141.27,141.27,0,0,1,70.63-5.82c27.49,4.86,52,17.71,69.34,37,19.17,21.42,30.55,51.74,30.55,84.5,0,23.11-6.9,48.76-18.54,74.25-3.25,7.12-7,14.44-11.16,21.76-20.12,35.49-47.88,68.88-78.22,100.84-15.82,16.66-32.34,32.94-48.85,48.92l-17.85,17.51c-25.69,24.93-50.06,49-57.29,65.16L960,807.56l-6.74-13.15C947,779.3,920.56,753,894,727.28l-7.16-6.82-8.1-7.79c-48.17-46.59-97.54-96.93-128.37-150.93a262.15,262.15,0,0,1-13.09-26c-10.63-24.25-16-47.7-16-69.75" fill="none" stroke="#e72684" stroke-linecap="round" stroke-miterlimit="10" stroke-width="3.5" stroke-dasharray="1520" stroke-dashoffset="4560"></path>
      </g>
    </g>
    <g>
      <g mask="url(#clip-lines_4_2)">
        <path class="small-heart-4" d="M760.46,539.32c30.47-61,88.33-116.65,136.31-163l16.94-16.49c20.85-20.3,34.59-34.52,44.82-47.5l1.46-1.95,1.5,1.93c10.78,13.41,23,26.24,44.32,47L1019,372l1.06,1c47.59,45.72,107.92,104.26,138.9,165.12a151.84,151.84,0,0,1,10.49,23c6.6,18,10.17,35.49,10.17,52,0,65.57-42,96.62-83.18,103.89a121.48,121.48,0,0,1-21,1.74,125.14,125.14,0,0,1-35.81-5.24,120.6,120.6,0,0,1-19.44-7.83c-24.75-12.18-44.67-35.87-53.09-62.48L960,623.44l-7.18,19.71c-8,26.33-28.66,50.33-52.9,62.35a126.13,126.13,0,0,1-20.56,8.28,120.54,120.54,0,0,1-54.79,3.32c-41.17-7.27-83.91-38.55-84.2-102,0-16.69,3.66-36.43,10.45-54.7a204.16,204.16,0,0,1,9.65-21.07" fill="none" stroke="#fcfadf" stroke-linecap="round" stroke-miterlimit="10" stroke-width="3.5" stroke-dasharray="1423" stroke-dashoffset="4269"></path>
        <path class="big-heart4" d="M1198.7,614c0,32.77-11.46,63.29-30.63,84.71-17.3,19.32-41.67,32-69.18,36.91a143,143,0,0,1-73.29-6.86,134.06,134.06,0,0,1-12.32-5.46c-1.85-.93-3.73-1.94-5.61-3-19.32-10.8-34.62-25.07-46-44.13l-1.64-3-1.69,3.08c-11.13,18.52-26,32.56-44.86,43.34a119.48,119.48,0,0,1-21.64,10.11,141.15,141.15,0,0,1-70.63,5.81c-27.49-4.86-52-17.7-69.34-37-19.17-21.42-30.55-51.74-30.55-84.5,0-23.11,6.9-48.76,18.54-74.25,3.25-7.12,7-14.44,11.16-21.76,20.12-35.49,47.88-68.88,78.22-100.84,15.82-16.67,32.34-32.94,48.85-48.93l17.85-17.5c25.69-24.93,50.06-49,57.29-65.16L960,272.5l6.74,13.15C973,300.76,999.43,327,1026,352.77l7.16,6.83,8.1,7.79c48.17,46.59,97.54,96.93,128.37,150.93a262.15,262.15,0,0,1,13.09,26c10.63,24.25,16,47.7,16,69.75" fill="none" stroke="#fcfadf" stroke-linecap="round" stroke-miterlimit="10" stroke-width="3.5" stroke-dasharray="1520" stroke-dashoffset="4560"></path>
      </g>
      <g clip-path="url(#clip-heart2)">
        <path class="small-heart-4" d="M760.46,539.32c30.47-61,88.33-116.65,136.31-163l16.94-16.49c20.85-20.3,34.59-34.52,44.82-47.5l1.46-1.95,1.5,1.93c10.78,13.41,23,26.24,44.32,47L1019,372l1.06,1c47.59,45.72,107.92,104.26,138.9,165.12a151.84,151.84,0,0,1,10.49,23c6.6,18,10.17,35.49,10.17,52,0,65.57-42,96.62-83.18,103.89a121.48,121.48,0,0,1-21,1.74,125.14,125.14,0,0,1-35.81-5.24,120.6,120.6,0,0,1-19.44-7.83c-24.75-12.18-44.67-35.87-53.09-62.48L960,623.44l-7.18,19.71c-8,26.33-28.66,50.33-52.9,62.35a126.13,126.13,0,0,1-20.56,8.28,120.54,120.54,0,0,1-54.79,3.32c-41.17-7.27-83.91-38.55-84.2-102,0-16.69,3.66-36.43,10.45-54.7a204.16,204.16,0,0,1,9.65-21.07" fill="none" stroke="#fcfadf" stroke-linecap="round" stroke-miterlimit="10" stroke-width="3.5" stroke-dasharray="1423" stroke-dashoffset="4269"></path>
        <path class="big-heart4" d="M1198.7,614c0,32.77-11.46,63.29-30.63,84.71-17.3,19.32-41.67,32-69.18,36.91a143,143,0,0,1-73.29-6.86,134.06,134.06,0,0,1-12.32-5.46c-1.85-.93-3.73-1.94-5.61-3-19.32-10.8-34.62-25.07-46-44.13l-1.64-3-1.69,3.08c-11.13,18.52-26,32.56-44.86,43.34a119.48,119.48,0,0,1-21.64,10.11,141.15,141.15,0,0,1-70.63,5.81c-27.49-4.86-52-17.7-69.34-37-19.17-21.42-30.55-51.74-30.55-84.5,0-23.11,6.9-48.76,18.54-74.25,3.25-7.12,7-14.44,11.16-21.76,20.12-35.49,47.88-68.88,78.22-100.84,15.82-16.67,32.34-32.94,48.85-48.93l17.85-17.5c25.69-24.93,50.06-49,57.29-65.16L960,272.5l6.74,13.15C973,300.76,999.43,327,1026,352.77l7.16,6.83,8.1,7.79c48.17,46.59,97.54,96.93,128.37,150.93a262.15,262.15,0,0,1,13.09,26c10.63,24.25,16,47.7,16,69.75" fill="none" stroke="#fcfadf" stroke-linecap="round" stroke-miterlimit="10" stroke-width="3.5" stroke-dasharray="1520" stroke-dashoffset="4560"></path>
      </g>
    </g>
  </g>
  <style>
   #heart-bit .small-heart-1 {
      -webkit-animation: drawInSmall 20s ease-in-out 0s infinite;
              animation: drawInSmall 20s ease-in-out 0s infinite;
    }
    #heart-bit .big-heart1 {
      -webkit-animation: drawInBig 20s ease-in-out 0s infinite;
              animation: drawInBig 20s ease-in-out 0s infinite;
    }
    #heart-bit #mask-line1_1,
    #heart-bit #mask-line1_2 {
      -webkit-animation: drawInClip 20s ease-in-out 0s infinite;
              animation: drawInClip 20s ease-in-out 0s infinite;
    }

    #heart-bit .small-heart-2 {
      -webkit-animation: drawInSmall 20s ease-in-out 5s infinite;
              animation: drawInSmall 20s ease-in-out 5s infinite;
    }
    #heart-bit .big-heart2 {
      -webkit-animation: drawInBig 20s ease-in-out 5s infinite;
              animation: drawInBig 20s ease-in-out 5s infinite;
    }
    #heart-bit #mask-line2_1,
    #heart-bit #mask-line2_2 {
      -webkit-animation: drawInClip 20s ease-in-out 5s infinite;
              animation: drawInClip 20s ease-in-out 5s infinite;
    }

    #heart-bit .small-heart-3 {
      -webkit-animation: drawInSmall 20s ease-in-out 10s infinite;
              animation: drawInSmall 20s ease-in-out 10s infinite;
    }
    #heart-bit .big-heart3 {
      -webkit-animation: drawInBig 20s ease-in-out 10s infinite;
              animation: drawInBig 20s ease-in-out 10s infinite;
    }
    #heart-bit #mask-line3_1,
    #heart-bit #mask-line3_2 {
      -webkit-animation: drawInClip 20s ease-in-out 10s infinite;
              animation: drawInClip 20s ease-in-out 10s infinite;
    }

    #heart-bit .small-heart-4 {
      -webkit-animation: drawInSmall 20s ease-in-out 15s infinite;
              animation: drawInSmall 20s ease-in-out 15s infinite;
    }
    #heart-bit .big-heart4 {
      -webkit-animation: drawInBig 20s ease-in-out 15s infinite;
              animation: drawInBig 20s ease-in-out 15s infinite;
    }
    #heart-bit #mask-line4_1,
    #heart-bit #mask-line4_2 {
      -webkit-animation: drawInClip 20s ease-in-out 15s infinite;
              animation: drawInClip 20s ease-in-out 15s infinite;
    }

    @-webkit-keyframes drawInSmall {
      0%, 0.2% {
        stroke-dashoffset: 4269px;
        -webkit-animation-timing-function: ease-out;
                animation-timing-function: ease-out;
      }
      10%, 15% {
        stroke-dashoffset: 2846px;
        -webkit-animation-timing-function: ease-in;
                animation-timing-function: ease-in;
      }
      24.7%, 100% {
        stroke-dashoffset: 1423px;
      }
    }

    @keyframes drawInSmall {
      0%, 0.2% {
        stroke-dashoffset: 4269px;
        -webkit-animation-timing-function: ease-out;
                animation-timing-function: ease-out;
      }
      10%, 15% {
        stroke-dashoffset: 2846px;
        -webkit-animation-timing-function: ease-in;
                animation-timing-function: ease-in;
      }
      24.7%, 100% {
        stroke-dashoffset: 1423px;
      }
    }

    @-webkit-keyframes drawInBig {
      0%, 0.2% {
        stroke-dashoffset: 4560px;
        -webkit-animation-timing-function: ease-out;
                animation-timing-function: ease-out;
      }
      10%, 15% {
        stroke-dashoffset: 3040px;
        -webkit-animation-timing-function: ease-in;
                animation-timing-function: ease-in;
      }
      24.7%, 100% {
        stroke-dashoffset: 1520px;
      }
    }

    @keyframes drawInBig {
      0%, 0.2% {
        stroke-dashoffset: 4560px;
        -webkit-animation-timing-function: ease-out;
                animation-timing-function: ease-out;
      }
      10%, 15% {
        stroke-dashoffset: 3040px;
        -webkit-animation-timing-function: ease-in;
                animation-timing-function: ease-in;
      }
      24.7%, 100% {
        stroke-dashoffset: 1520px;
      }
    }

    @-webkit-keyframes drawInClip {
      0%, 0.2% {
        stroke-dashoffset: 2846px;
        -webkit-animation-timing-function: ease-out;
                animation-timing-function: ease-out;
      }
      10%, 15% {
        stroke-dashoffset: 1423px;
        -webkit-animation-timing-function: ease-in;
                animation-timing-function: ease-in;
      }
      24.7%, 100% {
        stroke-dashoffset: 0px;
      }
    }

    @keyframes drawInClip {
      0%, 0.2% {
        stroke-dashoffset: 2846px;
        -webkit-animation-timing-function: ease-out;
                animation-timing-function: ease-out;
      }
      10%, 15% {
        stroke-dashoffset: 1423px;
        -webkit-animation-timing-function: ease-in;
                animation-timing-function: ease-in;
      }
      24.7%, 100% {
        stroke-dashoffset: 0px;
      }
    }
  </style>
</svg>
