<svg id="aleph-one-logo" xmlns="http://www.w3.org/2000/svg" viewBox="0 0 873.93 210.9">
  <defs>
    <clipPath id="mask-text1">
      <polygon points="258.98 146.93 293.73 70.25 304.57 70.25 339.4 146.93 327.88 146.93 299.07 81.35 270.26 146.93 258.98 146.93" fill="#fff"/>
    </clipPath>
    <clipPath id="mask-text2">
      <polygon points="274.05 116.79 281.54 110.96 328.83 137.34 328.04 146.93 274.01 116.79 274.05 116.79" fill="#fff"/>
    </clipPath>
    <clipPath id="mask-text4">
      <path d="M428.62,102.48A26.49,26.49,0,0,0,418.48,92a31.67,31.67,0,0,0-29.86.08,27.38,27.38,0,0,0-10.41,10.46,30.64,30.64,0,0,0-3.79,15.34,29.92,29.92,0,0,0,3.91,15.34,27.85,27.85,0,0,0,11,10.53,33.64,33.64,0,0,0,16.37,3.83l.08,0a33.88,33.88,0,0,0,13.09-2.41,25.58,25.58,0,0,0,9.83-7l-5.8-6.78a21.12,21.12,0,0,1-7.42,5.24,24.71,24.71,0,0,1-9.38,1.74A23.29,23.29,0,0,1,395,135.8a18.16,18.16,0,0,1-7.49-7.06,19.32,19.32,0,0,1-2.49-7.33h47.1a10.66,10.66,0,0,0,.15-1.66c0-.59,0-1.1,0-1.54A32.46,32.46,0,0,0,428.62,102.48ZM385,113.84a20.48,20.48,0,0,1,2.24-7.3,17.24,17.24,0,0,1,6.67-6.9,19.06,19.06,0,0,1,9.74-2.45,18.87,18.87,0,0,1,9.82,2.45,17.85,17.85,0,0,1,6.63,6.86,26.41,26.41,0,0,1,2.19,7.34Z" fill="#fff"/>
    </clipPath>
    <clipPath id="mask-text6">
      <path d="M477.6,147.6a26.5,26.5,0,0,1-13.21-3.35,24.46,24.46,0,0,1-9.55-9.9q-3.54-6.57-3.55-16.45t3.44-16.45a23.22,23.22,0,0,1,9.42-9.86,27.12,27.12,0,0,1,13.41-3.27A30.05,30.05,0,0,1,492.67,92a27.63,27.63,0,0,1,10.41,10.34,30.36,30.36,0,0,1,3.83,15.5,30.51,30.51,0,0,1-3.83,15.54,27.53,27.53,0,0,1-10.41,10.41,30.06,30.06,0,0,1-15.11,3.71Zm-.87-9.19a19.77,19.77,0,0,0,10-2.53,18.27,18.27,0,0,0,7-7.17,24,24,0,0,0,0-21.62,18.25,18.25,0,0,0-7-7.06,19.86,19.86,0,0,0-10-2.52,19.44,19.44,0,0,0-9.9,2.52,18.66,18.66,0,0,0-7,7.06,21.46,21.46,0,0,0-2.56,10.81,22.09,22.09,0,0,0,2.56,10.81,18.14,18.14,0,0,0,7,7.17A19.56,19.56,0,0,0,476.73,138.41Z" fill="#fff"/>
    </clipPath>
    <clipPath id="mask-text7">
      <path d="M552.58,88.32A27.61,27.61,0,0,1,565.12,91a19.56,19.56,0,0,1,8.48,8.32c2,3.71,3.08,8.44,3.08,14.12v33.41H566.15V114.66c0-5.64-1.38-9.86-4.1-12.7s-6.59-4.26-11.56-4.26a20.61,20.61,0,0,0-9.74,2.21,14.9,14.9,0,0,0-6.39,6.47A23.13,23.13,0,0,0,532.11,117v29.9H521.58V65.64h10.53V97a24.31,24.31,0,0,1,6.67-5.56,28.61,28.61,0,0,1,13.8-3.19Z" fill="#fff"/>
    </clipPath>
   <clipPath id="mask-text8">
    <path d="M661.79,147.79a43.83,43.83,0,0,1-16.25-2.95A39.44,39.44,0,0,1,624,93a38.23,38.23,0,0,1,8.56-12.42A39.14,39.14,0,0,1,645.5,72.3a46.64,46.64,0,0,1,32.54,0A39.09,39.09,0,0,1,691,80.47,36.93,36.93,0,0,1,699.46,93a42.27,42.27,0,0,1,0,31.28A38.07,38.07,0,0,1,691,136.67,38.46,38.46,0,0,1,678,144.88a44.39,44.39,0,0,1-16.21,2.91Zm-.12-9.74a30.61,30.61,0,0,0,11.88-2.21,27.86,27.86,0,0,0,9.42-6.19,28.6,28.6,0,0,0,6.23-9.39,30,30,0,0,0,2.25-11.71,29.72,29.72,0,0,0-2.25-11.67A30.07,30.07,0,0,0,683,87.49a27.81,27.81,0,0,0-9.42-6.23,31.52,31.52,0,0,0-11.88-2.21,31.09,31.09,0,0,0-11.79,2.21,28,28,0,0,0-9.46,6.23,30.68,30.68,0,0,0-6.32,32.77,28.22,28.22,0,0,0,6.32,9.39,28.73,28.73,0,0,0,9.46,6.19A31.2,31.2,0,0,0,661.67,138.05Z"/>
  </clipPath>
  <clipPath id="mask-text9">
      <polygon points="719.22 146.93 719.22 70.21 728.21 70.21 774.24 127.37 774.24 70.21 785.21 70.21 785.21 146.89 776.21 146.89 730.18 89.73 730.18 146.89 719.22 146.89 719.22 146.93"/>
  </clipPath>
  <clipPath id="mask-text10">
      <polygon points="819.12 137.38 863.81 137.38 863.81 146.93 808.16 146.93 808.16 70.21 862.27 70.21 862.27 79.76 819.12 79.76 819.12 137.38"/>
  </clipPath>

   <clipPath id="mask-frames">
      <rect x="0" y="10" width="230" height="200" />
  </clipPath>

  </defs>
  <g clip-path="url(#mask-frames)" id="show-atom" opacity="0">
    <g id="atom-frames">
      <g transform="translate(0, 200)">
        <path d="M49.52,118a254,254,0,0,1,76.69-65.92C138,45.35,168,31.48,183.72,37.63a11.77,11.77,0,0,1,7-7.93c-19.75-11-52,3.66-69.45,13.58-33.6,19.6-64.8,47.92-85.7,80.85-8.59,14.2-19.37,35.5-12,52.05,3.95,8.31,12.59,12.15,21.41,12.54,41.1,1.19,98.73-44.24,122.11-76.2C138.47,141.7,90.6,181.09,48.48,182.75c-13.27,0-21.56-6.5-20.19-20.41C30.28,145.89,39.85,131.09,49.52,118Z"/>
        <path d="M191.13,134.86c17.32,36,3.12,53.94-35.5,42.35-34-11-63.72-33.28-88.64-58.47-9.82-10.23-18.93-21.32-26.2-33.45C27,62.44,21,35.92,50.06,36.28a11.61,11.61,0,0,1,1.14-10.2c-.27,0-.53,0-.8,0-13.64-.66-27.47,5.16-30.63,19.65C16.65,61.43,24.65,77.35,32.6,90.32c25.84,40.05,75.45,79.39,121.44,92.5,14,3.55,33,6.46,43.61-6,13.33-18-4.77-46.81-17.05-61A191.1,191.1,0,0,1,191.13,134.86Z"/>
        <g>
          <circle cx="61.11" cy="32.34" r="9.24"/>
          <circle cx="195.06" cy="40.61" r="9.24"/>
        </g>
      </g>
      <g transform="translate(0, 400)">
        <path d="M190.07,42.34a11.61,11.61,0,0,1,10.31-2.61A24.07,24.07,0,0,0,184.5,27c-18.3-4.29-37.41,3.51-53.53,11.18A235.79,235.79,0,0,0,86.74,67.48C66.38,84.4,47.88,103.87,34.16,126.66c-8.23,14.22-19.06,37-8.58,52.53,5.74,8.28,17,10.18,26.24,9.3,26.66-3.07,50.15-17.71,71.31-33a217,217,0,0,0,37.81-36A368.68,368.68,0,0,1,121,152.54c-20.88,14.29-44.1,28-69.57,30.27-7.59.38-16.1-.7-20.62-7.27-7.95-12.85,2.85-33.23,9.88-44.93C61.08,98.68,91.47,72,124.15,53.1c14.45-8,30-15.2,46.5-16.82C178.48,35.61,186.14,36.94,190.07,42.34Z"/>
        <path d="M188.34,127.85a119.79,119.79,0,0,1,7.43,17.39c8.88,26.6-3.08,39.77-30.45,34.56-28-5.9-52.84-22-75-39.56-24-20-47.8-44.24-58.61-73.94-9.17-27.84,8.48-32.55,28.8-28.86A11.63,11.63,0,0,1,63,27.51,72.48,72.48,0,0,0,50.75,26c-13.49-.63-27.43,4.8-30.8,19.29-2.73,12.21,1.72,24.09,7,34.77,24.09,46,86.14,95.7,137.57,104.79,15.22,2.6,34.57-.12,37.33-18.39,1.71-15-6.29-29.28-14.69-41Z"/>
        <g>
          <circle cx="197.79" cy="51.17" r="9.24"/>
          <circle cx="71.98" cy="35.06" r="9.24"/>
        </g>
      </g>
      <g transform="translate(0, 600)">
        <path d="M192.62,50.18a11.6,11.6,0,0,1,10.25,1c0-1-.07-2.09-.18-3.16a23.42,23.42,0,0,0-14.64-19.89c-14.89-5.57-31.34-.54-45.22,4.78C97.59,51.47,42,100.25,24.91,146.58c-4.51,12.37-6.32,30.17,6.9,38,15,8.56,36.35,1.08,50.93-5.21a204.39,204.39,0,0,0,61.89-43.77,357,357,0,0,1-41.28,28.65c-14.27,8.2-29.67,15.45-45.91,18.16C48.37,183.75,37,184,31,176.19c-7.57-10.87-.2-27.77,5.34-38.37,20.27-35.84,52.74-64.44,88.06-85,14-7.66,29.36-14.73,45.14-16.44C183.48,35,191.68,39.45,192.62,50.18Z"/>
        <path d="M196.79,148.23c10,36.39-20.56,37.06-46.35,27.62C113.51,162.1,79.61,135,54.46,105,23.88,67.84,12.38,22.93,70.53,40.07a10.85,10.85,0,0,1-.09-1.4,11.66,11.66,0,0,1,3.48-8.33c-1.26-.41-2.52-.8-3.79-1.17-10.75-2.87-22-4.79-33.09-1.52C16.67,34.12,16.41,54.84,23.29,71.73c18.85,44.91,70.58,87,114.79,105.32,15.85,6.27,40.47,13.89,55.75,3.14,16.61-13.47,4.58-38.46-5.29-52.46A116.22,116.22,0,0,1,196.79,148.23Z"/>
        <g>
          <circle cx="82.18" cy="38.67" r="9.24"/>
          <circle cx="196.69" cy="61.18" r="9.24"/>
        </g>
      </g>
      <g transform="translate(0, 800)">
        <path d="M191.69,60.07a11.52,11.52,0,0,1,1.67-.14,11.71,11.71,0,0,1,8.09,3.26,50.2,50.2,0,0,0,1.46-9.32c.74-10.59-3.84-21-14.17-25.39-17.65-7.38-41.79,2-57.88,10C90,59.41,42.93,101.54,25.79,144.72c-4.57,12-7.5,28.76,3.78,38.05,11,8.43,26,5.5,38.21,2,24-7.56,45.69-21.58,64.12-38.33q-10.23,7.13-20.78,13.61c-14,8.41-28.71,16.19-44.54,20.57C53.54,184.3,31.35,187,28,169.59c-3.09-20.89,17.18-47.73,30.32-63,26-29.63,70.83-64.68,110.58-70.21C190.06,34.16,195,44.9,191.69,60.07Z"/>
        <path d="M197.87,150.05c8.06,36.26-24.23,34.81-48.85,25.51C106,159.16,57.77,118.77,36.3,77.88,14.39,32.37,46,31.13,76.62,42c0-.25,0-.5,0-.75a11.72,11.72,0,0,1,3.94-8.75c-2.65-1-5.33-1.91-8-2.73C28,16.14,5.73,40.32,28.21,82.08c23.8,42.79,73.13,82.18,119.17,98.2,14.5,4.58,35.75,9.55,48.26-1.91,10.45-10.71,5.4-27.35-.89-38.88A87.22,87.22,0,0,1,197.87,150.05Z"/>
        <g>
          <circle cx="88.32" cy="41.27" r="9.24"/>
          <circle cx="193.36" cy="71.67" r="9.24"/>
        </g>
      </g>
      <g transform="translate(0, 1000)">
        <path d="M190.29,65.14c.27,0,.53,0,.81,0A11.66,11.66,0,0,1,199.77,69c.24-.69.48-1.38.7-2.08,5.24-15.92,3.13-34.27-15.28-39.67C156.47,20,116.54,44.86,94.45,61.75,65.73,84,26.47,123.69,22,161.15c-.86,9.43,2.09,18.94,10.83,23.65C40.64,189,50,188.53,58.43,187c24.48-5.12,46.41-18.41,65.37-34.26-13.85,8.81-28,17-43,23.18-13.4,5.43-40,14-50.32.14-5-7.4-2.86-17.65-.12-25.65,17.8-47.11,84-102.84,133.08-113.22C191,31.94,196.53,45.46,190.29,65.14Z"/>
        <path d="M199.8,158c.18,5-.6,10.5-3.37,14.69-8.21,11.69-25.06,9.28-37.26,6.23-33.46-9.63-62.61-31-87.5-54.85C55,107.83,24.32,71.62,29.79,47.34c5.73-18.74,36.84-9.51,53.48-2.74,0-.06,0-.12,0-.18a11.72,11.72,0,0,1,4.25-9A130.86,130.86,0,0,0,72.4,29.78c-17.83-5.67-46-7.81-52.13,15C16.06,63.06,27.86,83,37.8,97.35a244.54,244.54,0,0,0,99.85,79.19c15.31,6.05,37.12,13,52.83,5.19,11-5.66,12.36-18.32,8.83-29C199.54,154.48,199.71,156.23,199.8,158Z"/>
        <g>
          <circle cx="95" cy="44.42" r="9.24"/>
          <circle cx="191.1" cy="76.84" r="9.24"/>
        </g>
      </g>
      <g transform="translate(0, 1200)">
        <path d="M200.38,161.81c-.76,11.58-8.39,18.63-19.73,19.54C129.72,184.61,45.79,113,31.08,65.67c-7.72-24.53,5.57-32.75,28.73-28.3a129.52,129.52,0,0,1,29.13,9.82,11.7,11.7,0,0,1,4.59-9.13c-13.56-6.55-28-11.57-43.26-12C30.67,25.48,17.15,37,19.75,57.24c3.81,24.88,22.56,47.61,39.43,65.13,25.41,25.22,55.5,46.69,89.67,58.07,13.32,4,29.89,7.82,42.69.35C198,176.87,201.12,169.08,200.38,161.81Z"/>
        <path d="M173.17,25.92c-17,.76-33,7.78-47.76,15.65-4.35,2.41-8.76,5.06-13.2,7.91a11.75,11.75,0,0,1-11.54,9.61,12.38,12.38,0,0,1-2.12-.2c-31.08,22.84-60.89,54.83-73.19,88-3.35,10-5.62,22.06.57,31.51,6.46,9.54,19.37,10.51,29.74,8.88,20.25-3.32,38.71-13.41,55-25.43-7.08,3.91-14.25,7.59-21.56,10.89C74.48,179.07,54,187.24,38.2,182a15.64,15.64,0,0,1-10.28-11.17c-5.25-25.49,26.88-62.47,44.34-79.23,22.83-21.71,49.09-40.79,79-51.32,39.51-12.79,49.07,3.68,35.65,33.47a11.71,11.71,0,0,1,9.07,4.71,82.31,82.31,0,0,0,5.21-13.8C207.48,42.4,197.4,25.17,173.17,25.92Z"/>
        <g>
          <circle cx="186.55" cy="85.5" r="9.24"/>
          <circle cx="100.67" cy="47.35" r="9.24"/>
        </g>
      </g>
      <g transform="translate(0, 1400)">
        <g>
          <path d="M30.32,176.36c-4.69-6.74-3.39-15.52-1.24-23.06,8.42-26,29.38-49.07,49.17-67.41a308.83,308.83,0,0,1,28-22.24,11.79,11.79,0,0,1-6.8-5.35C69.66,80,42.19,109.46,28.21,139.9c-4.84,11.26-9.48,26.4-2.59,37.77,4.74,8,14.91,10.52,23.52,10.09,20.91-1.22,40.15-11.38,57-23.07-10.9,5.66-22,10.88-33.59,14.66C60.39,183.23,39.2,188.32,30.32,176.36Z"/>
          <path d="M201.45,42.32c-2.42-7.52-9.08-13.13-16.6-15.07-16.93-4.13-35.52,2.91-50.68,9.94-5,2.45-10.1,5.21-15.19,8.22a11.66,11.66,0,0,1,2.33,7,11.91,11.91,0,0,1-.13,1.69,154.4,154.4,0,0,1,39.13-16.47c42.57-9.4,35.43,21.42,21.5,45.9a11.71,11.71,0,0,1,8.6,5.47,114,114,0,0,0,6.83-13.17C201.58,65.49,205.13,53.62,201.45,42.32Z"/>
        </g>
        <path d="M180.6,181.72c-50.32,2.18-125.89-62.36-146-106.64C26.11,57,23.75,35.29,50,36.18c16.75.9,32.86,7.66,47.84,15.54a11.69,11.69,0,0,1,5-9A157.38,157.38,0,0,0,72.48,29.81c-41.2-12.56-66,7.63-45.63,49,19.27,37.27,56.07,68.56,92.37,88.62,18.56,9.53,40.28,19.48,61.7,16.73,7.11-1.05,14.41-5,17.17-11.94C194.39,178.38,187.48,181.21,180.6,181.72Z"/>
        <g>
          <circle cx="180.46" cy="95.19" r="9.24"/>
          <circle cx="109.57" cy="52.41" r="9.24"/>
        </g>
      </g>
      <g transform="translate(0, 1600)">
        <path d="M171.07,181.86c-50.8-6.66-124-67.72-140.23-116.12-7.84-25,5.94-33.09,29.22-28.47,16.8,3.52,32.48,11,47.33,19.84a11.73,11.73,0,0,1,5.49-8.68A184.25,184.25,0,0,0,83.31,33.56c-14.15-5.22-29.55-9.66-44.71-6C24.45,31.14,18.1,43.41,20,57.17c2.73,18.67,13.67,34.65,25,49.07C72,138.62,109.41,167,149.59,180.3c13.06,3.86,30.06,7.31,42-1C185.25,182.55,178,182.67,171.07,181.86Z"/>
        <g>
          <path d="M38,133.31C54.59,105.9,80.5,80.91,108,62.4a11.58,11.58,0,0,1-.72-4,11.69,11.69,0,0,1,2.58-7.33,265.36,265.36,0,0,0-63.07,58.48c-12,15.88-32,47.18-21.62,67.13a20.73,20.73,0,0,0,13.35,9.89c19.69,4.46,42.75-6.63,59-16.88-11.16,5.16-22.52,9.81-34.49,12.5C20.64,191.37,20.54,162.5,38,133.31Z"/>
          <path d="M200.77,40.77c-7.38-17.28-29.05-16.31-44.21-12C143.1,32.66,129.51,39,116.4,47a11.65,11.65,0,0,1,11.27,3.48c15.34-8.19,45.35-21.14,59.81-11,6.05,4.59,5.84,13.22,4.21,20.32-2.86,11.91-9.09,23.12-16.15,33.49a11.76,11.76,0,0,1,8.25,6,147.08,147.08,0,0,0,8.3-13.11C199.26,72.91,206.69,56,200.77,40.77Z"/>
        </g>
        <g>
          <circle cx="119.05" cy="58.4" r="9.24"/>
          <circle cx="173.42" cy="104.83" r="9.24"/>
        </g>
      </g>
      <g transform="translate(0, 1800)">
        <path d="M179.1,182.86c-9.72.13-19.25-2.6-28.37-5.77-42.4-15.47-88.67-54.2-111.66-92.95C28.06,65.6,18.24,34.52,50.64,36c23,1.73,46,14,65.83,26.93a11.75,11.75,0,0,1,5.85-8.48A207.85,207.85,0,0,0,93.88,38.14C77.17,30.67,57.72,23.48,39.06,27.6,13.93,34.28,17.67,60.27,27,78.47,48.82,122.82,111.75,173,160.28,182.64c7.09,1.29,14.48,1.72,21.5.17Z"/>
        <path d="M200.4,40.09c-2.92-6.55-9.29-11.16-16.19-12.78-17.47-3.93-36.65,3.74-52.11,11.12a251.33,251.33,0,0,0-93,82.37C30.31,134.55,20.21,153.13,23,169.93a20.62,20.62,0,0,0,17,16.82c16.59,2.93,33.7-4.3,48-12.07a162.74,162.74,0,0,1-23.42,7.52c-7.75,1.69-16,2.8-23.75,1-23.37-5.85-12-34.75-3.46-49,23.47-40.7,85-92.69,132.36-98.34,10.07-.93,21.49,1.07,22.9,12.92,1.53,17-11.75,38-23.48,53.26a11.79,11.79,0,0,1,7.92,6.48c3.05-3.82,6-7.74,8.69-11.82C195.57,81.59,208.21,58.4,200.4,40.09Z"/>
        <g>
          <circle cx="166.34" cy="113.46" r="9.24"/>
          <circle cx="128.06" cy="64.67" r="9.24"/>
        </g>
      </g>
      <g transform="translate(0, 2000)">
        <path d="M43.33,183.9c-25.55-4-16.16-32.2-7.29-47.78,23.13-40,67.16-77,109.81-94.32,10.92-4.07,22.59-7.51,34-5.72,9.35,1.65,13.55,8,12.9,17.35-1.76,19.66-17,41.07-31,57.41a11.77,11.77,0,0,1,7.58,6.84c16.39-18.53,33.74-43.6,33.37-67.36-.63-12.69-8.71-21.51-21.25-23.46-13.42-1.95-26.74,2.13-38.8,6.93C98.08,53,54.9,91.13,31.62,133.77c-7,13.85-15.83,36.73-1.08,48.66,11.6,8.42,28,4.29,40.32-.25,2.92-1.13,5.79-2.39,8.6-3.75C67.76,182.12,55.54,185.55,43.33,183.9Z"/>
        <path d="M151.17,177.6C118,165.12,88.88,143.25,64.56,117.8c-15.24-16.64-33-39-36-61.68C26,30.77,53.88,34.29,70.29,39.71c19.85,6.5,38,17.13,55,29.3a11.78,11.78,0,0,1,6.2-8.16,206.29,206.29,0,0,0-47.8-27C66.8,27.47,39.07,20,25.3,36c-12,15.58-1.44,37.8,7.24,52.32,23,36,59.41,65.56,97.62,84,13,5.95,27.11,10.8,41.57,10.85A109.67,109.67,0,0,1,151.17,177.6Z"/>
        <g>
          <circle cx="158.49" cy="122.11" r="9.24"/>
          <circle cx="136.79" cy="71.3" r="9.24"/>
        </g>
      </g>
      <g transform="translate(0, 2200)">
        <path d="M201.73,44.57c-2.56-10.69-11.65-16.84-22.21-17.88C161.87,25.2,145,32.31,129.63,39.94c-37,19.74-69.4,48.74-92.23,84-8.11,13.44-17.85,32.14-13.58,48.25,5.86,19.29,30.13,15.94,44.86,10.09-8,1.78-16.28,3.13-24.37,2.07-31.22-4.48-14-41.35-2.7-57.72,25.17-37.17,71-75,114.08-88.27,27.05-7.78,45.45-.9,33.59,29.89-7.83,19.27-21,35.94-35.32,51.13a11.74,11.74,0,0,1,7.24,7.21,204.1,204.1,0,0,0,25.68-31.74C195.71,80.58,205.64,62,201.73,44.57Z"/>
        <path d="M44.08,92.62C36,80.28,25,61.25,29.29,46.32c3-9.18,13.47-11.18,22.16-10.57,29.25,2.82,59.18,21.72,83.05,40.37a11.76,11.76,0,0,1,6.55-7.94,240.16,240.16,0,0,0-26.94-19.06C93.56,37,64.61,22.94,40.05,27.62c-8.32,1.57-16.31,7.68-18.73,16.12-5,18.18,7,38.64,16.93,52.91,21.35,29.3,50,52.9,81.64,70.29,12.68,6.76,26.27,12.35,40.53,14.51a195.4,195.4,0,0,1-38.76-17.68C91.38,145.72,64.08,121.71,44.08,92.62Z"/>
        <g>
          <circle cx="150.14" cy="130.48" r="9.24"/>
          <circle cx="145.9" cy="78.86" r="9.24"/>
        </g>
      </g>
      <g transform="translate(0, 2400)">
        <path d="M178.85,26.74c-21.45-1.36-43.09,9.43-61,19.94C81.91,68.55,40,108.06,25.78,148.25c-9.3,27.23,4.36,43.71,32.7,36.55-6.17.61-12.43.81-18.38-.91-25.68-7.91-9.34-41,.59-56.11C64.35,92.11,104.18,59.07,143.6,42.43c17.33-7.34,54-16.07,49,14.54-5.2,25.74-27.07,51.38-46.92,70.63a11.8,11.8,0,0,1,7,7.54,229.9,229.9,0,0,0,27-29.91c10.72-14.89,21.15-31.51,22.81-50.31C203.7,39.15,194.46,28,178.85,26.74Z"/>
        <path d="M33.61,74.39C29.13,64,23.65,47.82,34,39.47c12.35-8.62,34.26-1.28,47.15,4,22.63,9.66,43.19,23.76,61.88,39.75a11.78,11.78,0,0,1,6.88-7.61,253.4,253.4,0,0,0-26.4-20.41c-22.08-14.51-56-32.52-83.22-27.5-8.38,1.58-16.21,7.39-18.81,15.85-4.35,15.05,3.25,31,10.7,43.69,19.29,30.82,47.49,55.25,78.23,74.12,12.36,7.38,25.55,13.66,39.5,17.17a249.93,249.93,0,0,1-37.58-20.25C81.05,137.47,49.93,108.62,33.61,74.39Z"/>
        <g>
          <circle cx="154.33" cy="86.48" r="9.24"/>
          <circle cx="141.37" cy="138.52" r="9.24"/>
        </g>
      </g>
      <g transform="translate(0, 2600)">
        <path d="M180.2,27c-18.21-2-37.23,6.26-53,14.46-39.39,21.23-88,65.7-101.93,109-3,10-3.95,23.17,4.9,30.62,5,4.14,12,5.17,18.19,4.7-7-.47-14.57-2.46-18.75-8.44-9.16-13.52,2.23-35.51,9.83-47.84C64,91.32,110,53.25,153.17,38.89c25.25-8,48.44-4.54,37,27.53a135.59,135.59,0,0,1-16.25,29.3,11.75,11.75,0,0,1-7.33,9.52,272.09,272.09,0,0,1-28.79,29.5,11.76,11.76,0,0,1,6.65,7.82,246.34,246.34,0,0,0,28.33-28.72c13.19-16.38,26.85-36.1,29.44-57.51C203.92,41.07,196.07,28.88,180.2,27Z"/>
        <path d="M29.74,64.26C26,51.67,27.5,38.26,42.63,35.9c9.84-1.53,20.1.92,29.52,4,29.69,10.51,56,29.3,79,50.71a11.76,11.76,0,0,1,7.23-7.34,252.67,252.67,0,0,0-25.32-21.34C110,45.38,81.66,29.15,52.82,27,34.3,25.71,19,34.72,20.42,55,21.76,70.1,29.64,83.61,38,95.77c16.93,23.67,38.86,43.16,62.85,59.31,12,7.94,24.8,14.84,38.47,19.42a284.83,284.83,0,0,1-68.92-49.89C53.41,107.21,37,87.75,29.74,64.26Z"/>
        <g>
          <circle cx="162.29" cy="94.34" r="9.24"/>
          <circle cx="133.12" cy="145.49" r="9.24"/>
        </g>
      </g>
      <g transform="translate(0, 2800)">
        <path d="M31.1,68.79c-2.93-8.54-5.5-19.37.31-27.05,8.18-9.61,25-6.36,35.84-3.43,32.83,10.12,62.49,31.69,87.3,55.6a11.79,11.79,0,0,1,7.37-7.22A247.31,247.31,0,0,0,137.15,65C113.86,47.66,87.74,32.22,58.59,27.55,47.05,26,33,26.76,25.19,36.92c-7.55,10.15-4.92,23.58-.72,34.37C38.58,104.47,67,130.76,95.72,151.43a173.34,173.34,0,0,0,37.71,20.44A337.1,337.1,0,0,1,97.85,148.5C71.57,128.4,43.09,100,31.1,68.79Z"/>
        <path d="M202.13,48.19c-1-8.64-6-15.88-14.17-19.14C170.26,22.38,148,31.33,132,39,91.29,59,32.24,112,23.68,157.85c-2.34,14.48,3.84,26.83,19.51,27.64a23.75,23.75,0,0,1-11.1-5,17.58,17.58,0,0,1-5.64-10.18c-2.24-15.62,7.39-32.38,15.71-45.12C65.68,91.51,98.62,64,135.35,45.89a133.24,133.24,0,0,1,22.73-8.47c7.38-1.84,15.48-3.12,22.8-1.52,12.34,2.66,13.84,13.4,11.24,24.22-3,11-8.71,22.05-16,32.57a11.73,11.73,0,0,1-13,16.62,288.57,288.57,0,0,1-29.39,28.95,11.76,11.76,0,0,1,6.48,7.93,252.89,252.89,0,0,0,28.95-28.12C184.31,100.31,204.35,72.67,202.13,48.19Z"/>
        <g>
          <circle cx="165.6" cy="97.83" r="9.24"/>
          <circle cx="128.83" cy="148.9" r="9.24"/>
        </g>
      </g>
      <g transform="translate(0, 3000)">
        <path d="M173.11,98.5a230.11,230.11,0,0,0-21.93-21.9C125.24,54.52,94,34.11,59.93,28c-10.57-1.6-23.69-1.53-32.3,6.54C18.82,43,19.82,56.48,23.32,67c9.33,26.34,29,47.39,49.38,65.71a191.14,191.14,0,0,0,32,22.91,2.68,2.68,0,0,1,.07-.27c-7.56-6-15-12.06-22.11-18.47C61,117.4,38.55,93.13,29.49,65.08c-3.48-11.47-3.16-25.51,10.6-29,12.12-3,25.66,1,37.33,5.36,33.32,13.38,63.58,37,87.83,63.7A11.76,11.76,0,0,1,173.11,98.5Z"/>
        <g>
          <path d="M191.6,62.69c-4.1,12.53-11.14,24.73-19.83,36.24a11.63,11.63,0,0,1,11.1,1.44C193.6,85,202.08,67.79,202.21,51.51c.06-10.34-5.94-20-16.28-23-13.21-3.94-27.07-.05-39.28,4.32C101.16,49.59,36.07,106.52,24.71,154.58c-1.68,8.11-1.58,17.81,4.5,24.14a20.32,20.32,0,0,1-3.72-11.53c-.2-12.37,5.64-23.89,11.6-34.42C61.24,93.21,105.89,56.1,149.25,40,171.56,31.89,200.94,30.26,191.6,62.69Z"/>
          <path d="M164.26,109.87a12,12,0,0,1,.15-1.81c-12.87,15-28.17,28.62-42.77,39.82a11.78,11.78,0,0,1,6,8.32,263.58,263.58,0,0,0,30.94-26.76c3.14-3.25,6.46-6.82,9.8-10.66A11.69,11.69,0,0,1,164.26,109.87Z"/>
        </g>
        <g>
          <circle cx="176" cy="109.87" r="9.24"/>
          <circle cx="116.09" cy="158.22" r="9.24"/>
        </g>
      </g>
      <g transform="translate(0, 3200)">
        <path d="M189.84,30.18C172.49,21.8,148,31.47,132,39.35,91.6,60,42.69,103.67,27.06,146.88c-2.59,8-4.28,17-1.44,25.11-1.67-8.25.7-16.62,3.75-24.27,18.58-42.57,64.37-82,105.71-102,13.58-6.32,42.64-17.74,54.71-5.23,4.76,5.56,4.06,13.27,2.48,20.14-10,35.29-47.33,71-78.9,93.22a11.76,11.76,0,0,1,5.65,8.55,259.05,259.05,0,0,0,31.52-25.18,288.47,288.47,0,0,0,21-22.11,11.79,11.79,0,0,1,5.31-6.55c10.89-14,19.92-29.45,24.1-45.91C203.74,50.37,202.21,36.64,189.84,30.18Z"/>
        <path d="M180.42,107.2A219.17,219.17,0,0,0,158.8,83.58c-26-23.95-56.34-44.7-90.9-53.87-10.84-2.53-22.55-4.05-33.24.36C22.34,35.19,19,48.4,21.69,60.42c6.21,26.92,28,50.89,47.67,69.19a194.38,194.38,0,0,0,32.4,24l.24-.12Q94.43,147.38,87.12,141C64.18,120.75,41.73,97.76,30.59,68.79c-4-10.8-6.1-26.85,7-31.93,14.54-5.27,33.66,1.69,47.33,7.61,33.74,15.72,63.77,40.1,87.31,69A11.77,11.77,0,0,1,180.42,107.2Z"/>
        <g>
          <circle cx="182.65" cy="118.72" r="9.24"/>
          <circle cx="107.39" cy="163.92" r="9.24"/>
        </g>
      </g>
      <g transform="translate(0, 3400)">
        <path d="M201.43,46.11c-2-10.7-10.48-17.42-21.12-18.68C127.69,21.3,26.24,109.5,24.73,162.21c2-12.37,8.27-23.77,14.94-34.21C60.53,96.81,89.55,71.19,121.9,52.4c16.43-9.09,39.76-20.11,58.64-16.95,12.07,2.49,14.53,12.18,12.26,23.21-9.21,38.13-53.41,78.82-88.48,101.13a11.72,11.72,0,0,1,5.19,8.79,249.15,249.15,0,0,0,33-24.17C166,124.33,206.89,79.11,201.43,46.11Z"/>
        <path d="M187.05,116.1a197.26,197.26,0,0,0-21-25.26c-25.42-25.48-55.62-47-89.91-58.68-13.87-4.23-30.79-8.08-44.36-.53C24.53,35.8,20.64,44.45,21,52.54c1,26.79,25.71,55.14,44.11,72.93a195.35,195.35,0,0,0,33.76,26c-26.47-22.55-53.24-47-67.14-79.48-4.34-10.77-8.34-27.18,3.72-34.19C47,32,61.81,36,73.61,39.87c39.66,14.52,79.56,46.93,104.82,81.93A11.75,11.75,0,0,1,187.05,116.1Z"/>
        <g>
          <circle cx="97.82" cy="169.55" r="9.24"/>
          <circle cx="188.54" cy="127.73" r="9.24"/>
        </g>
      </g>
      <g transform="translate(0, 3600)">
        <path d="M192.29,31.88c-18.31-11.77-47.39.95-64.62,10-35.83,19.78-71.35,51.41-91.85,87a89.08,89.08,0,0,0-9.33,23.67,115.14,115.14,0,0,1,11.44-22.41c25.43-39,71.06-77.57,115.58-92,10.68-3,26.58-6.68,35.65,1.3,11.9,12.24-2.59,38.06-10.35,49.9-21,30.77-51.28,57.37-83.93,75.84a11.71,11.71,0,0,1,4.75,9.08,232.48,232.48,0,0,0,34.55-23.07c26.28-21.64,51.61-48.11,64.08-80.39C203,58.27,205,40.62,192.29,31.88Z"/>
        <path d="M193.15,125.51a170.51,170.51,0,0,0-19.41-26.39C145.3,68,106.51,39.28,65,29.26c-11.15-2.24-23.69-3.41-33.87,3-7.2,4.44-10.49,13.26-10,21.32,1.55,24.19,21.45,48.46,37.53,65.33a193.43,193.43,0,0,0,33.1,27.3A420.18,420.18,0,0,1,61.3,116.43C47.15,101,20.37,66,29,44.4c6.14-12.34,23-10.25,34.32-7.69,44.59,11.58,95.51,52.93,120.75,93.8A11.69,11.69,0,0,1,193.15,125.51Z"/>
        <g>
          <circle cx="193.69" cy="137.22" r="9.24"/>
          <circle cx="87.9" cy="174.68" r="9.24"/>
        </g>
      </g>
      <g transform="translate(0, 3800)">
        <path d="M189.9,30.55c-8.64-4.41-19.05-3.72-28.18-1.78C117,39.21,65.79,82.55,41.16,120.59a113.54,113.54,0,0,0-11.41,22.83c7.79-15,18.14-28.44,29.45-40.94C81.92,77.93,109,56.8,139.65,43.19c13-5.33,27-10.24,41-7.93.41.09,1.61.44,2,.51s1.44.53,1.9.67,1.43.68,1.76.84c.49.36,1.13.66,1.6,1,14,11-.32,37.68-7.9,49.47-21.39,32.77-58,64.38-94.2,82.17a11.75,11.75,0,0,1,4.18,9c0,.14,0,.28,0,.42q7-3.28,13.68-7.13c35.77-21,71.28-54,90.23-91.22C201.48,65.75,208.63,40.85,189.9,30.55Z"/>
        <path d="M197.69,135.22c.24,0,.47,0,.71,0a.54.54,0,0,1-.05-.11,144.09,144.09,0,0,0-17.9-28C154,74.83,114.84,45.09,75,32c-13.87-4.16-31.57-7.77-44.51.88-14,10-9.42,29.87-3,43,13,26,33.27,47.53,56.69,64.28-22.15-21.66-54.45-54-57-86C26.5,38.32,38.77,33.51,52.64,34.82c47.27,5,113.53,58.81,136.23,104.41A11.67,11.67,0,0,1,197.69,135.22Z"/>
        <g>
          <circle cx="197.69" cy="146.96" r="9.24"/>
          <circle cx="78.22" cy="178.93" r="9.24"/>
        </g>
      </g>
      <g transform="translate(0, 4000)">
        <path d="M197.15,36.9c-11.78-15.19-35.32-9.06-50.43-3.46C114.64,46.11,86.81,68,63.21,92.78c-11.61,12.54-22.1,26.37-29.27,41.94C43,120.3,54,107.35,65.82,95.29,89.57,71.67,117.26,51,148.9,39.44c11.34-3.9,29.49-8.51,39.54-.79,12.84,10.82-.08,35.88-7.25,47.44-22.48,35.44-64.84,71.7-105.24,88.13a11.72,11.72,0,0,1,3.51,8.36,12.26,12.26,0,0,1-.09,1.36,151.14,151.14,0,0,0,14.29-6.33c23.27-11.81,44.14-28,62.52-46.32,12.24-12.33,23.4-25.76,32.38-40.72C197,76.13,208.19,52.62,197.15,36.9Z"/>
        <path d="M200.21,146.48a12.2,12.2,0,0,1,2.72.33c-5.33-18-17.67-34.34-29.76-48.09C148.62,72,118.91,49.7,85.26,35.81,69.42,29.7,46,22.73,30.59,33c-7,4.79-9.75,13.32-9.11,21.37,1.9,23.38,22,48.67,38.14,64.71a171.87,171.87,0,0,0,16.25,14c-17-18-33.94-36.51-44-59.29-3.69-8.94-7-19.66-3.43-29,8.38-18.45,39.72-8,53.88-2,38.08,17,71.76,45.16,96.09,78.92,5.78,8.35,11.27,17.57,14.47,27.26A11.67,11.67,0,0,1,200.21,146.48Z"/>
        <g>
          <circle cx="67.72" cy="182.58" r="9.24"/>
          <circle cx="200.21" cy="158.22" r="9.24"/>
        </g>
      </g>
      <g transform="translate(0, 4200)">
        <path d="M200.34,43.49c-4-13.21-17.54-17-29.85-15.77-21.84,2.35-41.69,13.16-59.81,24.91-28.21,19.25-54.37,43-71.34,72.92a280.07,280.07,0,0,1,34-37.78c24.49-22.37,53.22-42.89,85.6-51.46,10.84-2.5,27.31-4.64,33.32,6.95,5.45,12.55-3.55,30.4-10.08,41.39-22.64,37.1-72.27,79.67-116.28,93a11.7,11.7,0,0,1,2.67,7.45,11.34,11.34,0,0,1-.31,2.63,119.25,119.25,0,0,0,15-5.25c41.91-18.37,82.65-54.32,106.15-93.55C196.71,75.93,204.73,58.66,200.34,43.49Z"/>
        <path d="M199.66,156.14a11.67,11.67,0,0,1,5.52,1.38c-2.12-24.5-24.37-51.25-39.84-66.92C138,63.72,102,38,64.19,29.53,28.17,22,11.8,42,27.66,75.46,37,95,51.31,111.79,67.72,125.55c-7-8-13.85-16.14-20.1-24.75C39.47,89.54,31.93,77.39,28.25,63.94c-5.41-20.06,3.69-31.35,24.46-29.43,43,5,93.27,45.25,119.38,78.54,8.65,11.18,20.58,28.55,22.77,44.13A11.68,11.68,0,0,1,199.66,156.14Z"/>
        <g>
          <circle cx="199.66" cy="167.88" r="9.24"/>
          <circle cx="56.83" cy="185.07" r="9.24"/>
        </g>
      </g>
      <g transform="translate(0, 4400)">
        <path d="M201.22,47.75a26.39,26.39,0,0,0-2.12-7.18,21.29,21.29,0,0,0-10.85-10.39C167.52,21.67,136.91,36.8,119,47.5,89.85,65.61,63.05,88.88,44.48,118A310.82,310.82,0,0,1,80.19,81.41C103.74,61.1,137,38.57,168.28,34.52c8.9-1,20.19,0,24.24,9.09,4.88,11.91-3,28.34-9,39.05-21.15,35.07-55.68,64.82-91.54,84.18-11.2,5.73-23.57,11.21-36.08,13.14a11.68,11.68,0,0,1,.6,10.22c22.43-3.06,44.4-15.45,62.66-28,28.35-20.16,54-45.17,71.43-75.53C196.92,74.76,202.76,61.71,201.22,47.75Z"/>
        <path d="M195,164.68h.13a11.69,11.69,0,0,1,9.38,4.72,34.07,34.07,0,0,0,.61-13.64c-8.94-52.51-90.1-116-140.66-126-26.9-5.95-49.53,4-40.73,34.89,6.51,20.7,20.32,38.19,36,52.77C46,99.64,27.54,76.46,26.56,53.54c-.29-10.65,6.05-17.71,16.58-19,20.21-2,40.61,8,58.09,17.5,29.93,17.41,56.91,40.88,77,69.14C185,130.93,197,150.62,195,164.68Z"/>
        <g>
          <circle cx="195.13" cy="176.42" r="9.24"/>
          <circle cx="45.63" cy="185.71" r="9.24"/>
        </g>
      </g>
      <g transform="translate(0, 4600)">
        <path d="M178.24,27.94c-24.78-1.32-53,14.87-72.84,28.61-21.19,15-40.71,32.89-55.56,54.29C78.27,80,113,50.65,153.37,37.54c12.93-3.81,35.86-8.21,40.27,9,2.73,15.2-7.37,32.44-15.59,44.91-23.69,33.84-58.68,63.06-96.2,80.3-10.14,4.34-24.34,9.75-36.35,8.78a12.48,12.48,0,0,1,.19,2,11.72,11.72,0,0,1-3.08,7.9c14.92,1.89,30-3.4,43.46-9.26C129.33,162,191.58,106.91,200.85,59.16,203.76,42.45,195.88,29.13,178.24,27.94Z"/>
        <path d="M202.27,144.42c-10.47-27.6-31.61-49.76-53.5-68.76C122.3,53.73,87.36,30.92,52.26,28.32c-11.58-.65-25,3.11-29,15.36C16.48,65.89,38.63,96,53.78,110.84,42,94.25,28.18,75.43,26.43,54.87,25.2,28.54,54.85,32.45,72,38.47c44.15,15.62,91.2,54.81,114.29,95.54,5.39,10.09,13.32,28.14,5.84,37.9a11.73,11.73,0,0,1,5.5,9.21C207.3,172.43,207.11,157.32,202.27,144.42Z"/>
        <g>
          <circle cx="185.96" cy="181.86" r="9.24"/>
          <circle cx="33.95" cy="182.58" r="9.24"/>
        </g>
      </g>
      <g transform="translate(0, 4800)">
        <path d="M170.22,28.08C141,31.41,111.47,50.9,89.09,69.1a209.12,209.12,0,0,0-35.81,37.49c28.88-29.8,64.56-59.47,105.17-70.51,11.81-2.89,30.74-5,35,9.61,3.89,16.06-9.28,37.34-18.43,50.13-24.32,32.74-60.24,62.28-98,78-9.16,3.62-24.39,8.66-35.48,6.2a11.73,11.73,0,0,1-5.09,9.14c27.44,8.75,69.55-16.82,90-32.48C155,135.51,201.66,88.29,201.31,51,200.56,33.11,186.3,26.46,170.22,28.08Z"/>
        <path d="M203.92,149.77c-8.33-28.11-29.93-51.38-51.13-70.56-26.23-22.7-60-45.13-94.9-50.34C45,27,28.11,29.44,23.39,43.58c-6.48,21.07,12.84,48.47,26.81,63-4.07-5.86-8-11.79-11.51-17.9C13.17,45.43,27.77,21.82,77,40.17c42.11,16.65,87,54.23,109.28,93.71,6.57,11.78,14.5,32.49,3,40.8a11.71,11.71,0,0,1,3.39,8.24,11.4,11.4,0,0,1-.15,1.76C204.61,178.41,208,164.53,203.92,149.77Z"/>
        <g>
          <circle cx="29.88" cy="179.45" r="9.24"/>
          <circle cx="180.97" cy="182.92" r="9.24"/>
        </g>
      </g>
      <g transform="translate(0, 5000)">
        <path d="M159.17,30.21C124,39.59,86.52,67.54,63.33,95.27c25.22-23,52.66-44.56,85-56.34,14.45-5.16,43.09-11.68,46,9.8,1,13.73-6.17,26.79-13.15,38.37-22.38,34.42-57.53,64.36-94.31,82.5-12.19,6.05-43.91,18.25-54.06,5.28a11.7,11.7,0,0,1-8.09,3.25,11,11,0,0,1-2.16-.21,24,24,0,0,0,15.56,11.83c18.22,4.19,37.1-3.5,53.16-11.11,41.38-20.77,93-67,107.56-111.79C208.12,35.3,188.32,22.61,159.17,30.21Z"/>
        <path d="M192.59,125.15C167,85,120,47.6,74.67,32.87c-13.49-4-31-7.54-43.54.84-19.36,14.61-2.61,45.13,9.11,59.6a161.32,161.32,0,0,1-9.39-19.08c-12.49-30.46-.42-46.34,32-38.72,23.82,5.92,45.23,19,64.75,33.6,24.59,19.09,47.69,42,61.5,70.05,10.63,22.67,8.25,39-14.14,39a11.87,11.87,0,0,1,.72,4,11.58,11.58,0,0,1-1.79,6.19l.58,0c13.3.57,26.94-5.21,30.16-19.27C208,153.64,200.3,138,192.59,125.15Z"/>
        <g>
          <circle cx="163.98" cy="182.17" r="9.24"/>
          <circle cx="24.69" cy="166.39" r="9.24"/>
        </g>
      </g>
      <g transform="translate(0, 5200)">
        <path d="M187,30.22c-14.15-5-31,.26-44.31,5.68C114.84,47.94,89.81,66.47,69.51,89c22.78-19.44,47-37.69,75-48.74,21.37-8.7,57.33-14,48.81,20.82-11.5,39.68-56.85,80.25-91.67,100.78C85.1,171.24,62,182.66,42.82,180.16c-8.18-1.29-11.93-6-12.87-12.34a11.65,11.65,0,0,1-10.32-.64,33.05,33.05,0,0,0,.52,4c1.87,10.29,9.78,17.15,20,19.09,14.79,2.56,29.67-2.39,42.91-7.89,43.45-19.17,93.25-63.21,112.54-106.94C202.2,60.41,205.94,37.75,187,30.22Z"/>
        <path d="M205,156.2c-2.35-15.11-10.42-28.52-19.08-40.69C160.31,81.26,123.35,52,83.58,36.11,68.24,30.36,43.74,23.47,29.72,35c-15,13.61-3.6,37.42,5.87,51a115.29,115.29,0,0,1-7.84-19.84C18.21,31.48,45.72,29,71.57,37.8c36.24,12.75,68.63,38,94,66.45,11.21,13.06,21.64,27.44,27.23,43.78,9,27.27-7.66,32.51-27.74,29.13a12.21,12.21,0,0,1,.27,2.51,11.66,11.66,0,0,1-2.68,7.46,67.73,67.73,0,0,0,12,1.31C194.81,189,208.05,176.77,205,156.2Z"/>
        <g>
          <circle cx="25.44" cy="156.99" r="9.24"/>
          <circle cx="153.62" cy="179.67" r="9.24"/>
        </g>
      </g>
      <g transform="translate(0, 5400)">
        <path d="M192.22,33.22c-7.72-5.64-18-5.5-27-4C132.37,35.66,99.88,58.41,76.82,82c6.77-5.36,13.57-10.61,20.58-15.56C118.17,52.12,140.81,38.24,166,34.14c36.66-5,32.31,24,18.78,47.23-20.65,35.29-56,66.11-91.79,85.32-21.71,11.91-68.43,27.39-62.75-7.58a11.55,11.55,0,0,1-9.89-2.73c-.19,1-.36,2-.5,3.06-3.4,26.51,17.56,35.13,40.27,30.23,37.23-8.16,73.3-36,99.4-62.82C176.83,108.38,195.3,85,200.26,59.62,202,50.38,200.53,39.12,192.22,33.22Z"/>
        <path d="M202.22,145.41c-14.33-38.5-54.71-74-89.31-94.74C94,39.77,73.34,30,51.18,29c-10.25-.46-22.57,3-26.66,13.53C20,54,25.09,66.89,30.72,76.93c-2.5-6.65-4.65-13.57-5.12-20.64-1.29-16.73,9.83-24,25.43-22.92,33.18,2.94,67.83,27,92.44,48.45,18.25,16.42,35.12,35,45.87,57.19,17.84,39.09-6.27,44-35,35.53a11.63,11.63,0,0,1-3.38,9.64c1.93.61,3.87,1.2,5.84,1.7,9.52,2.36,19.39,3.72,29.21,1.34C206.18,181.93,208.5,162.47,202.22,145.41Z"/>
        <g>
          <circle cx="142.67" cy="175.86" r="9.24"/>
          <circle cx="28.11" cy="147.57" r="9.24"/>
        </g>
      </g>
      <g transform="translate(0, 5600)">
        <path d="M194.11,35.08c-10.69-9.75-26.84-6.79-39.43-3.17-24.9,7.9-47.31,22.57-66.34,40.12q10.53-7.53,21.42-14.36c18-10.89,37.3-21.37,58.42-24,36.8-3.56,28.75,28.17,15.71,49.73-23.44,38-63.27,71.92-104.1,89.69C43.37,188,19.45,182.12,34.26,146h0A11.71,11.71,0,0,1,25,141.52,69.85,69.85,0,0,0,20.18,157c-2.65,13.56,1.66,27.62,16.07,32.12,24.48,7.05,57.5-10.31,80.6-26.14a11.76,11.76,0,0,1,8.15-5.81c1.22-.9,2.42-1.79,3.55-2.66,27.26-21.63,52.84-47.5,67-79.79C200.5,62.54,204.71,45.64,194.11,35.08Z"/>
        <path d="M189.53,121.21c-25-36.06-60.66-64.67-100.63-82.48C73.26,32.36,51.37,25.05,35,32.19c-11.57,5.43-13.44,18.05-9.87,29.18-1.59-10.43.4-22,11.16-26.29C52,29.25,72.22,36.87,86.83,43.4c38.8,18.82,75.71,50.07,98.2,87,5.6,10,11.08,21.32,10.46,32.91-.85,14.34-15.48,16.06-27.06,14.34-10.13-1.41-20.07-4.79-29.61-8.93,0,0,0,0,0,.07a11.73,11.73,0,0,1-4.43,9.17c3.5,1.6,7.07,3.08,10.71,4.4,10.66,3.79,22.18,6.76,33.8,5.92,14.23-.83,25.49-9.39,26.17-24.31C205.56,148.17,197.79,134,189.53,121.21Z"/>
        <g>
          <circle cx="127.09" cy="168.76" r="9.24"/>
          <circle cx="34.21" cy="134.22" r="9.24"/>
        </g>
      </g>
      <g transform="translate(0, 5800)">
        <path d="M205,160.32c-1.41-19.46-13.3-36.93-24.88-51.75-27.2-33.19-67.85-63.93-109.28-76.08-13.75-3.6-33.23-6.8-43.35,5.83-4.7,6.24-4.6,14.78-2.57,22-2.21-17.22,6-27.48,23.51-27.31,51.05,1.4,131.68,69.4,145.65,117.87,5.53,20.17-3.65,29.23-23.85,27.07-14.42-1.77-28.18-7.31-41.19-13.91a11.74,11.74,0,0,1-4.9,9c14.07,7.47,29.11,13.42,45.09,15.1C188.46,190.21,206,181.94,205,160.32Z"/>
        <g>
          <path d="M105.6,163.41a11.71,11.71,0,0,1,.73-4c-21.52,13.49-45,23.28-64.22,20.8-19.49-4.13-11.86-27.07-3.91-42.55a11.76,11.76,0,0,1-8.84-5.13,95.83,95.83,0,0,0-6.56,14.6c-11.11,31.57,6.57,49.3,38.54,42.14C76.27,185.72,92,178.65,107.2,169.3A11.65,11.65,0,0,1,105.6,163.41Z"/>
          <path d="M199.57,44.72C195.33,29,178.19,27,164.51,29.65c-25.72,5.25-48.63,19.47-68.38,36.23,22.63-14.5,54-34.07,81.38-32.48,10.8.89,17.81,7.45,17.51,18.4-.92,24.17-24,52-40.45,68.86a275,275,0,0,1-36.72,31,11.72,11.72,0,0,1,8.67,4.4c27.3-20.64,51.38-47.38,64.63-72.31C197.05,72.07,202.88,58,199.57,44.72Z"/>
        </g>
        <g>
          <circle cx="39.09" cy="125.94" r="9.24"/>
          <circle cx="117.35" cy="163.41" r="9.24"/>
        </g>
      </g>
      <g transform="translate(0, 6000)">
        <g>
          <path d="M98.13,164.29c-11.59,6.5-23.78,12-36.7,15-13.62,3.1-32.52,3.25-31.59-15.41.89-12.54,6.66-24.11,13.4-34.84a11.79,11.79,0,0,1-8.51-5.73A127.37,127.37,0,0,0,27,136.92c-8.54,17-14.2,43.22,8.4,51.84,13.67,4.54,28.13.49,41-4.15a198,198,0,0,0,30.74-15.47A11.7,11.7,0,0,1,98.13,164.29Z"/>
          <path d="M189.71,32.17C166.29,19.88,124,44,105.57,59c20.73-12,46.31-26.46,70.55-25.88C197.27,34.28,198,52,191.67,68.07c-13.07,32.28-44.09,62.78-73.76,83.69a11.67,11.67,0,0,1,.64,10c26.62-18.47,50.6-42.91,66.78-68.1C195.34,77.66,211.29,45.22,189.71,32.17Z"/>
        </g>
        <path d="M200,140.81C180.76,97.47,130.5,56.61,87.39,38.48,73.78,33.05,59,28.26,44.2,30.2,38.9,31,33.57,33,29.82,37a17.63,17.63,0,0,0-3.35,5.19A18.8,18.8,0,0,1,32,36.43c12.68-7.66,30.58-2.59,43.7,2,40.86,15.69,82.7,50.56,106.59,87.08,7.45,11.67,21.21,37.6,8.16,48.82-16.47,11.54-50.63-3.93-71.16-15.67a11.78,11.78,0,0,1-5.39,8.7,177.49,177.49,0,0,0,30.65,14.8c14.54,4.9,31.23,9.36,46.23,3C208.8,176.92,206.65,156,200,140.81Z"/>
        <g>
          <circle cx="107.63" cy="157.42" r="9.24"/>
          <circle cx="44.88" cy="117.41" r="9.24"/>
        </g>
      </g>
      <g transform="translate(0, 6200)">
        <path d="M198.76,42.86c-4.56-12.5-18.27-15.13-30-13.61C147.23,32.18,127.66,43,110.46,55.74c7.44-4.2,15-8.15,22.7-11.66,14.61-6.33,32.06-13.35,48.08-10.31,14,3.07,15.83,15.27,12.7,27.43-7.63,27-30.22,51.69-50.55,70.36a295.61,295.61,0,0,1-28.29,22.29c0,.25,0,.5,0,.76a11.72,11.72,0,0,1-17.6,10.16c-12.88,7.15-26.42,12.69-40.1,15.32C15,186.72,30.26,148.82,45.26,125.7A11.75,11.75,0,0,1,37,119.8a139.49,139.49,0,0,0-8.13,13.44c-8.39,15.68-16.87,41.37,1.86,53.25,15.8,9.2,38.33,1.47,53.69-5.22C127.51,161.59,175.86,118.75,195,75,199.1,65.09,202.4,53.52,198.76,42.86Z"/>
        <path d="M204.69,158.76c-2-18.69-13.32-35.43-24.59-49.84C153.36,76.35,115,47.28,74.84,34.08c-13.14-3.87-30.38-7.37-42.31,1.29,6.35-3.43,13.67-3.62,20.66-2.84,50.24,6.75,116.34,62.31,137.32,107.75,12.35,27.63,3.74,43.36-27.68,36.53-17-3.88-32.81-11.71-47.78-20.79a11.78,11.78,0,0,1-5.57,8.62,188.82,188.82,0,0,0,29.87,15.46c14.05,5.42,29.48,10.06,44.77,7.15C198.41,184.49,206.15,173,204.69,158.76Z"/>
        <g>
          <circle cx="47.29" cy="114.15" r="9.24"/>
          <circle cx="103.4" cy="154.61" r="9.24"/>
        </g>
      </g>
      <g transform="translate(0, 6400)">
        <path d="M182.68,29.76c-22.37-4.09-49.23,10.2-67.07,22.69,7.64-4.06,15.39-7.82,23.32-11.08,13.83-5.4,34.37-12.71,48.29-5.46,15.09,9.13,5.88,31.37-.62,43.57-19.86,35.42-56,67.07-91.34,86.55C80.75,173.61,65.05,180.6,48.55,181c-19.67.12-21.63-14-16.22-29.74,4.23-12.24,11.29-23.61,19.18-34.16a11.76,11.76,0,0,1-8-6.38c-3.22,4.18-6.28,8.5-9.11,13-9,14.58-20,36.16-12.21,53.39,4.71,10.08,16,13.88,26.44,13.53,54.13-1.76,144.06-80,151.37-133.84C201.61,44,196.08,32.45,182.68,29.76Z"/>
        <path d="M192.24,126.24C167.62,87.47,125.61,54,83.1,37.09c-13.49-4.94-28.77-9.1-43-5,7.16-1.06,14.34-.09,21.31,1.53,45.23,11.58,91.92,49.82,118.36,87.68,7.53,11.29,14.75,23.87,16.11,37.54,2.11,25.28-26.86,20.82-43,15.31-16.81-5.61-32.42-14.29-47.18-24.19a11.77,11.77,0,0,1-5.93,8.36,213.18,213.18,0,0,0,29.22,17.16c16.85,7.72,36.44,15.16,55.38,11.54,8.55-1.65,16.64-7.75,19.07-16.48C207.68,154.92,199.81,139.2,192.24,126.24Z"/>
        <g>
          <circle cx="54.09" cy="105.63" r="9.24"/>
          <circle cx="94.2" cy="148.07" r="9.24"/>
        </g>
      </g>
      <g transform="translate(0, 6600)">
        <path d="M197.94,41.61c-8.79-18.32-33.75-12.71-48.84-6.94a132.78,132.78,0,0,0-23,11.71c11.67-5.33,23.59-10.1,36.16-12.49,16.91-3.37,35.35-.34,33.11,21-1.45,12.38-7.64,23.82-14.29,34.22-23.07,34.21-58,63.75-95,81.7-14.72,7.16-56,21.73-56.32-5.92.67-18.6,14.92-39.57,27.86-55.37a11.78,11.78,0,0,1-7.73-6.7c-3.37,4-6.62,8.06-9.67,12.32C29.93,129.78,20,146.44,19.62,165c-.11,11.21,6.3,21,17.29,24.06,9.46,2.68,18.86,1.28,28-1,46.44-13,95.65-55.46,121-95.91C194.05,78.5,204.64,57.56,197.94,41.61Z"/>
        <path d="M204.51,159.75c-1.69-18.89-13-35.78-24.29-50.23A251.89,251.89,0,0,0,94.8,42.31c-13.15-6.05-27.37-11-42-11A108.92,108.92,0,0,1,73.6,36.89c33.46,12.67,62.87,34.84,87.31,60.67,14,15.43,27.54,32.8,33.6,52.9,5.53,19.34-2.68,29.85-22.86,28-26.78-3.28-52.47-18.53-74.6-34.74a11.81,11.81,0,0,1-6.33,8.16,230.83,230.83,0,0,0,27.34,17.91c19.59,10.71,55.53,26.58,76.59,12.81C202,177.77,205.24,168.06,204.51,159.75Z"/>
        <g>
          <circle cx="85.54" cy="141.34" r="9.24"/>
          <circle cx="60.6" cy="98.2" r="9.24"/>
        </g>
      </g>
      <g transform="translate(0, 6800)">
        <path d="M186.24,117.68c-21.6-29.59-50.61-53.41-82.68-70.81C90.72,40.12,76.92,34.55,62.47,32.61c13.9,4.14,26.9,10.33,39.34,17.44,35.05,20.65,71.23,53,89,90,4.59,10.69,10,26.69-.56,35-10.58,6.93-26.51,2.86-37.86-.79-23.39-8.15-44.54-21.71-63.89-37.15a11.78,11.78,0,0,1-6.6,7.85,240.27,240.27,0,0,0,27.26,19.56c20.67,12.39,49.81,26.69,74.58,22.44,8.55-1.51,16.56-7.13,19.32-15.74C208.6,153.09,196.19,131.93,186.24,117.68Z"/>
        <path d="M196.71,39.56c-12.43-19.49-45.12-6.93-61,1.92,11.9-4.55,24.16-8.61,36.89-8.94,29.14-.38,25.78,24.62,15.91,43.85-21.26,41-69.19,81.38-111.77,98.46-19.89,8-54.18,14-45.93-18.89C36.2,136.27,50,117.76,64,102.09a11.82,11.82,0,0,1-7.42-7c-16.83,18.2-33.74,41.59-36.76,65.54-2,22.22,13.8,32,34.21,29.39,49.65-7.23,107.62-57.87,132.83-99.88C194.8,76.51,205.36,54.81,196.71,39.56Z"/>
        <g>
          <circle cx="77.11" cy="134.22" r="9.24"/>
          <circle cx="67.57" cy="90.89" r="9.24"/>
        </g>
      </g>
      <g transform="translate(0, 7000)">
        <path d="M193.06,35.32C180.33,24.55,159.54,31.05,146,37.1c12.79-3.67,30.47-8.37,42.4-1,15.64,11.06,2.89,36.82-4.88,49.58-24.2,39.44-81.57,87.45-127.84,95.07-17,2.42-29.32-3.05-25.52-22.18,5.32-23.35,23.07-45.39,40.31-63.25A11.82,11.82,0,0,1,63.28,88c-16.05,16.06-30.37,34.29-39,55.55-6.48,15.86-8.17,37.94,11.56,44.87,11.29,3.72,23.34,1.22,34.25-2.09C116,170.9,163.23,129.71,187.84,88.23,195.91,74.06,207.27,48.85,193.06,35.32Z"/>
        <path d="M192.13,126.83c-19.57-31-48.08-55.6-79.19-74.49-12.51-7.38-25.88-13.62-40-17A239.1,239.1,0,0,1,111,55.43c31.68,20.8,63.22,49.86,79.77,84.33,4.55,10.45,10.16,26.83-.34,35.22-12.58,8.61-34.43,1.18-47.61-4.23-22.75-9.81-43.41-24.05-62.16-40.22a11.77,11.77,0,0,1-6.91,7.58,251.64,251.64,0,0,0,26.41,20.58c22.23,14.72,56.34,33,83.83,28.07,8.47-1.54,16.39-7.35,19-15.9C207.41,155.66,199.67,139.62,192.13,126.83Z"/>
        <g>
          <circle cx="69.45" cy="127.21" r="9.24"/>
          <circle cx="74.38" cy="84.26" r="9.24"/>
        </g>
      </g>
      <g transform="translate(0, 7200)">
        <path d="M194.24,36.6c-11.45-11.53-30.64-6.31-43.79-1.1A115.75,115.75,0,0,1,163,32.87c10.11-1.38,23-1.84,29.62,7.15,7.59,11.08.5,28.17-5.12,38.92C164.63,121,109.26,167.35,62.82,179.43c-21.74,5.24-39.18.51-31.58-25.49,7.82-23.93,25-44.46,43-62.34a11.76,11.76,0,0,1-7.06-7.43c-16.38,15.73-31,33.63-40.73,54.34C9.9,173.94,25.27,198.27,64.91,187.8c46.65-13.27,94.56-54.87,120.33-95.35C194.06,78.05,207.39,51.65,194.24,36.6Z"/>
        <path d="M194.73,131.47c-18.43-32-47-57-77.82-76.63-12.4-7.66-25.67-14.2-39.75-18.06A262.56,262.56,0,0,1,115,57.89c29,19.82,56.78,45.77,73.53,76.93,5.19,10.35,12.07,26.61,5,37.21-7.78,10.21-24.94,7-36,4-30.53-9.38-57.48-28.2-81.16-49.52a11.75,11.75,0,0,1-7.11,7.45,252.8,252.8,0,0,0,26.11,21.31c22.92,15.88,54,33.2,82.7,32.25,8.22-.42,17.27-3.48,22.13-10.82C209.14,162.81,201.82,144.56,194.73,131.47Z"/>
        <g>
          <circle cx="65.08" cy="122.95" r="9.24"/>
          <circle cx="78.35" cy="80.63" r="9.24"/>
        </g>
      </g>
      <g transform="translate(0, 7400)">
        <path d="M201.27,146.54c-12.61-33.95-42.71-61.93-71.36-82.76a175.45,175.45,0,0,0-38.34-21,331.46,331.46,0,0,1,36.2,23.95c26.7,20.77,55.72,49.55,66.75,82,3.89,12.26,3.6,27-11.8,29.78-13.53,2.27-27.28-2.4-39.83-7.46C113.53,158.22,87.37,138.38,65,115.46a11.75,11.75,0,0,1-7.57,7,242.54,242.54,0,0,0,24.84,22.92c23.28,18.3,49.48,34.35,78.8,40.64,11.09,2.13,25.24,2.9,34.81-5C206.2,172.7,205.22,157.74,201.27,146.54Z"/>
        <g>
          <path d="M54.09,99.45a11.7,11.7,0,0,1,8.78,4,276.59,276.59,0,0,1,23.46-23,11.79,11.79,0,0,1-6.55-7.84,248.18,248.18,0,0,0-27.29,27A11.92,11.92,0,0,1,54.09,99.45Z"/>
          <path d="M165.6,31.65a55.37,55.37,0,0,1,12.74.21c5.15.8,10.11,2.68,13.47,6.58,11.77,14.6-3.36,40.79-12.33,54-25.31,36.69-76,78.3-120,87.88-43.12,8-31.79-28-16.14-51.66q2.4-3.69,5-7.26a11.75,11.75,0,0,1-5.92-9.17c-12.39,16.82-24.89,39-21.88,58,1.69,10.4,9.65,17.44,19.81,19.2,16,2.47,31.63-3.29,45.93-9.66C128.46,160.7,190,105.78,199,59.1,202.76,35.77,186.52,26.71,165.6,31.65Z"/>
        </g>
        <g>
          <circle cx="54.09" cy="111.19" r="9.24"/>
          <circle cx="91.16" cy="69.75" r="9.24"/>
        </g>
      </g>
      <g transform="translate(0, 7600)">
        <path d="M188.23,33.17A28,28,0,0,0,175.46,31a39.91,39.91,0,0,1,6.3,1.11c6,1.49,11.48,5.66,13.37,11.57,4.64,15-5.9,34-13.92,46.48-24.58,37.77-85.06,88.06-131,91.43-19.81.82-24.29-11.56-19-28.56,10.12-29.82,37.51-58.3,62.82-79a11.81,11.81,0,0,1-6.27-8.09A252,252,0,0,0,56.22,95.36a11.73,11.73,0,0,1-14.54,17.91l-1.06,1.46C30.43,129.37,18.7,149.41,20.29,168a22.86,22.86,0,0,0,16.05,20.36c16.95,5.15,37.29-2.68,52.54-9.88C130.45,158,180.34,113,196.31,69,200.6,57,201.87,39.5,188.23,33.17Z"/>
        <path d="M203.84,159.26c-3.86-33.55-38.64-67.81-64-87.82A187.32,187.32,0,0,0,102.78,48.5a377.67,377.67,0,0,1,34.79,25.76c21.64,18.42,41.8,39.86,53.88,65.79,6.37,14,10.75,35.56-9.67,38.74-16.68,2.2-34.59-5.24-49.4-12.49C104.27,151.76,79,131.45,58,107.75a11.77,11.77,0,0,1-7.9,6.59c16.73,19.59,36.84,36.07,58.77,49.56,20.5,12.23,49.93,26.62,74.31,22.64C197.17,184.15,205.17,173.27,203.84,159.26Z"/>
        <g>
          <circle cx="99.29" cy="63.51" r="9.24"/>
          <circle cx="47.29" cy="102.96" r="9.24"/>
        </g>
      </g>
      <g transform="translate(0, 7800)">
        <path d="M185.24,32.65A20.76,20.76,0,0,1,190.62,36a18.61,18.61,0,0,1,5.88,12.29c.49,5.72-.71,11.4-2.52,16.85a106.75,106.75,0,0,1-11.14,22.67c-24.87,39.22-83.34,88-130.19,93.64-11.24,1.07-22.91-1.93-23.49-15-.1-33.31,43.37-76.5,73-98.81a11.77,11.77,0,0,1-5.85-8.31A263.55,263.55,0,0,0,64.55,86.6c-18.94,19.34-47,53.72-44,82.44a22.92,22.92,0,0,0,18.78,20c13.74,2.76,27.57-1.56,40-6.41C124,164.43,182.41,112.73,197,66.1,200.84,53.55,200.15,36.87,185.24,32.65Z"/>
        <path d="M202.35,151.62c-3.73-14.35-11.67-26.75-20.47-38.31-17.26-21.82-38.22-40.91-62.34-54.75,0,.12,0,.24,0,.36,29.9,23.48,66.94,56.82,76.56,94.16,5.81,26.53-15.62,29.51-36.34,24C119.34,165.83,78.35,133.3,51.46,99.84A11.79,11.79,0,0,1,43.18,106a217,217,0,0,0,22,24.3c27,25.58,76.46,59.54,115,56.52C199.86,184.71,207.07,169.7,202.35,151.62Z"/>
        <g>
          <circle cx="107.86" cy="57.47" r="9.24"/>
          <circle cx="41.03" cy="94.47" r="9.24"/>
        </g>
      </g>
      <g transform="translate(0, 8000)">
        <path d="M194.47,39.65a22.32,22.32,0,0,1,2.64,10.63c-.29,13.24-6.71,25.38-13.44,36.51-24.84,39.81-82,87.37-129,94.61-18,2.21-29.06-4.82-24.75-24.06,9.41-36.41,49.17-73.84,81.49-96.06a11.75,11.75,0,0,1-5.67-8.48A257.79,257.79,0,0,0,71.92,79.49C50.71,99.4,18.18,137.3,20.5,168c.8,8.77,5.9,16.2,14.14,19.47,18.34,6.82,42-3.05,58.36-11.39,39.28-20.2,98-72.7,105.25-117.72C199,52,198.46,44.94,194.47,39.65Z"/>
        <path d="M201.4,148.6c-8.1-24.48-26-44.5-44.26-61.95a197.91,197.91,0,0,0-33.78-25.41l-.14.08c27.08,22.29,54.09,46.89,68.8,79.23,16.2,37.94-8.3,45.37-40.44,34.21C111.37,160.3,70.31,126.92,45.1,91.15a11.77,11.77,0,0,1-8.69,5.6,193.71,193.71,0,0,0,21.25,26c27.71,28.41,73.08,60.64,113.44,64.17C196.52,188.75,209.08,172.9,201.4,148.6Z"/>
        <g>
          <circle cx="117.35" cy="51.17" r="9.24"/>
          <circle cx="35.06" cy="85.09" r="9.24"/>
        </g>
      </g>
      <g transform="translate(0, 8200)">
        <path d="M197.69,49.45A42.08,42.08,0,0,1,195.74,62c-13.51,40.65-56.87,79.65-93,101-17,9.62-41.26,21.5-60.92,18.19-21.72-4.78-11.1-31.52-3.53-44.89,18.6-32.2,49.47-60.35,81.39-80.29a11.75,11.75,0,0,1-5.16-8.86A246.66,246.66,0,0,0,80.58,71.78c-23.66,20-66.27,66.95-59.32,100.09,4.34,16.89,21.47,19.59,36.33,16.93,50.36-9.4,116.28-67.15,135.78-114C196.51,66.82,198.89,58.06,197.69,49.45Z"/>
        <path d="M201.1,148.12C194,127.06,179.65,109.65,164.44,94a195.75,195.75,0,0,0-33.66-27.29c5.32,4.86,10.76,9.54,15.94,14.54,15.43,14.71,30.05,30.74,40.54,49.38,5.91,11,13,26.18,8.66,38.45-5.36,13-22.46,11.39-33.93,8.83-44.6-11-97.39-53.88-122.23-95.1a11.69,11.69,0,0,1-9.11,4.86A167.81,167.81,0,0,0,50.51,115c28.49,31.34,68.06,60.69,109.88,70.38,11.29,2.21,24.15,3.12,34.15-3.93C205.08,173.8,204.84,159.16,201.1,148.12Z"/>
        <g>
          <circle cx="30.25" cy="75.91" r="9.24"/>
          <circle cx="126.19" cy="46.31" r="9.24"/>
        </g>
      </g>
      <g transform="translate(0, 8400)">
        <path d="M187.58,81.08c-24.37,41.13-70.65,80.44-115.74,96.45-11.05,3.48-26.89,7.63-37.17.81-11.61-9-3.47-28.6,2.08-39.38,19.31-35.5,56-68.06,92-88.15a11.72,11.72,0,0,1-4.68-9.12A231.08,231.08,0,0,0,88.67,65.13C64.83,84.49,43,107.4,28.84,135c-6.75,13.82-14,34.29-1.77,47.3,12.2,11.92,32.82,7,47.1,2,44.4-16.81,93.87-59.77,115.57-102a72,72,0,0,0,7.65-24.8C195.46,65.82,191.83,73.65,187.58,81.08Z"/>
        <path d="M196.5,137.18c-13.35-25.95-34.18-47.76-57.9-64.43,20.61,19.74,41.22,40.46,53.27,66.6,6.46,14.07,11.13,36.28-9.39,39.87-22.41,3.15-49.21-10.95-68-22.56C85.32,138,50.64,106.61,35,73.75a11.69,11.69,0,0,1-8.68,3.87c-.32,0-.63,0-.94-.05.46,1.05.94,2.09,1.43,3.11a148.81,148.81,0,0,0,16.69,25.85,232.05,232.05,0,0,0,30.81,31.63c22.44,19,47.47,35.33,75.71,44.39,10.87,3.26,22.38,5.6,33.76,3.31C209,180.14,205.65,155.27,196.5,137.18Z"/>
        <g>
          <circle cx="135.81" cy="41.44" r="9.24"/>
          <circle cx="26.35" cy="65.88" r="9.24"/>
        </g>
      </g>
      <g transform="translate(0, 8600)">
        <path d="M129.43,145.24C108,161.72,70.2,185.33,42.6,181.57,27,179,26.86,164.65,31,152.1,45.34,110.8,96.5,66,138.21,46a11.7,11.7,0,0,1-4.05-8.85c0-.19,0-.37,0-.55a209.39,209.39,0,0,0-36.4,21.62C69.59,79.33,43.85,105.1,28,136.94c-4.57,9.9-8.43,20.83-7.08,32,2.17,15.36,15.17,21.34,29.32,20.46,42.87-3.52,92.94-44.85,119.45-77.09,10.89-13.5,20.76-28.44,25.4-45.32C181.2,98.36,156,124.21,129.43,145.24Z"/>
        <path d="M203,158.62c-3.5-29-33.46-62.12-56.25-79,19.57,20.5,40.11,42,48.92,69.42,1.84,6.33,2.85,13.41.76,19.63-7.54,19.59-39.49,9.13-53.93,3-38.6-17.15-72.74-45.76-97.15-80.12-5.61-8.29-11-17.51-14-27.14a11.58,11.58,0,0,1-10.1,2c.07.25.13.5.21.74,3.16,10.84,9,21,15.38,30.3,17.1,24.11,39.44,44.09,63.86,60.53,22.22,14.47,55.89,32.67,83.16,27.74C197.44,183,204.51,172.12,203,158.62Z"/>
        <g>
          <circle cx="145.9" cy="37.14" r="9.24"/>
          <circle cx="24.24" cy="55.06" r="9.24"/>
        </g>
      </g>
      <g transform="translate(0, 8800)">
        <path d="M180.12,93.46c-26.79,37.22-76.93,79.18-122.65,87.91-17.31,2.84-31.87-1.75-28.29-22.14,3.1-16.09,12.9-30.86,22.91-43.84,22.94-28.68,56.48-56.45,91-71.52a11.74,11.74,0,0,1-3.76-8.59c0-.34,0-.67.06-1a199.15,199.15,0,0,0-37.22,20.81c-31.47,22.1-74,63.93-81,102.86-1.54,9.26.08,19.89,8,25.94,12.2,9.17,29.3,5.27,42.58,1,42.23-15.09,86.31-52.54,110.45-90A108.77,108.77,0,0,0,193.51,71.3,148.83,148.83,0,0,1,180.12,93.46Z"/>
        <path d="M187.18,121.81a175.75,175.75,0,0,0-37.45-39.58c17.13,18.35,34.3,37.27,43.91,60.67,6.58,16.34,7.14,35.68-15,37-13.95.58-27.51-4.37-40.16-9.94-35.21-16.63-66.34-42.52-89.78-73.57C41.39,86.11,33,73.27,30.22,60.28a11.6,11.6,0,0,1-10.24.8c4.36,24.68,26.43,50.4,42.74,66.28,27.46,26.09,66.72,53.63,104.94,58.78,16.76,2.2,34.8-3.29,35.41-22.93C203.13,147.89,195.3,134.14,187.18,121.81Z"/>
        <g>
          <circle cx="151.08" cy="35.28" r="9.24"/>
          <circle cx="24.28" cy="50.17" r="9.24"/>
        </g>
      </g>
      <g transform="translate(0, 9000)">
        <path d="M157,121c-26.61,26.35-60.17,51.63-97.11,60-12.4,2.54-30.06,2.23-31.25-13.9-.8-13.79,7.24-28.16,14.55-39.65,22.93-34.68,68.19-73.12,109.6-87.3a11.69,11.69,0,0,1-3-7.81,12.29,12.29,0,0,1,.2-2.12,132.09,132.09,0,0,0-15.19,5.93C95.69,54.67,59.49,86.66,35.94,122.87c-8,13.08-16.37,29.22-15,45.06,1.38,14.5,13,21.62,26.68,21.37,39.74-1.47,85.74-37.78,112-65.77,11.82-12.82,22.5-27,29.63-43C180.19,95.4,169.05,108.68,157,121Z"/>
        <path d="M198.49,142.79c-8.55-20.16-22.93-37.44-39.3-51.6q7,8.22,13.61,16.69c8.54,11.29,16.67,23.23,21.62,36.49,9.29,24.84-.22,39.4-27.13,35.06-43.93-8.21-92.67-47.68-118.74-83.12C41.16,86.12,28.75,66.7,29.38,51.85a11.53,11.53,0,0,1-1.77.15,11.76,11.76,0,0,1-8.27-3.41c-1.72,11.92,3.63,24.79,9,35,23.34,41.59,72,80.53,116.48,96.85,14,4.66,30,8.85,44.41,3.33C206.38,176.57,204.62,157.13,198.49,142.79Z"/>
        <g>
          <circle cx="27.61" cy="40.26" r="9.24"/>
          <circle cx="161.53" cy="32.41" r="9.24"/>
        </g>
      </g>
      <g transform="translate(0, 9200)">
        <path d="M150.37,127.72c-24.54,22.81-54.78,44.52-87.56,52.87-11.87,2.9-30.88,4.08-33.92-11-2.74-16.7,10.47-37.29,20.08-50.45C72,87.8,121.75,46.38,162.86,37.48a11.7,11.7,0,0,1-1.37-10.24c-1,.19-2,.39-3,.62-22,5.3-41.82,17-60,30C68.83,79.38,22.69,125.48,20.85,163.76c-.41,18.29,13.1,26.66,30,25.3,29.48-2.6,60.07-22.76,82.55-41,20.17-16.78,38.89-36.15,51.33-59.44A267.4,267.4,0,0,1,150.37,127.72Z"/>
        <path d="M193.22,132.3a141.4,141.4,0,0,0-27.11-33.92c8.9,11.36,17.4,23,23.91,35.63,13,24.69,13.09,50.84-22.22,45.64-46.3-8.3-100.06-52.71-125.09-91.74C36.36,78,24.76,56.38,31.26,44.27a11.76,11.76,0,0,1-6.81-8.39c-8.08,10-6,25.59-.87,37.62C44,121.07,106.32,170.65,156,183.68,199.21,194.57,214.34,169.45,193.22,132.3Z"/>
        <g>
          <circle cx="172.62" cy="30.96" r="9.24"/>
          <circle cx="35.95" cy="33.52" r="9.24"/>
        </g>
      </g>
      <g transform="translate(0, 9400)">
        <path d="M174.53,108.05c4.05,5.85,7.93,11.77,11.45,17.87,25.37,43.19,10.67,66.6-38.35,48.36C105.26,157.41,61.22,120.64,38.53,81,32.09,69.64,23.8,48.77,34.76,40.09A11.69,11.69,0,0,1,31.1,31.6a11.35,11.35,0,0,1,.1-1.44C19.5,36.77,16.61,50.88,20.81,65.3,29.21,93,51,116.5,72,135.45c26.77,22.93,59.18,44.62,94.66,50.1,15.56,2.22,33.85-1.93,35.67-20.33C203.77,144.59,188.1,122.39,174.53,108.05Z"/>
        <path d="M77.56,176.11c-12.54,4.73-35.15,11.56-45.49.48-9.37-11.86,1-32.59,7.8-44.11,21.88-35.23,56.88-65.14,93.59-84.14A142,142,0,0,1,156.63,39a76.7,76.7,0,0,1,13.49-2.75A11.7,11.7,0,0,1,170.49,26,78.35,78.35,0,0,0,153.76,29C107,43.33,57.48,86.6,32.86,128.38c-7.34,13.28-15.61,30.8-10.13,46.31,9.58,22.26,39.79,13.83,56.94,6.71,24.24-10.27,45.88-25.92,65.22-43.59C157.65,126,169.34,112.8,178.5,98,151.1,130.86,117.5,160,77.56,176.11Z"/>
        <g>
          <circle cx="180.85" cy="31.48" r="9.24"/>
          <circle cx="42.84" cy="31.6" r="9.24"/>
        </g>
      </g>
      <g transform="translate(0, 9600)">
        <path d="M137.63,139.37c-23.06,18.74-49.29,36.17-78.71,42.26-9.21,1.54-20.84,2.26-27.28-5.42-9.8-13.45,4.12-37.93,12.1-50,23.47-34.1,59.38-64.16,97-81.35,10.08-4.29,24.57-9.78,36.59-8.67a12.05,12.05,0,0,1-.15-1.81,11.72,11.72,0,0,1,3.26-8.1C165.91,24,149.06,30,136.54,35.42,97,54,61,85.54,36.94,121.78,27.36,137,13.16,163.9,26.3,180.58c8.2,9.68,22.48,9.34,33.77,7,30.24-7,56.73-25.53,79.92-45.43,13.11-11.6,25.15-24.56,34.85-39.14A326.91,326.91,0,0,1,137.63,139.37Z"/>
        <path d="M176,109.87c4.08,6,7.94,12.12,11.43,18.39,8.61,15.13,21.11,45.83-3.86,51.6-19.24,3.47-43-7.53-59.6-16.79-30.63-17.74-58.43-41.75-78.63-70.84C34,75.94,17.69,42.41,42,36.93a11.58,11.58,0,0,1-1.49-5.7,11.79,11.79,0,0,1,.94-4.61C27.42,29,17.64,39,19.14,55.94,22.4,84.32,47,111.92,67,130.77c26.43,24,59.62,46.7,95.06,54,14.67,2.91,35,1.73,39.58-15.61C206.2,148.63,189.29,124.24,176,109.87Z"/>
        <g>
          <circle cx="52.28" cy="31.23" r="9.24"/>
          <circle cx="188.93" cy="34.4" r="9.24"/>
        </g>
      </g>
      <g transform="translate(0, 9800)">
        <path d="M137.63,139.37c-23.06,18.74-49.29,36.17-78.71,42.26-9.21,1.54-20.84,2.26-27.28-5.42-9.8-13.45,4.12-37.93,12.1-50,23.47-34.1,59.38-64.16,97-81.35,10.08-4.29,24.57-9.78,36.59-8.67a12.05,12.05,0,0,1-.15-1.81,11.72,11.72,0,0,1,3.26-8.1C165.91,24,149.06,30,136.54,35.42,97,54,61,85.54,36.94,121.78,27.36,137,13.16,163.9,26.3,180.58c8.2,9.68,22.48,9.34,33.77,7,30.24-7,56.73-25.53,79.92-45.43,13.11-11.6,25.15-24.56,34.85-39.14A326.91,326.91,0,0,1,137.63,139.37Z"/>
        <path d="M176,109.87c4.08,6,7.94,12.12,11.43,18.39,8.61,15.13,21.11,45.83-3.86,51.6-19.24,3.47-43-7.53-59.6-16.79-30.63-17.74-58.43-41.75-78.63-70.84C34,75.94,17.69,42.41,42,36.93a11.58,11.58,0,0,1-1.49-5.7,11.79,11.79,0,0,1,.94-4.61C27.42,29,17.64,39,19.14,55.94,22.4,84.32,47,111.92,67,130.77c26.43,24,59.62,46.7,95.06,54,14.67,2.91,35,1.73,39.58-15.61C206.2,148.63,189.29,124.24,176,109.87Z"/>
        <g>
          <circle cx="52.28" cy="31.23" r="9.24"/>
          <circle cx="188.93" cy="34.4" r="9.24"/>
        </g>
      </g>
    </g>
  </g>
  <g id="text">
    <g clip-path="url(#mask-text1)">
      <path d="M262.42,151.58,299,69.73l36.62,81.87" fill="none" stroke="#000" stroke-miterlimit="10" stroke-width="11" stroke-dasharray="180" stroke-dashoffset="180"></path>
    </g>
    <g clip-path="url(#mask-text2)">
      <path d="M331.37,144.85,273.12,111" fill="none" stroke="#000" stroke-linejoin="bevel" stroke-width="11" stroke-dasharray="68" stroke-dashoffset="68"></path>
    </g>
    <g>
      <path d="M354.49,146.93v-81.29" fill="none" stroke="#000" stroke-miterlimit="10" stroke-width="10.53" stroke-dasharray="82" stroke-dashoffset="82"></path>
    </g>
    <g clip-path="url(#mask-text4)">
       <path d="M385.62,117.68H429c0-14.27-10.95-25.84-24.46-25.84s-24.46,11.57-24.46,25.84,10.95,25.15,24.46,25.15c9.31,0,17.75-3,24.46-10.07" fill="none" stroke="#000" stroke-miterlimit="10" stroke-width="12" stroke-dasharray="189" stroke-dashoffset="189"></path>
    </g>
    <g>
      <path d="M452.1,168.23V88.87" fill="none" stroke="#000" stroke-miterlimit="10" stroke-width="10.53" stroke-dasharray="80" stroke-dashoffset="80"></path>
    </g>
    <g clip-path="url(#mask-text6)">
      <path d="M453.92,118.11c0-14,10.67-25.32,23.84-25.32s23.83,11.33,23.83,25.32-10.67,25.32-23.83,25.32-23.84-11.33-23.84-25.32" fill="none" stroke="#000" stroke-miterlimit="10" stroke-width="12" stroke-dasharray="155" stroke-dashoffset="155"></path>
    </g>
    <g clip-path="url(#mask-text7)">
      <path d="M526.72,151.8V60.33" fill="none" stroke="#000" stroke-miterlimit="10" stroke-width="12" stroke-dasharray="92" stroke-dashoffset="92"></path>
    </g>
    <g clip-path="url(#mask-text7)">
      <path d="M526.72,113.24s4.92-20.45,24.76-20.45S572,112.54,572,112.54v37" fill="none" stroke="#000" stroke-miterlimit="10" stroke-width="12" stroke-dasharray="104" stroke-dashoffset="104"></path>
    </g>
    <g clip-path="url(#mask-text8)">
      <path d="M626.65,109A35.19,35.19,0,0,1,661.8,74.08c19.41,0,35.14,15.43,35.14,34.46S681.21,143,661.8,143s-35.15-15.43-35.15-34.47" fill="none" stroke="#000" stroke-miterlimit="10" stroke-width="12" stroke-dasharray="220" stroke-dashoffset="220"></path>
    </g>
    <g clip-path="url(#mask-text9)">
      <path d="M725,150.8l-.47-76.91,55.79,69.61-.31-76" fill="none" stroke="#000" stroke-miterlimit="10" stroke-width="12" stroke-dasharray="243" stroke-dashoffset="243"></path>
    </g>
    <g clip-path="url(#mask-text10)">
      <path d="M870.43,74.08H813.35v67.84h57.08" fill="none" stroke="#000" stroke-miterlimit="10" stroke-width="12" stroke-dasharray="183" stroke-dashoffset="183"></path>
    </g>
    <g>
      <path d="M813.35,108h44.27" fill="none" stroke="#000" stroke-miterlimit="10" stroke-width="9.31" stroke-dasharray="45" stroke-dashoffset="45"></path>
    </g>
  </g>
  <g id="atom-core-start" opacity="0">
    <circle id="atom-core" cx="113.74" cy="106.28" r="14"/>
  </g>

  <style>
    #aleph-one-logo #text > g:nth-child(1) > path {
      -webkit-animation: drawIn 0.25s linear 0s forwards;
              animation: drawIn 0.25s linear 0s forwards;
    }
    #aleph-one-logo #text > g:nth-child(2) > path {
      -webkit-animation: drawIn 0.2s linear 0.25s forwards;
              animation: drawIn 0.2s linear 0.25s forwards;
    }
    #aleph-one-logo #text > g:nth-child(3) > path {
      -webkit-animation: drawIn 0.3s linear 0.25s forwards;
              animation: drawIn 0.3s linear 0.25s forwards;
    }
    #aleph-one-logo #text > g:nth-child(4) > path {
      -webkit-animation: drawIn 0.55s linear 0.3s forwards;
              animation: drawIn 0.55s linear 0.3s forwards;
    }
    #aleph-one-logo #text > g:nth-child(5) > path {
      -webkit-animation: drawIn 0.25s linear 0.4s forwards;
              animation: drawIn 0.25s linear 0.4s forwards;
    }
    #aleph-one-logo #text > g:nth-child(6) > path {
      -webkit-animation: drawIn 0.45s linear 0.55s forwards;
              animation: drawIn 0.45s linear 0.55s forwards;
    }
    #aleph-one-logo #text > g:nth-child(7) > path {
      -webkit-animation: drawIn 0.3s linear 0.7s forwards;
              animation: drawIn 0.3s linear 0.7s forwards;
    }
    #aleph-one-logo #text > g:nth-child(8) > path {
      -webkit-animation: drawIn 0.4s linear 0.85s forwards;
              animation: drawIn 0.4s linear 0.85s forwards;
    }

    #aleph-one-logo #text > g:nth-child(9) > path {
      -webkit-animation: drawIn 0.7s linear 1.05s forwards;
              animation: drawIn 0.7s linear 1.05s forwards;
    }
    #aleph-one-logo #text > g:nth-child(10) > path {
      -webkit-animation: drawIn 0.7s linear 1.25s forwards;
              animation: drawIn 0.7s linear 1.25s forwards;
    }
    #aleph-one-logo #text > g:nth-child(11) > path {
      -webkit-animation: drawIn 0.6s linear 1.55s forwards;
              animation: drawIn 0.6s linear 1.55s forwards;
    }
    #aleph-one-logo #text > g:nth-child(12) > path {
      -webkit-animation: drawIn 0.2s linear 1.95s forwards;
              animation: drawIn 0.2s linear 1.95s forwards;
    }

    #aleph-one-logo #atom-core-start {
      -webkit-transform-origin: 113.74px 106.28px;
          -ms-transform-origin: 113.74px 106.28px;
              transform-origin: 113.74px 106.28px;
      -webkit-transform: scale(0, 0);
          -ms-transform: scale(0, 0);
              transform: scale(0, 0);
      opacity: 1;
      -webkit-animation: scaleStart 1.25s ease-in-out 1.5s forwards;
              animation: scaleStart 1.25s ease-in-out 1.5s forwards;
    }

    #aleph-one-logo #atom-core {
      -webkit-transform-origin: 113.74px 106.28px;
          -ms-transform-origin: 113.74px 106.28px;
              transform-origin: 113.74px 106.28px;
      -webkit-animation: scaleCore 1.6s ease-in-out 2.25s infinite;
              animation: scaleCore 1.6s ease-in-out 2.25s infinite;
    }

    #aleph-one-logo #atom-frames {
      -webkit-transform: translate(0px, -200px);
          -ms-transform: translate(0px, -200px);
              transform: translate(0px, -200px);
      -webkit-animation: moveFrames 1.6s steps(48, end) 1.5s infinite;
              animation: moveFrames 1.6s steps(48, end) 1.5s infinite;
    }
    #aleph-one-logo #show-atom {
      -webkit-animation: fadeIn 0.01s linear 2.12s forwards;
              animation: fadeIn 0.01s linear 2.12s forwards;
    }

    @-webkit-keyframes drawIn {
      to {
        stroke-dashoffset: 0px;
      }
    }

    @keyframes drawIn {
      to {
        stroke-dashoffset: 0px;
      }
    }

    @-webkit-keyframes fadeIn {
      to {
        opacity: 1;
      }
    }

    @keyframes fadeIn {
      to {
        opacity: 1;
      }
    }

    @-webkit-keyframes scaleStart {
      0% {
        -webkit-transform: scale(0, 0);
                transform: scale(0, 0);
      }
      50% {
        -webkit-transform: scale(10, 10);
                transform: scale(10, 10);
      }
      100% {
        -webkit-transform: scale(1, 1);
                transform: scale(1, 1);
      }
    }

    @keyframes scaleStart {
      0% {
        -webkit-transform: scale(0, 0);
                transform: scale(0, 0);
      }
      50% {
        -webkit-transform: scale(10, 10);
                transform: scale(10, 10);
      }
      100% {
        -webkit-transform: scale(1, 1);
                transform: scale(1, 1);
      }
    }

    @-webkit-keyframes scaleCore {
      0%, 100% {
        -webkit-transform: scale(1, 1);
                transform: scale(1, 1);
      }
      50% {
        -webkit-transform: scale(1.4, 1.4);
                transform: scale(1.4, 1.4);
      }
    }

    @keyframes scaleCore {
      0%, 100% {
        -webkit-transform: scale(1, 1);
                transform: scale(1, 1);
      }
      50% {
        -webkit-transform: scale(1.4, 1.4);
                transform: scale(1.4, 1.4);
      }
    }

    @-webkit-keyframes moveFrames {
      0% {
        -webkit-transform: translate(0px, -200px);
                transform: translate(0px, -200px);
      }
      100% {
        -webkit-transform: translate(0px, -9800px);
                transform: translate(0px, -9800px);
      }
    }

    @keyframes moveFrames {
      0% {
        -webkit-transform: translate(0px, -200px);
                transform: translate(0px, -200px);
      }
      100% {
        -webkit-transform: translate(0px, -9800px);
                transform: translate(0px, -9800px);
      }
    }
  </style>
</svg>
