<svg id="distinct-city-loader" xmlns="http://www.w3.org/2000/svg" viewBox="0 0 5184 3456">
	<defs>
		<clipPath id="clip-city-word">
			<rect x="3760.29" y="1327.77" width="1289.91" height="800.47" fill="#000"/>
		</clipPath>
	</defs>
	<g id="distinct-fill" opacity="0">
		<path d="M582,1400.9c197.18,0,336.19,78.95,336.19,291.32,0,221.47-149,312.22-323.49,312.22H305.75c-5.43,0-4.53-4.55,0-6.37L386.59,1960c-2.69-64.45-5.41-138.86-5.41-265.92,0-132.52,2.72-188.79,5.41-248.67l-79.94-38.13c-3.63-1.82-4.55-6.34,0-6.34Zm209,294.95c0-123.43-40-228.71-91.79-264.11-23.61-9-57.23-16.34-100.83-20-38.18-3.63-79.05-4.55-101.78-4.55v579.94l9.09,10.89c20.91,0,50-.89,81.78-2.71,129.94-10,203.53-101.66,203.53-299.51" fill="#323f4c"/>
		<path d="M1142.49,1764.84c0,63.52-.94,143.39-3.65,196.93l64.52,36.31c3.63,1.82,3.63,6.35,0,6.35H979.85c-5.45,0-4.55-4.53,0-6.35l62.68-36.31c-1.81-39.93-3.63-101.65-3.63-165.18,0-73.51,1.82-121.6,3.63-158.81l-67.23-33.59c-4.56-1.81-4.56-6.36,0-7.26,11.8-1.82,99-10,161.72-10.89,4.53,39.92,5.47,82.58,5.47,178.8m-126.3-326.74c0-36.3,28.18-65.35,64.5-65.35,39.07,0,65.42,29,65.42,65.35s-26.35,64.43-65.42,64.43c-36.32,0-64.5-28.12-64.5-64.43" fill="#323f4c"/>
		<path d="M1271.47,1985.37c-14.54-9.08-15.46-14.53-16.36-28.14-.9-21.79-1.82-66.25-.9-90.75,0-4.55,3.62-4.55,7.25,0l93.59,135.23c17.26,2.73,34.51,2.73,57.23,0,53.61-5.45,91.79-34.5,91.79-87.14,0-44.46-27.27-62.62-100.88-80.77-94.49-22.69-143.53-60.8-142.63-136.13.9-79.87,68.14-122.51,173.53-122.51,44.51,0,80.86,5.42,104.49,15.42,19.08,7.26,20.88,12.71,22.72,30,2.71,28.14,5.45,64.43,6.37,83.51,0,6.34-4.56,5.42-7.29.9l-96.31-119.81c-12.72-.92-34.53,0-50.87,2.74-18.18,2.71-33.62,9.05-45.45,19.05Q1346,1626,1346,1661.38c0,50.82,24.53,69.87,101.77,89.85,106.27,25.4,139.91,62.61,139.91,130.68-.92,81.69-71.79,132.51-187.17,132.51-61.78,0-111.74-17.24-129-29.05" fill="#323f4c"/>
		<path d="M1702.07,1865.57c-1.82-69,.9-165.18,4.55-229.61h-58.14c-3.66,0-3.66-5.45,0-8.18l66.29-41.75,90-112.54c3.64-5.44,10.91-6.34,10.91,0-1.82,32.67-4.55,85.33-5.45,118.91l128.1-3.63c1.82,0-4.53,50.8-6.35,50.8L1809.3,1636c-1.84,49.9-5.47,155.2-4.56,218.71,1.82,89.85,15.45,102.57,76.31,102.57,24.53,0,58.17-7.27,78.15-14.53,3.61-.9,5.43,2.73,2.73,5.47-19.09,20.87-62.7,65.33-134.47,65.33-95.41,0-122.65-38.12-125.39-147.94" fill="#323f4c"/>
		<path d="M2145.42,1764.84c0,63.52-.92,143.39-3.63,196.93l64.5,36.31c3.65,1.82,3.65,6.35,0,6.35H1982.8c-5.45,0-4.55-4.53,0-6.35l62.66-36.31c-1.79-39.93-3.61-101.65-3.61-165.18,0-73.51,1.82-121.6,3.61-158.81l-67.21-33.59c-4.56-1.81-4.56-6.36,0-7.26,11.8-1.82,99-10,161.72-10.89,4.53,39.92,5.45,82.58,5.45,178.8M2019.14,1438.1c0-36.3,28.16-65.35,64.5-65.35,39.07,0,65.42,29,65.42,65.35s-26.35,64.43-65.42,64.43c-36.34,0-64.5-28.12-64.5-64.43" fill="#323f4c"/>
		<path d="M2450.66,2004.43H2239c-5.47,0-4.55-4.55,0-6.34l61.77-36.32c-1.82-39.92-3.64-101.64-3.64-165.18,0-73.51,1.82-120.7,3.64-157.91l-67.24-35.4c-4.51-1.81-4.51-5.45,0-6.34,16.38-2.74,100-10,157.21-10,4.55,16.34,7.27,33.58,9.05,70.8,28.18-20,92.68-78.06,152.67-78.06,85.4,0,127.19,42.66,129,157.93.9,82.59-4.55,165.18-10,224.16l64.52,36.32c5.45,2.71,5.45,6.34,0,6.34H2513.36c-5.45,0-4.56-4.55,0-6.34l56.33-36.32c2.72-52.64,6.35-132.49,6.35-205.1,0-88-10.9-114.36-69.05-114.36-50-.92-81.76,12.71-107.23,20.87.92,23.61.92,54.46.92,96.2,0,47.21-.92,149.75-3.62,202.39l53.6,36.32c4.55,2.71,4.55,6.34,0,6.34" fill="#323f4c"/>
		<path d="M2981.2,1590.58c-20.9-1.82-36.32-.9-50,1.82-20,20.87-42.69,85.3-42.69,177,0,128,39.09,184.23,128.1,184.23,43.63,0,80.87-3.63,123.55-30.85,3.66-2.71,10-.9,5.48,6.35-34.52,52.63-94.49,85.32-157.19,85.32-123.55,0-208-59-208-215.1,0-151.57,89-224.16,217.14-224.16,83.57,0,134.47,31.76,149,68.95,7.3,41.75-11.8,74.43-50.87,74.43-10,0-20.9-.92-27.25-3.63-10.91-28.13-29.08-88-40.89-107.09-10-10.9-30.88-15.42-46.34-17.24" fill="#323f4c"/>
		<path d="M3238.29,1865.57c-1.81-69,.9-165.18,4.56-229.61H3184.7c-3.66,0-3.66-5.45,0-8.18L3251,1586l90-112.54c3.63-5.44,10.91-6.34,10.91,0-1.82,32.67-4.56,85.33-5.46,118.91l128.11-3.63c1.81,0-4.56,50.8-6.36,50.8L3345.52,1636c-1.84,49.9-5.47,155.2-4.55,218.71,1.8,89.85,15.44,102.57,76.3,102.57,24.54,0,58.17-7.27,78.15-14.53,3.61-.9,5.43,2.73,2.74,5.47-19.1,20.87-62.71,65.33-134.48,65.33-95.4,0-122.65-38.12-125.39-147.94" fill="#323f4c"/>
	</g>
	<g id="distinct-stoke">
		<path d="M582,1400.9c197.18,0,336.19,78.95,336.19,291.32,0,221.47-149,312.22-323.49,312.22H305.75c-5.43,0-4.53-4.55,0-6.37L386.59,1960c-2.69-64.45-5.41-138.86-5.41-265.92,0-132.52,2.72-188.79,5.41-248.67l-79.94-38.13c-3.63-1.82-4.55-6.34,0-6.34Zm209,294.95c0-123.43-40-228.71-91.79-264.11-23.61-9-57.23-16.34-100.83-20-38.18-3.63-79.05-4.55-101.78-4.55v579.94l9.09,10.89c20.91,0,50-.89,81.78-2.71,129.94-10,203.53-101.66,203.53-299.51" fill="none" stroke="#33404c" stroke-linecap="round" stroke-miterlimit="10" stroke-width="20" stroke-dasharray="3871.72" stroke-dashoffset="3871.72"></path>
		<path d="M1142.49,1764.84c0,63.52-.94,143.39-3.65,196.93l64.52,36.31c3.63,1.82,3.63,6.35,0,6.35H979.85c-5.45,0-4.55-4.53,0-6.35l62.68-36.31c-1.81-39.93-3.63-101.65-3.63-165.18,0-73.51,1.82-121.6,3.63-158.81l-67.23-33.59c-4.56-1.81-4.56-6.36,0-7.26,11.8-1.82,99-10,161.72-10.89,4.53,39.92,5.47,82.58,5.47,178.8m-126.3-326.74c0-36.3,28.18-65.35,64.5-65.35,39.07,0,65.42,29,65.42,65.35s-26.35,64.43-65.42,64.43c-36.32,0-64.5-28.12-64.5-64.43" fill="none" stroke="#33404c" stroke-linecap="round" stroke-miterlimit="10" stroke-width="20" stroke-dasharray="1747.95" stroke-dashoffset="1747.95"></path>
		<path d="M1271.47,1985.37c-14.54-9.08-15.46-14.53-16.36-28.14-.9-21.79-1.82-66.25-.9-90.75,0-4.55,3.62-4.55,7.25,0l93.59,135.23c17.26,2.73,34.51,2.73,57.23,0,53.61-5.45,91.79-34.5,91.79-87.14,0-44.46-27.27-62.62-100.88-80.77-94.49-22.69-143.53-60.8-142.63-136.13.9-79.87,68.14-122.51,173.53-122.51,44.51,0,80.86,5.42,104.49,15.42,19.08,7.26,20.88,12.71,22.72,30,2.71,28.14,5.45,64.43,6.37,83.51,0,6.34-4.56,5.42-7.29.9l-96.31-119.81c-12.72-.92-34.53,0-50.87,2.74-18.18,2.71-33.62,9.05-45.45,19.05Q1346,1626,1346,1661.38c0,50.82,24.53,69.87,101.77,89.85,106.27,25.4,139.91,62.61,139.91,130.68-.92,81.69-71.79,132.51-187.17,132.51-61.78,0-111.74-17.24-129-29.05" fill="none" stroke="#33404c" stroke-linecap="round" stroke-miterlimit="10" stroke-width="20" stroke-dasharray="2405.87" stroke-dashoffset="2405.87"></path>
		<path d="M1702.07,1865.57c-1.82-69,.9-165.18,4.55-229.61h-58.14c-3.66,0-3.66-5.45,0-8.18l66.29-41.75,90-112.54c3.64-5.44,10.91-6.34,10.91,0-1.82,32.67-4.55,85.33-5.45,118.91l128.1-3.63c1.82,0-4.53,50.8-6.35,50.8L1809.3,1636c-1.84,49.9-5.47,155.2-4.56,218.71,1.82,89.85,15.45,102.57,76.31,102.57,24.53,0,58.17-7.27,78.15-14.53,3.61-.9,5.43,2.73,2.73,5.47-19.09,20.87-62.7,65.33-134.47,65.33-95.41,0-122.65-38.12-125.39-147.94" fill="none" stroke="#33404c" stroke-linecap="round" stroke-miterlimit="10" stroke-width="20" stroke-dasharray="1799.07" stroke-dashoffset="1799.07"></path>
		<path d="M2145.42,1764.84c0,63.52-.92,143.39-3.63,196.93l64.5,36.31c3.65,1.82,3.65,6.35,0,6.35H1982.8c-5.45,0-4.55-4.53,0-6.35l62.66-36.31c-1.79-39.93-3.61-101.65-3.61-165.18,0-73.51,1.82-121.6,3.61-158.81l-67.21-33.59c-4.56-1.81-4.56-6.36,0-7.26,11.8-1.82,99-10,161.72-10.89,4.53,39.92,5.45,82.58,5.45,178.8M2019.14,1438.1c0-36.3,28.16-65.35,64.5-65.35,39.07,0,65.42,29,65.42,65.35s-26.35,64.43-65.42,64.43c-36.34,0-64.5-28.12-64.5-64.43" fill="none" stroke="#33404c" stroke-linecap="round" stroke-miterlimit="10" stroke-width="20" stroke-dasharray="1747.9" stroke-dashoffset="1747.9"></path>
		<path d="M2450.66,2004.43H2239c-5.47,0-4.55-4.55,0-6.34l61.77-36.32c-1.82-39.92-3.64-101.64-3.64-165.18,0-73.51,1.82-120.7,3.64-157.91l-67.24-35.4c-4.51-1.81-4.51-5.45,0-6.34,16.38-2.74,100-10,157.21-10,4.55,16.34,7.27,33.58,9.05,70.8,28.18-20,92.68-78.06,152.67-78.06,85.4,0,127.19,42.66,129,157.93.9,82.59-4.55,165.18-10,224.16l64.52,36.32c5.45,2.71,5.45,6.34,0,6.34H2513.36c-5.45,0-4.56-4.55,0-6.34l56.33-36.32c2.72-52.64,6.35-132.49,6.35-205.1,0-88-10.9-114.36-69.05-114.36-50-.92-81.76,12.71-107.23,20.87.92,23.61.92,54.46.92,96.2,0,47.21-.92,149.75-3.62,202.39l53.6,36.32c4.55,2.71,4.55,6.34,0,6.34" fill="none" stroke="#33404c" stroke-linecap="round" stroke-miterlimit="10" stroke-width="20" stroke-dasharray="2796.88" stroke-dashoffset="2796.88"></path>
		<path d="M2981.2,1590.58c-20.9-1.82-36.32-.9-50,1.82-20,20.87-42.69,85.3-42.69,177,0,128,39.09,184.23,128.1,184.23,43.63,0,80.87-3.63,123.55-30.85,3.66-2.71,10-.9,5.48,6.35-34.52,52.63-94.49,85.32-157.19,85.32-123.55,0-208-59-208-215.1,0-151.57,89-224.16,217.14-224.16,83.57,0,134.47,31.76,149,68.95,7.3,41.75-11.8,74.43-50.87,74.43-10,0-20.9-.92-27.25-3.63-10.91-28.13-29.08-88-40.89-107.09-10-10.9-30.88-15.42-46.34-17.24" fill="none" stroke="#33404c" stroke-linecap="round" stroke-miterlimit="10" stroke-width="20" stroke-dasharray="1990.74" stroke-dashoffset="1990.74"></path>
		<path d="M3238.29,1865.57c-1.81-69,.9-165.18,4.56-229.61H3184.7c-3.66,0-3.66-5.45,0-8.18L3251,1586l90-112.54c3.63-5.44,10.91-6.34,10.91,0-1.82,32.67-4.56,85.33-5.46,118.91l128.11-3.63c1.81,0-4.56,50.8-6.36,50.8L3345.52,1636c-1.84,49.9-5.47,155.2-4.55,218.71,1.8,89.85,15.44,102.57,76.3,102.57,24.54,0,58.17-7.27,78.15-14.53,3.61-.9,5.43,2.73,2.74,5.47-19.1,20.87-62.71,65.33-134.48,65.33-95.4,0-122.65-38.12-125.39-147.94" fill="none" stroke="#33404c" stroke-linecap="round" stroke-miterlimit="10" stroke-width="20" stroke-dasharray="1799.11" stroke-dashoffset="1799.11"></path>
	</g>
	<g clip-path="url(#clip-city-word)">
		<g id="city-word">
			<path d="M4030.71,1835a86.39,86.39,0,0,1-34.47-37.1q-12.07-24-12.06-56.9,0-32.57,12.06-56.63a85.6,85.6,0,0,1,34.47-36.94q22.5-12.9,52.72-12.9a117.07,117.07,0,0,1,39.8,6.58,83.07,83.07,0,0,1,31,19.22l-10.58,22.29q-14.65-12-28.91-17.45a86.58,86.58,0,0,0-31-5.42q-32.59,0-50.36,21.12T4015.58,1741q0,39.29,17.78,60.57t50.36,21.27a86.58,86.58,0,0,0,31-5.43q14.25-5.42,28.91-17.47l10.58,22.31a82.78,82.78,0,0,1-31,19.2,116.59,116.59,0,0,1-39.8,6.6q-30.25,0-52.72-13" fill="#323f4c"/>
			<rect x="4280.46" y="1636.87" width="30.23" height="208.84" fill="#323f4c"/>
			<polygon points="4497.47 1845.72 4497.47 1662.09 4426.7 1662.09 4426.7 1636.88 4598.78 1636.88 4598.78 1662.09 4528.01 1662.09 4528.01 1845.72 4497.47 1845.72" fill="#323f4c"/>
			<polygon points="4882.99 1636.87 4799.6 1761.83 4799.6 1845.71 4769.08 1845.71 4769.08 1761.22 4685.96 1636.87 4720.62 1636.87 4784.64 1735.42 4848.35 1636.87 4882.99 1636.87" fill="#323f4c"/>
		</g>
	</g>
	<path id="line" d="M3760.29,1327.77v800.46" fill="none" stroke="#323f4c" stroke-miterlimit="10" stroke-width="22.27" stroke-dasharray="800.46" stroke-dashoffset="800.46"></path>
	<style>
		#distinct-city-loader #distinct-stoke > path {
			-webkit-animation: drawIn 1.5s ease-in-out 0.5s forwards, fadeOut 1s ease-in-out 2s forwards;
			        animation: drawIn 1.5s ease-in-out 0.5s forwards, fadeOut 1s ease-in-out 2s forwards;
		}
		#distinct-city-loader #line {
			-webkit-animation: drawIn 1.5s ease-in-out 0.5s forwards;
			        animation: drawIn 1.5s ease-in-out 0.5s forwards;
		}
		#distinct-city-loader #distinct-fill {
			-webkit-animation: fadeIn 1s ease-in-out 2s forwards;
			        animation: fadeIn 1s ease-in-out 2s forwards;
		}

		#distinct-city-loader #city-word {
			-webkit-transform: translate(-1200px, 0px);
			    -ms-transform: translate(-1200px, 0px);
			        transform: translate(-1200px, 0px);
			-webkit-animation: moveIn 1s ease-in-out 2s forwards;
			        animation: moveIn 1s ease-in-out 2s forwards;
		}

		@-webkit-keyframes drawIn {
			to {
				stroke-dashoffset: 0;
			}
		}

		@keyframes drawIn {
			to {
				stroke-dashoffset: 0;
			}
		}

		@-webkit-keyframes fadeIn {
			to {
				opacity: 1;
			}
		}

		@keyframes fadeIn {
			to {
				opacity: 1;
			}
		}

		@-webkit-keyframes fadeOut {
			to {
				opacity: 0;
			}
		}

		@keyframes fadeOut {
			to {
				opacity: 0;
			}
		}

		@-webkit-keyframes moveIn {
			to {
				-webkit-transform: translate(0px, 0px);
				        transform: translate(0px, 0px);
			}
		}

		@keyframes moveIn {
			to {
				-webkit-transform: translate(0px, 0px);
				        transform: translate(0px, 0px);
			}
		}
	</style>
</svg>
