<svg id="east-lake-anim" xmlns="http://www.w3.org/2000/svg" viewBox="0 0 432 254.22">
  <defs>
     <mask id="mask-e1">
      <rect x="129.25" width="175.69" height="175.69" fill="#fff"/>
    </mask>
    <mask id="mask-e2">
      <rect x="129.25" width="175.69" height="175.69" fill="#fff"/>
      <path d="M258.47,37.32c-14.19-3.28-28.91-6.24-40.75-6.24-42.22,0-55.07,26.41-55.07,40.39S171,96.7,182.75,95.8c10.93-.84,10.09-9.21,9.46-10.61-1.29-2.85-4.33-4.07-7.83-3s-5.66,4.13-4.84,6.85c.63,2.09,2.17,3.73,6,3.73a13.17,13.17,0,0,1-7.3-.1c-5.43-1.53-11.39-6.59-11.39-19.27,0-10.38,14.47-37.45,54.62-38.14a139.71,139.71,0,0,1,33.54,3.85l9,2.09c15,3.58,26.74,7.07,38.33,7.29a9.78,9.78,0,0,0,2.45-.26l.07,0V45.58l-.07,0a7.52,7.52,0,0,1-2.52.41c-7.72,0-20.58-3.15-34.81-6.56Z" fill="#000"/>
    </mask>
     <mask id="mask-e3">
      <rect x="129.25" width="175.69" height="175.69" fill="#fff"/>
      <path d="M283.64,87.92c6.64,9.09-2.2,24.79-16.64,34.53-25.57,17.27-45.37,11.35-45.37,11.35l-4.06-1.11c-25.34-6.61-21.33-49.43,36.51-62.29,3.5.85,17.77,3.46,17.77-.44s-18.33-2.11-18.33-2.11c-6.63-7.08-2.6-19.34,10.57-26.67l3.45-1.72a55.45,55.45,0,0,1,21.8-4.31c7.81-.08,12.75,1.19,15.53,2.89l.07,0V35.37c-2.78-1.39-6.91-2.55-13.07-2.94-12.66-.82-22.75.32-33.4,4.89l-3.42,1.77c-17.7,10.24-14,25.26-4.62,29.68-9.36,1.22-24.68,2.54-41.81,15-10.49,7.61-16.16,17.77-15.93,28.25.25,10.89,11.41,21,27.27,24.47l4,.72c15,2.12,33.5-1.59,50.79-15.49,9.14-7.36,19.73-24.31,10.46-36.47C283.94,84.47,282.73,86.56,283.64,87.92Z" fill="#000"/>
    </mask>
  </defs>
  <g id="rects-bg">
    <rect opacity="0" x="129.25" width="88.64" height="88.64" fill="#00415f"/>
    <rect opacity="0" x="216.45" width="88.49" height="88.49" fill="#00415f"/>
    <rect opacity="0" x="129.25" y="87.05" width="88.64" height="88.64" fill="#00415f"/>
    <rect opacity="0" x="216.45" y="87.2" width="88.49" height="88.49" fill="#00415f"/>
  </g>
  <g id="text">
    <path opacity="0" d="M26.44,243.8c-1.82,4.5-4.11,7.29-9.87,7.29H8.67V234.56h9.41a2.52,2.52,0,0,1,2.43,2.53v1.12h1.13v-9.61l-1.13,0v1.12A2.54,2.54,0,0,1,18,232.28H8.67V215.19H20a3.13,3.13,0,0,1,2.93,3.12v1.3h1.14V211.7l-.39.16a24.59,24.59,0,0,1-6.7,1H0L0,214H1a3.35,3.35,0,0,1,3.35,3v32A3.38,3.38,0,0,1,1,252.27H0l0,1.14H24.15l3.53-9.79H26.52Z" fill="#00415f"/>
    <path opacity="0" d="M82.76,249.11,68.59,217.79h-1l0,.26c0,.56-.43,2-2,5.53-.06.11-.09.19-.12.25h0L53.6,249.13c-1,2-2.57,3.14-4.23,3.14h-.73v1.14H60.08v-1.13h-.74a1.93,1.93,0,0,1-1.58-.84,2.4,2.4,0,0,1-.11-2.35l3.07-7.27H74.78l3,7.4a2.38,2.38,0,0,1-.18,2.25,2,2,0,0,1-1.57.81h-.74v1.13h12.3v-1.14h-.72C85.27,252.27,83.76,251.12,82.76,249.11Zm-8.92-9.57H61.68l6.17-14.6Z" fill="#00415f"/>
    <path opacity="0" d="M127.34,238.38l-11.56-8.9a5.22,5.22,0,0,1-2.14-4.27A4.43,4.43,0,0,1,115,222a7.33,7.33,0,0,1,5.21-2c4.13,0,6.31,1.65,6.31,4.76v.29h1.23l-.1-6.78h-2.15a25.38,25.38,0,0,0-5.68-.53,10.36,10.36,0,0,0-7.38,2.94,7.9,7.9,0,0,0-2.34,5.68,8.17,8.17,0,0,0,2.83,6.39l11.41,8.8a5.41,5.41,0,0,1,2,4.31c0,3.58-2.81,5.89-7.33,6a7.79,7.79,0,0,1-6.07-2.18,6.93,6.93,0,0,1-1.63-5.58l0-.31h-1.17l-.07.19a16.06,16.06,0,0,0-.58,7.25l0,.09.07.06c2.13,1.91,6.57,2.76,10,2.76a10.91,10.91,0,0,0,7.74-3.12,8.88,8.88,0,0,0,2.65-6.36A8.43,8.43,0,0,0,127.34,238.38Z" fill="#00415f"/>
    <path opacity="0" d="M178.05,218.53h-18.6a23.3,23.3,0,0,1-6.24-.88l-.39-.15v7.13H154v-1.16a2.53,2.53,0,0,1,2.57-2.65h10.05v28.64a3,3,0,0,1-3.07,2.82h-.94l0,1.14h12.34v-1.14H174a3,3,0,0,1-3.07-2.74V220.81h10a2.54,2.54,0,0,1,2.58,2.65v1.16h1.18V217.5l-.39.15A23.55,23.55,0,0,1,178.05,218.53Z" fill="#00415f"/>
    <path opacity="0" d="M267.91,243.8c-1.82,4.5-4.11,7.29-9.87,7.29h-7.9V217.33a3.39,3.39,0,0,1,3.37-3.31h1v-1.14H241.47V214h1a3.4,3.4,0,0,1,3.37,3.31V249a3.39,3.39,0,0,1-3.37,3.31h-1l0,1.14h24.15l3.53-9.79H268Z" fill="#00415f"/>
    <path opacity="0" d="M323.37,249.11,309.2,217.79h-1l0,.26c-.05.56-.44,2-2.06,5.53-.05.11-.09.19-.11.25h0l-11.82,25.3c-1,2-2.57,3.14-4.22,3.14h-.74v1.14H300.7v-1.13H300a1.94,1.94,0,0,1-1.59-.84,2.43,2.43,0,0,1-.11-2.35l3.07-7.27h14.06l3,7.4a2.35,2.35,0,0,1-.18,2.25,1.94,1.94,0,0,1-1.57.81H316v1.13h12.29v-1.14h-.72C325.89,252.27,324.37,251.12,323.37,249.11Zm-8.92-9.57H302.29l6.17-14.6Z" fill="#00415f"/>
    <g opacity="0">
      <path d="M378.21,250l-14-15.23,12.26-13.1a7.5,7.5,0,0,1,5.33-2h.52v-1.13H370.17v1.13H371a1.3,1.3,0,0,1,1.23.66,1,1,0,0,1-.2,1.09l-12.43,14.64,12.69,14c1.93,2.2,4.82,3.32,8.6,3.33h2.43v-1.13H383A5.59,5.59,0,0,1,378.21,250Z" fill="#00415f"/>
      <path d="M361.27,252.27a3,3,0,0,1-3.08-2.77v-27a3,3,0,0,1,3.07-2.73h.95v-1.14H349.93l0,1.14h.94a3,3,0,0,1,3.08,2.81v26.92a3,3,0,0,1-3.08,2.81H350l0,1.14h12.3l0-1.14Z" fill="#00415f"/>
    </g>
    <path opacity="0" d="M430.78,244.65l-.07.17c-1.72,3.92-3.72,6.21-8.8,6.28h-8.64v-14h9.58a1.94,1.94,0,0,1,1.91,2.14v1H426V231.7h-1.19v1a2,2,0,0,1-2,2.14h-9.46v-14h11.54a2.54,2.54,0,0,1,2.59,2.65v1.16l1.19,0v-7.17l-.39.15a24.57,24.57,0,0,1-6.27.88H405l0,1.14H406a2.81,2.81,0,0,1,3,2.71v27.08a2.91,2.91,0,0,1-3,2.75H405l0,1.14h23.68l3.36-8.76Z" fill="#00415f"/>
  </g>
  <g id="e-mask" opacity="0">
    <path d="M220,136.45c2.15,3.29,14,18.66,42.8,9.38,1.2-.39,1.82-2.74-3-1.48a55.33,55.33,0,0,1-13.62,1.9c-7.41,0-16.33-1.81-22.14-9.08l-2.33-3.37c-6.49-12.64,3.19-30,19.24-41.16,14.86-10.34,35.43-14.77,42.77-4.72,1.11.77,2.32-1.32,1.57-2.71-8.89-11.68-37-4.85-46.82,2.4-3.82,2.82-29.9,19.94-20.82,45.08Z" fill="#fff"/>
  </g>
  <g id="e-pathes" opacity="0">
    <g mask="url(#mask-e1)">
      <path d="M311.56,46.08c-25.7,3-60.28-12.47-87.87-13.23s-41.58,8.51-53.1,22.68-6.05,37.23,11.15,38.93-.19-14.93-.19-14.93" fill="none" stroke="#00415f" stroke-linecap="round" stroke-miterlimit="10" stroke-width="16" stroke-dasharray="223" stroke-dashoffset="0"></path>
    </g>
    <g mask="url(#mask-e2)">
      <path d="M311,38s-55.09-9.51-62.19,11.52c-7.54,18.66,16.65,17,17.33,20.37.32,1.56-21.75,1.62-25.37,2.62-18.14,4.91-43.91,13.11-44.1,40.13s40.63,24.57,53.67,19.65,51.21-24.56,32.31-48.75" fill="none" stroke="#00415f" stroke-linecap="round" stroke-linejoin="round" stroke-width="14" stroke-dasharray="325" stroke-dashoffset="650"></path>
    </g>
    <g mask="url(#mask-e3)">
      <path d="M289.64,91.44S269.23,64.6,233.14,95s-4,63.49,34,46.67" fill="none" stroke="#00415f" stroke-linecap="round" stroke-miterlimit="10" stroke-width="12" stroke-dasharray="160" stroke-dashoffset="320"></path>
    </g>
  </g>
  <g id="e-rect" opacity="0">
    <path d="M304.87,48.21a9.78,9.78,0,0,1-2.45.26c-11.59-.22-23.37-3.71-38.33-7.29-13.17,7.33-17.2,19.59-10.57,26.67,0,0,18.33-1.67,18.33,2.11s-14.27,1.29-17.77.44c-57.84,12.86-61.85,55.68-36.51,62.29-9.08-25.14,17-42.26,20.82-45.08,9.83-7.25,37.93-14.08,46.82-2.4,9.27,12.16-1.32,29.11-10.46,36.47C257.46,135.58,239,139.29,224,137.17c5.81,7.27,14.73,9.1,22.14,9.08a55.33,55.33,0,0,0,13.62-1.9c4.86-1.26,4.24,1.09,3,1.48-28.82,9.28-40.65-6.09-42.8-9.38-15.86-3.48-27-13.58-27.27-24.47-.23-10.48,5.44-20.64,15.93-28.25,17.13-12.42,32.45-13.74,41.81-15-9.33-4.42-13.08-19.44,4.62-29.68a139.71,139.71,0,0,0-33.54-3.85c-40.15.69-54.62,27.76-54.62,38.14,0,12.68,6,17.74,11.39,19.27a13.17,13.17,0,0,0,7.3.1c-3.87,0-5.41-1.64-6-3.73-.82-2.72,1.34-5.79,4.84-6.85s6.54.17,7.83,3c.63,1.4,1.47,9.77-9.46,10.61-11.71.9-20.1-10.34-20.1-24.33s12.85-40.39,55.07-40.39c11.84,0,26.56,3,40.75,6.24,10.65-4.57,20.74-5.71,33.4-4.89,6.16.39,10.29,1.55,13.07,2.94V0H129.25V175.69H304.94V48.19Z" fill="#00415f"/>
    <path d="M289.34,35.15a55.45,55.45,0,0,0-21.8,4.31C281.77,42.87,294.63,46,302.35,46a7.52,7.52,0,0,0,2.52-.41l.07,0v-7.5l-.07,0C302.09,36.34,297.15,35.07,289.34,35.15Z" fill="#00415f"/>
    <path d="M267,122.45c14.44-9.74,23.28-25.44,16.64-34.53-7.34-10-27.91-5.62-42.77,4.72-16.05,11.18-25.73,28.52-19.24,41.16C221.63,133.8,241.43,139.72,267,122.45Z" fill="#00415f"/>
  </g>
  <style>
    #east-lake-anim {
      overflow: visible;
    }

    #east-lake-anim #rects-bg > rect:nth-child(1) {
      -webkit-transform-origin: 129.25px 0px;
          -ms-transform-origin: 129.25px 0px;
              transform-origin: 129.25px 0px;
    }
    #east-lake-anim #rects-bg > rect:nth-child(2) {
      -webkit-transform-origin: 304.94px 0px;
          -ms-transform-origin: 304.94px 0px;
              transform-origin: 304.94px 0px;
    }
    #east-lake-anim #rects-bg > rect:nth-child(3) {
      -webkit-transform-origin: 129.25px 175.69px;
          -ms-transform-origin: 129.25px 175.69px;
              transform-origin: 129.25px 175.69px;
    }
    #east-lake-anim #rects-bg > rect:nth-child(4) {
      -webkit-transform-origin: 304.94px 175.69px;
          -ms-transform-origin: 304.94px 175.69px;
              transform-origin: 304.94px 175.69px;
    }

    #east-lake-anim #rects-bg > rect {
      -webkit-transform: scale(0.01, 0.01);
          -ms-transform: scale(0.01, 0.01);
              transform: scale(0.01, 0.01);
      -webkit-animation: scaleIn 1s ease-in-out 0s forwards;
              animation: scaleIn 1s ease-in-out 0s forwards;
    }

    #east-lake-anim #rects-bg {
      -webkit-animation: fadeOut 0.01s ease-in-out 1.01s forwards;
              animation: fadeOut 0.01s ease-in-out 1.01s forwards;
    }
    #east-lake-anim #e-rect {
      -webkit-animation: fadeIn 0.01s ease-in-out 1s forwards;
              animation: fadeIn 0.01s ease-in-out 1s forwards;
    }
    #east-lake-anim #e-pathes {
      -webkit-animation: fadeIn 0.01s ease-in-out 1s forwards;
              animation: fadeIn 0.01s ease-in-out 1s forwards;
    }

    #east-lake-anim #e-pathes > g:nth-child(1) > path {
      -webkit-animation: drawIn1 0.5s ease-in-out 1.02s forwards;
              animation: drawIn1 0.5s ease-in-out 1.02s forwards;
    }
    #east-lake-anim #e-pathes > g:nth-child(2) > path {
      -webkit-animation: drawIn2 0.9s ease-in 1.35s forwards;
              animation: drawIn2 0.9s ease-in 1.35s forwards;
    }
    #east-lake-anim #e-pathes > g:nth-child(3) > path {
      -webkit-animation: drawIn3 0.5s ease-out 2.25s forwards;
              animation: drawIn3 0.5s ease-out 2.25s forwards;
    }

    #east-lake-anim #text > * {
      -webkit-transform: translate(0px, 25px);
          -ms-transform: translate(0px, 25px);
              transform: translate(0px, 25px);
      -webkit-animation: moveIn 0.9s ease-in-out forwards;
              animation: moveIn 0.9s ease-in-out forwards;
    }

    #east-lake-anim #text > *:nth-child(1) {
      -webkit-animation-delay: 2.1s;
              animation-delay: 2.1s;
    }
    #east-lake-anim #text > *:nth-child(2) {
      -webkit-animation-delay: 2.2s;
              animation-delay: 2.2s;
    }
    #east-lake-anim #text > *:nth-child(3) {
      -webkit-animation-delay: 2.3s;
              animation-delay: 2.3s;
    }
    #east-lake-anim #text > *:nth-child(4) {
      -webkit-animation-delay: 2.4s;
              animation-delay: 2.4s;
    }
    #east-lake-anim #text > *:nth-child(5) {
      -webkit-animation-delay: 2.5s;
              animation-delay: 2.5s;
    }
    #east-lake-anim #text > *:nth-child(6) {
      -webkit-animation-delay: 2.6s;
              animation-delay: 2.6s;
    }
    #east-lake-anim #text > *:nth-child(7) {
      -webkit-animation-delay: 2.7s;
              animation-delay: 2.7s;
    }
    #east-lake-anim #text > *:nth-child(8) {
      -webkit-animation-delay: 2.8s;
              animation-delay: 2.8s;
    }


    @-webkit-keyframes scaleIn {
      0% {
        opacity: 0;
        -webkit-transform: scale(0.01, 0.01);
                transform: scale(0.01, 0.01);
      }
      10% {
        opacity: 1;
      }
      100% {
        opacity: 1;
        -webkit-transform: scale(1, 1);
                transform: scale(1, 1);
      }
    }


    @keyframes scaleIn {
      0% {
        opacity: 0;
        -webkit-transform: scale(0.01, 0.01);
                transform: scale(0.01, 0.01);
      }
      10% {
        opacity: 1;
      }
      100% {
        opacity: 1;
        -webkit-transform: scale(1, 1);
                transform: scale(1, 1);
      }
    }

    @-webkit-keyframes fadeOut {
      to {
        opacity: 0;
      }
    }

    @keyframes fadeOut {
      to {
        opacity: 0;
      }
    }

    @-webkit-keyframes fadeIn {
      to {
        opacity: 1;
      }
    }

    @keyframes fadeIn {
      to {
        opacity: 1;
      }
    }

    @-webkit-keyframes moveIn {
      to {
        opacity: 1;
        -webkit-transform: translate(0px, 0px);
                transform: translate(0px, 0px);
      }
    }

    @keyframes moveIn {
      to {
        opacity: 1;
        -webkit-transform: translate(0px, 0px);
                transform: translate(0px, 0px);
      }
    }

    @-webkit-keyframes drawIn1 {
      to {
        stroke-dashoffset: 223px;
      }
    }

    @keyframes drawIn1 {
      to {
        stroke-dashoffset: 223px;
      }
    }
    @-webkit-keyframes drawIn2 {
      to {
        stroke-dashoffset: 325px;
      }
    }
    @keyframes drawIn2 {
      to {
        stroke-dashoffset: 325px;
      }
    }
    @-webkit-keyframes drawIn3 {
      to {
        stroke-dashoffset: 160px;
      }
    }
    @keyframes drawIn3 {
      to {
        stroke-dashoffset: 160px;
      }
    }
  </style>
</svg>
