<svg id="reekop-loader" xmlns="http://www.w3.org/2000/svg" viewBox="0 0 2469.53 1129.34">
	<g id="under-line">
		<g opacity="0">
			<path d="M105.1,916.61a3.35,3.35,0,0,1-3.26,3.26,3,3,0,0,1-2.28-1,3,3,0,0,1-1-2.28V845.16a3,3,0,0,1,1-2.28,3,3,0,0,1,2.28-1L145,842a3,3,0,0,1,2.28,1,3.12,3.12,0,0,1,1,2.28,3.18,3.18,0,0,1-1,2.33,3.1,3.1,0,0,1-2.28.93l-39.85-.11v29.21h29.8a3,3,0,0,1,2.28,1,3,3,0,0,1,1,2.28,3,3,0,0,1-1,2.28,3,3,0,0,1-2.28,1H105.1Z" fill="#2f3233"/>
			<path d="M209.56,916.61a3.26,3.26,0,0,1-6.51,0V845.49a3,3,0,0,1,1-2.28,3.25,3.25,0,0,1,5.53,2.28Z" fill="#2f3233"/>
			<path d="M327.66,918.73l-.05-.06-.06,0-49.67-64v62a3.35,3.35,0,0,1-3.26,3.26,3,3,0,0,1-2.28-1,3,3,0,0,1-1-2.28v-71.5a3.24,3.24,0,0,1,5.81-2l49.73,64v-62a3.24,3.24,0,0,1,3.2-3.26,3.16,3.16,0,0,1,2.34,1,3.1,3.1,0,0,1,.92,2.28v71.72a1.25,1.25,0,0,1-.05.32.83.83,0,0,1-.06.27,1.14,1.14,0,0,1-.11.33,2,2,0,0,0-.1.27.62.62,0,0,1-.17.27,2.3,2.3,0,0,1-.16.27,1.23,1.23,0,0,1-.22.27l-.21.22c-.19.15-.24.18-.17.11s0,0-.11.11l-.16.11a1.91,1.91,0,0,1-.32.16l-.22.11-.38.11-.22,0a3.38,3.38,0,0,1-.6.06,3.66,3.66,0,0,1-.65-.06l-.21,0-.44-.17-.22-.16a2.71,2.71,0,0,1-.38-.22,1.31,1.31,0,0,0-.21-.16l-.17-.16Z" fill="#2f3233"/>
			<path d="M401.62,916.61a3.35,3.35,0,0,1-3.26,3.26,3,3,0,0,1-2.28-1,3,3,0,0,1-1-2.28V845.49a3,3,0,0,1,1-2.28,3.14,3.14,0,0,1,4.56,0,3,3,0,0,1,1,2.28Z" fill="#2f3233"/>
			<path d="M485.29,884.14q-13-.17-19.65-7.22a17.32,17.32,0,0,1-5-13.08,21.63,21.63,0,0,1,7.44-15.53A23.82,23.82,0,0,1,484.75,842a32.06,32.06,0,0,1,15.31,3.58q8.08,4.23,10.21,12.32a3.22,3.22,0,0,1-.33,2.45,3.15,3.15,0,0,1-2,1.46,2.87,2.87,0,0,1-2.44-.32,3,3,0,0,1-1.47-2q-1.45-5.64-7.6-8.58a26.27,26.27,0,0,0-11.67-2.49A17.74,17.74,0,0,0,472.53,853a15.53,15.53,0,0,0-5.43,11.18,11,11,0,0,0,3.26,8.31q4.72,5,15,5.21a3.24,3.24,0,0,1,3.2,3.31,3.23,3.23,0,0,1-3.25,3.15ZM471,916.34q-8.08-4.29-10.21-12.38a3.26,3.26,0,0,1,.33-2.45,3.19,3.19,0,0,1,2-1.46,3.16,3.16,0,0,1,3.91,2.28q1.46,5.64,7.6,8.63a26.68,26.68,0,0,0,11.67,2.44,17.74,17.74,0,0,0,12.22-4.56,15.43,15.43,0,0,0,5.42-11.13,11,11,0,0,0-3.25-8.36q-4.73-5-15-5.21a3,3,0,0,1-2.28-1,3.16,3.16,0,0,1,.11-4.56,3.1,3.1,0,0,1,2.28-.92q13,.23,19.65,7.28a17,17,0,0,1,4.94,13,21.41,21.41,0,0,1-7.38,15.52,23.85,23.85,0,0,1-16.67,6.36A32.51,32.51,0,0,1,471,916.34Z" fill="#2f3233"/>
			<path d="M622.93,919.87a3.19,3.19,0,0,1-2.33-1,3.09,3.09,0,0,1-.92-2.28V884.25H575.32v32.36a3.13,3.13,0,0,1-.92,2.28,3.2,3.2,0,0,1-2.34,1,3.35,3.35,0,0,1-3.26-3.26V845.32a3.33,3.33,0,0,1,3.26-3.25,3.19,3.19,0,0,1,2.34,1,3.13,3.13,0,0,1,.92,2.28v32.36h44.36V845.32a3.09,3.09,0,0,1,.92-2.28,3.18,3.18,0,0,1,2.33-1,3.33,3.33,0,0,1,3.26,3.25v71.29a3.35,3.35,0,0,1-3.26,3.26Z" fill="#2f3233"/>
		</g>
		<g opacity="0">

			<path d="M794,876.54a3.23,3.23,0,1,1,0,6.46H782.36v11.67a3.35,3.35,0,0,1-3.26,3.26,3,3,0,0,1-2.28-1,3.06,3.06,0,0,1-.92-2.28V883H764.22a3.3,3.3,0,0,1-2.33-.92,3.26,3.26,0,0,1-.92-2.34,3.22,3.22,0,0,1,.92-2.28,3.3,3.3,0,0,1,2.33-.92H775.9V864.87a3.06,3.06,0,0,1,.92-2.28,3,3,0,0,1,2.28-1,3,3,0,0,1,2.28,1,3,3,0,0,1,1,2.28v11.67Z" fill="#2f3233"/>
		</g>
		<g opacity="0">
			<path d="M951.23,848.47H929.78a3.3,3.3,0,0,1-2.33-.92,3.1,3.1,0,0,1-.93-2.28,3.07,3.07,0,0,1,.93-2.28,3.19,3.19,0,0,1,2.33-1h49.35a3.35,3.35,0,0,1,3.26,3.26,3,3,0,0,1-1,2.28,3.1,3.1,0,0,1-2.28.92H957.69v68.14a3.18,3.18,0,0,1-3.26,3.26,3.2,3.2,0,0,1-2.28-.93,3.25,3.25,0,0,1-.92-2.33Z" fill="#2f3233"/>
			<path d="M1064,842.12a22.91,22.91,0,0,1,16.07,6.13,19.79,19.79,0,0,1,1.2,28.4,22.3,22.3,0,0,1-13.41,7.06l15.47,31.54a3,3,0,0,1,.16,2.44,3.13,3.13,0,0,1-1.63,1.85,3.05,3.05,0,0,1-1.41.33,3,3,0,0,1-2.87-1.8l-16.78-34h-18.13v32.09a3.13,3.13,0,0,1-1,2.28,3.09,3.09,0,0,1-2.28.92,3.16,3.16,0,0,1-3.21-3.2v-70.8a3.1,3.1,0,0,1,.93-2.28,3.23,3.23,0,0,1,2.28-.92Zm16.29,21a13.23,13.23,0,0,0-4.78-10.27,16.65,16.65,0,0,0-11.51-4.28h-21.33v29h21.71a16.44,16.44,0,0,0,11.24-4.34A13.25,13.25,0,0,0,1080.29,863.08Z" fill="#2f3233"/>
			<path d="M1150.88,916.61a3.35,3.35,0,0,1-3.26,3.26,3.33,3.33,0,0,1-3.25-3.26V845.49a3.26,3.26,0,0,1,6.51,0Z" fill="#2f3233"/>
			<path d="M1219.14,916.61a3.26,3.26,0,0,1-.93,2.33,3.2,3.2,0,0,1-2.28.93,3.16,3.16,0,0,1-3.25-3.26V845.43a2.92,2.92,0,0,1,2.38-3.09,3,3,0,0,1,3.64,1.46l32.36,53.48,32.36-53.48a3,3,0,0,1,3.64-1.46,2.92,2.92,0,0,1,2.38,3.09v71.18a3.18,3.18,0,0,1-1,2.33,3.1,3.1,0,0,1-2.28.93,3.2,3.2,0,0,1-2.28-.93,3.26,3.26,0,0,1-.93-2.33V857.05l-29.15,48.16-.06,0v.06a1.59,1.59,0,0,0-.21.27l-.22.21a2.28,2.28,0,0,1-.22.22,2.13,2.13,0,0,0-.27.22c-.18.11-.21.13-.11,0s0,0-.16.06a1.66,1.66,0,0,1-.33.16,1.86,1.86,0,0,1-.27.11,1.19,1.19,0,0,1-.32,0,.6.6,0,0,1-.27.06,1.11,1.11,0,0,1-.66,0,.6.6,0,0,1-.27-.06,1.19,1.19,0,0,1-.32,0,1.86,1.86,0,0,1-.27-.11,1.66,1.66,0,0,1-.33-.16h-.11s0-.06,0-.06.07.06-.11,0a1.6,1.6,0,0,0-.27-.22,2.28,2.28,0,0,1-.22-.22l-.22-.21a1.59,1.59,0,0,0-.21-.27v-.06l-.06,0-29.15-48.16Z" fill="#2f3233"/>
		</g>
		<g opacity="0">
			<path d="M1456.47,919.87a39,39,0,0,1,0-78,37.85,37.85,0,0,1,23.78,8.09,3.06,3.06,0,0,1,1.25,2.17,3.26,3.26,0,0,1-2.83,3.64,2.9,2.9,0,0,1-2.39-.65,31.72,31.72,0,0,0-19.81-6.68,32.44,32.44,0,0,0,0,64.88,31.52,31.52,0,0,0,21.88-8.42,3.21,3.21,0,0,1,4.61.22,3.05,3.05,0,0,1,.87,2.33,3.1,3.1,0,0,1-1.08,2.28A37.71,37.71,0,0,1,1456.47,919.87Z" fill="#2f3233"/>
			<path d="M1537.54,919.59a2.92,2.92,0,0,1-1.74-1.73,3,3,0,0,1,0-2.5l7.55-18.19v0l22-53a5.86,5.86,0,0,1,.27-.59l.21-.22a2.45,2.45,0,0,1,.22-.27l.27-.22c.18-.14.26-.2.22-.16a2.87,2.87,0,0,1,1.14-.49h.27a2.64,2.64,0,0,1,.38,0,1.79,1.79,0,0,1,.33,0h.27a2.9,2.9,0,0,1,1.19.49l.22.16c.14.15.24.22.27.22a2.45,2.45,0,0,1,.22.27c.14.18.22.25.22.22l.27.59,22,53v0l7.54,18.19a3,3,0,0,1,0,2.5,2.89,2.89,0,0,1-1.74,1.73,2.81,2.81,0,0,1-1.24.28,3,3,0,0,1-3-2l-6.73-16.18H1548.5l-6.73,16.18a3,3,0,0,1-3,2h-.66Zm47.94-24.43-17.16-41.37-17.15,41.37Z" fill="#2f3233"/>
			<path d="M1684.14,842.12a22.91,22.91,0,0,1,16.07,6.13,19.8,19.8,0,0,1,1.19,28.4,22.3,22.3,0,0,1-13.41,7.06l15.48,31.54a3.06,3.06,0,0,1,.16,2.44,3.17,3.17,0,0,1-1.63,1.85,3.11,3.11,0,0,1-1.41.33,3,3,0,0,1-2.88-1.8l-16.78-34H1662.8v32.09a3.13,3.13,0,0,1-1,2.28,3.06,3.06,0,0,1-2.28.92,3.19,3.19,0,0,1-2.28-.92,3.23,3.23,0,0,1-.92-2.28v-70.8a3.13,3.13,0,0,1,.92-2.28,3.23,3.23,0,0,1,2.28-.92Zm16.28,21a13.26,13.26,0,0,0-4.77-10.27,16.69,16.69,0,0,0-11.51-4.28H1662.8v29h21.72a16.46,16.46,0,0,0,11.24-4.34A13.24,13.24,0,0,0,1700.42,863.08Z" fill="#2f3233"/>
			<path d="M1792.41,842a23,23,0,0,1,16.23,6.24,20,20,0,0,1,.38,29.48,23.16,23.16,0,0,1-15.31,6.57h-1.09a.41.41,0,0,1-.21,0c.1,0,0,0-.17,0h-21.33v32.36a3.35,3.35,0,0,1-3.26,3.26,3,3,0,0,1-2.28-1,3,3,0,0,1-1-2.28v-71.4a3,3,0,0,1,1-2.28,3,3,0,0,1,2.28-1Zm.43,35.83a16.87,16.87,0,0,0,11.29-4.4,13.51,13.51,0,0,0-.11-20.63,16.88,16.88,0,0,0-11.61-4.29h-21.5v29.32Z" fill="#2f3233"/>
			<path d="M1876.41,919.87a3,3,0,0,1-2.28-1,3,3,0,0,1-1-2.28V845.16a3,3,0,0,1,1-2.28,2.88,2.88,0,0,1,2.28-1l43.1.11a3,3,0,0,1,2.29,1,3.12,3.12,0,0,1,1,2.28,3.18,3.18,0,0,1-1,2.33,3.11,3.11,0,0,1-2.29.93l-39.85-.11v29.21h29.81a3,3,0,0,1,2.28,1,3,3,0,0,1,1,2.28,3,3,0,0,1-1,2.28,3,3,0,0,1-2.28,1h-29.81v29.21h39.85a3,3,0,0,1,2.29,1,3,3,0,0,1,1,2.28,3.33,3.33,0,0,1-3.26,3.26Z" fill="#2f3233"/>
			<path d="M2035.11,918.73l0-.06-.06,0-49.67-64v62a3.35,3.35,0,0,1-3.26,3.26,3,3,0,0,1-2.28-1,3,3,0,0,1-1-2.28v-71.5A3,3,0,0,1,1981,842a3,3,0,0,1,3.64,1.09l49.73,64v-62a3.26,3.26,0,0,1,3.21-3.26,3.15,3.15,0,0,1,2.33,1,3.06,3.06,0,0,1,.92,2.28v71.72a.93.93,0,0,1,0,.32,1.12,1.12,0,0,1,0,.27,2.48,2.48,0,0,1-.11.33,1.16,1.16,0,0,0-.11.27.72.72,0,0,1-.16.27l-.17.27a1.59,1.59,0,0,1-.21.27l-.22.22c-.18.15-.24.18-.16.11s0,0-.11.11a1,1,0,0,1-.17.11,1.37,1.37,0,0,1-.32.16l-.22.11-.38.11-.22,0a3.19,3.19,0,0,1-.59.06,3.68,3.68,0,0,1-.66-.06l-.21,0c-.18-.08-.33-.13-.44-.17l-.21-.16a1.9,1.9,0,0,1-.38-.22l-.22-.16-.16-.16Z" fill="#2f3233"/>
			<path d="M2120.09,848.47h-21.44a3.3,3.3,0,0,1-2.34-.92,3.13,3.13,0,0,1-.92-2.28,3.1,3.1,0,0,1,.92-2.28,3.2,3.2,0,0,1,2.34-1H2148a3,3,0,0,1,2.28,1,3,3,0,0,1,1,2.28,3,3,0,0,1-1,2.28,3.13,3.13,0,0,1-2.28.92h-21.45v68.14a3.16,3.16,0,0,1-3.26,3.26,3.23,3.23,0,0,1-2.28-.93,3.3,3.3,0,0,1-.92-2.33Z" fill="#2f3233"/>
			<path d="M2232.87,842.12a22.93,22.93,0,0,1,16.07,6.13,19.8,19.8,0,0,1,1.19,28.4,22.3,22.3,0,0,1-13.41,7.06l15.47,31.54a3,3,0,0,1,.17,2.44,3.17,3.17,0,0,1-1.63,1.85,3.11,3.11,0,0,1-1.41.33,3,3,0,0,1-2.88-1.8l-16.78-34h-18.13v32.09a3.13,3.13,0,0,1-1,2.28,3.06,3.06,0,0,1-2.28.92,3.19,3.19,0,0,1-2.28-.92,3.23,3.23,0,0,1-.92-2.28v-70.8A3.13,3.13,0,0,1,2206,843a3.23,3.23,0,0,1,2.28-.92Zm16.28,21a13.26,13.26,0,0,0-4.77-10.27,16.69,16.69,0,0,0-11.51-4.28h-21.34v29h21.72a16.42,16.42,0,0,0,11.23-4.34A13.21,13.21,0,0,0,2249.15,863.08Z" fill="#2f3233"/>
			<path d="M2367.68,842.66a3.18,3.18,0,0,1,1.25,2.17,3.26,3.26,0,0,1-.7,2.39l-26.77,33.5v35.89a3.13,3.13,0,0,1-.92,2.28,3.2,3.2,0,0,1-2.34,1,3.24,3.24,0,0,1-3.2-3.26V880.72l-26.76-33.5a3.26,3.26,0,0,1-.71-2.39,3.21,3.21,0,0,1,1.25-2.17,3.31,3.31,0,0,1,4.56.55l24.86,31.16,24.92-31.16a3,3,0,0,1,2.18-1.2A3.09,3.09,0,0,1,2367.68,842.66Z" fill="#2f3233"/>
		</g>
	</g>
	<g id="saw-gr">

		<path id="saw" d="M1954.16,472.8c1.61-2.37,1.19-3.35-1.64-3.74-2-.29-4.09-.38-6.1-.69-3.62-.56-7.21-1.22-10.83-1.83h-6.46c-1.91-.66-1.07-1.91-.65-3.07q6.58-18.27,13.16-36.56c2-5.61,3.89-11.26,6-17.36l-26.4,3.42c1.39-19.82,2.77-39.38,4.19-59.79-8.4,3.43-16.33,6.68-24.61,10.05-3.74-19.55-7.44-38.85-11.33-59.23-7.44,5.63-14.33,10.85-21.41,16.23-8.58-17.73-17-35.24-25.72-53.2a13.53,13.53,0,0,0-2.75,2c-4.72,6.06-9.38,12.18-14.21,18.48-.76-.78-1.44-1.45-2.06-2.17q-10-11.58-19.89-23.16c-5-5.79-9.92-11.6-14.92-17.36-2-2.28-2.65-2.15-3.79.57-.6,1.43-1.17,2.88-1.77,4.31-2.37,5.69-4.75,11.38-7.18,17.19l-3-2-43.6-29.56c-2.38-1.61-3.36-1.19-3.76,1.65-.28,2-.37,4.08-.68,6.1-.56,3.61-1.21,7.22-1.83,10.82v2.73c-.66,1.91-1.9,1.07-3.07.65-12.19-4.39-24.36-8.81-36.56-13.17-5.6-2-11.25-3.88-17.36-6,1.16,9,2.27,17.46,3.43,26.41l-59.8-4.2c3.43,8.41,6.69,16.34,10.06,24.61l-59.23,11.35,16.21,21.41-53.18,25.71a13.06,13.06,0,0,0,2,2.74c6.06,4.74,12.18,9.39,18.48,14.22-.79.75-1.44,1.44-2.17,2.07q-11.57,9.94-23.16,19.88-8.68,7.44-17.36,14.91c-2.28,2-2.16,2.64.58,3.79,1.43.62,2.87,1.18,4.31,1.78l17.19,7.17c-.83,1.2-1.44,2.07-2,3q-14.79,21.8-29.56,43.6c-1.6,2.38-1.19,3.35,1.65,3.75,2,.29,4.08.38,6.1.69,3.61.55,7.21,1.21,10.82,1.83h6.46c1.91.66,1.08,1.9.66,3.06-4.39,12.19-8.81,24.37-13.17,36.57-2,5.61-3.88,11.26-6,17.35l26.41-3.41c-1.39,19.81-2.77,39.37-4.2,59.79l24.61-10.06c3.75,19.56,7.44,38.86,11.35,59.23l21.4-16.22c8.57,17.73,17,35.24,25.72,53.2a14.11,14.11,0,0,0,2.75-2c4.72-6.06,9.39-12.19,14.2-18.48.75.78,1.45,1.45,2.08,2.17l19.88,23.16q7.44,8.68,14.92,17.36c2,2.28,2.63,2.15,3.79-.57.6-1.44,1.17-2.88,1.76-4.32l7.19-17.18c1.19.82,2.06,1.43,2.95,2l43.6,29.56c2.37,1.6,3.34,1.19,3.74-1.65.29-2,.39-4.08.69-6.1.57-3.62,1.22-7.21,1.83-10.82v-2.73c.67-1.9,1.91-1.07,3.07-.66q18.27,6.6,36.58,13.17c5.6,2,11.24,3.88,17.33,6-1.16-9-2.25-17.45-3.4-26.4l59.78,4.2c-3.44-8.4-6.67-16.34-10.06-24.62l59.23-11.34c-5.62-7.44-10.83-14.32-16.21-21.41l53.19-25.71a13.43,13.43,0,0,0-2-2.75c-6-4.73-12.18-9.39-18.47-14.21.79-.75,1.44-1.44,2.16-2.07q11.6-9.95,23.17-19.88c5.78-5,11.58-9.92,17.35-14.92,2.28-2,2.16-2.63-.57-3.79-1.42-.61-2.87-1.17-4.31-1.77l-17.18-7.18,2-3Zm-232.77,36.37a44.5,44.5,0,1,1,44.5-44.5A44.51,44.51,0,0,1,1721.39,509.17Z" fill="#2f3233"/>
	</g>
	<g id="kp-lines">
		<g id="k-lines">
			<path d="M1159,217.91V711.57" fill="none" stroke="#2f3233" stroke-linecap="round" stroke-linejoin="round" stroke-width="16.58" stroke-dasharray="493.67" stroke-dashoffset="493.67"></path>
			<path d="M1371.21,217.91l-113.44,151.9V217.91" fill="none" stroke="#2f3233" stroke-linecap="round" stroke-linejoin="round" stroke-width="15.88" stroke-dasharray="341.49" stroke-dashoffset="341.49"></path>
			<path d="M1257.77,711.57V538.41l123.41,173.16" fill="none" stroke="#2f3233" stroke-linecap="round" stroke-linejoin="round" stroke-width="15.88" stroke-dasharray="385.8" stroke-dashoffset="385.8"></path>
			<path d="M1501.3,711.09,1319.42,453.93l171.69-235.67" fill="none" stroke="#2f3233" stroke-linecap="round" stroke-linejoin="round" stroke-width="16.58" stroke-dasharray="606.56" stroke-dashoffset="606.56"></path>
		</g>
		<g id="p-lines">
			<path d="M2119.64,316.88h87.28a49,49,0,0,1,0,98.07h-87.28" fill="none" stroke="#2f3233" stroke-linecap="round" stroke-linejoin="round" stroke-width="15.88" stroke-dasharray="328.64" stroke-dashoffset="328.64"></path>
			<path d="M2021.85,711.09V218.26h193.37a148,148,0,0,1,0,295.91h-95.58V711.09" fill="none" stroke="#2f3233" stroke-linecap="round" stroke-linejoin="round" stroke-width="16.58" stroke-dasharray="1436.42" stroke-dashoffset="1436.42"></path>
		</g>
	</g>
	<g id="ree-fill" opacity="0">
		<path d="M295.48,217.77H100.72v493.8h98.76V523h47.66l99.45,188.54H458.47L343.83,507.84C488.86,465.71,471.59,217.77,295.48,217.77ZM286.5,427h-87V316.53h87C353.49,316.53,353.49,427,286.5,427Z" fill="#2f3233"/>
		<polygon points="618.96 514.05 748.8 514.05 748.8 415.3 618.96 415.3 618.96 316.54 767.44 316.54 767.44 217.77 520.2 217.77 520.2 711.57 775.73 711.57 775.73 612.81 618.96 612.81 618.96 514.05" fill="#2f3233"/>
		<polygon points="943.99 514.05 1073.83 514.05 1073.83 415.3 943.99 415.3 943.99 316.54 1092.47 316.54 1092.47 217.77 845.22 217.77 845.22 711.57 1100.76 711.57 1100.76 612.81 943.99 612.81 943.99 514.05" fill="#2f3233"/>
	</g>
	<g id="ree-lines">
		<g>
			<path d="M199.48,711.57V523h47.66l99.45,188.54" fill="none" stroke="#2f3233" stroke-linecap="round" stroke-linejoin="round" stroke-width="16.58" stroke-dasharray="449.4" stroke-dashoffset="449.4"></path>
			<path d="M198.1,316.53h88.77c27.55,0,49.88,24.74,49.88,55.25S314.42,427,286.87,427H198.1" fill="none" stroke="#2f3233" stroke-linecap="round" stroke-linejoin="round" stroke-width="15.88" stroke-dasharray="342.79" stroke-dashoffset="342.79"></path>
			<path d="M100.72,711.57V217.77H295.48A145.06,145.06,0,0,1,339.92,500.9L458.47,711.57" fill="none" stroke="#2f3233" stroke-linecap="round" stroke-linejoin="round" stroke-width="16.58" stroke-dasharray="1340.79" stroke-dashoffset="1340.79"></path>
		</g>
		<g>
			<path d="M520.2,217.77v493.8" fill="none" stroke="#2f3233" stroke-linecap="round" stroke-linejoin="round" stroke-width="16.58" stroke-dasharray="493.8" stroke-dashoffset="493.8"></path>
			<path d="M775.73,711.57V612.81H619V514.05H748.8V415.29H619V316.53H767.44V217.77" fill="none" stroke="#2f3233" stroke-linecap="round" stroke-linejoin="round" stroke-width="16.58" stroke-dasharray="1058.57" stroke-dashoffset="1058.57"></path>
		</g>
		<g>
			<path d="M845.22,217.77v493.8" fill="none" stroke="#2f3233" stroke-linecap="round" stroke-linejoin="round" stroke-width="16.58" stroke-dasharray="493.8" stroke-dashoffset="493.8"></path>
			<path d="M1100.76,711.57V612.81H944V514.05h129.83V415.29H944V316.53h148.48V217.77" fill="none" stroke="#2f3233" stroke-linecap="round" stroke-linejoin="round" stroke-width="16.58" stroke-dasharray="1058.7" stroke-dashoffset="1058.7"></path>
		</g>
	</g>
	<style>
		#reekop-loader #ree-lines path {
			-webkit-animation: drawIn 1s ease-in-out 0.5s forwards;
			        animation: drawIn 1s ease-in-out 0.5s forwards;
		}
		#reekop-loader #kp-lines path {
			-webkit-animation: drawIn 1s ease-in-out 0.5s forwards;
			        animation: drawIn 1s ease-in-out 0.5s forwards;
		}

		#reekop-loader #kp-lines #k-lines {
			-webkit-transform: translate(220px, 0px);
			    -ms-transform: translate(220px, 0px);
			        transform: translate(220px, 0px);
			-webkit-animation: moveIn 1s ease-in-out 1.2s forwards;
			        animation: moveIn 1s ease-in-out 1.2s forwards;
		}
		#reekop-loader #kp-lines #p-lines {
			-webkit-transform: translate(-220px, 0px);
			    -ms-transform: translate(-220px, 0px);
			        transform: translate(-220px, 0px);
			-webkit-animation: moveIn 1s ease-in-out 1.2s forwards;
			        animation: moveIn 1s ease-in-out 1.2s forwards;
		}

		#reekop-loader #ree-lines {
			-webkit-transform: translate(220px, 0px);
			    -ms-transform: translate(220px, 0px);
			        transform: translate(220px, 0px);
			-webkit-animation: moveIn 1s ease-in-out 1.2s forwards, fadeOut 1s ease-in-out 1.2s forwards;
			        animation: moveIn 1s ease-in-out 1.2s forwards, fadeOut 1s ease-in-out 1.2s forwards;
		}
		#reekop-loader #ree-fill {
			-webkit-transform: translate(220px, 0px);
			    -ms-transform: translate(220px, 0px);
			        transform: translate(220px, 0px);
			-webkit-animation: moveIn 1s ease-in-out 1.2s forwards, fadeIn 1s ease-in-out 1.2s forwards;
			        animation: moveIn 1s ease-in-out 1.2s forwards, fadeIn 1s ease-in-out 1.2s forwards;
		}

		#reekop-loader #saw {
			-webkit-transform-origin: 1721.39px 464.67px;
			    -ms-transform-origin: 1721.39px 464.67px;
			        transform-origin: 1721.39px 464.67px;
			-webkit-transform: scale(0, 0);
			    -ms-transform: scale(0, 0);
			        transform: scale(0, 0);
			-webkit-animation: scaleIn 1s ease-in-out 1.2s forwards;
			        animation: scaleIn 1s ease-in-out 1.2s forwards;
		}
		#reekop-loader #saw-gr {
			-webkit-transform-origin: 1721.39px 464.67px;
			    -ms-transform-origin: 1721.39px 464.67px;
			        transform-origin: 1721.39px 464.67px;
			-webkit-transform: rotate(360deg);
			    -ms-transform: rotate(360deg);
			        transform: rotate(360deg);
			-webkit-animation: rotateIn 2s ease-in-out 1.2s forwards;
			        animation: rotateIn 2s ease-in-out 1.2s forwards;
		}

		#reekop-loader #under-line > g:nth-child(1) {
			-webkit-transform: translate(0px, 70px);
			    -ms-transform: translate(0px, 70px);
			        transform: translate(0px, 70px);
			-webkit-animation: moveIn 0.75s ease-in-out 2s forwards, fadeIn 0.75s ease-in-out 2s forwards;
			        animation: moveIn 0.75s ease-in-out 2s forwards, fadeIn 0.75s ease-in-out 2s forwards;
		}
		#reekop-loader #under-line > g:nth-child(2) {
			-webkit-transform: translate(0px, 70px);
			    -ms-transform: translate(0px, 70px);
			        transform: translate(0px, 70px);
			-webkit-animation: moveIn 0.75s ease-in-out 2.2s forwards, fadeIn 0.75s ease-in-out 2.2s forwards;
			        animation: moveIn 0.75s ease-in-out 2.2s forwards, fadeIn 0.75s ease-in-out 2.2s forwards;
		}
		#reekop-loader #under-line > g:nth-child(3) {
			-webkit-transform: translate(0px, 70px);
			    -ms-transform: translate(0px, 70px);
			        transform: translate(0px, 70px);
			-webkit-animation: moveIn 0.75s ease-in-out 2.4s forwards, fadeIn 0.75s ease-in-out 2.4s forwards;
			        animation: moveIn 0.75s ease-in-out 2.4s forwards, fadeIn 0.75s ease-in-out 2.4s forwards;
		}
		#reekop-loader #under-line > g:nth-child(4) {
			-webkit-transform: translate(0px, 70px);
			    -ms-transform: translate(0px, 70px);
			        transform: translate(0px, 70px);
			-webkit-animation: moveIn 0.75s ease-in-out 2.6s forwards, fadeIn 0.75s ease-in-out 2.6s forwards;
			        animation: moveIn 0.75s ease-in-out 2.6s forwards, fadeIn 0.75s ease-in-out 2.6s forwards;
		}

		@-webkit-keyframes drawIn {
			to {
				stroke-dashoffset: 0;
			}
		}

		@keyframes drawIn {
			to {
				stroke-dashoffset: 0;
			}
		}

		@-webkit-keyframes fadeIn {
			to {
				opacity: 1;
			}
		}

		@keyframes fadeIn {
			to {
				opacity: 1;
			}
		}

		@-webkit-keyframes fadeOut {
			to {
				opacity: 0;
			}
		}

		@keyframes fadeOut {
			to {
				opacity: 0;
			}
		}

		@-webkit-keyframes moveIn {
			to {
				-webkit-transform: translate(0px, 0px);
				        transform: translate(0px, 0px);
			}
		}

		@keyframes moveIn {
			to {
				-webkit-transform: translate(0px, 0px);
				        transform: translate(0px, 0px);
			}
		}

		@-webkit-keyframes rotateIn {
			to {
				-webkit-transform: rotate(0deg);
				        transform: rotate(0deg);
			}
		}

		@keyframes rotateIn {
			to {
				-webkit-transform: rotate(0deg);
				        transform: rotate(0deg);
			}
		}

		@-webkit-keyframes scaleIn {
			to {
				-webkit-transform: scale(1, 1);
				        transform: scale(1, 1);
			}
		}

		@keyframes scaleIn {
			to {
				-webkit-transform: scale(1, 1);
				        transform: scale(1, 1);
			}
		}
	</style>
</svg>
