<svg id="vs-logo-anim" xmlns="http://www.w3.org/2000/svg" xmlns:xlink="http://www.w3.org/1999/xlink" viewBox="0 0 1000 1000">
  <defs>
    <linearGradient id="linear-gradient" x1="476.89" y1="444.25" x2="639.46" y2="444.25" gradientUnits="userSpaceOnUse">
      <stop offset="0" stop-color="#c9a34a"/>
      <stop offset="0" stop-color="#a47715"/>
      <stop offset="0.23" stop-color="#c7992b"/>
      <stop offset="0.41" stop-color="#dab461"/>
      <stop offset="0.59" stop-color="#b68f3a"/>
      <stop offset="0.77" stop-color="#cba147"/>
      <stop offset="1" stop-color="#ffe084"/>
    </linearGradient>
    <linearGradient id="linear-gradient-2" x1="410.7" y1="367.73" x2="570.85" y2="367.73" xlink:href="#linear-gradient"/>

    <clipPath id="clipV">
      <rect x="0" y="0" width="1" height="1" />
      <rect x="999" y="999" width="1" height="1" />
      <path d="M419.35,500.33c3.54,0,4.54-3.67,5.81-6.81a20.7,20.7,0,0,1,1-2.36c3.28-7.34,6.56-14.94,9.59-22.28,13.11-30.66,57.25-121.33,73.9-150.42l2.27-3.67c15.63-26.73,31.78-54.51,57-73.64,1.76-1.31,2.77-2.36,1-4.46a3.16,3.16,0,0,0-3-1.57,2.9,2.9,0,0,0-1.77.52,73.37,73.37,0,0,0-11.85,10.22C522,280.19,469.55,382.14,451.89,419.61c-6.56,13.63-12.61,27-18.66,41.15-1.77,4.19-3.53,8.38-5.55,13.89l-.51,1.57c-1,3.15-2.52,7.6-6.05,8.65h-.25l-.51-.53a3.56,3.56,0,0,1-.75-1.83,100.15,100.15,0,0,1,0-15.2v-4.19l1.51-39.57c1.51-34.6,3-70.5,2-106.4v-2.36a9.68,9.68,0,0,0-.25-4.72,3.85,3.85,0,0,0-2.27-1.31,2.7,2.7,0,0,0-1.27-.26c-1.76,0-2,2.09-2,5v1.57c-3.53,53.72-6.81,111.38-6.56,169.82v2.36c-.25,5-.25,9.69,5.55,12.31A7.29,7.29,0,0,0,419.35,500.33Z"/>
    </clipPath>
    <clipPath id="clipS1">
      <rect x="0" y="0" width="1" height="1" />
      <rect x="999" y="999" width="1" height="1" />
      <path d="M481.4,549.51q.33.45.69.87c4.28,5,11.34,8.13,19.42,8.39h2c9.34,0,17.91-2.62,26.49-7.86,3.53-2.36,7.31-4.72,10.59-7.08a132.35,132.35,0,0,0,24.46-22,86.28,86.28,0,0,0,20.18-51.89,33.51,33.51,0,0,0,0-7.08,41,41,0,0,0-7.06-26.47,47.77,47.77,0,0,0-9.33-9.69c-9.34-7.6-20.94-11.27-32.54-13.89-6-1.31-11.85-2.36-17.4-3.41-3.78-.52-7.32-1.05-11.35-1.57L504,407.3c-1-.27-3-.53-3.53-1.58-.51-1.31.25-2.36,1.26-3.67a48.16,48.16,0,0,1,3.53-3.4c.76-.26,1.26-1,1.76-1.58q4.54-4.32,9.08-7.86c6.06-5,12.61-9.43,18.92-14.15a357.39,357.39,0,0,1,59.52-34.33c7.57-3.41,15.89-6.81,26-6.81h3c4.28.26,7.31,1.57,8.82,3.67,1.77,1.83,2.27,4.71,1.77,8.64-1.26,8.39-4.79,14.94-7.82,20.18-3.78,6.29-7.82,12.32-11.6,18.61l-5.8,9.17c-1,1.84-1.77,3.15,0,4.72.76.52,1,.52,1,.52.5,0,1-.78,1.76-1.31,11.1-11.53,24.22-27.25,27.49-50.05.76-5-.25-9.44-3-12.58-3.28-3.67-8.33-5.77-14.63-5.77h-1.51a55,55,0,0,0-18.42,3.41c-35.81,12.58-69.61,32-103.4,59.49a19.75,19.75,0,0,0-4.8,5.5c-2.27,3.67-3,7.08-1.26,10,1.52,2.62,4.8,4.72,9.34,5.5a144.63,144.63,0,0,0,18.41,2.36c4.54.27,9.08,1.05,13.62,1.58,13.87,2.09,27.24,5,39.09,16.24,3.68,3.44,5.88,6.32,6.8,8.85l3.79,11.6a2.13,2.13,0,0,1,1,1.57,22.24,22.24,0,0,1,1,6.81,36,36,0,0,1-1.51,12.32,60.82,60.82,0,0,1-6.81,17.29C561,523.13,539.09,542,510.33,550.12a30.31,30.31,0,0,1-6.81,1h-2.27c-5.55-.52-9.58-2.36-12.36-5.5C487.16,542.28,479.67,546.12,481.4,549.51Z" />
    </clipPath>
    <clipPath id="clipS2">
      <rect x="0" y="0" width="1" height="1" />
      <rect x="999" y="999" width="1" height="1" />
      <path d="M579.43,442.61a7.63,7.63,0,0,1,.51,2.68c.26,3.15-2,5.77-6.81,7.6-28,13.11-53.72,29.09-76.16,48-8.83,7.34-17.41,16.25-19.68,29.88-1.19,7.18.32,13.66,4.11,18.78,2.28,4.44,9.77.6,7.49-3.84-2.77-3.15-3.53-7.6-3-12.85,1-8.91,5-16.24,12.61-23.84a229.9,229.9,0,0,1,26-22.54c8.82-6.29,17.9-12.58,28.25-18.61,4.79-3.14,10.08-5.76,14.88-8.38l7.56-3.93,1-.27a10.76,10.76,0,0,1,5.05-1.83c.75.26,1.51.26,2,.79C583.25,450.3,581.72,446.45,579.43,442.61Z" />
    </clipPath>
  </defs>
  <g>
    <g id="text1" opacity="0">
      <path d="M182.82,608.58c.19,0,.29.22.29.65s-.1.58-.29.58a10.28,10.28,0,0,0-6.16,1.89,14.07,14.07,0,0,0-4.28,6.3l-22,55.19c-.11.23-.49.36-1.16.36a1.47,1.47,0,0,1-1.16-.36l-25.74-56a15.32,15.32,0,0,0-3.77-5.73,7.47,7.47,0,0,0-5-1.67c-.23,0-.36-.18-.36-.58s.13-.65.36-.65l3.92.14c1.92.11,3.48.15,4.64.15,2.76,0,5.73,0,8.92-.15l4.21-.14c.23,0,.36.22.36.65s-.13.58-.36.58c-4.26,0-6.39,1.22-6.39,3.63a8.54,8.54,0,0,0,.95,3.33l21.6,47.35L170,617.5a10.73,10.73,0,0,0,.8-3.41,3.39,3.39,0,0,0-2-3.19,13,13,0,0,0-6.09-1.09c-.2,0-.29-.18-.29-.58s.09-.65.29-.65l4.42.14c2.36.11,4.52.15,6.46.15,1.45,0,3.06,0,4.85-.15Z"/>
      <path d="M216.72,664.85a13.54,13.54,0,0,0,.58,4.64,3.51,3.51,0,0,0,2.46,2,23.23,23.23,0,0,0,5.73.5c.24,0,.37.22.37.66s-.13.58-.37.58c-2.08,0-3.73,0-4.93-.08l-7.39-.14-7.11.14c-1.27.06-2.95.08-5.08.08-.2,0-.29-.18-.29-.58s.09-.66.29-.66a23.28,23.28,0,0,0,5.73-.5,3.57,3.57,0,0,0,2.47-2,11.56,11.56,0,0,0,.72-4.64V617a11.08,11.08,0,0,0-.72-4.57,3.88,3.88,0,0,0-2.47-2,20.74,20.74,0,0,0-5.73-.58c-.2,0-.29-.18-.29-.58s.09-.65.29-.65l5.08.14c2.9.11,5.26.15,7.11.15,2.06,0,4.56,0,7.46-.15l4.86-.14c.24,0,.37.22.37.65s-.13.58-.37.58a18,18,0,0,0-5.65.65,4,4,0,0,0-2.47,2.11,12.56,12.56,0,0,0-.65,4.64Z"/>
      <path d="M313.37,608.58c.19,0,.29.22.29.65s-.1.58-.29.58a10.28,10.28,0,0,0-6.16,1.89,14.07,14.07,0,0,0-4.28,6.3l-22,55.19c-.11.23-.49.36-1.16.36a1.47,1.47,0,0,1-1.16-.36l-25.74-56a15.32,15.32,0,0,0-3.77-5.73,7.48,7.48,0,0,0-5-1.67c-.23,0-.36-.18-.36-.58s.13-.65.36-.65l3.92.14c1.92.11,3.48.15,4.64.15,2.75,0,5.73,0,8.92-.15l4.2-.14c.24,0,.37.22.37.65s-.13.58-.37.58c-4.26,0-6.38,1.22-6.38,3.63a8.54,8.54,0,0,0,.95,3.33l21.6,47.35,18.64-46.62a11,11,0,0,0,.8-3.41,3.39,3.39,0,0,0-2-3.19,13,13,0,0,0-6.09-1.09c-.2,0-.29-.18-.29-.58s.09-.65.29-.65l4.42.14c2.36.11,4.51.15,6.46.15,1.45,0,3.06,0,4.85-.15Z"/>
      <path d="M347.27,664.85a13.54,13.54,0,0,0,.58,4.64,3.51,3.51,0,0,0,2.46,2,23.23,23.23,0,0,0,5.73.5q.36,0,.36.66c0,.4-.12.58-.36.58-2.08,0-3.73,0-4.93-.08l-7.4-.14-7.1.14c-1.27.06-3,.08-5.08.08-.2,0-.29-.18-.29-.58s.09-.66.29-.66a23.28,23.28,0,0,0,5.73-.5,3.57,3.57,0,0,0,2.47-2,11.56,11.56,0,0,0,.72-4.64V617a11.08,11.08,0,0,0-.72-4.57,3.88,3.88,0,0,0-2.47-2,20.74,20.74,0,0,0-5.73-.58c-.2,0-.29-.18-.29-.58s.09-.65.29-.65l5.08.14c2.9.11,5.26.15,7.1.15,2.07,0,4.57,0,7.47-.15l4.86-.14c.24,0,.36.22.36.65s-.12.58-.36.58a18,18,0,0,0-5.65.65,4,4,0,0,0-2.47,2.11,12.56,12.56,0,0,0-.65,4.64Z"/>
      <path d="M406,673.69c-2,0-4.28-.12-6.89-.36-1-.06-2.21-.09-3.7-.14s-3.15-.15-4.93-.15l-7,.15c-1.22,0-2.94.07-5.15.07-.14,0-.22-.18-.22-.58s.08-.65.22-.65a23.23,23.23,0,0,0,5.73-.51,3.53,3.53,0,0,0,2.46-2,11.36,11.36,0,0,0,.73-4.64V617a12,12,0,0,0-.65-4.57,3.65,3.65,0,0,0-2.4-2,21.13,21.13,0,0,0-5.8-.58c-.11,0-.14-.18-.14-.58s0-.65.14-.65l5.22.14c2.9.11,5.19.15,6.89.15,2.65,0,5.24-.09,7.76-.29q4.58-.23,6.31-.22a42.63,42.63,0,0,1,19.14,4.13,31.13,31.13,0,0,1,12.84,11.31,29.07,29.07,0,0,1,4.56,16,33.56,33.56,0,0,1-4.71,17.77,32.18,32.18,0,0,1-12.76,11.89,37.4,37.4,0,0,1-17.62,4.2m-1-1.59a30.55,30.55,0,0,0,14.65-3.41,24.14,24.14,0,0,0,10-10.22,34.56,34.56,0,0,0,3.62-16.39,38.51,38.51,0,0,0-3.4-16.32,27.57,27.57,0,0,0-9.79-11.53A25.47,25.47,0,0,0,405.49,610a37.52,37.52,0,0,0-6.89.51,5.67,5.67,0,0,0-3.55,2.11,7.59,7.59,0,0,0-1.16,4.64v46.55a11.06,11.06,0,0,0,.87,4.86,5.82,5.82,0,0,0,3.34,2.61,21.39,21.39,0,0,0,6.88.87"/>
    </g>
    <g id="text2" opacity="0">
      <path d="M512.68,620.69a12.84,12.84,0,0,0,2,7.1,18.46,18.46,0,0,0,4.79,5q2.88,2,7.83,5,5.49,3.27,8.41,5.44a19.79,19.79,0,0,1,5.07,5.58,14.34,14.34,0,0,1,2.18,8,16.51,16.51,0,0,1-9.86,15.37,26.17,26.17,0,0,1-11.46,2.32A30.1,30.1,0,0,1,507,670.86a1.25,1.25,0,0,1-.65-.72,4.54,4.54,0,0,1-.22-1.23l-1.37-14.07c-.06-.29.09-.45.43-.51s.62,0,.73.29A29.36,29.36,0,0,0,512,667.46a14.69,14.69,0,0,0,11.89,5.36A13.66,13.66,0,0,0,532.7,670c2.35-1.88,3.55-4.89,3.55-9.06a15.21,15.21,0,0,0-2.1-8,19.81,19.81,0,0,0-5-5.65,81.8,81.8,0,0,0-8-5.22,80.32,80.32,0,0,1-7.83-5.15,18.74,18.74,0,0,1-4.79-5.51,15,15,0,0,1-2-7.76,14.67,14.67,0,0,1,2.68-8.85,16.63,16.63,0,0,1,7.18-5.51,24.54,24.54,0,0,1,9.36-1.81A31,31,0,0,1,537.92,610c1.05.34,1.59.92,1.59,1.74l.65,11.89c0,.29-.18.43-.5.43s-.55-.14-.58-.43a21.44,21.44,0,0,0-4.5-9.94c-2.43-3.08-5.91-4.64-10.44-4.64-3.88,0-6.74,1.14-8.63,3.41a12.41,12.41,0,0,0-2.83,8.27"/>
      <path d="M646.16,672c.18,0,.29.22.29.66s-.11.58-.29.58c-2.18,0-3.88,0-5.08-.08l-7.17-.14-6.6.14c-1.13.06-2.67.08-4.64.08-.15,0-.22-.18-.22-.58s.07-.66.22-.66a16.4,16.4,0,0,0,5.14-.58,3.48,3.48,0,0,0,2.32-2,11.22,11.22,0,0,0,.37-4.56l-1.82-47.06-23.63,54.74a.83.83,0,0,1-.8.44,1.3,1.3,0,0,1-.94-.44l-25.46-54.09L576.91,662q-.07,5.52,1.89,7.83c1.3,1.5,3.59,2.24,6.89,2.24q.21,0,.21.66c0,.4-.07.58-.21.58-1.94,0-3.41,0-4.43-.08l-5.58-.14-5.37.14c-1,.06-2.35.08-4.13.08-.15,0-.22-.18-.22-.58s.07-.66.22-.66c2.9,0,5-.76,6.24-2.32s1.92-4.13,2-7.75l.94-48a10.09,10.09,0,0,0-8.49-4.13c-.14,0-.21-.18-.21-.58s.07-.65.21-.65l3.78.14c.72.06,1.68.08,2.9.08s2.32,0,3.19-.08,1.54-.14,2-.14a2.75,2.75,0,0,1,2.17,1,18.68,18.68,0,0,1,2.54,4.35l23.13,48.66,22.55-51.41c.73-1.74,1.76-2.61,3.12-2.61a11.36,11.36,0,0,1,1.45.14c.67.06,1.56.08,2.68.08l4.86-.08a30.31,30.31,0,0,1,3.41-.14c.18,0,.29.22.29.65s-.11.58-.29.58c-3.48,0-6,.51-7.47,1.52s-2.16,2.9-2.1,5.66l2.1,47.86a12.74,12.74,0,0,0,.73,4.71,3.69,3.69,0,0,0,2.46,2,22.69,22.69,0,0,0,5.73.5"/>
      <path d="M682.85,664.85a13.54,13.54,0,0,0,.58,4.64,3.51,3.51,0,0,0,2.46,2,23.23,23.23,0,0,0,5.73.5q.36,0,.36.66c0,.4-.12.58-.36.58-2.08,0-3.73,0-4.93-.08l-7.4-.14-7.1.14c-1.27.06-3,.08-5.08.08-.2,0-.29-.18-.29-.58s.09-.66.29-.66a23.28,23.28,0,0,0,5.73-.5,3.53,3.53,0,0,0,2.46-2,11.36,11.36,0,0,0,.73-4.64V617a10.89,10.89,0,0,0-.73-4.57,3.84,3.84,0,0,0-2.46-2,20.74,20.74,0,0,0-5.73-.58c-.2,0-.29-.18-.29-.58s.09-.65.29-.65l5.08.14c2.9.11,5.25.15,7.1.15,2.07,0,4.57,0,7.47-.15l4.86-.14c.24,0,.36.22.36.65s-.12.58-.36.58a18.11,18.11,0,0,0-5.66.65,4,4,0,0,0-2.46,2.11,12.36,12.36,0,0,0-.65,4.64Z"/>
      <path d="M729.4,664.48a11.58,11.58,0,0,0,.58,4.35,3.53,3.53,0,0,0,2.32,1.82,23.47,23.47,0,0,0,5.36.43H749a12.32,12.32,0,0,0,9.36-3.62,18.81,18.81,0,0,0,4.71-10c0-.24.16-.33.51-.29s.58.18.58.36c-.58,5.77-.87,10.5-.87,14.22a1.62,1.62,0,0,1-.36,1.16,1.57,1.57,0,0,1-1.24.36H713.88c-.15,0-.22-.18-.22-.58s.07-.65.22-.65a23.23,23.23,0,0,0,5.73-.51,3.37,3.37,0,0,0,2.39-2,12.56,12.56,0,0,0,.65-4.64V617a12,12,0,0,0-.65-4.57,3.66,3.66,0,0,0-2.39-2,20.79,20.79,0,0,0-5.73-.58c-.15,0-.22-.18-.22-.58s.07-.65.22-.65l5.07.14c2.9.11,5.24.15,7,.15s4.35,0,7.25-.15l4.93-.14c.24,0,.36.21.36.65s-.12.58-.36.58a20.31,20.31,0,0,0-5.66.58,4,4,0,0,0-2.46,2.1,11.84,11.84,0,0,0-.65,4.57Z"/>
      <path d="M828.21,657.81c0-.09.14-.14.43-.14a2,2,0,0,1,.51.07c.18,0,.29.14.29.29a94.19,94.19,0,0,0-.94,13.7,1.55,1.55,0,0,1-.37,1.16,1.76,1.76,0,0,1-1.3.37H783.47c-.11,0-.15-.18-.15-.58s0-.66.15-.66a23.83,23.83,0,0,0,5.8-.5,3.55,3.55,0,0,0,2.46-2,12.32,12.32,0,0,0,.66-4.64V617a11.81,11.81,0,0,0-.66-4.57,3.87,3.87,0,0,0-2.46-2,21.23,21.23,0,0,0-5.8-.58c-.11,0-.15-.18-.15-.58s0-.65.15-.65h41.62a.84.84,0,0,1,.94.94l.22,12.69c0,.25-.2.4-.58.44s-.55-.1-.58-.29c-.2-3.67-1.31-6.53-3.34-8.56a10.65,10.65,0,0,0-8-3h-6.31a18.47,18.47,0,0,0-5.37.58,3.86,3.86,0,0,0-2.32,2,10.44,10.44,0,0,0-.65,4.21v21h12.62c3.28,0,5.62-.54,7-1.66s2.18-3,2.18-5.59c0-.14.18-.21.58-.21s.65.07.65.21l-.07,8.34c0,2,0,3.56.07,4.57l.07,5c0,.11-.22.15-.65.15s-.58,0-.58-.15c0-3-.76-5.22-2.25-6.52s-3.9-2-7.32-2H799.13v23.85a11.37,11.37,0,0,0,.58,4.28,3.52,3.52,0,0,0,2.32,1.81,18.64,18.64,0,0,0,5.15.51h8.26a10.84,10.84,0,0,0,8.27-3.48,19.12,19.12,0,0,0,4.5-9.79"/>
      <path d="M856.62,620.69a12.76,12.76,0,0,0,2,7.1,18.42,18.42,0,0,0,4.78,5q2.89,2,7.84,5,5.49,3.27,8.41,5.44a19.79,19.79,0,0,1,5.07,5.58,14.34,14.34,0,0,1,2.18,8A16.51,16.51,0,0,1,877,672.17a26.17,26.17,0,0,1-11.46,2.32,30.1,30.1,0,0,1-14.65-3.63,1.25,1.25,0,0,1-.65-.72,4.54,4.54,0,0,1-.22-1.23l-1.38-14.07c0-.29.1-.45.44-.51s.62,0,.72.29A29.48,29.48,0,0,0,856,667.46a14.69,14.69,0,0,0,11.89,5.36,13.61,13.61,0,0,0,8.77-2.83c2.36-1.88,3.56-4.89,3.56-9.06a15.12,15.12,0,0,0-2.11-8,19.78,19.78,0,0,0-5-5.65,80.91,80.91,0,0,0-8-5.22,82.87,82.87,0,0,1-7.83-5.15,18.85,18.85,0,0,1-4.78-5.51,15,15,0,0,1-2-7.76,14.67,14.67,0,0,1,2.68-8.85,16.63,16.63,0,0,1,7.18-5.51,24.54,24.54,0,0,1,9.36-1.81,31,31,0,0,1,12.1,2.54c1.06.34,1.6.92,1.6,1.74l.65,11.89c0,.29-.18.43-.51.43s-.54-.14-.58-.43a21.42,21.42,0,0,0-4.49-9.94c-2.43-3.08-5.91-4.64-10.44-4.64q-5.82,0-8.63,3.41a12.35,12.35,0,0,0-2.83,8.27"/>
    </g>
    <g id="text3" opacity="0">
      <path d="M375.29,760.53a22.11,22.11,0,0,1-13.77,4.35c-5.33,0-9.63-1.7-12.91-5.15A17.8,17.8,0,0,1,343.75,747a18,18,0,0,1,4.71-12.76c3.14-3.43,7.36-5.15,12.69-5.15a28.13,28.13,0,0,1,7.4,1,23.51,23.51,0,0,1,5.58,2v6.38l-.58-.15a9.92,9.92,0,0,0-4.35-6.23,15.2,15.2,0,0,0-8.05-1.89c-4.26,0-7.5,1.56-9.71,4.64s-3.34,7.07-3.34,12,1.18,8.92,3.55,12a11.85,11.85,0,0,0,9.94,4.57,22.74,22.74,0,0,0,7.61-1.09,26.61,26.61,0,0,0,6.09-3.33Z"/>
      <path d="M417.88,740.73v12.4c0,5,.25,8,.8,8.92a2.08,2.08,0,0,0,.79,1.09,3.7,3.7,0,0,0,1.38.58,16.46,16.46,0,0,0,1.89.07l.07.58H409.39l.08-.58a16.3,16.3,0,0,0,1.95-.07,3.7,3.7,0,0,0,1.38-.58,2,2,0,0,0,.87-1,7.91,7.91,0,0,0,.51-2c.14-1.16.22-3.5.22-7v-5.51H394.24v5.51a57.48,57.48,0,0,0,.29,7.25,4.5,4.5,0,0,0,.94,2.47,5.68,5.68,0,0,0,3.63.94l.14.58H385.76l.14-.58a15.76,15.76,0,0,0,1.89-.07,3.24,3.24,0,0,0,1.3-.58,2.6,2.6,0,0,0,.94-1,7.48,7.48,0,0,0,.51-2,69.07,69.07,0,0,0,.22-7v-12.4a62.29,62.29,0,0,0-.29-7.17,4.63,4.63,0,0,0-.87-2.54,6.17,6.17,0,0,0-3.7-.94l-.14-.58h13.48l-.14.58a5.74,5.74,0,0,0-3.63.94c-.83.69-1.23,3.91-1.23,9.71v5.59H414.4v-5.59c0-4.93-.26-7.92-.73-9a2.11,2.11,0,0,0-.87-1,2.74,2.74,0,0,0-1.38-.58c-.43,0-1.08-.07-1.95-.07l-.08-.58h13.42l-.07.58c-.78,0-1.42,0-1.89.07a2.74,2.74,0,0,0-1.38.58,2.67,2.67,0,0,0-.87,1,11.88,11.88,0,0,0-.43,2,58.42,58.42,0,0,0-.29,7"/>
      <path d="M442.81,740.73v12.4a57.48,57.48,0,0,0,.29,7.25,4.49,4.49,0,0,0,.95,2.47,5.65,5.65,0,0,0,3.62.94l.15.58H434.33l.14-.58a15.76,15.76,0,0,0,1.89-.07,3.18,3.18,0,0,0,1.3-.58,2.63,2.63,0,0,0,.95-1,7.56,7.56,0,0,0,.5-2,69.07,69.07,0,0,0,.22-7v-12.4a62.29,62.29,0,0,0-.29-7.17,4.63,4.63,0,0,0-.87-2.54,6.13,6.13,0,0,0-3.7-.94l-.14-.58h13.49l-.15.58a5.71,5.71,0,0,0-3.62.94c-.84.69-1.24,3.91-1.24,9.71"/>
      <path d="M490.86,760.53a22.14,22.14,0,0,1-13.78,4.35c-5.33,0-9.62-1.7-12.91-5.15a19.42,19.42,0,0,1-.14-25.52c3.14-3.43,7.36-5.15,12.69-5.15a28.06,28.06,0,0,1,7.39,1,23.44,23.44,0,0,1,5.59,2v6.38l-.58-.15a10,10,0,0,0-4.35-6.23,15.22,15.22,0,0,0-8-1.89c-4.26,0-7.51,1.56-9.72,4.64s-3.33,7.07-3.33,12,1.18,8.92,3.55,12a11.83,11.83,0,0,0,9.93,4.57,22.77,22.77,0,0,0,7.62-1.09,26.61,26.61,0,0,0,6.09-3.33Z"/>
      <path d="M520.9,763.79a8.54,8.54,0,0,0,2.68-.29c.53-.18.8-.69.8-1.52s-.91-3.7-2.68-8.48H506.54c-1.45,4.2-2.17,6.85-2.17,7.9s.25,1.74.79,2a8.33,8.33,0,0,0,3,.36l.14.58H497l.15-.58a9.35,9.35,0,0,0,2.25-.21,4.79,4.79,0,0,0,1.74-1.38,11,11,0,0,0,1.88-3.12c.62-1.34,1.34-3.26,2.18-5.73l4.42-12.76c1.54-4.53,2.32-7.29,2.32-8.27s-.25-1.56-.73-1.81a5.2,5.2,0,0,0-2.61-.44l-.14-.58h8.27l8.77,23.86c1.49,4,2.48,6.49,3,7.54a4.83,4.83,0,0,0,1.53,2,5.2,5.2,0,0,0,3.11.87l.15.58H520.83Zm-7-31.61-7,20.08h14.43Z"/>
      <path d="M571.38,755.09v6.16a27.54,27.54,0,0,1-6.09,2.61,25.2,25.2,0,0,1-7.11,1c-5.27,0-9.55-1.7-12.83-5.15A17.8,17.8,0,0,1,540.49,747a18,18,0,0,1,4.71-12.76c3.14-3.43,7.36-5.15,12.69-5.15a26.26,26.26,0,0,1,7,1,19.5,19.5,0,0,1,5.22,2v6.38l-.51-.15a8.16,8.16,0,0,0-3.92-6,14.5,14.5,0,0,0-7.83-2.1q-6.39,0-9.71,4.57c-2.23,3-3.34,7.09-3.34,12.11s1.16,9.1,3.48,12.18,5.69,4.64,10.15,4.64,7.58-1.4,9.43-4.21v-3.84c0-3.66-.22-5.94-.65-6.81s-1.65-1.31-3.63-1.31l-.07-.44h12.18l-.07.44c-1.89,0-3.08.47-3.56,1.38s-.72,3-.72,6.16"/>
      <path d="M603.23,729.06c5.37,0,9.64,1.65,12.84,4.93s4.78,7.47,4.78,12.69a18.86,18.86,0,0,1-4.64,13q-4.65,5.22-12.62,5.22t-12.83-5.22a18.25,18.25,0,0,1-4.86-13c0-5.22,1.54-9.44,4.64-12.69s7.36-4.93,12.69-4.93m.29,34.66c4.24,0,7.49-1.52,9.72-4.57s3.33-7.12,3.33-12.11S615.38,738,613,734.86a11.65,11.65,0,0,0-9.86-4.64q-6.31,0-9.65,4.57c-2.17,3-3.26,7.09-3.26,12.11s1.16,9.1,3.48,12.18a11.52,11.52,0,0,0,9.79,4.64"/>
    </g>
  </g>
  <g id="logo-part">
    <g clip-path="url(#clipV)">
      <path id="v-path" d="M421.19,284.75l-6.55,203.69c-.09,2.77,1.92,12.4,6.48,5.95C426,487.8,527.16,244,580.87,229.94" fill="none" stroke="url(#linear-gradient-2)" stroke-linecap="round" stroke-linejoin="round" stroke-width="11" stroke-dasharray="530" stroke-dashoffset="530"></path>
    </g>
    <g clip-path="url(#clipS1)">
      <path id="s-path1" d="M601.19,405.6s54.42-56.69,29.48-72-129.48,56.69-132.92,64.34-1.44,11.06,9.9,12.76,68,4.25,74.55,39.12-8.66,60.49-30.43,80.79-72.19,38.93-70.3,2.26" fill="none" stroke="url(#linear-gradient)" stroke-linecap="round" stroke-linejoin="round" stroke-width="11" stroke-dasharray="529" stroke-dashoffset="529"></path>
    </g>
    <g clip-path="url(#clipS2)">
      <path id="s-path2" d="M490.77,552.91s-28.55-21.75,11.11-52.58,88.82-56.08,88.82-56.08" fill="none" stroke="url(#linear-gradient)" stroke-linecap="round" stroke-linejoin="round" stroke-width="11" stroke-dasharray="169" stroke-dashoffset="169"></path>
    </g>
  </g>
  <style>
   #vs-logo-anim #v-path {
      -webkit-animation: drawIn 0.8s ease-in-out 0.1s forwards;
              animation: drawIn 0.8s ease-in-out 0.1s forwards;
    }
    #vs-logo-anim #s-path1 {
      -webkit-animation: drawIn 0.9s ease-in 0.7s forwards;
              animation: drawIn 0.9s ease-in 0.7s forwards;
    }
    #vs-logo-anim #s-path2 {
      -webkit-animation: drawIn 0.5s ease-out 1.6s forwards;
              animation: drawIn 0.5s ease-out 1.6s forwards;
    }

    #vs-logo-anim #logo-part {
      -webkit-transform: translate(0px, 70px);
          -ms-transform: translate(0px, 70px);
              transform: translate(0px, 70px);
      -webkit-animation: moveIn 1s ease-in-out 1.5s forwards;
              animation: moveIn 1s ease-in-out 1.5s forwards;
    }

    #vs-logo-anim #text1 {
      -webkit-transform: translate(-70px, 0px);
          -ms-transform: translate(-70px, 0px);
              transform: translate(-70px, 0px);
      -webkit-animation: moveIn 1s ease-in-out 1.5s forwards;
              animation: moveIn 1s ease-in-out 1.5s forwards;
    }
    #vs-logo-anim #text2 {
      -webkit-transform: translate(70px, 0px);
          -ms-transform: translate(70px, 0px);
              transform: translate(70px, 0px);
      -webkit-animation: moveIn 1s ease-in-out 1.5s forwards;
              animation: moveIn 1s ease-in-out 1.5s forwards;
    }
    #vs-logo-anim #text3 {
      -webkit-transform: translate(0px, 70px);
          -ms-transform: translate(0px, 70px);
              transform: translate(0px, 70px);
      -webkit-animation: moveIn 1s ease-in-out 1.9s forwards;
              animation: moveIn 1s ease-in-out 1.9s forwards;
    }

    @-webkit-keyframes drawIn {
      to {
        stroke-dashoffset: 0px;
      }
    }

    @keyframes drawIn {
      to {
        stroke-dashoffset: 0px;
      }
    }

    @-webkit-keyframes moveIn {
      to {
        -webkit-transform: translate(0px, 0px);
                transform: translate(0px, 0px);
        opacity: 1;
      }
    }

    @keyframes moveIn {
      to {
        -webkit-transform: translate(0px, 0px);
                transform: translate(0px, 0px);
        opacity: 1;
      }
    }
  </style>
</svg>
