<svg version="1.1" id="credi-animation" xmlns="http://www.w3.org/2000/svg" xmlns:xlink="http://www.w3.org/1999/xlink" x="0px"
	 y="0px" viewBox="0 0 553.045 553.045" enable-background="new 0 0 553.045 553.045" xml:space="preserve">
<defs>
		<linearGradient id="grad_logoElem6" gradientUnits="userSpaceOnUse" x1="306.2533" y1="236.6045" x2="376.6522" y2="194.9732">
			<stop  offset="0.18" style="stop-color:#F481FF"/>
			<stop  offset="0.3161" style="stop-color:#F58CFE"/>
			<stop  offset="0.754" style="stop-color:#F8AAFD"/>
			<stop  offset="1" style="stop-color:#F9B6FC"/>
		</linearGradient>
		<linearGradient id="grad_logoElem5" gradientUnits="userSpaceOnUse" x1="243.9723" y1="238.6363" x2="321.7182" y2="238.6363">
			<stop  offset="0.0378" style="stop-color:#8553ED"/>
			<stop  offset="0.2424" style="stop-color:#9262F2"/>
			<stop  offset="0.7275" style="stop-color:#AD80FB"/>
			<stop  offset="1" style="stop-color:#B78CFF"/>
		</linearGradient>
		<linearGradient id="grad_logoElem4" gradientUnits="userSpaceOnUse" x1="228.4993" y1="253.7061" x2="211.9451" y2="195.7444">
			<stop  offset="0" style="stop-color:#93B2F9"/>
			<stop  offset="0.8193" style="stop-color:#5881F4"/>
		</linearGradient>
		<linearGradient id="grad_logoElem3" gradientUnits="userSpaceOnUse" x1="219.4951" y1="214.3451" x2="219.4951" y2="133.3907">
			<stop  offset="0" style="stop-color:#00E1EB"/>
			<stop  offset="0.8161" style="stop-color:#00BDD5"/>
		</linearGradient>
		<linearGradient id="grad_logoElem2" gradientUnits="userSpaceOnUse" x1="205.0349" y1="107.9788" x2="305.3036" y2="107.9788">
			<stop  offset="0" style="stop-color:#00EC95"/>
			<stop  offset="0.8011" style="stop-color:#00D42F"/>
		</linearGradient>
		<clipPath id="clip_credi">
			<path d="M207.721,378.095c-4.12,1.832-11.1,3.433-20.141,3.433c-20.025,0-32.841-12.359-32.841-32.385
				c0-16.021,6.864-29.639,18.08-37.992c8.01-6.065,17.623-9.155,28.723-9.155c8.469,0,14.648,2.06,16.822,3.547l-3.891,10.757
				c-2.517-1.373-7.781-2.747-14.534-2.747c-7.323,0-14.418,2.518-19.682,7.096c-6.753,5.951-11.1,15.677-11.1,26.892
				c0,12.932,6.637,22.658,21.857,22.658c5.607,0,11.329-1.029,15.449-2.975L207.721,378.095z"/>
			<path d="M214.475,380.384l6.522-34.33c1.489-7.897,2.174-16.365,2.86-21.399h11.558
				c-0.343,3.776-0.686,7.667-1.258,11.786h0.343c3.777-7.553,9.842-13.045,17.508-13.045c0.917,0,1.945,0.114,2.862,0.228
				l-2.633,13.046c-0.686-0.115-1.602-0.229-2.517-0.229c-9.497,0-15.563,9.613-17.737,21.514l-4.233,22.429H214.475z"/>
			<path d="M295.152,377.18c-5.493,2.861-12.932,4.348-19.684,4.348c-15.447,0-22.885-9.384-22.885-23.001
				c0-16.822,12.358-35.131,31.583-35.131c10.986,0,17.966,6.408,17.966,15.677c0,14.305-14.99,18.882-36.504,18.424
				c-0.229,1.945,0.229,5.722,1.487,7.897c2.175,3.776,6.181,5.721,11.445,5.721c6.292,0,11.329-1.602,15.333-3.662L295.152,377.18z
				 M282.449,333.352c-8.353,0-13.846,7.437-15.449,14.189c13.733,0.229,22.543-1.716,22.543-8.353
				C289.543,335.526,286.683,333.352,282.449,333.352z"/>
			<path d="M366.901,299.136l-11.674,61.452c-1.258,6.408-2.174,13.732-2.517,19.797h-12.244l1.144-9.956h-0.229
				c-5.035,7.667-11.901,11.214-19.11,11.214c-9.956,0-16.936-8.125-16.936-20.713c0-19.568,14.305-37.534,34.788-37.534
				c2.86,0,6.179,0.572,8.582,1.602l4.919-25.862H366.901z M346.76,335.869c-1.602-1.144-4.349-2.174-7.668-2.174
				c-11.445,0-19.912,12.702-19.912,25.175c0,6.752,2.631,12.016,8.925,12.016c5.951,0,13.045-6.523,15.335-18.081L346.76,335.869z"
				/>
			<path d="M364.27,380.384l10.528-55.729h13.388l-10.641,55.729H364.27z M376.971,309.549
				c0-4.806,3.663-8.124,8.01-8.124c4.12,0,7.096,2.975,7.096,7.209c-0.114,4.92-3.777,8.01-8.24,8.01
				C379.717,316.645,376.857,313.669,376.971,309.549z"/>
		</clipPath>
		<clipPath id="clip_soluciones">
			<path d="M176.139,414.513c1.056,0.695,2.586,1.196,4.226,1.196c1.806,0,3.476-0.974,3.476-2.78
				c0-1.223-0.807-2.058-2.642-3.031c-2.169-1.168-3.809-2.669-3.809-4.893c0-3.587,3.115-5.839,6.895-5.839
				c2.086,0,3.447,0.529,4.17,0.946l-1.056,2.697c-0.612-0.334-1.864-0.862-3.392-0.835c-2.057,0-3.225,1.195-3.225,2.447
				c0,1.279,1.056,2.029,2.808,3.031c2.279,1.195,3.642,2.696,3.642,4.976c0,3.753-3.03,6.061-7.229,6.061
				c-2.279,0-4.142-0.64-4.975-1.306L176.139,414.513z"/>
			<path d="M211.614,406.923c0,3.337-1.195,6.783-3.391,8.952c-1.696,1.668-3.975,2.641-6.7,2.641
				c-4.838,0-7.368-3.531-7.368-7.729c0-3.336,1.252-6.839,3.503-9.007c1.696-1.64,4.06-2.614,6.59-2.614
				C209.252,399.166,211.614,402.642,211.614,406.923z M200.161,403.504c-1.64,1.64-2.586,4.698-2.586,7.117
				c0,2.836,1.279,5.171,4.421,5.171c1.362,0,2.669-0.584,3.642-1.584c1.613-1.612,2.53-4.81,2.53-7.173
				c0-2.474-0.862-5.143-4.309-5.143C202.413,401.891,201.162,402.503,200.161,403.504z"/>
			<path d="M220.624,399.472h3.254l-3.03,15.903h7.366l-0.527,2.836h-10.621L220.624,399.472z"/>
			<path d="M240.059,399.472l-2.084,10.926c-0.139,0.695-0.224,1.473-0.224,2.279
				c0.029,1.918,1.169,3.114,3.087,3.114c2.306,0,3.891-1.556,4.614-5.365l2.084-10.954h3.253l-2.084,10.898
				c-1.084,5.644-3.698,8.146-8.286,8.146c-3.53,0-5.894-1.835-5.894-5.783c0-0.807,0.112-1.723,0.251-2.586l2.03-10.676H240.059z"/>
			<path d="M269.086,417.655c-1.001,0.445-2.698,0.834-4.894,0.834c-4.865,0-7.978-3.003-7.978-7.868
				c0-3.892,1.667-7.2,4.392-9.23c1.945-1.473,4.28-2.224,6.978-2.224c2.057,0,3.559,0.501,4.087,0.862l-0.946,2.613
				c-0.612-0.334-1.891-0.668-3.531-0.668c-1.779,0-3.503,0.612-4.782,1.724c-1.64,1.445-2.696,3.809-2.696,6.533
				c0,3.142,1.612,5.505,5.309,5.505c1.362,0,2.754-0.251,3.753-0.723L269.086,417.655z"/>
			<path d="M282.599,399.472l-3.559,18.738h-3.252l3.559-18.738H282.599z"/>
			<path d="M305.536,406.923c0,3.337-1.195,6.783-3.391,8.952c-1.696,1.668-3.975,2.641-6.7,2.641
				c-4.838,0-7.368-3.531-7.368-7.729c0-3.336,1.252-6.839,3.503-9.007c1.696-1.64,4.06-2.614,6.59-2.614
				C303.174,399.166,305.536,402.642,305.536,406.923z M294.082,403.504c-1.64,1.64-2.586,4.698-2.586,7.117
				c0,2.836,1.279,5.171,4.421,5.171c1.362,0,2.669-0.584,3.642-1.584c1.613-1.612,2.53-4.81,2.53-7.173
				c0-2.474-0.862-5.143-4.309-5.143C296.335,401.891,295.084,402.503,294.082,403.504z"/>
			<path d="M310.987,418.211l3.559-18.738h3.725l3.281,8.702c0.807,2.279,1.279,4.003,1.696,5.866h0.056
				c0.112-1.834,0.334-3.642,0.834-6.339l1.557-8.23h3.059l-3.559,18.738h-3.309l-3.364-8.868c-0.862-2.447-1.334-3.975-1.779-6.033
				l-0.112,0.027c-0.193,1.779-0.583,4.087-1.083,6.867l-1.53,8.007H310.987z"/>
			<path d="M345.102,409.87h-6.727l-1.057,5.589h7.563l-0.529,2.752h-10.815l3.559-18.738h10.398l-0.529,2.753h-7.144
				l-0.946,4.921h6.756L345.102,409.87z"/>
			<path d="M352.36,414.513c1.056,0.695,2.586,1.196,4.226,1.196c1.806,0,3.475-0.974,3.475-2.78
				c0-1.223-0.807-2.058-2.642-3.031c-2.169-1.168-3.809-2.669-3.809-4.893c0-3.587,3.115-5.839,6.895-5.839
				c2.086,0,3.447,0.529,4.17,0.946l-1.056,2.697c-0.612-0.334-1.864-0.862-3.392-0.835c-2.057,0-3.225,1.195-3.225,2.447
				c0,1.279,1.056,2.029,2.808,3.031c2.279,1.195,3.642,2.696,3.642,4.976c0,3.753-3.03,6.061-7.229,6.061
				c-2.279,0-4.142-0.64-4.975-1.306L352.36,414.513z"/>
		</clipPath>
</defs>
<rect id="bg" fill="#6239D1" width="553.045" height="553.045"/>
<g id="logo">
	<g id="logo-elements">
		<path id="elem6" fill="url(#grad_logoElem6)" d="M363.161,176.116c-3.554,3.117-9.024,7.577-17.786,14.179
			c-14.759,11.12-19.018,14.753-36.509,24.132c-6.71,3.598-13.568,6.94-20.48,10.03c0,0,0.001,0,0.001,0
			c5.673,1.956,11.294,3.529,19.925,6.08c10.737,3.173,19.475,5.45,26.564,6.631c2.044,0.34,8.212,1.424,13.672,0.562
			C369.615,234.402,376.905,164.062,363.161,176.116z"/>
		<path id="elem5" fill="url(#grad_logoElem5)" d="M338.521,240.94c-0.018,0-0.038-0.001-0.056-0.001
			c-8.039-0.568-18.801-3.207-33.117-7.438c-8.631-2.551-14.252-4.123-19.924-6.079c0,0-0.001,0-0.002,0
			c-5.974-2.06-11.993-4.542-21.2-8.886c-6.885-3.249-13.653-6.769-20.25-10.483c1.799,5.687,3.906,11.225,6.978,19.63
			c5.127,14.029,9.404,24.232,13.736,31.03c0.005,0.006,0.011,0.012,0.016,0.018c1.439,2.216,2.901,4.065,4.425,5.563
			c12.134,11.918,28.418,1.468,69.442-23.35C338.554,240.942,338.537,240.941,338.521,240.94z"/>
		<path id="elem4" fill="url(#grad_logoElem4)" d="M243.106,234.838c-6.344-17.356-8.58-22.488-12.462-41.952
			c-1.49-7.466-2.691-14.999-3.635-22.511c-3.498,4.831-6.693,9.822-11.617,17.294c-6.721,10.199-11.74,18.461-14.923,25.25
			c-1.483,3.165-3.097,7.054-3.668,11.151c-2.351,16.845,15.713,23.678,60.077,41.862c0,0-0.004-0.011-0.006-0.015
			C252.53,259.119,248.245,248.899,243.106,234.838z"/>
		<path id="elem3" fill="url(#grad_logoElem3)" d="M233.825,134.354c-9,0.496-19.426,1.898-26.298,2.936
			c-5.669,0.856-9.041,1.088-14.018,3.8c-14.934,8.14-9.691,26.784,2.113,73.255c0,0,0.006-0.01,0.008-0.014
			c2.876-7.537,8.558-17.126,16.795-29.628c10.168-15.43,12.96-20.283,26.286-34.99c5.112-5.642,10.449-11.092,15.923-16.323
			C248.672,133.457,242.76,133.861,233.825,134.354z"/>
		<path id="elem2" fill="url(#grad_logoElem2)" d="M305.303,130.664c-3.604-4.753-7.45-9.261-13.165-16.146
			c-9.563-11.52-17.108-19.753-23.481-24.698c-0.004-0.003-0.012-0.012-0.012-0.012c0.002,0,0.003,0,0.004,0
			c-2.06-1.564-4.021-2.788-5.927-3.671c-15.432-7.152-27.379,8.235-57.688,45.388c0,0,0.008,0,0.01,0
			c3.195-0.78,21.715-3.55,33.901-4.222c8.922-0.492,14.83-0.896,20.785-0.963c0.008,0,0.017-0.001,0.025-0.002
			c6.353-0.07,12.765,0.245,22.952,1.252C290.285,128.339,297.842,129.382,305.303,130.664
			C305.303,130.664,305.303,130.664,305.303,130.664z"/>
		<path id="elem1" fill="#00FF83" d="M327.779,157.704c-1.509-2.735-3.302-5.884-5.368-9.337c-5.257-8.784-8.821-14.123-12.66-19.186
			c-3.604-4.753-7.449-9.261-13.165-16.146c-9.563-11.52-17.108-19.753-23.481-24.698c-0.003-0.003-0.011-0.012-0.011-0.012
			c46.877,2.184,66.453,2.631,70.483,18.263C346.396,117.526,337.122,174.637,327.779,157.704z"/>
	</g>
	<g id="text">
		<g id="credi" clip-path="url(#clip_credi)">
			<g id="credi-line1">
				<g id="line1-i">
					<path id="line1-i1" fill="none" stroke="#00F978" stroke-width="14" stroke-miterlimit="10" d="M370.635,381.643l11.167-58.247" stroke-dashoffset="59.31" stroke-dasharray="59.31" />
				</g>
				<g id="line1-d">
					<path id="line1-d2" fill="none" stroke="#0BB5D9" stroke-width="15" stroke-miterlimit="10" d="M348.802,332.043
						c-2.126-1.392-5.769-2.646-10.171-2.646c-15.181,0-26.412,15.455-26.412,30.631c0,8.215,3.49,14.619,11.839,14.619
						c7.895,0,17.304-7.936,20.342-21.999L348.802,332.043" stroke-dashoffset="129.89" stroke-dasharray="129.89" />
					<path id="line1-d1" fill="none" stroke="#00D633" stroke-width="14" stroke-miterlimit="10" d="M360.286,296.898l-13.589,86" stroke-dashoffset="87.07" stroke-dasharray="87.07" />
				</g>
				<path id="line1-e" fill="none" stroke="#00BECE" stroke-width="14" stroke-miterlimit="10" d="M296.885,369.814
					c-3.688,3.5-13.042,6.917-20.634,6.717c-12.158,0-16.929-7.827-17.658-19.228c0-13.952,7.74-26.985,22.683-28.911
					c8.647,0,15.109,4.375,15.109,12.062c-2.083,11.356-14.484,12.387-31.417,12.007" stroke-dashoffset="150.54" stroke-dasharray="150.54" />
				<g id="line1-r">
					<path id="line1-r2" fill="none" stroke="#8157EE" stroke-width="14" stroke-miterlimit="10" d="M223.307,365.468
						c12.421-38.661,30.968-35.448,30.968-35.448" stroke-dashoffset="50.19" stroke-dasharray="50.19" />
					<path id="line1-r1" fill="none" stroke="#C76EF8" stroke-width="14" stroke-miterlimit="10" d="M220.719,384.915l8.438-63.393" stroke-dashoffset="63.95" stroke-dasharray="63.95" />
				</g>
				<path id="line1-c" fill="none" stroke="#EE7EFE" stroke-width="15" stroke-miterlimit="10" d="M218.364,311.289c-1.927-1.264-7.404-3.016-14.911-3.016c-9.839,0-18.359,2.627-25.459,7.784c-9.941,7.103-16.025,18.682-16.025,32.305c0,17.028,11.36,27.536,29.109,27.536c8.014,0,14.572-1.609,18.224-3.167" stroke-dashoffset="143.82" stroke-dasharray="143.82" />
			</g>
			<g id="credi-line2">
				<g id="line2-i">
					<path id="line2-i1" fill="none" stroke="#EE7EFE" stroke-width="14" stroke-miterlimit="10" d="M370.635,381.643l11.167-58.247" stroke-dashoffset="59.31" stroke-dasharray="59.31" />
					<circle id="cir2-i2" fill="#EE7EFE" cx="384.52" cy="309.04" r="8.78" />
				</g>
				<g id="line2-d">
					<path id="line2-d2" fill="none" stroke="#7D5BEE" stroke-width="15" stroke-miterlimit="10" d="M348.802,332.043
						c-2.126-1.392-5.769-2.646-10.171-2.646c-15.181,0-26.412,15.455-26.412,30.631c0,8.215,3.49,14.619,11.839,14.619
						c7.895,0,17.304-7.936,20.342-21.999L348.802,332.043" stroke-dashoffset="129.89" stroke-dasharray="129.89" />
					<path id="line2-d1" fill="none" stroke="#D875FA" stroke-width="14" stroke-miterlimit="10" d="M360.286,296.898l-13.589,86" stroke-dashoffset="87.07" stroke-dasharray="87.07" />
				</g>
				<path id="line2-e" fill="none" stroke="#478CEE" stroke-width="14" stroke-miterlimit="10" d="M296.885,369.814
					c-3.688,3.5-13.042,6.917-20.634,6.717c-12.158,0-16.929-7.827-17.658-19.228c0-13.952,7.74-26.985,22.683-28.911
					c8.647,0,15.109,4.375,15.109,12.062c-2.083,11.356-14.484,12.387-31.417,12.007" stroke-dashoffset="150.54" stroke-dasharray="150.54" />
				<g id="line2-r">
					<path id="line2-r2" fill="none" stroke="#0CB5D9" stroke-width="14" stroke-miterlimit="10" d="M223.307,365.468
						c12.421-38.661,30.968-35.448,30.968-35.448" stroke-dashoffset="50.19" stroke-dasharray="50.19" />
					<path id="line2-r1" fill="none" stroke="#00C2B1" stroke-width="14" stroke-miterlimit="10" d="M220.719,384.915l8.438-63.393" stroke-dashoffset="63.95" stroke-dasharray="63.95" />
				</g>
				<path id="line2-c" fill="none" stroke="#00E44E" stroke-width="15" stroke-miterlimit="10" d="M218.364,311.289c-1.927-1.264-7.404-3.016-14.911-3.016c-9.839,0-18.359,2.627-25.459,7.784c-9.941,7.103-16.025,18.682-16.025,32.305c0,17.028,11.36,27.536,29.109,27.536c8.014,0,14.572-1.609,18.224-3.167" stroke-dashoffset="143.82" stroke-dasharray="143.82" />
			</g>
			<g id="credi-line3">
				<g id="line3-i">
					<path id="line3-i1" fill="none" stroke="#FCF8FF" stroke-width="14" stroke-miterlimit="10" d="M370.635,381.643l11.167-58.247" stroke-dashoffset="59.31" stroke-dasharray="59.31" />
					<circle id="cir3-i2" fill="#FCF8FF" cx="384.52" cy="309.04" r="8.78" />
				</g>
				<g id="line3-d">
					<path id="line3-d2" fill="none" stroke="#FCF8FF" stroke-width="15" stroke-miterlimit="10" d="M348.802,332.043
						c-2.126-1.392-5.769-2.646-10.171-2.646c-15.181,0-26.412,15.455-26.412,30.631c0,8.215,3.49,14.619,11.839,14.619
						c7.895,0,17.304-7.936,20.342-21.999L348.802,332.043" stroke-dashoffset="129.89" stroke-dasharray="129.89" />
					<path id="line3-d1" fill="none" stroke="#FCF8FF" stroke-width="14" stroke-miterlimit="10" d="M360.286,296.898l-13.589,86" stroke-dashoffset="87.07" stroke-dasharray="87.07" />
				</g>
				<path id="line3-e" fill="none" stroke="#FCF8FF" stroke-width="14" stroke-miterlimit="10" d="M296.885,369.814
					c-3.688,3.5-13.042,6.917-20.634,6.717c-12.158,0-16.929-7.827-17.658-19.228c0-13.952,7.74-26.985,22.683-28.911
					c8.647,0,15.109,4.375,15.109,12.062c-2.083,11.356-14.484,12.387-31.417,12.007" stroke-dashoffset="150.54" stroke-dasharray="150.54" />
				<g id="line3-r">
					<path id="line3-r2" fill="none" stroke="#FCF8FF" stroke-width="14" stroke-miterlimit="10" d="M223.307,365.468
						c12.421-38.661,30.968-35.448,30.968-35.448" stroke-dashoffset="50.19" stroke-dasharray="50.19" />
					<path id="line3-r1" fill="none" stroke="#FCF8FF" stroke-width="14" stroke-miterlimit="10" d="M220.719,384.915l8.438-63.393" stroke-dashoffset="63.95" stroke-dasharray="63.95" />
				</g>
				<path id="line3-c" fill="none" stroke="#FCF8FF" stroke-width="15" stroke-miterlimit="10" d="M218.364,311.289c-1.927-1.264-7.404-3.016-14.911-3.016c-9.839,0-18.359,2.627-25.459,7.784c-9.941,7.103-16.025,18.682-16.025,32.305c0,17.028,11.36,27.536,29.109,27.536c8.014,0,14.572-1.609,18.224-3.167" stroke-dashoffset="143.82" stroke-dasharray="143.82" />
			</g>
		</g>
		<g id="soluciones" clip-path="url(#clip_soluciones)">
			<g id="soluciones-colorline">
				<path fill="none" stroke="#E97DFD" stroke-width="4" stroke-miterlimit="10" d="M188.455,401.366
					c-0.592-0.321-1.95-0.875-3.656-0.875c-3.092,0-5.602,1.646-5.602,4.407c0,1.712,1.341,2.868,3.115,3.766l0.391,0.177
					c1.743,0.914,2.784,2.061,2.784,3.805c0,2.87-2.317,4.634-5.527,4.634c-1.743,0-4.519-1.164-5.157-1.674" stroke-dashoffset="35.93" stroke-dasharray="35.93"></path>
				<path fill="none" stroke="#C681FC" stroke-width="5" stroke-miterlimit="10" d="M203.941,401.25
					c-1.985,0-3.84,0.764-5.171,2.051c-1.766,1.701-2.748,4.45-2.748,7.068c0,3.294,1.985,6.065,5.781,6.065
					c2.138,0,3.927-0.763,5.258-2.072c1.723-1.702,2.661-4.407,2.661-7.025C209.721,403.977,207.867,401.25,203.941,401.25" stroke-dashoffset="45.91" stroke-dasharray="45.91"></path>
				<path fill="none" stroke="#A181F9" stroke-width="5" stroke-miterlimit="10" d="M222.406,398.616l-3.917,16.573
					c0,0-0.438,1.938,2.563,1.938h8.167" stroke-dashoffset="28.92" stroke-dasharray="28.92"></path>
				<path fill="none" stroke="#8181F7" stroke-width="5" stroke-miterlimit="10" d="M237.842,398.884l-1.671,10.005
					c-0.114,0.808-0.206,1.667-0.206,2.423c0,3.699,1.946,5.419,4.851,5.419c3.777,0,5.928-2.345,6.82-7.634l1.716-10.213" stroke-dashoffset="42.55" stroke-dasharray="42.55"></path>
				<path fill="none" stroke="#6281F5" stroke-width="5" stroke-miterlimit="10" d="M271.687,401.515
					c-0.455-0.311-1.747-0.742-3.517-0.742c-2.321,0-4.33,0.646-6.004,1.914c-2.344,1.747-3.779,4.593-3.779,7.942
					c0,4.186,2.678,6.77,6.864,6.77c1.89,0,3.605-0.367,4.467-0.75" stroke-dashoffset="34.63" stroke-dasharray="34.63"></path>
				<path fill="none" stroke="#4C8DD9" stroke-width="5" stroke-miterlimit="10" d="M281.031,398.929l-3.625,19.588" stroke-dashoffset="19.92" stroke-dasharray="19.92"></path>
				<path fill="none" stroke="#3F99BC" stroke-width="5" stroke-miterlimit="10" d="M297.876,401.25
					c-1.985,0-3.84,0.764-5.171,2.051c-1.766,1.701-2.748,4.45-2.748,7.068c0,3.294,1.985,6.065,5.781,6.065
					c2.138,0,3.927-0.763,5.258-2.072c1.723-1.702,2.661-4.407,2.661-7.025C303.656,403.977,301.803,401.25,297.876,401.25" stroke-dashoffset="45.91" stroke-dasharray="45.91"></path>
				<path fill="none" stroke="#2DA995" stroke-width="5" stroke-miterlimit="10" d="M312.281,419.023l3.469-17.469
					c0,0,1.156-2.188,2.031,0l4.263,13.484c0,0,1.19,2.375,2.503,0.359l2.797-16.469" stroke-dashoffset="54.94" stroke-dasharray="54.94"></path>
				<g>
					<path fill="none" stroke="#16BF61" stroke-width="4" stroke-miterlimit="10" d="M347.719,400.632h-8.563
						c0,0-1.042,0.091-1.281,1.672c-0.542,2.667-2.722,14.014-2.722,14.014s-0.497,1.146,1.461,1.101l8.771,0.001" stroke-dashoffset="36.09" stroke-dasharray="36.09"></path>
					<path fill="none" stroke="#16BF61" stroke-width="4" stroke-miterlimit="10" d="M337.781,408.366h8.188" stroke-dashoffset="8.19" stroke-dasharray="8.19"></path>
				</g>
				<path fill="none" stroke="#01D331" stroke-width="4" stroke-miterlimit="10" d="M364.516,401.366
					c-0.592-0.321-1.95-0.875-3.656-0.875c-3.092,0-5.602,1.646-5.602,4.407c0,1.712,1.341,2.868,3.115,3.766l0.391,0.177
					c1.743,0.914,2.784,2.061,2.784,3.805c0,2.87-2.317,4.634-5.527,4.634c-1.743,0-4.519-1.164-5.157-1.674" stroke-dashoffset="35.93" stroke-dasharray="35.93"></path>
			</g>
			<g id="soluciones-whiteline">
				<path fill="none" stroke="#FCF8FF" stroke-width="4" stroke-miterlimit="10" d="M188.455,401.366
					c-0.592-0.321-1.95-0.875-3.656-0.875c-3.092,0-5.602,1.646-5.602,4.407c0,1.712,1.341,2.868,3.115,3.766l0.391,0.177
					c1.743,0.914,2.784,2.061,2.784,3.805c0,2.87-2.317,4.634-5.527,4.634c-1.743,0-4.519-1.164-5.157-1.674" stroke-dashoffset="35.93" stroke-dasharray="35.93"></path>
				<path fill="none" stroke="#FCF8FF" stroke-width="5" stroke-miterlimit="10" d="M203.941,401.25
					c-1.985,0-3.84,0.764-5.171,2.051c-1.766,1.701-2.748,4.45-2.748,7.068c0,3.294,1.985,6.065,5.781,6.065
					c2.138,0,3.927-0.763,5.258-2.072c1.723-1.702,2.661-4.407,2.661-7.025C209.721,403.977,207.867,401.25,203.941,401.25" stroke-dashoffset="45.91" stroke-dasharray="45.91"></path>
				<path fill="none" stroke="#FCF8FF" stroke-width="5" stroke-miterlimit="10" d="M222.406,398.616l-3.917,16.573
					c0,0-0.438,1.938,2.563,1.938h8.167" stroke-dashoffset="28.92" stroke-dasharray="28.92"></path>
				<path fill="none" stroke="#FCF8FF" stroke-width="5" stroke-miterlimit="10" d="M237.842,398.884l-1.671,10.005
					c-0.114,0.808-0.206,1.667-0.206,2.423c0,3.699,1.946,5.419,4.851,5.419c3.777,0,5.928-2.345,6.82-7.634l1.716-10.213" stroke-dashoffset="42.55" stroke-dasharray="42.55"></path>
				<path fill="none" stroke="#FCF8FF" stroke-width="5" stroke-miterlimit="10" d="M271.687,401.515
					c-0.455-0.311-1.747-0.742-3.517-0.742c-2.321,0-4.33,0.646-6.004,1.914c-2.344,1.747-3.779,4.593-3.779,7.942
					c0,4.186,2.678,6.77,6.864,6.77c1.89,0,3.605-0.367,4.467-0.75" stroke-dashoffset="34.63" stroke-dasharray="34.63"></path>
				<path fill="none" stroke="#FCF8FF" stroke-width="5" stroke-miterlimit="10" d="M281.031,398.929l-3.625,19.588" stroke-dashoffset="19.92" stroke-dasharray="19.92"></path>
				<path fill="none" stroke="#FCF8FF" stroke-width="5" stroke-miterlimit="10" d="M297.876,401.25
					c-1.985,0-3.84,0.764-5.171,2.051c-1.766,1.701-2.748,4.45-2.748,7.068c0,3.294,1.985,6.065,5.781,6.065
					c2.138,0,3.927-0.763,5.258-2.072c1.723-1.702,2.661-4.407,2.661-7.025C303.656,403.977,301.803,401.25,297.876,401.25" stroke-dashoffset="45.91" stroke-dasharray="45.91"></path>
				<path fill="none" stroke="#FCF8FF" stroke-width="5" stroke-miterlimit="10" d="M312.281,419.023l3.469-17.469
					c0,0,1.156-2.188,2.031,0l4.263,13.484c0,0,1.19,2.375,2.503,0.359l2.797-16.469" stroke-dashoffset="54.94" stroke-dasharray="54.94"></path>
				<g>
					<path fill="none" stroke="#FCF8FF" stroke-width="4" stroke-miterlimit="10" d="M347.719,400.632h-8.563
						c0,0-1.042,0.091-1.281,1.672c-0.542,2.667-2.722,14.014-2.722,14.014s-0.497,1.146,1.461,1.101l8.771,0.001" stroke-dashoffset="36.09" stroke-dasharray="36.09"></path>
					<path fill="none" stroke="#FCF8FF" stroke-width="4" stroke-miterlimit="10" d="M337.781,408.366h8.188" stroke-dashoffset="8.19" stroke-dasharray="8.19"></path>
				</g>
				<path fill="none" stroke="#FCF8FF" stroke-width="4" stroke-miterlimit="10" d="M364.516,401.366
					c-0.592-0.321-1.95-0.875-3.656-0.875c-3.092,0-5.602,1.646-5.602,4.407c0,1.712,1.341,2.868,3.115,3.766l0.391,0.177
					c1.743,0.914,2.784,2.061,2.784,3.805c0,2.87-2.317,4.634-5.527,4.634c-1.743,0-4.519-1.164-5.157-1.674" stroke-dashoffset="35.93" stroke-dasharray="35.93"></path>
			</g>
		</g>
	</g>
</g>
<style>
	#credi-animation #logo {
		-webkit-transform: translate(0px, 79px) rotate(0deg);
		    -ms-transform: translate(0px, 79px) rotate(0deg);
		        transform: translate(0px, 79px) rotate(0deg);
		-webkit-animation: moveLogoEl 1s cubic-bezier(0.455, 0.03, 0.515, 0.955) 2s forwards;
		        animation: moveLogoEl 1s cubic-bezier(0.455, 0.03, 0.515, 0.955) 2s forwards;
	}
	#credi-animation #logo-elements {
		-webkit-transform-origin: 277.26px 176.83px;
		    -ms-transform-origin: 277.26px 176.83px;
		        transform-origin: 277.26px 176.83px;
		-webkit-transform: translate(0px, 0px) rotate(-716deg);
		    -ms-transform: translate(0px, 0px) rotate(-716deg);
		        transform: translate(0px, 0px) rotate(-716deg);
		-webkit-animation: moveLogoEl 3s cubic-bezier(0.455, 0.03, 0.515, 0.955) 0s forwards;
		        animation: moveLogoEl 3s cubic-bezier(0.455, 0.03, 0.515, 0.955) 0s forwards;
	}

	#credi-animation #elem1 {
		-webkit-transform-origin: 321.5px 112px;
		    -ms-transform-origin: 321.5px 112px;
		        transform-origin: 321.5px 112px;
		-webkit-transform: translate(123px, -50px) rotate(13deg);
		    -ms-transform: translate(123px, -50px) rotate(13deg);
		        transform: translate(123px, -50px) rotate(13deg);
		-webkit-animation: moveLogoEl 3s ease-in-out 0s forwards;
		        animation: moveLogoEl 3s ease-in-out 0s forwards;
	}
	#credi-animation #elem2 {
		-webkit-transform-origin: 255.2px 108px;
		    -ms-transform-origin: 255.2px 108px;
		        transform-origin: 255.2px 108px;
		-webkit-transform: translate(0px, -130px) rotate(3deg);
		    -ms-transform: translate(0px, -130px) rotate(3deg);
		        transform: translate(0px, -130px) rotate(3deg);
		-webkit-animation: moveLogoEl 3s ease-in-out 0s forwards;
		        animation: moveLogoEl 3s ease-in-out 0s forwards;
	}
	#credi-animation #elem3 {
		-webkit-transform-origin: 205px 160.8px;
		    -ms-transform-origin: 205px 160.8px;
		        transform-origin: 205px 160.8px;
		-webkit-transform: translate(-115px, -70px) rotate(-3deg);
		    -ms-transform: translate(-115px, -70px) rotate(-3deg);
		        transform: translate(-115px, -70px) rotate(-3deg);
		-webkit-animation: moveLogoEl 3s ease-in-out 0s forwards;
		        animation: moveLogoEl 3s ease-in-out 0s forwards;
	}
	#credi-animation #elem4 {
		-webkit-transform-origin: 219.5px 225px;
		    -ms-transform-origin: 219.5px 225px;
		        transform-origin: 219.5px 225px;
		-webkit-transform: translate(-120px, 55px) rotate(-3deg);
		    -ms-transform: translate(-120px, 55px) rotate(-3deg);
		        transform: translate(-120px, 55px) rotate(-3deg);
		-webkit-animation: moveLogoEl 3s ease-in-out 0s forwards;
		        animation: moveLogoEl 3s ease-in-out 0s forwards;
	}
	#credi-animation #elem5 {
		-webkit-transform-origin: 281.5px 248px;
		    -ms-transform-origin: 281.5px 248px;
		        transform-origin: 281.5px 248px;
		-webkit-transform: translate(0px, 130px) rotate(-5deg);
		    -ms-transform: translate(0px, 130px) rotate(-5deg);
		        transform: translate(0px, 130px) rotate(-5deg);
		-webkit-animation: moveLogoEl 3s ease-in-out 0s forwards;
		        animation: moveLogoEl 3s ease-in-out 0s forwards;
	}
	#credi-animation #elem6 {
		-webkit-transform-origin: 342px 218.2px;
		    -ms-transform-origin: 342px 218.2px;
		        transform-origin: 342px 218.2px;
		-webkit-transform: translate(105px, 50px) rotate(-4deg);
		    -ms-transform: translate(105px, 50px) rotate(-4deg);
		        transform: translate(105px, 50px) rotate(-4deg);
		-webkit-animation: moveLogoEl 3s ease-in-out 0s forwards;
		        animation: moveLogoEl 3s ease-in-out 0s forwards;
	}

	#credi-animation #line1-c {
		-webkit-animation: drawIn 0.41s ease-in 2s forwards, fadeOut 0.01s ease-in-out 2.81s forwards;
		        animation: drawIn 0.41s ease-in 2s forwards, fadeOut 0.01s ease-in-out 2.81s forwards;
	}
	#credi-animation #line1-r1 {
		-webkit-animation: drawIn 0.14s linear 2.41s forwards, fadeOut 0.01s ease-in-out 2.95s forwards;
		        animation: drawIn 0.14s linear 2.41s forwards, fadeOut 0.01s ease-in-out 2.95s forwards;
	}
	#credi-animation #line1-r2 {
		-webkit-animation: drawIn 0.18s linear 2.55s forwards, fadeOut 0.01s ease-in-out 3.38s forwards;
		        animation: drawIn 0.18s linear 2.55s forwards, fadeOut 0.01s ease-in-out 3.38s forwards;
	}
	#credi-animation #line1-e {
		-webkit-animation: drawIn 0.43s linear 2.98s forwards, fadeOut 0.01s ease-in-out 3.81s forwards;
		        animation: drawIn 0.43s linear 2.98s forwards, fadeOut 0.01s ease-in-out 3.81s forwards;
	}
	#credi-animation #line1-d1 {
		-webkit-animation: drawIn 0.25s linear 3.23s forwards, fadeOut 0.01s ease-in-out 3.88s forwards;
		        animation: drawIn 0.25s linear 3.23s forwards, fadeOut 0.01s ease-in-out 3.88s forwards;
	}
	#credi-animation #line1-d2 {
		-webkit-animation: drawIn 0.37s linear 3.48s forwards, fadeOut 0.01s ease-in-out 4.15s forwards;
		        animation: drawIn 0.37s linear 3.48s forwards, fadeOut 0.01s ease-in-out 4.15s forwards;
	}
	#credi-animation #line1-i1 {
		-webkit-animation: drawIn 0.17s ease-out 3.75s forwards, fadeOut 0.01s ease-in-out 4.32s forwards;
		        animation: drawIn 0.17s ease-out 3.75s forwards, fadeOut 0.01s ease-in-out 4.32s forwards;
	}
	#credi-animation #cir2-i2 {
		-webkit-transform-origin: 384.52px 309.04px;
		    -ms-transform-origin: 384.52px 309.04px;
		        transform-origin: 384.52px 309.04px;
		-webkit-transform: scale(0, 0);
		    -ms-transform: scale(0, 0);
		        transform: scale(0, 0);
		-webkit-animation: scaleIn 0.15s ease-out 4.02s forwards, fadeOut 0.01s ease-in-out 4.37s forwards;
		        animation: scaleIn 0.15s ease-out 4.02s forwards, fadeOut 0.01s ease-in-out 4.37s forwards;
	}

	#credi-animation #line2-c {
		-webkit-animation: drawIn 0.41s ease-in 2.2s forwards, fadeOut 0.01s ease-in-out 2.81s forwards;
		        animation: drawIn 0.41s ease-in 2.2s forwards, fadeOut 0.01s ease-in-out 2.81s forwards;
	}
	#credi-animation #line2-r1 {
		-webkit-animation: drawIn 0.14s linear 2.61s forwards, fadeOut 0.01s ease-in-out 2.95s forwards;
		        animation: drawIn 0.14s linear 2.61s forwards, fadeOut 0.01s ease-in-out 2.95s forwards;
	}
	#credi-animation #line2-r2 {
		-webkit-animation: drawIn 0.18s linear 2.75s forwards, fadeOut 0.01s ease-in-out 3.38s forwards;
		        animation: drawIn 0.18s linear 2.75s forwards, fadeOut 0.01s ease-in-out 3.38s forwards;
	}
	#credi-animation #line2-e {
		-webkit-animation: drawIn 0.43s linear 3.18s forwards, fadeOut 0.01s ease-in-out 3.81s forwards;
		        animation: drawIn 0.43s linear 3.18s forwards, fadeOut 0.01s ease-in-out 3.81s forwards;
	}
	#credi-animation #line2-d1 {
		-webkit-animation: drawIn 0.25s linear 3.43s forwards, fadeOut 0.01s ease-in-out 3.88s forwards;
		        animation: drawIn 0.25s linear 3.43s forwards, fadeOut 0.01s ease-in-out 3.88s forwards;
	}
	#credi-animation #line2-d2 {
		-webkit-animation: drawIn 0.37s linear 3.68s forwards, fadeOut 0.01s ease-in-out 4.15s forwards;
		        animation: drawIn 0.37s linear 3.68s forwards, fadeOut 0.01s ease-in-out 4.15s forwards;
	}
	#credi-animation #line2-i1 {
		-webkit-animation: drawIn 0.17s ease-out 3.95s forwards, fadeOut 0.01s ease-in-out 4.32s forwards;
		        animation: drawIn 0.17s ease-out 3.95s forwards, fadeOut 0.01s ease-in-out 4.32s forwards;
	}

	#credi-animation #line3-c {
		-webkit-animation: drawIn 0.41s ease-in 2.4s forwards;
		        animation: drawIn 0.41s ease-in 2.4s forwards;
	}
	#credi-animation #line3-r1 {
		-webkit-animation: drawIn 0.14s linear 2.81s forwards;
		        animation: drawIn 0.14s linear 2.81s forwards;
	}
	#credi-animation #line3-r2 {
		-webkit-animation: drawIn 0.18s linear 2.95s forwards;
		        animation: drawIn 0.18s linear 2.95s forwards;
	}
	#credi-animation #line3-e {
		-webkit-animation: drawIn 0.43s linear 3.38s forwards;
		        animation: drawIn 0.43s linear 3.38s forwards;
	}
	#credi-animation #line3-d1 {
		-webkit-animation: drawIn 0.25s linear 3.63s forwards;
		        animation: drawIn 0.25s linear 3.63s forwards;
	}
	#credi-animation #line3-d2 {
		-webkit-animation: drawIn 0.37s linear 3.88s forwards;
		        animation: drawIn 0.37s linear 3.88s forwards;
	}
	#credi-animation #line3-i1 {
		-webkit-animation: drawIn 0.17s ease-out 4.15s forwards;
		        animation: drawIn 0.17s ease-out 4.15s forwards;
	}
	#credi-animation #cir3-i2 {
		-webkit-transform-origin: 384.52px 309.04px;
		    -ms-transform-origin: 384.52px 309.04px;
		        transform-origin: 384.52px 309.04px;
		-webkit-transform: scale(0, 0);
		    -ms-transform: scale(0, 0);
		        transform: scale(0, 0);
		-webkit-animation: scaleIn 0.15s ease-out 4.22s forwards;
		        animation: scaleIn 0.15s ease-out 4.22s forwards;
	}

#credi-animation #soluciones-colorline path {
		-webkit-animation: drawIn 1s ease-in-out 3.5s forwards, fadeOut 0.1s ease-in-out 5s forwards;
		        animation: drawIn 1s ease-in-out 3.5s forwards, fadeOut 0.1s ease-in-out 5s forwards;
	}
#credi-animation #soluciones-whiteline path {
		-webkit-animation: drawIn 1s ease-in-out 4s forwards;
		        animation: drawIn 1s ease-in-out 4s forwards;
	}


	@-webkit-keyframes moveLogoEl {
		to {
			-webkit-transform: translate(0px, 0px) rotate(0deg);
			        transform: translate(0px, 0px) rotate(0deg);
		}
	}


	@keyframes moveLogoEl {
		to {
			-webkit-transform: translate(0px, 0px) rotate(0deg);
			        transform: translate(0px, 0px) rotate(0deg);
		}
	}

	@-webkit-keyframes drawIn {
		to {
			stroke-dashoffset: 0px;
		}
	}

	@keyframes drawIn {
		to {
			stroke-dashoffset: 0px;
		}
	}

	@-webkit-keyframes scaleIn {
		to {
			-webkit-transform: scale(1, 1);
			        transform: scale(1, 1);
		}
	}

	@keyframes scaleIn {
		to {
			-webkit-transform: scale(1, 1);
			        transform: scale(1, 1);
		}
	}

	@-webkit-keyframes fadeOut {
		to {
			opacity: 0;
		}
	}

	@keyframes fadeOut {
		to {
			opacity: 0;
		}
	}
</style>
</svg>