<svg id="fhc-icon4" xmlns="http://www.w3.org/2000/svg" viewBox="0 0 256 256">
  <g>
    <g id="stars">
      <g>
        <path d="M198.31,120.56l3.11-.93,6.87,3.15-.74-7.26,5.1-5.15-7.37-2.17-2.75-3C202.75,109.16,202.25,115.29,198.31,120.56Z" fill="#dddedf"/>
        <path d="M215.93,109.18a1.5,1.5,0,0,0-1.21-1L206.78,107l-3.55-7.2a1.5,1.5,0,0,0-2.69,0L197,107l-8,1.15a1.52,1.52,0,0,0-1.21,1,1.5,1.5,0,0,0,.38,1.53l5.75,5.61-1.36,7.91a1.51,1.51,0,0,0,1.48,1.75,1.57,1.57,0,0,0,.7-.17l7.1-3.74,7.11,3.74a1.51,1.51,0,0,0,1.58-.12,1.48,1.48,0,0,0,.59-1.46l-1.35-7.91,5.74-5.61A1.48,1.48,0,0,0,215.93,109.18Zm-23.45,1.51,5.72-.83a1.5,1.5,0,0,0,1.13-.82l2.55-5.18.65,1.31,1.91,3.87a1.5,1.5,0,0,0,1.13.82l5.71.83-4.13,4a1.48,1.48,0,0,0-.43,1.32l1,5.7-5.11-2.69a1.45,1.45,0,0,0-.7-.17,1.38,1.38,0,0,0-.69.17l-2.88,1.51-2.24,1.18,1-5.7a1.51,1.51,0,0,0-.43-1.32Z" fill="#3f4347"/>
      </g>
      <g>
        <path d="M161.83,112.55l7.59-2.37L179.58,116l-.71-13.13,7.37-7.94-11.39-2.79-5-6.4C170.41,92.18,169.94,103.54,161.83,112.55Z" fill="#dddedf"/>
        <path d="M180.09,104.12,189,95.45a1.48,1.48,0,0,0,.38-1.53,1.52,1.52,0,0,0-1.21-1l-12.29-1.78L170.37,80a1.51,1.51,0,0,0-1.35-.83,1.49,1.49,0,0,0-1.34.83l-5.5,11.14-12.29,1.78a1.52,1.52,0,0,0-1.21,1,1.5,1.5,0,0,0,.38,1.53l8.89,8.67-2.1,12.24a1.5,1.5,0,0,0,2.18,1.58l11-5.78,11,5.78a1.45,1.45,0,0,0,.7.17,1.49,1.49,0,0,0,.88-.28,1.51,1.51,0,0,0,.6-1.47Zm-26.76-8.69L163.39,94a1.48,1.48,0,0,0,1.13-.82L169,84l.84,1.7,3.66,7.41a1.48,1.48,0,0,0,1.13.82l10.06,1.47-7.28,7.09a1.52,1.52,0,0,0-.43,1.33l1.72,10-9-4.73a1.53,1.53,0,0,0-1.4,0l-6.49,3.41-2.51,1.32,1.72-10a1.5,1.5,0,0,0-.43-1.33Z" fill="#3f4347"/>
      </g>
      <g>
        <path d="M117.15,102.45,128,98.84l14.54,6.62-2-16.21L151.23,78l-15.74-2.62-6.63-11.51C129.83,72.28,129.84,89.48,117.15,102.45Z" fill="#dddedf"/>
        <path d="M113.79,89.81l-2.85,16.57a1.53,1.53,0,0,0,.6,1.47,1.5,1.5,0,0,0,1.58.11L128,100.14,142.88,108a1.45,1.45,0,0,0,.7.17,1.49,1.49,0,0,0,.88-.28,1.53,1.53,0,0,0,.6-1.47l-2.85-16.57,12-11.73a1.49,1.49,0,0,0,.38-1.54,1.51,1.51,0,0,0-1.21-1L136.78,73.1,129.34,58a1.5,1.5,0,0,0-1.34-.84,1.52,1.52,0,0,0-1.35.84L119.22,73.1l-16.64,2.42a1.51,1.51,0,0,0-1.21,1,1.49,1.49,0,0,0,.38,1.54ZM120.43,76a1.5,1.5,0,0,0,1.13-.82L128,62.08l.86,1.75,5.58,11.31a1.5,1.5,0,0,0,1.13.82L150,78.05,139.55,88.22a1.51,1.51,0,0,0-.43,1.32l2.46,14.35L128.7,97.12a1.51,1.51,0,0,0-1.4,0l-10.15,5.33-2.73,1.44,2.46-14.35a1.48,1.48,0,0,0-.44-1.32L106,78.05Z" fill="#3f4347"/>
      </g>
      <g>
        <path d="M79.42,112.75,87,110.2l11.22,5.57-2-12.4L103.8,95,92.5,92.28l-4.92-7C88.2,91.65,87.9,103.49,79.42,112.75Z" fill="#dddedf"/>
        <path d="M98.67,118.11a1.49,1.49,0,0,0,.88-.28,1.53,1.53,0,0,0,.6-1.47l-2.1-12.24,8.89-8.67a1.5,1.5,0,0,0,.38-1.53,1.52,1.52,0,0,0-1.21-1L93.82,91.11,88.32,80A1.49,1.49,0,0,0,87,79.14a1.51,1.51,0,0,0-1.35.83L80.14,91.11,67.85,92.89a1.5,1.5,0,0,0-1.21,1A1.48,1.48,0,0,0,67,95.45l8.89,8.67-2.1,12.24a1.49,1.49,0,0,0,.6,1.47,1.52,1.52,0,0,0,1.58.11l11-5.78,11,5.78A1.45,1.45,0,0,0,98.67,118.11ZM71.29,95.43,81.35,94a1.48,1.48,0,0,0,1.13-.82L87,84l.6,1.22,3.9,7.89a1.48,1.48,0,0,0,1.13.82l10.06,1.47-7.28,7.09a1.47,1.47,0,0,0-.43,1.33l1.72,10-9-4.73a1.53,1.53,0,0,0-1.4,0l-6.86,3.61-2.14,1.12,1.72-10a1.52,1.52,0,0,0-.43-1.33Z" fill="#3f4347"/>
      </g>
      <g>
        <path d="M50.69,120.48l3.43-.09,7.25,3.73L61,116l4-5.38-6.8-1.75-3.4-3.49C55.05,109.35,54.51,115.32,50.69,120.48Z" fill="#dddedf"/>
        <path d="M67,108.15,59,107l-3.55-7.2a1.5,1.5,0,0,0-2.69,0L49.22,107l-7.94,1.15a1.5,1.5,0,0,0-1.21,1,1.48,1.48,0,0,0,.38,1.53l5.74,5.6-1.35,7.92a1.48,1.48,0,0,0,.59,1.46,1.51,1.51,0,0,0,1.58.12l7.11-3.74,7.1,3.74a1.57,1.57,0,0,0,.7.17,1.51,1.51,0,0,0,1.48-1.75L62,116.32l5.75-5.61a1.5,1.5,0,0,0-.84-2.56Zm-22.23,2.54,5.71-.83a1.5,1.5,0,0,0,1.13-.82l2.56-5.18.74,1.51L56.67,109a1.5,1.5,0,0,0,1.13.82l5.72.83-4.14,4A1.51,1.51,0,0,0,59,116l1,5.7-5.11-2.69a1.38,1.38,0,0,0-.69-.17,1.45,1.45,0,0,0-.7.17l-2.73,1.43-2.38,1.26,1-5.7a1.48,1.48,0,0,0-.43-1.32Z" fill="#3f4347"/>
      </g>
    </g>
    <g id="like-thumb">
      <path d="M133.08,195.81l20,1.7,3.9-5.67-2.62-5,3.61-5.53-2.12-5.59,3.67-5.08L157,164.84l5-5.31-5.17-5.46-7.19,1.15C148.15,168.13,143.92,185.43,133.08,195.81Z" fill="#f1f2f2"/>
      <path d="M161.22,170.48a6.77,6.77,0,0,0-2-4.77,7,7,0,0,0,3.36-5.84c0-3.92-3.5-7.11-7.82-7.11l-18.71.08c2.74-5.3,8.16-16.77,6.17-21.13-2.59-5.69-10.92-4.75-11.27-4.7a1.5,1.5,0,0,0-1.24,1l-4.49,12.76L111,153.92a1.48,1.48,0,0,0-1-.39h-15a1.5,1.5,0,0,0-1.5,1.5v38a1.5,1.5,0,0,0,1.5,1.5h15a1.5,1.5,0,0,0,1.5-1.5v-.33l19.9,6.07a1.62,1.62,0,0,0,.44.07h18.9c4.31,0,7.81-3.2,7.81-7.12a6.76,6.76,0,0,0-2-4.76,7,7,0,0,0,3.35-5.84,6.77,6.77,0,0,0-2-4.77A7,7,0,0,0,161.22,170.48Zm-5.77-3.72a4.15,4.15,0,0,1,2.77,3.72,4.34,4.34,0,0,1-3.81,4,1.49,1.49,0,0,0-1.22,1.32,1.5,1.5,0,0,0,.92,1.55,4.14,4.14,0,0,1,2.77,3.72,4.34,4.34,0,0,1-3.81,4,1.5,1.5,0,0,0-.29,2.87,4.13,4.13,0,0,1,2.76,3.71c0,2.27-2.16,4.12-4.81,4.12H132.05l-20.56-6.28v-32l16-14.82a1.44,1.44,0,0,0,.4-.6l4.28-12.17c1.85,0,6,.19,7.28,3s-3.47,13.78-7.25,20.68a1.48,1.48,0,0,0,0,1.48,1.49,1.49,0,0,0,1.29.74h0l15.78-.07,5.43,0c2.65,0,4.81,1.84,4.81,4.11a4.36,4.36,0,0,1-3.81,4,1.49,1.49,0,0,0-.3,2.86Z" fill="#3f4347"/>
      <polygon points="108.49 190.64 108.49 156.88 108.49 156.53 96.44 156.53 96.44 191.5 108.49 191.5 108.49 190.64" fill="#f4716b"/>
      <path d="M101.9,182.06a4.24,4.24,0,1,0,4.24,4.23A4.24,4.24,0,0,0,101.9,182.06Zm0,5.47a1.24,1.24,0,1,1,1.24-1.24A1.23,1.23,0,0,1,101.9,187.53Z" fill="#3f4347"/>
    </g>
  </g>
  <style>
    #fhc-icon4:hover {
      cursor: pointer;
    }

    #fhc-icon4:hover #like-thumb {
      -webkit-transform-origin: 95px 174px;
          -ms-transform-origin: 95px 174px;
              transform-origin: 95px 174px;
      -webkit-animation: moveLikeThumb 3s ease-in-out 0s infinite;
              animation: moveLikeThumb 3s ease-in-out 0s infinite;
    }

    #fhc-icon4:hover #stars > g:nth-child(3) {
      -webkit-transform-origin: 128px 84px;
          -ms-transform-origin: 128px 84px;
              transform-origin: 128px 84px;
      -webkit-animation: moveStar 3s ease-in-out 0s infinite;
              animation: moveStar 3s ease-in-out 0s infinite;
    }
    #fhc-icon4:hover #stars > g:nth-child(4) {
      -webkit-transform-origin: 87px 99px;
          -ms-transform-origin: 87px 99px;
              transform-origin: 87px 99px;
      -webkit-animation: moveStar 3s ease-in-out 0.2s infinite;
              animation: moveStar 3s ease-in-out 0.2s infinite;
    }
    #fhc-icon4:hover #stars > g:nth-child(2) {
      -webkit-transform-origin: 169px 99px;
          -ms-transform-origin: 169px 99px;
              transform-origin: 169px 99px;
      -webkit-animation: moveStar 3s ease-in-out 0.2s infinite;
              animation: moveStar 3s ease-in-out 0.2s infinite;
    }
    #fhc-icon4:hover #stars > g:nth-child(1) {
      -webkit-transform-origin: 201.9px 112.8px;
          -ms-transform-origin: 201.9px 112.8px;
              transform-origin: 201.9px 112.8px;
      -webkit-animation: moveStar 3s ease-in-out 0.4s infinite;
              animation: moveStar 3s ease-in-out 0.4s infinite;
    }
    #fhc-icon4:hover #stars > g:nth-child(5) {
      -webkit-transform-origin: 54.1px 112.8px;
          -ms-transform-origin: 54.1px 112.8px;
              transform-origin: 54.1px 112.8px;
      -webkit-animation: moveStar 3s ease-in-out 0.4s infinite;
              animation: moveStar 3s ease-in-out 0.4s infinite;
    }

    @-webkit-keyframes moveLikeThumb {
      16% {
        -webkit-transform: translate(0px, -8px) rotate(-10deg);
                transform: translate(0px, -8px) rotate(-10deg);
      }
      32% {
        -webkit-transform: translate(0px, 3px) rotate(4deg);
                transform: translate(0px, 3px) rotate(4deg);
      }
      42% {
        -webkit-transform: translate(0px, -1px) rotate(-2deg);
                transform: translate(0px, -1px) rotate(-2deg);
      }
      53%, 100% {
        -webkit-transform: translate(0px, 0px) rotate(0deg);
                transform: translate(0px, 0px) rotate(0deg);
      }
    }

    @keyframes moveLikeThumb {
      16% {
        -webkit-transform: translate(0px, -8px) rotate(-10deg);
                transform: translate(0px, -8px) rotate(-10deg);
      }
      32% {
        -webkit-transform: translate(0px, 3px) rotate(4deg);
                transform: translate(0px, 3px) rotate(4deg);
      }
      42% {
        -webkit-transform: translate(0px, -1px) rotate(-2deg);
                transform: translate(0px, -1px) rotate(-2deg);
      }
      53%, 100% {
        -webkit-transform: translate(0px, 0px) rotate(0deg);
                transform: translate(0px, 0px) rotate(0deg);
      }
    }

    @-webkit-keyframes moveStar {
      16% {
        -webkit-transform: scale(0, 0);
                transform: scale(0, 0);
      }
      53%, 100% {
        -webkit-transform: scale(1, 1);
                transform: scale(1, 1);
      }
    }

    @keyframes moveStar {
      16% {
        -webkit-transform: scale(0, 0);
                transform: scale(0, 0);
      }
      53%, 100% {
        -webkit-transform: scale(1, 1);
                transform: scale(1, 1);
      }
    }
  </style>
</svg>
